M48
;Layer_Color=9474304
;FILE_FORMAT=2:4
INCH,TZ
;TYPE=PLATED
T1F00S00C0.0160
T2F00S00C0.0354
%
T01
X21850Y4600
X21800Y7700
X22000Y9850
X23450Y10400
X23550Y9050
X24950Y9850
X25750Y10400
X24150Y6350
X24500Y3050
X24950Y17600
X25950Y17000
X23450Y18350
X21400
X21200Y17600
X22000Y17000
X23450Y24550
X25950
X24950Y29700
X23300Y30150
X21950Y29750
X27209Y30150
T02
X22900Y1750
X23900
X23900Y31000
X22900
Y39500
X23900
M30
