  0
SECTION
  2
HEADER
  9
$ACADVER
  1
AC1006
  9
$EXTMIN
 10
0.000000
 20
0.000000
 30
0.000000
  9
$EXTMAX
 10
820.000000
 20
437.000000
 30
0.000000
  0
ENDSEC
  0
SECTION
  2
ENTITIES
  0
POLYLINE
  8
0
 66
1
 70
1
  0
VERTEX
  8
0
 10
402.749893
 20
392.250000
 42
0.061756
  0
VERTEX
  8
0
 10
400.332927
 20
388.994637
 42
0.015722
  0
VERTEX
  8
0
 10
397.268607
 20
383.163679
 42
0.010643
  0
VERTEX
  8
0
 10
393.181507
 20
374.278536
 42
0.002861
  0
VERTEX
  8
0
 10
387.075087
 20
360.000000
 42
-0.012951
  0
VERTEX
  8
0
 10
381.091319
 20
346.754043
 42
-0.026027
  0
VERTEX
  8
0
 10
375.570649
 20
336.702200
 42
-0.022230
  0
VERTEX
  8
0
 10
368.492132
 20
326.327511
 42
-0.007111
  0
VERTEX
  8
0
 10
357.081111
 20
311.545831
 42
0.005522
  0
VERTEX
  8
0
 10
346.288058
 20
297.656180
 42
0.048412
  0
VERTEX
  8
0
 10
342.200557
 20
291.031031
 42
0.143930
  0
VERTEX
  8
0
 10
341.479614
 20
286.835091
 42
0.188354
  0
VERTEX
  8
0
 10
343.288317
 20
283.428423
 42
0.012879
  0
VERTEX
  8
0
 10
344.371725
 20
282.544024
 42
0.013015
  0
VERTEX
  8
0
 10
345.495526
 20
281.719774
 42
0.012908
  0
VERTEX
  8
0
 10
346.509791
 20
281.053835
 42
0.050389
  0
VERTEX
  8
0
 10
347.182868
 20
280.724980
 42
-0.459637
  0
VERTEX
  8
0
 10
347.968937
 20
278.606704
 42
-0.008726
  0
VERTEX
  8
0
 10
341.333873
 20
267.119572
 42
-0.016893
  0
VERTEX
  8
0
 10
333.293251
 20
254.712784
 42
-0.018661
  0
VERTEX
  8
0
 10
324.682479
 20
243.294303
 42
0.008307
  0
VERTEX
  8
0
 10
322.122420
 20
240.041810
 42
0.011778
  0
VERTEX
  8
0
 10
319.962978
 20
237.059212
 42
0.007963
  0
VERTEX
  8
0
 10
318.272320
 20
234.518699
 42
0.143792
  0
VERTEX
  8
0
 10
318.000000
 20
233.591356
 42
0.117990
  0
VERTEX
  8
0
 10
318.812336
 20
230.196875
 42
0.083689
  0
VERTEX
  8
0
 10
321.149815
 20
227.036177
 42
0.082619
  0
VERTEX
  8
0
 10
324.428726
 20
224.782514
 42
0.109763
  0
VERTEX
  8
0
 10
327.950340
 20
224.000000
 42
-0.024350
  0
VERTEX
  8
0
 10
328.735817
 20
223.961724
 42
-0.038763
  0
VERTEX
  8
0
 10
329.397912
 20
223.844748
 42
-0.045727
  0
VERTEX
  8
0
 10
329.869598
 20
223.675903
 42
-0.291797
  0
VERTEX
  8
0
 10
330.000000
 20
223.471483
 42
-0.121034
  0
VERTEX
  8
0
 10
329.620552
 20
221.926915
 42
-0.003008
  0
VERTEX
  8
0
 10
326.190513
 20
215.462163
 42
-0.007250
  0
VERTEX
  8
0
 10
322.568758
 20
208.961768
 42
-0.012468
  0
VERTEX
  8
0
 10
319.340709
 20
203.670093
 42
-0.020353
  0
VERTEX
  8
0
 10
317.124529
 20
200.522029
 42
-0.009716
  0
VERTEX
  8
0
 10
314.036696
 20
196.652606
 42
-0.009614
  0
VERTEX
  8
0
 10
310.649994
 20
192.729787
 42
-0.013497
  0
VERTEX
  8
0
 10
307.468481
 20
189.371706
 42
0.008522
  0
VERTEX
  8
0
 10
303.720822
 20
185.494069
 42
0.031354
  0
VERTEX
  8
0
 10
301.554438
 20
182.861837
 42
0.051377
  0
VERTEX
  8
0
 10
300.381832
 20
180.829283
 42
0.105541
  0
VERTEX
  8
0
 10
300.000000
 20
179.040507
 42
0.136406
  0
VERTEX
  8
0
 10
300.755700
 20
176.322009
 42
0.079991
  0
VERTEX
  8
0
 10
302.951517
 20
173.725173
 42
0.070502
  0
VERTEX
  8
0
 10
306.179243
 20
171.663283
 42
0.065174
  0
VERTEX
  8
0
 10
309.939786
 20
170.510173
 42
0.000000
  0
VERTEX
  8
0
 10
313.948978
 20
169.832825
 42
0.000000
  0
VERTEX
  8
0
 10
311.336054
 20
164.666412
 42
-0.022733
  0
VERTEX
  8
0
 10
307.491207
 20
157.851991
 42
-0.021997
  0
VERTEX
  8
0
 10
303.004012
 20
151.337098
 42
-0.019357
  0
VERTEX
  8
0
 10
297.445699
 20
144.545118
 42
-0.011440
  0
VERTEX
  8
0
 10
290.323356
 20
136.860265
 42
0.004511
  0
VERTEX
  8
0
 10
284.412255
 20
130.657003
 42
0.030866
  0
VERTEX
  8
0
 10
281.724795
 20
127.404466
 42
0.065821
  0
VERTEX
  8
0
 10
280.438066
 20
125.034426
 42
0.091740
  0
VERTEX
  8
0
 10
280.000000
 20
122.666969
 42
0.091113
  0
VERTEX
  8
0
 10
280.504588
 20
119.920922
 42
0.115998
  0
VERTEX
  8
0
 10
281.942761
 20
117.793329
 42
0.110339
  0
VERTEX
  8
0
 10
284.242589
 20
116.459279
 42
0.076610
  0
VERTEX
  8
0
 10
287.222506
 20
116.000000
 42
-0.038757
  0
VERTEX
  8
0
 10
288.286087
 20
115.917435
 42
-0.057824
  0
VERTEX
  8
0
 10
289.184111
 20
115.668447
 42
-0.076017
  0
VERTEX
  8
0
 10
289.796221
 20
115.303418
 42
-0.223968
  0
VERTEX
  8
0
 10
290.000000
 20
114.871310
 42
-0.146377
  0
VERTEX
  8
0
 10
289.451226
 20
113.036946
 42
-0.005831
  0
VERTEX
  8
0
 10
285.507381
 20
107.185266
 42
-0.010437
  0
VERTEX
  8
0
 10
280.786223
 20
100.649535
 42
-0.009252
  0
VERTEX
  8
0
 10
275.607235
 20
94.044295
 42
-0.011766
  0
VERTEX
  8
0
 10
270.304999
 20
87.837799
 42
-0.008405
  0
VERTEX
  8
0
 10
264.095358
 20
81.136411
 42
-0.008499
  0
VERTEX
  8
0
 10
257.831008
 20
74.818437
 42
-0.014718
  0
VERTEX
  8
0
 10
252.387273
 20
69.815483
 42
0.010202
  0
VERTEX
  8
0
 10
248.951905
 20
66.715031
 42
0.093808
  0
VERTEX
  8
0
 10
247.775440
 20
65.098508
 42
0.144146
  0
VERTEX
  8
0
 10
247.515913
 20
63.445563
 42
0.034718
  0
VERTEX
  8
0
 10
248.072595
 20
60.699252
 42
0.131065
  0
VERTEX
  8
0
 10
250.436269
 20
56.665525
 42
0.114393
  0
VERTEX
  8
0
 10
254.611040
 20
54.092660
 42
0.039329
  0
VERTEX
  8
0
 10
262.849435
 20
52.025013
 42
0.003472
  0
VERTEX
  8
0
 10
284.049176
 20
48.596471
 42
0.002846
  0
VERTEX
  8
0
 10
310.887146
 20
44.603392
 42
0.009107
  0
VERTEX
  8
0
 10
328.843438
 20
42.369047
 42
0.010643
  0
VERTEX
  8
0
 10
345.340580
 20
40.975062
 42
0.005147
  0
VERTEX
  8
0
 10
366.500000
 20
39.858526
 42
0.004976
  0
VERTEX
  8
0
 10
392.789351
 20
39.004556
 42
0.007133
  0
VERTEX
  8
0
 10
416.103193
 20
38.812136
 42
0.007882
  0
VERTEX
  8
0
 10
437.382144
 20
39.275595
 42
0.009288
  0
VERTEX
  8
0
 10
457.500000
 20
40.405707
 42
0.000014
  0
VERTEX
  8
0
 10
466.912057
 20
41.110280
 42
0.000012
  0
VERTEX
  8
0
 10
477.003125
 20
41.866206
 42
0.000012
  0
VERTEX
  8
0
 10
486.304391
 20
42.563401
 42
0.000030
  0
VERTEX
  8
0
 10
493.000000
 20
43.065850
 42
0.012667
  0
VERTEX
  8
0
 10
510.135481
 20
44.790247
 42
0.004185
  0
VERTEX
  8
0
 10
535.204144
 20
48.169692
 42
0.001553
  0
VERTEX
  8
0
 10
561.290653
 20
51.991676
 42
0.082352
  0
VERTEX
  8
0
 10
566.079392
 20
53.541055
 42
0.035651
  0
VERTEX
  8
0
 10
567.281506
 20
54.275635
 42
0.020164
  0
VERTEX
  8
0
 10
568.630790
 20
55.323073
 42
0.020049
  0
VERTEX
  8
0
 10
569.912564
 20
56.494695
 42
0.030924
  0
VERTEX
  8
0
 10
570.911704
 20
57.614879
 42
0.094556
  0
VERTEX
  8
0
 10
572.707925
 20
61.082312
 42
0.181759
  0
VERTEX
  8
0
 10
572.491471
 20
64.161526
 42
0.085062
  0
VERTEX
  8
0
 10
569.936224
 20
67.900639
 42
0.011335
  0
VERTEX
  8
0
 10
563.107749
 20
74.641274
 42
-0.021636
  0
VERTEX
  8
0
 10
552.704164
 20
85.342918
 42
-0.013319
  0
VERTEX
  8
0
 10
541.365390
 20
98.767266
 42
-0.005239
  0
VERTEX
  8
0
 10
530.787734
 20
112.277166
 42
-0.311353
  0
VERTEX
  8
0
 10
530.639847
 20
115.226277
 42
-0.167800
  0
VERTEX
  8
0
 10
531.007044
 20
115.526092
 42
-0.032430
  0
VERTEX
  8
0
 10
531.841480
 20
115.772719
 42
-0.031244
  0
VERTEX
  8
0
 10
532.897952
 20
115.943292
 42
-0.024406
  0
VERTEX
  8
0
 10
534.059017
 20
116.000000
 42
0.098983
  0
VERTEX
  8
0
 10
536.523751
 20
116.492761
 42
0.081067
  0
VERTEX
  8
0
 10
538.809382
 20
117.914386
 42
0.085005
  0
VERTEX
  8
0
 10
540.434683
 20
119.912019
 42
0.129056
  0
VERTEX
  8
0
 10
541.000000
 20
122.065741
 42
0.097232
  0
VERTEX
  8
0
 10
540.474412
 20
124.742932
 42
0.061161
  0
VERTEX
  8
0
 10
538.913394
 20
127.534438
 42
0.033814
  0
VERTEX
  8
0
 10
535.858389
 20
131.164017
 42
0.007274
  0
VERTEX
  8
0
 10
530.064208
 20
137.000000
 42
-0.010330
  0
VERTEX
  8
0
 10
526.441160
 20
140.694066
 42
-0.008591
  0
VERTEX
  8
0
 10
522.739463
 20
144.765625
 42
-0.008694
  0
VERTEX
  8
0
 10
519.477813
 20
148.612274
 42
-0.023143
  0
VERTEX
  8
0
 10
517.329477
 20
151.500000
 42
-0.009890
  0
VERTEX
  8
0
 10
513.742702
 20
157.052231
 42
-0.008744
  0
VERTEX
  8
0
 10
510.223612
 20
162.972602
 42
-0.002343
  0
VERTEX
  8
0
 10
506.986275
 20
168.704632
 42
-0.377555
  0
VERTEX
  8
0
 10
507.128852
 20
169.365184
 42
-0.078653
  0
VERTEX
  8
0
 10
507.417104
 20
169.514962
 42
-0.002493
  0
VERTEX
  8
0
 10
508.675312
 20
169.928070
 42
-0.004781
  0
VERTEX
  8
0
 10
510.170043
 20
170.394862
 42
-0.003292
  0
VERTEX
  8
0
 10
511.872212
 20
170.896422
 42
0.051944
  0
VERTEX
  8
0
 10
515.436368
 20
172.335558
 42
0.063202
  0
VERTEX
  8
0
 10
518.377204
 20
174.407604
 42
0.073747
  0
VERTEX
  8
0
 10
520.334984
 20
176.811153
 42
0.134888
  0
VERTEX
  8
0
 10
521.000000
 20
179.231365
 42
0.132582
  0
VERTEX
  8
0
 10
520.618235
 20
180.645787
 42
0.030778
  0
VERTEX
  8
0
 10
519.238077
 20
182.712497
 42
0.024637
  0
VERTEX
  8
0
 10
517.053181
 20
185.308660
 42
0.010882
  0
VERTEX
  8
0
 10
513.928783
 20
188.526820
 42
-0.024917
  0
VERTEX
  8
0
 10
508.464056
 20
194.481063
 42
-0.017058
  0
VERTEX
  8
0
 10
502.847046
 20
201.739143
 42
-0.016963
  0
VERTEX
  8
0
 10
497.688839
 20
209.433323
 42
-0.023149
  0
VERTEX
  8
0
 10
493.611223
 20
216.716756
 42
-0.008990
  0
VERTEX
  8
0
 10
491.581828
 20
220.960046
 42
-0.100922
  0
VERTEX
  8
0
 10
491.163401
 20
222.771876
 42
-0.311885
  0
VERTEX
  8
0
 10
491.751792
 20
223.672211
 42
-0.097128
  0
VERTEX
  8
0
 10
493.423275
 20
224.000000
 42
0.123474
  0
VERTEX
  8
0
 10
496.018170
 20
224.650726
 42
0.057297
  0
VERTEX
  8
0
 10
498.892988
 20
226.642406
 42
0.056632
  0
VERTEX
  8
0
 10
501.299789
 20
229.292607
 42
0.102344
  0
VERTEX
  8
0
 10
502.490885
 20
231.958500
 42
0.092604
  0
VERTEX
  8
0
 10
502.549664
 20
233.822505
 42
0.086504
  0
VERTEX
  8
0
 10
501.938784
 20
235.631087
 42
0.043769
  0
VERTEX
  8
0
 10
500.371276
 20
237.993624
 42
0.007400
  0
VERTEX
  8
0
 10
496.928406
 20
242.181467
 42
-0.016536
  0
VERTEX
  8
0
 10
491.212665
 20
249.398842
 42
-0.011123
  0
VERTEX
  8
0
 10
485.149427
 20
257.991500
 42
-0.011205
  0
VERTEX
  8
0
 10
479.597056
 20
266.657000
 42
-0.019933
  0
VERTEX
  8
0
 10
475.478701
 20
274.061792
 42
0.000000
  0
VERTEX
  8
0
 10
472.164416
 20
280.623585
 42
0.000000
  0
VERTEX
  8
0
 10
475.060301
 20
281.716659
 42
0.087091
  0
VERTEX
  8
0
 10
477.606418
 20
283.224482
 42
0.123196
  0
VERTEX
  8
0
 10
479.124715
 20
285.363738
 42
0.118151
  0
VERTEX
  8
0
 10
479.492791
 20
288.036391
 42
0.076013
  0
VERTEX
  8
0
 10
478.714935
 20
291.081594
 42
0.053527
  0
VERTEX
  8
0
 10
477.553245
 20
293.164399
 42
0.004443
  0
VERTEX
  8
0
 10
473.926094
 20
298.195843
 42
0.005893
  0
VERTEX
  8
0
 10
469.464436
 20
304.122659
 42
0.004512
  0
VERTEX
  8
0
 10
464.452363
 20
310.500000
 42
-0.001281
  0
VERTEX
  8
0
 10
459.309254
 20
316.957742
 42
-0.001486
  0
VERTEX
  8
0
 10
454.449161
 20
323.129923
 42
-0.001322
  0
VERTEX
  8
0
 10
450.364367
 20
328.377874
 42
-0.008853
  0
VERTEX
  8
0
 10
448.387332
 20
331.027397
 42
-0.030847
  0
VERTEX
  8
0
 10
444.804143
 20
336.721477
 42
-0.009536
  0
VERTEX
  8
0
 10
440.115989
 20
345.706242
 42
-0.009307
  0
VERTEX
  8
0
 10
435.139563
 20
356.188499
 42
-0.008912
  0
VERTEX
  8
0
 10
430.481558
 20
367.000000
 42
0.005767
  0
VERTEX
  8
0
 10
426.368829
 20
376.713556
 42
0.012040
  0
VERTEX
  8
0
 10
422.898857
 20
384.158891
 42
0.014356
  0
VERTEX
  8
0
 10
419.975981
 20
389.653045
 42
0.056335
  0
VERTEX
  8
0
 10
417.717106
 20
392.750000
 42
0.057883
  0
VERTEX
  8
0
 10
416.432264
 20
393.859801
 42
0.073653
  0
VERTEX
  8
0
 10
415.023188
 20
394.540033
 42
0.055984
  0
VERTEX
  8
0
 10
413.190348
 20
394.894165
 42
0.019756
  0
VERTEX
  8
0
 10
410.512777
 20
395.000000
 42
0.020460
  0
VERTEX
  8
0
 10
407.688714
 20
394.884392
 42
0.064747
  0
VERTEX
  8
0
 10
405.841813
 20
394.488533
 42
0.077877
  0
VERTEX
  8
0
 10
404.348163
 20
393.680492
 42
0.039383
  0
SEQEND
  0
ENDSEC
  0
EOF
