  0
SECTION
  2
HEADER
  9
$ACADVER
  1
AC1006
  9
$EXTMIN
 10
0.000000
 20
0.000000
 30
0.000000
  9
$EXTMAX
 10
820.000000
 20
509.000000
 30
0.000000
  0
ENDSEC
  0
SECTION
  2
ENTITIES
  0
POLYLINE
  8
0
 66
1
 70
1
  0
VERTEX
  8
0
 10
495.500000
 20
402.367392
 42
0.036197
  0
VERTEX
  8
0
 10
488.563772
 20
400.772026
 42
0.033643
  0
VERTEX
  8
0
 10
481.752223
 20
398.163743
 42
0.034429
  0
VERTEX
  8
0
 10
475.521570
 20
394.745435
 42
0.043550
  0
VERTEX
  8
0
 10
470.323810
 20
390.730829
 42
0.027720
  0
VERTEX
  8
0
 10
466.751516
 20
387.051645
 42
0.058315
  0
VERTEX
  8
0
 10
464.510087
 20
383.766447
 42
0.059538
  0
VERTEX
  8
0
 10
463.115111
 20
380.097164
 42
0.030033
  0
VERTEX
  8
0
 10
462.206552
 20
375.223805
 42
0.000000
  0
VERTEX
  8
0
 10
461.491579
 20
369.500043
 42
0.000000
  0
VERTEX
  8
0
 10
449.495789
 20
363.297113
 42
-0.023250
  0
VERTEX
  8
0
 10
430.309439
 20
354.480756
 42
-0.045776
  0
VERTEX
  8
0
 10
414.252610
 20
349.640959
 42
-0.060504
  0
VERTEX
  8
0
 10
401.252285
 20
348.593387
 42
-0.123024
  0
VERTEX
  8
0
 10
391.478395
 20
351.459793
 42
-0.094445
  0
VERTEX
  8
0
 10
386.030172
 20
356.223069
 42
-0.104253
  0
VERTEX
  8
0
 10
382.948255
 20
362.502014
 42
-0.106504
  0
VERTEX
  8
0
 10
382.698278
 20
369.380947
 42
-0.102537
  0
VERTEX
  8
0
 10
385.286830
 20
375.857242
 42
-0.062212
  0
VERTEX
  8
0
 10
388.455457
 20
379.552170
 42
-0.075456
  0
VERTEX
  8
0
 10
392.251326
 20
382.077466
 42
-0.068582
  0
VERTEX
  8
0
 10
396.920795
 20
383.519149
 42
-0.041257
  0
VERTEX
  8
0
 10
402.710162
 20
383.983550
 42
-0.043022
  0
VERTEX
  8
0
 10
408.664346
 20
383.455738
 42
-0.075993
  0
VERTEX
  8
0
 10
413.328126
 20
381.878569
 42
-0.087173
  0
VERTEX
  8
0
 10
416.876348
 20
379.171658
 42
-0.075576
  0
VERTEX
  8
0
 10
419.500000
 20
375.289569
 42
0.020707
  0
VERTEX
  8
0
 10
420.338891
 20
373.697173
 42
0.031692
  0
VERTEX
  8
0
 10
421.206250
 20
372.400728
 42
0.032764
  0
VERTEX
  8
0
 10
421.995516
 20
371.498119
 42
0.273464
  0
VERTEX
  8
0
 10
422.500000
 20
371.367738
 42
0.230331
  0
VERTEX
  8
0
 10
422.906328
 20
371.734107
 42
0.029420
  0
VERTEX
  8
0
 10
423.293190
 20
372.880435
 42
0.029585
  0
VERTEX
  8
0
 10
423.609785
 20
374.384215
 42
0.020509
  0
VERTEX
  8
0
 10
423.795966
 20
376.112077
 42
0.146192
  0
VERTEX
  8
0
 10
422.100366
 20
383.554626
 42
0.123873
  0
VERTEX
  8
0
 10
416.518354
 20
389.418008
 42
0.107393
  0
VERTEX
  8
0
 10
408.078103
 20
392.494356
 42
0.089164
  0
VERTEX
  8
0
 10
398.508305
 20
392.089272
 42
0.163412
  0
VERTEX
  8
0
 10
386.960143
 20
385.102063
 42
0.135943
  0
VERTEX
  8
0
 10
380.915314
 20
372.007474
 42
0.136920
  0
VERTEX
  8
0
 10
382.489444
 20
357.741357
 42
0.166364
  0
VERTEX
  8
0
 10
391.227608
 20
347.611097
 42
0.105158
  0
VERTEX
  8
0
 10
402.386123
 20
343.915880
 42
0.062182
  0
VERTEX
  8
0
 10
416.470485
 20
344.112495
 42
0.050117
  0
VERTEX
  8
0
 10
433.076090
 20
348.146485
 42
0.029913
  0
VERTEX
  8
0
 10
451.831524
 20
356.037990
 42
0.000000
  0
VERTEX
  8
0
 10
464.105980
 20
362.090053
 42
0.000000
  0
VERTEX
  8
0
 10
469.215877
 20
357.495816
 42
0.052455
  0
VERTEX
  8
0
 10
476.575232
 20
352.158182
 42
0.053177
  0
VERTEX
  8
0
 10
484.851372
 20
348.497703
 42
0.050301
  0
VERTEX
  8
0
 10
494.126068
 20
346.524220
 42
0.038952
  0
VERTEX
  8
0
 10
504.454915
 20
346.201107
 42
0.055475
  0
VERTEX
  8
0
 10
515.939301
 20
348.024180
 42
0.093850
  0
VERTEX
  8
0
 10
524.660100
 20
352.295257
 42
0.115135
  0
VERTEX
  8
0
 10
530.062645
 20
358.722910
 42
0.117968
  0
VERTEX
  8
0
 10
532.000000
 20
366.819998
 42
0.081665
  0
VERTEX
  8
0
 10
531.351797
 20
370.762183
 42
0.077845
  0
VERTEX
  8
0
 10
529.471851
 20
374.361653
 42
0.069237
  0
VERTEX
  8
0
 10
526.356366
 20
377.542951
 42
0.047204
  0
VERTEX
  8
0
 10
522.069645
 20
380.250000
 42
0.023294
  0
VERTEX
  8
0
 10
518.811392
 20
381.714196
 42
0.045732
  0
VERTEX
  8
0
 10
516.085487
 20
382.510919
 42
0.037518
  0
VERTEX
  8
0
 10
512.928284
 20
382.885065
 42
0.011170
  0
VERTEX
  8
0
 10
508.070685
 20
382.985219
 42
0.029557
  0
VERTEX
  8
0
 10
499.234195
 20
382.447114
 42
0.031258
  0
VERTEX
  8
0
 10
490.689597
 20
380.870958
 42
0.027510
  0
VERTEX
  8
0
 10
481.525379
 20
378.037015
 42
0.015548
  0
VERTEX
  8
0
 10
470.750000
 20
373.657906
 42
0.000000
  0
VERTEX
  8
0
 10
465.000000
 20
371.110058
 42
0.000000
  0
VERTEX
  8
0
 10
465.041220
 20
373.305029
 42
-0.092627
  0
VERTEX
  8
0
 10
465.730334
 20
376.644403
 42
-0.038950
  0
VERTEX
  8
0
 10
467.799228
 20
380.757034
 42
-0.038354
  0
VERTEX
  8
0
 10
470.629340
 20
384.716071
 42
-0.056874
  0
VERTEX
  8
0
 10
473.717689
 20
387.650684
 42
-0.040148
  0
VERTEX
  8
0
 10
479.666272
 20
391.430063
 42
-0.054427
  0
VERTEX
  8
0
 10
485.580413
 20
393.771710
 42
-0.046163
  0
VERTEX
  8
0
 10
492.575124
 20
395.015616
 42
-0.020170
  0
VERTEX
  8
0
 10
502.000000
 20
395.424933
 42
-0.016278
  0
VERTEX
  8
0
 10
511.153219
 20
395.154965
 42
-0.040866
  0
VERTEX
  8
0
 10
517.756683
 20
394.199277
 42
-0.043614
  0
VERTEX
  8
0
 10
523.862610
 20
392.225947
 42
-0.020888
  0
VERTEX
  8
0
 10
531.318783
 20
388.701786
 42
-0.085528
  0
VERTEX
  8
0
 10
544.639302
 20
378.492432
 42
-0.063049
  0
VERTEX
  8
0
 10
555.462437
 20
363.341182
 42
-0.060276
  0
VERTEX
  8
0
 10
562.579348
 20
345.204830
 42
-0.063471
  0
VERTEX
  8
0
 10
565.000000
 20
326.212557
 42
-0.047390
  0
VERTEX
  8
0
 10
563.731446
 20
312.858487
 42
-0.052100
  0
VERTEX
  8
0
 10
559.972026
 20
300.420612
 42
-0.053365
  0
VERTEX
  8
0
 10
553.827166
 20
289.285543
 42
-0.054429
  0
VERTEX
  8
0
 10
545.500000
 20
279.784347
 42
-0.053120
  0
VERTEX
  8
0
 10
541.295569
 20
276.678317
 42
-0.021951
  0
VERTEX
  8
0
 10
535.033100
 20
273.368285
 42
-0.021812
  0
VERTEX
  8
0
 10
528.553501
 20
270.638576
 42
-0.058123
  0
VERTEX
  8
0
 10
523.686551
 20
269.452815
 42
0.064832
  0
VERTEX
  8
0
 10
519.837423
 20
268.460347
 42
0.066805
  0
VERTEX
  8
0
 10
516.413363
 20
266.521443
 42
0.072019
  0
VERTEX
  8
0
 10
513.840588
 20
263.912169
 42
0.101796
  0
VERTEX
  8
0
 10
512.479168
 20
260.956719
 42
0.169671
  0
VERTEX
  8
0
 10
512.839199
 20
257.616190
 42
0.103785
  0
VERTEX
  8
0
 10
515.264352
 20
254.428270
 42
0.137605
  0
VERTEX
  8
0
 10
518.288695
 20
253.003956
 42
0.304923
  0
VERTEX
  8
0
 10
520.504741
 20
254.007671
 42
0.159685
  0
VERTEX
  8
0
 10
520.626139
 20
254.510543
 42
0.069675
  0
VERTEX
  8
0
 10
520.475251
 20
255.188663
 42
0.058801
  0
VERTEX
  8
0
 10
520.094939
 20
255.927205
 42
0.048136
  0
VERTEX
  8
0
 10
519.529814
 20
256.613043
 42
-0.211853
  0
VERTEX
  8
0
 10
518.447432
 20
259.421438
 42
-0.155019
  0
VERTEX
  8
0
 10
519.630863
 20
262.591833
 42
-0.118930
  0
VERTEX
  8
0
 10
522.806125
 20
265.103315
 42
-0.108536
  0
VERTEX
  8
0
 10
526.888278
 20
266.000000
 42
-0.104880
  0
VERTEX
  8
0
 10
531.445154
 20
265.033522
 42
-0.117827
  0
VERTEX
  8
0
 10
534.999442
 20
262.317134
 42
-0.103966
  0
VERTEX
  8
0
 10
537.239227
 20
257.977624
 42
-0.067424
  0
VERTEX
  8
0
 10
538.000000
 20
252.361540
 42
-0.062674
  0
VERTEX
  8
0
 10
537.526115
 20
248.595842
 42
-0.059567
  0
VERTEX
  8
0
 10
536.132177
 20
244.995146
 42
-0.062405
  0
VERTEX
  8
0
 10
534.013250
 20
241.982746
 42
-0.085645
  0
VERTEX
  8
0
 10
531.405781
 20
239.949576
 42
-0.062294
  0
VERTEX
  8
0
 10
530.184196
 20
239.480023
 42
-0.132271
  0
VERTEX
  8
0
 10
529.179035
 20
239.500605
 42
-0.094200
  0
VERTEX
  8
0
 10
528.103020
 20
240.048990
 42
-0.022061
  0
VERTEX
  8
0
 10
526.552912
 20
241.363382
 42
0.089128
  0
VERTEX
  8
0
 10
523.417304
 20
243.371540
 42
0.059358
  0
VERTEX
  8
0
 10
519.298093
 20
244.526031
 42
0.052527
  0
VERTEX
  8
0
 10
514.495296
 20
244.765044
 42
0.041256
  0
VERTEX
  8
0
 10
509.328778
 20
244.049096
 42
-0.012719
  0
VERTEX
  8
0
 10
506.202095
 20
243.432435
 42
-0.058773
  0
VERTEX
  8
0
 10
504.363929
 20
243.336988
 42
-0.084129
  0
VERTEX
  8
0
 10
502.885854
 20
243.688369
 42
-0.043318
  0
VERTEX
  8
0
 10
501.200748
 20
244.582516
 42
-0.023351
  0
VERTEX
  8
0
 10
496.902608
 20
247.658242
 42
-0.007508
  0
VERTEX
  8
0
 10
490.817505
 20
252.607517
 42
-0.002203
  0
VERTEX
  8
0
 10
484.477174
 20
257.972286
 42
-0.219461
  0
VERTEX
  8
0
 10
484.000000
 20
259.007076
 42
-0.097455
  0
VERTEX
  8
0
 10
484.101693
 20
259.523862
 42
-0.011586
  0
VERTEX
  8
0
 10
484.571268
 20
260.599068
 42
-0.013479
  0
VERTEX
  8
0
 10
485.200045
 20
261.862164
 42
-0.010683
  0
VERTEX
  8
0
 10
485.944742
 20
263.192840
 42
0.034471
  0
VERTEX
  8
0
 10
488.829383
 20
268.976332
 42
0.007283
  0
VERTEX
  8
0
 10
493.006566
 20
279.459442
 42
0.007752
  0
VERTEX
  8
0
 10
497.402713
 20
291.535849
 42
0.008241
  0
VERTEX
  8
0
 10
501.329451
 20
303.500000
 42
-0.000832
  0
VERTEX
  8
0
 10
507.663060
 20
323.808384
 42
-0.020558
  0
VERTEX
  8
0
 10
509.651073
 20
329.338783
 42
-0.091119
  0
VERTEX
  8
0
 10
511.213466
 20
331.787455
 42
-0.178502
  0
VERTEX
  8
0
 10
513.250000
 20
332.816422
 42
0.031666
  0
VERTEX
  8
0
 10
514.303222
 20
333.005759
 42
0.046395
  0
VERTEX
  8
0
 10
515.192188
 20
333.314134
 42
0.056702
  0
VERTEX
  8
0
 10
515.811837
 20
333.685494
 42
0.233512
  0
VERTEX
  8
0
 10
516.000000
 20
334.066422
 42
0.369866
  0
VERTEX
  8
0
 10
515.682079
 20
334.437407
 42
0.011089
  0
VERTEX
  8
0
 10
513.503125
 20
334.725762
 42
0.017044
  0
VERTEX
  8
0
 10
510.758965
 20
334.932815
 42
0.010307
  0
VERTEX
  8
0
 10
507.500000
 20
335.000000
 42
0.009838
  0
VERTEX
  8
0
 10
504.081088
 20
334.932720
 42
0.019442
  0
VERTEX
  8
0
 10
501.375000
 20
334.720588
 42
0.015687
  0
VERTEX
  8
0
 10
499.348392
 20
334.417447
 42
0.362465
  0
VERTEX
  8
0
 10
499.000000
 20
334.000000
 42
0.186414
  0
VERTEX
  8
0
 10
499.147465
 20
333.618213
 42
0.089706
  0
VERTEX
  8
0
 10
499.570164
 20
333.293750
 42
0.069539
  0
VERTEX
  8
0
 10
500.198222
 20
333.073784
 42
0.049547
  0
VERTEX
  8
0
 10
500.940983
 20
333.000000
 42
-0.049760
  0
VERTEX
  8
0
 10
501.732268
 20
332.921056
 42
-0.047538
  0
VERTEX
  8
0
 10
502.505157
 20
332.687145
 42
-0.051230
  0
VERTEX
  8
0
 10
503.147940
 20
332.343253
 42
-0.106296
  0
VERTEX
  8
0
 10
503.540196
 20
331.934961
 42
-0.201102
  0
VERTEX
  8
0
 10
503.841450
 20
330.027788
 42
-0.001446
  0
VERTEX
  8
0
 10
499.863406
 20
313.990310
 42
-0.001081
  0
VERTEX
  8
0
 10
495.751371
 20
297.764065
 42
-0.342648
  0
VERTEX
  8
0
 10
494.767332
 20
297.000000
 42
-0.096695
  0
VERTEX
  8
0
 10
494.474378
 20
297.057189
 42
-0.097228
  0
VERTEX
  8
0
 10
494.225087
 20
297.220312
 42
-0.098322
  0
VERTEX
  8
0
 10
494.057972
 20
297.463795
 42
-0.101359
  0
VERTEX
  8
0
 10
493.998921
 20
297.750000
 42
0.050100
  0
VERTEX
  8
0
 10
493.940520
 20
298.323088
 42
0.000375
  0
VERTEX
  8
0
 10
492.986918
 20
302.969551
 42
0.001402
  0
VERTEX
  8
0
 10
491.874905
 20
308.291791
 42
0.000898
  0
VERTEX
  8
0
 10
490.555319
 20
314.465492
 42
-0.005541
  0
VERTEX
  8
0
 10
488.339536
 20
325.324411
 42
-0.055255
  0
VERTEX
  8
0
 10
487.970031
 20
329.944478
 42
-0.195055
  0
VERTEX
  8
0
 10
488.926652
 20
332.110649
 42
-0.194826
  0
VERTEX
  8
0
 10
491.122445
 20
333.000000
 42
0.051290
  0
VERTEX
  8
0
 10
491.840854
 20
333.073889
 42
0.071223
  0
VERTEX
  8
0
 10
492.448468
 20
333.293750
 42
0.091278
  0
VERTEX
  8
0
 10
492.856918
 20
333.618307
 42
0.181272
  0
VERTEX
  8
0
 10
493.000000
 20
334.000000
 42
0.412253
  0
VERTEX
  8
0
 10
492.025319
 20
334.981230
 42
0.002403
  0
VERTEX
  8
0
 10
477.898248
 20
335.007944
 42
0.004912
  0
VERTEX
  8
0
 10
464.430315
 20
334.836368
 42
0.110912
  0
VERTEX
  8
0
 10
460.684259
 20
333.905797
 42
0.041103
  0
VERTEX
  8
0
 10
459.688038
 20
333.299705
 42
0.018455
  0
VERTEX
  8
0
 10
458.482148
 20
332.352876
 42
0.018125
  0
VERTEX
  8
0
 10
457.274437
 20
331.252819
 42
0.023502
  0
VERTEX
  8
0
 10
456.254967
 20
330.155797
 42
0.000000
  0
VERTEX
  8
0
 10
454.009934
 20
327.500000
 42
0.000000
  0
VERTEX
  8
0
 10
454.004967
 20
331.250000
 42
0.000000
  0
VERTEX
  8
0
 10
454.000000
 20
335.000000
 42
0.000000
  0
VERTEX
  8
0
 10
447.500000
 20
335.000000
 42
0.021492
  0
VERTEX
  8
0
 10
443.549881
 20
334.830126
 42
0.100230
  0
VERTEX
  8
0
 10
441.374316
 20
334.190968
 42
0.471740
  0
VERTEX
  8
0
 10
441.193137
 20
333.313796
 42
0.132391
  0
VERTEX
  8
0
 10
442.500000
 20
332.361626
 42
-0.272209
  0
VERTEX
  8
0
 10
443.342955
 20
331.303839
 42
-0.020300
  0
VERTEX
  8
0
 10
443.728684
 20
327.486982
 42
-0.013174
  0
VERTEX
  8
0
 10
443.949857
 20
320.941254
 42
-0.001857
  0
VERTEX
  8
0
 10
444.000000
 20
307.442701
 42
-0.001615
  0
VERTEX
  8
0
 10
443.953217
 20
292.956413
 42
-0.015609
  0
VERTEX
  8
0
 10
443.721560
 20
286.810433
 42
-0.035107
  0
VERTEX
  8
0
 10
443.253583
 20
283.467229
 42
-0.211607
  0
VERTEX
  8
0
 10
442.250000
 20
282.080099
 42
0.587322
  0
VERTEX
  8
0
 10
442.258279
 20
281.637594
 42
0.096219
  0
VERTEX
  8
0
 10
443.310313
 20
281.314290
 42
0.023882
  0
VERTEX
  8
0
 10
446.063089
 20
281.152932
 42
0.004736
  0
VERTEX
  8
0
 10
451.000000
 20
281.146410
 42
0.004479
  0
VERTEX
  8
0
 10
454.898091
 20
281.213114
 42
0.010306
  0
VERTEX
  8
0
 10
457.828125
 20
281.349986
 42
0.019230
  0
VERTEX
  8
0
 10
459.490859
 20
281.526469
 42
0.824676
  0
VERTEX
  8
0
 10
459.500000
 20
281.719239
 42
-0.103917
  0
VERTEX
  8
0
 10
456.434636
 20
283.185089
 42
-0.162946
  0
VERTEX
  8
0
 10
454.813016
 20
285.583102
 42
-0.062067
  0
VERTEX
  8
0
 10
454.133546
 20
290.154040
 42
-0.005899
  0
VERTEX
  8
0
 10
454.000000
 20
301.473486
 42
-0.015760
  0
VERTEX
  8
0
 10
454.485822
 20
316.882897
 42
-0.073742
  0
VERTEX
  8
0
 10
456.333092
 20
325.539043
 42
-0.228817
  0
VERTEX
  8
0
 10
459.565703
 20
328.632705
 42
-0.242118
  0
VERTEX
  8
0
 10
463.881690
 20
327.929349
 42
0.076252
  0
VERTEX
  8
0
 10
466.528413
 20
326.536502
 42
0.151602
  0
VERTEX
  8
0
 10
468.873582
 20
326.463055
 42
0.172987
  0
VERTEX
  8
0
 10
470.643215
 20
327.705659
 42
0.105041
  0
VERTEX
  8
0
 10
471.666086
 20
330.080428
 42
-0.229767
  0
VERTEX
  8
0
 10
473.115578
 20
331.990751
 42
-0.401657
  0
VERTEX
  8
0
 10
474.866215
 20
331.460980
 42
-0.051960
  0
VERTEX
  8
0
 10
477.367276
 20
325.694630
 42
-0.007664
  0
VERTEX
  8
0
 10
481.007489
 20
313.500000
 42
0.000603
  0
VERTEX
  8
0
 10
482.801010
 20
307.166752
 42
0.000525
  0
VERTEX
  8
0
 10
484.693496
 20
300.541091
 42
0.000528
  0
VERTEX
  8
0
 10
486.417616
 20
294.552693
 42
0.001565
  0
VERTEX
  8
0
 10
487.617918
 20
290.448396
 42
-0.004363
  0
VERTEX
  8
0
 10
488.531336
 20
287.258937
 42
-0.005762
  0
VERTEX
  8
0
 10
489.304611
 20
284.336485
 42
-0.004232
  0
VERTEX
  8
0
 10
489.902207
 20
281.880461
 42
-0.055055
  0
VERTEX
  8
0
 10
490.014800
 20
280.948396
 42
-0.099798
  0
VERTEX
  8
0
 10
489.468939
 20
278.090372
 42
-0.006709
  0
VERTEX
  8
0
 10
486.206641
 20
270.397392
 42
-0.004322
  0
VERTEX
  8
0
 10
482.655956
 20
262.512947
 42
-0.195590
  0
VERTEX
  8
0
 10
481.375997
 20
261.314042
 42
-0.175571
  0
VERTEX
  8
0
 10
480.627964
 20
261.299971
 42
-0.024182
  0
VERTEX
  8
0
 10
479.156505
 20
261.882828
 42
-0.025334
  0
VERTEX
  8
0
 10
477.418465
 20
262.779205
 42
-0.018958
  0
VERTEX
  8
0
 10
475.598059
 20
263.932534
 42
0.027041
  0
VERTEX
  8
0
 10
469.680624
 20
267.548907
 42
0.019541
  0
VERTEX
  8
0
 10
462.735880
 20
270.950180
 42
0.019671
  0
VERTEX
  8
0
 10
455.629778
 20
273.763843
 42
0.029699
  0
VERTEX
  8
0
 10
449.231036
 20
275.592009
 42
0.033083
  0
VERTEX
  8
0
 10
441.801177
 20
276.735999
 42
0.045510
  0
VERTEX
  8
0
 10
435.048318
 20
276.706786
 42
0.047841
  0
VERTEX
  8
0
 10
428.680101
 20
275.476155
 42
0.042767
  0
VERTEX
  8
0
 10
422.405842
 20
273.028261
 42
0.044288
  0
VERTEX
  8
0
 10
416.946052
 20
269.710921
 42
0.081692
  0
VERTEX
  8
0
 10
413.326997
 20
266.003014
 42
0.085130
  0
VERTEX
  8
0
 10
411.177659
 20
261.442278
 42
0.051787
  0
VERTEX
  8
0
 10
410.184146
 20
255.551023
 42
0.072291
  0
VERTEX
  8
0
 10
410.741662
 20
248.661085
 42
0.088671
  0
VERTEX
  8
0
 10
413.263921
 20
242.727689
 42
0.084610
  0
VERTEX
  8
0
 10
417.800758
 20
237.834716
 42
0.059567
  0
VERTEX
  8
0
 10
424.268634
 20
233.998577
 42
0.000000
  0
VERTEX
  8
0
 10
429.037267
 20
231.889926
 42
0.000000
  0
VERTEX
  8
0
 10
428.768634
 20
209.194963
 42
-0.001240
  0
VERTEX
  8
0
 10
428.552071
 20
194.067790
 42
-0.023056
  0
VERTEX
  8
0
 10
428.251899
 20
189.301780
 42
-0.095135
  0
VERTEX
  8
0
 10
427.577551
 20
187.111735
 42
-0.239771
  0
VERTEX
  8
0
 10
426.250000
 20
186.180449
 42
0.038382
  0
VERTEX
  8
0
 10
425.388643
 20
185.989816
 42
0.053191
  0
VERTEX
  8
0
 10
424.660937
 20
185.681447
 42
0.065793
  0
VERTEX
  8
0
 10
424.160766
 20
185.310216
 42
0.202946
  0
VERTEX
  8
0
 10
424.000000
 20
184.930449
 42
0.375656
  0
VERTEX
  8
0
 10
424.324501
 20
184.559487
 42
0.008946
  0
VERTEX
  8
0
 10
426.790625
 20
184.273319
 42
0.015221
  0
VERTEX
  8
0
 10
429.857544
 20
184.066940
 42
0.009188
  0
VERTEX
  8
0
 10
433.500000
 20
184.000000
 42
0.005528
  0
VERTEX
  8
0
 10
438.560229
 20
184.055948
 42
0.033635
  0
VERTEX
  8
0
 10
441.166667
 20
184.289474
 42
0.080293
  0
VERTEX
  8
0
 10
442.536487
 20
184.738626
 42
0.280451
  0
VERTEX
  8
0
 10
443.000000
 20
185.500000
 42
0.064853
  0
VERTEX
  8
0
 10
442.925306
 20
186.073457
 42
0.082425
  0
VERTEX
  8
0
 10
442.706250
 20
186.559375
 42
0.098894
  0
VERTEX
  8
0
 10
442.381354
 20
186.884432
 42
0.148195
  0
VERTEX
  8
0
 10
442.000000
 20
187.000000
 42
-0.414118
  0
VERTEX
  8
0
 10
440.874899
 20
188.124735
 42
-0.001533
  0
VERTEX
  8
0
 10
440.930741
 20
208.501325
 42
-0.001534
  0
VERTEX
  8
0
 10
441.111580
 20
228.879794
 42
-0.396865
  0
VERTEX
  8
0
 10
442.250000
 20
230.059611
 42
0.020101
  0
VERTEX
  8
0
 10
442.995875
 20
230.125304
 42
0.002822
  0
VERTEX
  8
0
 10
444.528125
 20
230.331381
 42
0.003219
  0
VERTEX
  8
0
 10
446.339735
 20
230.597353
 42
0.002731
  0
VERTEX
  8
0
 10
448.250000
 20
230.901076
 42
0.000000
  0
VERTEX
  8
0
 10
453.000000
 20
231.682929
 42
0.000000
  0
VERTEX
  8
0
 10
453.000000
 20
208.841465
 42
0.000000
  0
VERTEX
  8
0
 10
453.000000
 20
186.000000
 42
0.000000
  0
VERTEX
  8
0
 10
450.000000
 20
186.000000
 42
0.031626
  0
VERTEX
  8
0
 10
448.850749
 20
185.927234
 42
0.048861
  0
VERTEX
  8
0
 10
447.881250
 20
185.706250
 42
0.062710
  0
VERTEX
  8
0
 10
447.209557
 20
185.384262
 42
0.254951
  0
VERTEX
  8
0
 10
447.000000
 20
185.000000
 42
0.373418
  0
VERTEX
  8
0
 10
447.372518
 20
184.570757
 42
0.011579
  0
VERTEX
  8
0
 10
449.875000
 20
184.273810
 42
0.016146
  0
VERTEX
  8
0
 10
453.197465
 20
184.065344
 42
0.007593
  0
VERTEX
  8
0
 10
457.500000
 20
184.000000
 42
0.004841
  0
VERTEX
  8
0
 10
463.139949
 20
184.054606
 42
0.030643
  0
VERTEX
  8
0
 10
466.000000
 20
184.285714
 42
0.072528
  0
VERTEX
  8
0
 10
467.506808
 20
184.729954
 42
0.292784
  0
VERTEX
  8
0
 10
468.000000
 20
185.500000
 42
0.099038
  0
VERTEX
  8
0
 10
467.885486
 20
186.072457
 42
0.097945
  0
VERTEX
  8
0
 10
467.559375
 20
186.559375
 42
0.097945
  0
VERTEX
  8
0
 10
467.072457
 20
186.885486
 42
0.099038
  0
VERTEX
  8
0
 10
466.500000
 20
187.000000
 42
-0.370245
  0
VERTEX
  8
0
 10
465.649886
 20
187.729501
 42
-0.022736
  0
VERTEX
  8
0
 10
465.265391
 20
191.310857
 42
-0.013634
  0
VERTEX
  8
0
 10
465.047608
 20
197.672595
 42
-0.001738
  0
VERTEX
  8
0
 10
465.000000
 20
211.365141
 42
-0.001571
  0
VERTEX
  8
0
 10
465.047749
 20
226.561229
 42
-0.017584
  0
VERTEX
  8
0
 10
465.298301
 20
232.602701
 42
-0.047064
  0
VERTEX
  8
0
 10
465.883632
 20
235.998939
 42
-0.100786
  0
VERTEX
  8
0
 10
467.072580
 20
238.365141
 42
-0.087557
  0
VERTEX
  8
0
 10
469.185412
 20
240.254474
 42
-0.139633
  0
VERTEX
  8
0
 10
471.500000
 20
240.913712
 42
-0.139633
  0
VERTEX
  8
0
 10
473.814588
 20
240.254474
 42
-0.087557
  0
VERTEX
  8
0
 10
475.927420
 20
238.365141
 42
-0.101724
  0
VERTEX
  8
0
 10
477.118349
 20
235.983984
 42
-0.046481
  0
VERTEX
  8
0
 10
477.702670
 20
232.541155
 42
-0.017282
  0
VERTEX
  8
0
 10
477.952599
 20
226.398300
 42
-0.001526
  0
VERTEX
  8
0
 10
478.000000
 20
210.865141
 42
-0.001190
  0
VERTEX
  8
0
 10
477.961774
 20
194.809463
 42
-0.018877
  0
VERTEX
  8
0
 10
477.729892
 20
189.358143
 42
-0.068268
  0
VERTEX
  8
0
 10
477.170593
 20
186.816309
 42
-0.314242
  0
VERTEX
  8
0
 10
476.000000
 20
186.000000
 42
0.048028
  0
VERTEX
  8
0
 10
475.234582
 20
185.926307
 42
0.068025
  0
VERTEX
  8
0
 10
474.587500
 20
185.706250
 42
0.088204
  0
VERTEX
  8
0
 10
474.151477
 20
185.381882
 42
0.191087
  0
VERTEX
  8
0
 10
474.000000
 20
185.000000
 42
0.375539
  0
VERTEX
  8
0
 10
474.377449
 20
184.568330
 42
0.010792
  0
VERTEX
  8
0
 10
477.000000
 20
184.272727
 42
0.015486
  0
VERTEX
  8
0
 10
480.476434
 20
184.064968
 42
0.007181
  0
VERTEX
  8
0
 10
485.000000
 20
184.000000
 42
0.007759
  0
VERTEX
  8
0
 10
489.263937
 20
184.066171
 42
0.013409
  0
VERTEX
  8
0
 10
492.804343
 20
184.271218
 42
0.007173
  0
VERTEX
  8
0
 10
495.662178
 20
184.555113
 42
0.381387
  0
VERTEX
  8
0
 10
496.000000
 20
184.933578
 42
0.233512
  0
VERTEX
  8
0
 10
495.811837
 20
185.314506
 42
0.056702
  0
VERTEX
  8
0
 10
495.192187
 20
185.685866
 42
0.046395
  0
VERTEX
  8
0
 10
494.303222
 20
185.994241
 42
0.031666
  0
VERTEX
  8
0
 10
493.250000
 20
186.183578
 42
0.000000
  0
VERTEX
  8
0
 10
490.500000
 20
186.500000
 42
0.000000
  0
VERTEX
  8
0
 10
490.000000
 20
211.500000
 42
0.001925
  0
VERTEX
  8
0
 10
489.658756
 20
225.806366
 42
0.013898
  0
VERTEX
  8
0
 10
489.276497
 20
232.687806
 42
0.028442
  0
VERTEX
  8
0
 10
488.703927
 20
236.746312
 42
0.100186
  0
VERTEX
  8
0
 10
487.690548
 20
239.165208
 42
0.090050
  0
VERTEX
  8
0
 10
485.720180
 20
241.172765
 42
0.038643
  0
VERTEX
  8
0
 10
482.482942
 20
243.103967
 42
0.038638
  0
VERTEX
  8
0
 10
478.928173
 20
244.537823
 42
0.076691
  0
VERTEX
  8
0
 10
475.932640
 20
245.000000
 42
-0.090008
  0
VERTEX
  8
0
 10
474.978315
 20
245.173198
 42
-0.393962
  0
VERTEX
  8
0
 10
474.745663
 20
245.641422
 42
-0.091173
  0
VERTEX
  8
0
 10
475.226397
 20
246.584827
 42
-0.005956
  0
VERTEX
  8
0
 10
477.125925
 20
249.007072
 42
-0.010194
  0
VERTEX
  8
0
 10
479.139653
 20
251.410840
 42
-0.102762
  0
VERTEX
  8
0
 10
480.175932
 20
252.195801
 42
-0.207141
  0
VERTEX
  8
0
 10
481.125314
 20
252.229008
 42
-0.062337
  0
VERTEX
  8
0
 10
482.423048
 20
251.523326
 42
0.006194
  0
VERTEX
  8
0
 10
483.661740
 20
250.657251
 42
0.000941
  0
VERTEX
  8
0
 10
486.159599
 20
248.963337
 42
0.001054
  0
VERTEX
  8
0
 10
489.116132
 20
246.975554
 42
0.000912
  0
VERTEX
  8
0
 10
492.226650
 20
244.901960
 42
-0.004677
  0
VERTEX
  8
0
 10
497.068504
 20
241.621260
 42
-0.063510
  0
VERTEX
  8
0
 10
498.652872
 20
240.198469
 42
-0.211387
  0
VERTEX
  8
0
 10
499.005081
 20
239.041816
 42
-0.123106
  0
VERTEX
  8
0
 10
498.476650
 20
237.663200
 42
0.082302
  0
VERTEX
  8
0
 10
497.251998
 20
235.106982
 42
0.101337
  0
VERTEX
  8
0
 10
497.039634
 20
232.476552
 42
0.109098
  0
VERTEX
  8
0
 10
497.869885
 20
230.120184
 42
0.109095
  0
VERTEX
  8
0
 10
499.615231
 20
228.332541
 42
0.025770
  0
VERTEX
  8
0
 10
501.188421
 20
227.413926
 42
0.109991
  0
VERTEX
  8
0
 10
502.233610
 20
227.138253
 42
0.112620
  0
VERTEX
  8
0
 10
503.284034
 20
227.335388
 42
0.027647
  0
VERTEX
  8
0
 10
504.865231
 20
228.128839
 42
0.045784
  0
VERTEX
  8
0
 10
506.217919
 20
229.078039
 42
0.108585
  0
VERTEX
  8
0
 10
506.959305
 20
230.051075
 42
0.094565
  0
VERTEX
  8
0
 10
507.281271
 20
231.332288
 42
0.029375
  0
VERTEX
  8
0
 10
507.279071
 20
233.326520
 42
0.000000
  0
VERTEX
  8
0
 10
507.058143
 20
237.014338
 42
0.000000
  0
VERTEX
  8
0
 10
511.279071
 20
236.346446
 42
-0.009410
  0
VERTEX
  8
0
 10
517.347756
 20
235.268746
 42
-0.123157
  0
VERTEX
  8
0
 10
519.400659
 20
234.303155
 42
-0.183929
  0
VERTEX
  8
0
 10
520.376054
 20
232.608544
 42
-0.026555
  0
VERTEX
  8
0
 10
520.803258
 20
228.569807
 42
-0.048842
  0
VERTEX
  8
0
 10
520.591302
 20
223.896134
 42
-0.140518
  0
VERTEX
  8
0
 10
519.274200
 20
220.963610
 42
-0.086614
  0
VERTEX
  8
0
 10
516.189701
 20
218.383150
 42
-0.011780
  0
VERTEX
  8
0
 10
508.777110
 20
214.330722
 42
0.017712
  0
VERTEX
  8
0
 10
502.564087
 20
210.837729
 42
0.057727
  0
VERTEX
  8
0
 10
498.849421
 20
207.937384
 42
0.078051
  0
VERTEX
  8
0
 10
496.517977
 20
204.784812
 42
0.054542
  0
VERTEX
  8
0
 10
494.908168
 20
200.658962
 42
0.145395
  0
VERTEX
  8
0
 10
495.118190
 20
192.499031
 42
0.140068
  0
VERTEX
  8
0
 10
499.739922
 20
185.638315
 42
0.137295
  0
VERTEX
  8
0
 10
507.373295
 20
182.167336
 42
0.137916
  0
VERTEX
  8
0
 10
515.684900
 20
183.171418
 42
-0.063081
  0
VERTEX
  8
0
 10
517.321500
 20
183.621419
 42
-0.015697
  0
VERTEX
  8
0
 10
520.086781
 20
183.929477
 42
-0.015356
  0
VERTEX
  8
0
 10
523.381195
 20
184.090520
 42
-0.012846
  0
VERTEX
  8
0
 10
526.881979
 20
184.064072
 42
-0.009752
  0
VERTEX
  8
0
 10
531.925103
 20
183.797805
 42
-0.051213
  0
VERTEX
  8
0
 10
534.654830
 20
183.316324
 42
-0.068319
  0
VERTEX
  8
0
 10
536.860858
 20
182.348717
 42
-0.025554
  0
VERTEX
  8
0
 10
539.654827
 20
180.433680
 42
0.135371
  0
VERTEX
  8
0
 10
550.127049
 20
176.216119
 42
0.146589
  0
VERTEX
  8
0
 10
560.928385
 20
178.152032
 42
0.144879
  0
VERTEX
  8
0
 10
568.973699
 20
185.740849
 42
0.131419
  0
VERTEX
  8
0
 10
571.978038
 20
196.789838
 42
0.062377
  0
VERTEX
  8
0
 10
571.335609
 20
202.097969
 42
0.077810
  0
VERTEX
  8
0
 10
569.402404
 20
206.666082
 42
0.053288
  0
VERTEX
  8
0
 10
565.554912
 20
211.601858
 42
0.014892
  0
VERTEX
  8
0
 10
558.533107
 20
218.443692
 42
-0.014390
  0
VERTEX
  8
0
 10
550.458606
 20
226.295450
 42
-0.076892
  0
VERTEX
  8
0
 10
546.912508
 20
231.292951
 42
-0.157588
  0
VERTEX
  8
0
 10
546.298416
 20
235.327871
 42
-0.126912
  0
VERTEX
  8
0
 10
548.072580
 20
239.365141
 42
-0.165365
  0
VERTEX
  8
0
 10
551.724975
 20
241.739931
 42
-0.146918
  0
VERTEX
  8
0
 10
556.268188
 20
241.544472
 42
-0.131994
  0
VERTEX
  8
0
 10
560.311523
 20
238.794773
 42
-0.125294
  0
VERTEX
  8
0
 10
562.530670
 20
234.336122
 42
0.007062
  0
VERTEX
  8
0
 10
563.607948
 20
229.664819
 42
0.445498
  0
VERTEX
  8
0
 10
564.272747
 20
229.308674
 42
0.307164
  0
VERTEX
  8
0
 10
564.826787
 20
230.071165
 42
0.005888
  0
VERTEX
  8
0
 10
564.932320
 20
235.202996
 42
0.000000
  0
VERTEX
  8
0
 10
565.000000
 20
242.905992
 42
0.000000
  0
VERTEX
  8
0
 10
561.250000
 20
243.947419
 42
0.036836
  0
VERTEX
  8
0
 10
557.037506
 20
244.789276
 42
0.050959
  0
VERTEX
  8
0
 10
553.187375
 20
244.873149
 42
0.053711
  0
VERTEX
  8
0
 10
549.559410
 20
244.185318
 42
0.047973
  0
VERTEX
  8
0
 10
546.012620
 20
242.725075
 42
0.099080
  0
VERTEX
  8
0
 10
541.390665
 20
238.957219
 42
0.100596
  0
VERTEX
  8
0
 10
538.605097
 20
233.719917
 42
0.099728
  0
VERTEX
  8
0
 10
538.071339
 20
227.772115
 42
0.095643
  0
VERTEX
  8
0
 10
539.861717
 20
221.984398
 42
0.058432
  0
VERTEX
  8
0
 10
541.118307
 20
220.176657
 42
0.011748
  0
VERTEX
  8
0
 10
543.787488
 20
217.298044
 42
0.012261
  0
VERTEX
  8
0
 10
547.072431
 20
214.079967
 42
0.011181
  0
VERTEX
  8
0
 10
550.611717
 20
210.923836
 42
-0.016732
  0
VERTEX
  8
0
 10
557.639029
 20
204.515864
 42
-0.058434
  0
VERTEX
  8
0
 10
561.496772
 20
199.757687
 42
-0.086459
  0
VERTEX
  8
0
 10
563.331518
 20
195.319998
 42
-0.072807
  0
VERTEX
  8
0
 10
563.708958
 20
190.242310
 42
-0.056980
  0
VERTEX
  8
0
 10
562.921202
 20
186.032812
 42
-0.092338
  0
VERTEX
  8
0
 10
561.235200
 20
182.817806
 42
-0.095600
  0
VERTEX
  8
0
 10
558.553867
 20
180.498954
 42
-0.064935
  0
VERTEX
  8
0
 10
554.815130
 20
178.950220
 42
-0.067093
  0
VERTEX
  8
0
 10
551.035280
 20
178.459713
 42
-0.064661
  0
VERTEX
  8
0
 10
547.210481
 20
178.975640
 42
-0.065392
  0
VERTEX
  8
0
 10
543.682997
 20
180.441412
 42
-0.071614
  0
VERTEX
  8
0
 10
540.773694
 20
182.734051
 42
-0.145999
  0
VERTEX
  8
0
 10
537.309036
 20
189.546964
 42
-0.153023
  0
VERTEX
  8
0
 10
538.232413
 20
197.005157
 42
-0.198471
  0
VERTEX
  8
0
 10
542.898167
 20
201.369894
 42
-0.216183
  0
VERTEX
  8
0
 10
549.065741
 20
200.964816
 42
-0.167020
  0
VERTEX
  8
0
 10
550.323283
 20
199.610639
 42
-0.073943
  0
VERTEX
  8
0
 10
550.982063
 20
197.228537
 42
-0.076361
  0
VERTEX
  8
0
 10
550.909948
 20
194.844001
 42
-0.211722
  0
VERTEX
  8
0
 10
549.983688
 20
193.489919
 42
0.198061
  0
VERTEX
  8
0
 10
549.421079
 20
192.712032
 42
0.257029
  0
VERTEX
  8
0
 10
549.650135
 20
191.878116
 42
0.134009
  0
VERTEX
  8
0
 10
550.765697
 20
191.219780
 42
0.066775
  0
VERTEX
  8
0
 10
552.404029
 20
191.000000
 42
0.120188
  0
VERTEX
  8
0
 10
554.599782
 20
191.535544
 42
0.107553
  0
VERTEX
  8
0
 10
556.407565
 20
193.035921
 42
0.094472
  0
VERTEX
  8
0
 10
557.593215
 20
195.339211
 42
0.071874
  0
VERTEX
  8
0
 10
558.000000
 20
198.154427
 42
0.097010
  0
VERTEX
  8
0
 10
557.385460
 20
201.292016
 42
0.109588
  0
VERTEX
  8
0
 10
555.641715
 20
203.812960
 42
0.096121
  0
VERTEX
  8
0
 10
552.785190
 20
205.586803
 42
0.059649
  0
VERTEX
  8
0
 10
548.943403
 20
206.546899
 42
0.104160
  0
VERTEX
  8
0
 10
542.862942
 20
206.048179
 42
0.131565
  0
VERTEX
  8
0
 10
538.073061
 20
203.104648
 42
0.117476
  0
VERTEX
  8
0
 10
535.036243
 20
197.852675
 42
0.072721
  0
VERTEX
  8
0
 10
534.000000
 20
190.765602
 42
-0.014302
  0
VERTEX
  8
0
 10
533.936762
 20
188.555251
 42
-0.023465
  0
VERTEX
  8
0
 10
533.742218
 20
186.693646
 42
-0.019978
  0
VERTEX
  8
0
 10
533.467613
 20
185.273419
 42
-0.348079
  0
VERTEX
  8
0
 10
533.122445
 20
185.000000
 42
-0.311164
  0
VERTEX
  8
0
 10
531.477401
 20
186.133507
 42
-0.062482
  0
VERTEX
  8
0
 10
530.587159
 20
189.782032
 42
-0.024603
  0
VERTEX
  8
0
 10
530.122085
 20
196.891067
 42
-0.003031
  0
VERTEX
  8
0
 10
529.965454
 20
212.445949
 42
0.000000
  0
VERTEX
  8
0
 10
529.866009
 20
237.265169
 42
0.000000
  0
VERTEX
  8
0
 10
533.458934
 20
240.226762
 42
0.101903
  0
VERTEX
  8
0
 10
538.021473
 20
245.888308
 42
0.100880
  0
VERTEX
  8
0
 10
539.996731
 20
252.912383
 42
0.102166
  0
VERTEX
  8
0
 10
539.056009
 20
260.075931
 42
0.107301
  0
VERTEX
  8
0
 10
535.355298
 20
266.139352
 42
0.000000
  0
VERTEX
  8
0
 10
532.837833
 20
268.778703
 42
0.000000
  0
VERTEX
  8
0
 10
537.611604
 20
271.139352
 42
0.048347
  0
VERTEX
  8
0
 10
542.579151
 20
274.225178
 42
0.023517
  0
VERTEX
  8
0
 10
548.299702
 20
279.038690
 42
0.023246
  0
VERTEX
  8
0
 10
553.765500
 20
284.588390
 42
0.033699
  0
VERTEX
  8
0
 10
558.002554
 20
290.003762
 42
0.038953
  0
VERTEX
  8
0
 10
563.459953
 20
299.564408
 42
0.041135
  0
VERTEX
  8
0
 10
567.253608
 20
309.686139
 42
0.039229
  0
VERTEX
  8
0
 10
569.466183
 20
320.716787
 42
0.030035
  0
VERTEX
  8
0
 10
570.197740
 20
333.000000
 42
0.068222
  0
VERTEX
  8
0
 10
567.111662
 20
355.418381
 42
0.081257
  0
VERTEX
  8
0
 10
558.121946
 20
374.754495
 42
0.084005
  0
VERTEX
  8
0
 10
543.737172
 20
389.739437
 42
0.079350
  0
VERTEX
  8
0
 10
524.949512
 20
399.516814
 42
0.035944
  0
VERTEX
  8
0
 10
518.294191
 20
401.213505
 42
0.020320
  0
VERTEX
  8
0
 10
510.043382
 20
402.352074
 42
0.020330
  0
VERTEX
  8
0
 10
501.867259
 20
402.809107
 42
0.042249
  0
SEQEND
  0
POLYLINE
  8
0
 66
1
 70
1
  0
VERTEX
  8
0
 10
523.000000
 20
377.825703
 42
-0.124123
  0
VERTEX
  8
0
 10
528.991626
 20
372.157084
 42
-0.179946
  0
VERTEX
  8
0
 10
530.494929
 20
365.105007
 42
-0.155804
  0
VERTEX
  8
0
 10
527.024872
 20
358.015387
 42
-0.089713
  0
VERTEX
  8
0
 10
519.257040
 20
352.380853
 42
-0.024550
  0
VERTEX
  8
0
 10
515.808926
 20
350.924993
 42
-0.037989
  0
VERTEX
  8
0
 10
512.698720
 20
350.049188
 42
-0.029890
  0
VERTEX
  8
0
 10
508.995314
 20
349.531904
 42
-0.009540
  0
VERTEX
  8
0
 10
503.439625
 20
349.198502
 42
-0.023947
  0
VERTEX
  8
0
 10
495.348871
 20
349.255337
 42
-0.035501
  0
VERTEX
  8
0
 10
488.317051
 20
350.145215
 42
-0.039538
  0
VERTEX
  8
0
 10
482.096650
 20
351.906245
 42
-0.043821
  0
VERTEX
  8
0
 10
476.452567
 20
354.580666
 42
-0.035905
  0
VERTEX
  8
0
 10
473.293363
 20
356.750675
 42
-0.027000
  0
VERTEX
  8
0
 10
470.144188
 20
359.555548
 42
-0.022883
  0
VERTEX
  8
0
 10
467.593733
 20
362.329677
 42
-0.176205
  0
VERTEX
  8
0
 10
467.000000
 20
363.962149
 42
-0.277547
  0
VERTEX
  8
0
 10
467.269065
 20
364.409528
 42
-0.002950
  0
VERTEX
  8
0
 10
470.598437
 20
366.151159
 42
-0.008245
  0
VERTEX
  8
0
 10
474.553928
 20
368.108806
 42
-0.005140
  0
VERTEX
  8
0
 10
479.250000
 20
370.278481
 42
-0.016808
  0
VERTEX
  8
0
 10
494.991630
 20
376.729106
 42
-0.046150
  0
VERTEX
  8
0
 10
506.574318
 20
379.848352
 42
-0.067772
  0
VERTEX
  8
0
 10
515.568320
 20
380.167684
 42
-0.103081
  0
SEQEND
  0
POLYLINE
  8
0
 66
1
 70
1
  0
VERTEX
  8
0
 10
445.500000
 20
273.638647
 42
-0.031397
  0
VERTEX
  8
0
 10
450.616864
 20
271.919235
 42
-0.021406
  0
VERTEX
  8
0
 10
456.197801
 20
269.361375
 42
-0.019037
  0
VERTEX
  8
0
 10
462.227369
 20
265.983720
 42
-0.013654
  0
VERTEX
  8
0
 10
468.705923
 20
261.776083
 42
-0.006811
  0
VERTEX
  8
0
 10
475.438434
 20
257.000790
 42
-0.123280
  0
VERTEX
  8
0
 10
477.115328
 20
254.989255
 42
-0.252749
  0
VERTEX
  8
0
 10
477.024658
 20
252.999349
 42
-0.036469
  0
VERTEX
  8
0
 10
474.601545
 20
249.558617
 42
-0.034714
  0
VERTEX
  8
0
 10
470.941835
 20
245.676167
 42
-0.032710
  0
VERTEX
  8
0
 10
466.710179
 20
242.253311
 42
-0.031142
  0
VERTEX
  8
0
 10
462.962838
 20
239.943061
 42
-0.450955
  0
VERTEX
  8
0
 10
461.666498
 20
240.426709
 42
0.166549
  0
VERTEX
  8
0
 10
460.489747
 20
241.833830
 42
0.032112
  0
VERTEX
  8
0
 10
457.501192
 20
243.389889
 42
0.034835
  0
VERTEX
  8
0
 10
454.122832
 20
244.608580
 42
0.069252
  0
VERTEX
  8
0
 10
451.310313
 20
245.000000
 42
0.048246
  0
VERTEX
  8
0
 10
449.941208
 20
244.867585
 42
0.021608
  0
VERTEX
  8
0
 10
448.180830
 20
244.444166
 42
0.021153
  0
VERTEX
  8
0
 10
446.344018
 20
243.832298
 42
0.026913
  0
VERTEX
  8
0
 10
444.711442
 20
243.107799
 42
-0.005219
  0
VERTEX
  8
0
 10
442.267259
 20
241.893658
 42
-0.113130
  0
VERTEX
  8
0
 10
441.490360
 20
241.715598
 42
-0.356268
  0
VERTEX
  8
0
 10
441.109485
 20
242.026440
 42
-0.050494
  0
VERTEX
  8
0
 10
441.000000
 20
243.107799
 42
0.184496
  0
VERTEX
  8
0
 10
440.615130
 20
244.115327
 42
0.156760
  0
VERTEX
  8
0
 10
439.626969
 20
244.694347
 42
0.049666
  0
VERTEX
  8
0
 10
437.515595
 20
244.948486
 42
0.005135
  0
VERTEX
  8
0
 10
432.500000
 20
245.000000
 42
0.014768
  0
VERTEX
  8
0
 10
427.264906
 20
244.845347
 42
0.080805
  0
VERTEX
  8
0
 10
424.511848
 20
244.228770
 42
0.509359
  0
VERTEX
  8
0
 10
424.284199
 20
243.325930
 42
0.131277
  0
VERTEX
  8
0
 10
425.750000
 20
242.291557
 42
-0.066596
  0
VERTEX
  8
0
 10
427.269661
 20
241.487889
 42
-0.106142
  0
VERTEX
  8
0
 10
428.256817
 20
240.406448
 42
-0.091389
  0
VERTEX
  8
0
 10
428.802816
 20
238.892309
 42
-0.039582
  0
VERTEX
  8
0
 10
428.984687
 20
236.750000
 42
-0.066148
  0
VERTEX
  8
0
 10
428.744097
 20
234.858799
 42
-0.300438
  0
VERTEX
  8
0
 10
427.955795
 20
234.155546
 42
-0.141078
  0
VERTEX
  8
0
 10
426.451232
 20
234.360802
 42
-0.014798
  0
VERTEX
  8
0
 10
423.210162
 20
235.908417
 42
-0.064758
  0
VERTEX
  8
0
 10
418.339061
 20
239.272599
 42
-0.062397
  0
VERTEX
  8
0
 10
414.420586
 20
243.809288
 42
-0.064918
  0
VERTEX
  8
0
 10
411.869315
 20
248.983080
 42
-0.083051
  0
VERTEX
  8
0
 10
411.009769
 20
254.217881
 42
-0.078553
  0
VERTEX
  8
0
 10
411.643804
 20
258.152699
 42
-0.037837
  0
VERTEX
  8
0
 10
413.601208
 20
262.885182
 42
-0.037838
  0
VERTEX
  8
0
 10
416.232944
 20
267.241315
 42
-0.083423
  0
VERTEX
  8
0
 10
418.974014
 20
269.981496
 42
-0.067535
  0
VERTEX
  8
0
 10
424.551962
 20
272.913214
 42
-0.053059
  0
VERTEX
  8
0
 10
431.188053
 20
274.558471
 42
-0.050586
  0
VERTEX
  8
0
 10
438.353754
 20
274.815986
 42
-0.049099
  0
SEQEND
  0
POLYLINE
  8
0
 66
1
 70
1
  0
VERTEX
  8
0
 10
518.226419
 20
240.214354
 42
-0.036792
  0
VERTEX
  8
0
 10
518.852824
 20
239.591198
 42
-0.051141
  0
VERTEX
  8
0
 10
519.307319
 20
238.944031
 42
-0.062758
  0
VERTEX
  8
0
 10
519.540623
 20
238.367810
 42
-0.206079
  0
VERTEX
  8
0
 10
519.481745
 20
237.970463
 42
-0.289299
  0
VERTEX
  8
0
 10
518.577353
 20
237.529121
 42
-0.022277
  0
VERTEX
  8
0
 10
515.782074
 20
237.962370
 42
-0.029354
  0
VERTEX
  8
0
 10
512.792673
 20
238.748047
 42
-0.049202
  0
VERTEX
  8
0
 10
510.416484
 20
239.792205
 42
-0.016692
  0
VERTEX
  8
0
 10
509.273373
 20
240.486357
 42
-0.329734
  0
VERTEX
  8
0
 10
509.138988
 20
240.849238
 42
-0.227189
  0
VERTEX
  8
0
 10
509.441940
 20
241.188350
 42
-0.009371
  0
VERTEX
  8
0
 10
511.000000
 20
241.803663
 42
-0.055470
  0
VERTEX
  8
0
 10
512.961839
 20
242.297404
 42
-0.088281
  0
VERTEX
  8
0
 10
514.686482
 20
242.227727
 42
-0.081775
  0
VERTEX
  8
0
 10
516.372330
 20
241.555020
 42
-0.041621
  0
SEQEND
  0
POLYLINE
  8
0
 66
1
 70
1
  0
VERTEX
  8
0
 10
451.193013
 20
239.250000
 42
-0.067175
  0
VERTEX
  8
0
 10
453.205834
 20
236.147154
 42
-0.282897
  0
VERTEX
  8
0
 10
452.972441
 20
234.035373
 42
-0.178304
  0
VERTEX
  8
0
 10
450.681250
 20
232.610260
 42
-0.029204
  0
VERTEX
  8
0
 10
445.426391
 20
231.842140
 42
-0.017250
  0
VERTEX
  8
0
 10
443.268215
 20
231.729257
 42
-0.101361
  0
VERTEX
  8
0
 10
442.158904
 20
231.936017
 42
-0.179843
  0
VERTEX
  8
0
 10
441.540807
 20
232.502876
 42
-0.082846
  0
VERTEX
  8
0
 10
441.205530
 20
233.558932
 42
-0.143377
  0
VERTEX
  8
0
 10
441.530281
 20
235.819047
 42
-0.067125
  0
VERTEX
  8
0
 10
443.118630
 20
238.343664
 42
-0.067492
  0
VERTEX
  8
0
 10
445.302338
 20
240.339163
 42
-0.152571
  0
VERTEX
  8
0
 10
447.417593
 20
241.000000
 42
-0.065164
  0
VERTEX
  8
0
 10
448.397810
 20
240.871706
 42
-0.043467
  0
VERTEX
  8
0
 10
449.464001
 20
240.485938
 42
-0.043370
  0
VERTEX
  8
0
 10
450.450842
 20
239.919953
 42
-0.063528
  0
SEQEND
  0
POLYLINE
  8
0
 66
1
 70
1
  0
VERTEX
  8
0
 10
521.000000
 20
204.000000
 42
-0.003481
  0
VERTEX
  8
0
 10
520.942490
 20
195.739666
 42
-0.027615
  0
VERTEX
  8
0
 10
520.678571
 20
191.928571
 42
-0.063850
  0
VERTEX
  8
0
 10
520.095702
 20
189.663660
 42
-0.101847
  0
VERTEX
  8
0
 10
519.000000
 20
188.000000
 42
-0.103538
  0
VERTEX
  8
0
 10
516.560883
 20
186.405249
 42
-0.119507
  0
VERTEX
  8
0
 10
513.813697
 20
186.032579
 42
-0.111399
  0
VERTEX
  8
0
 10
511.053398
 20
186.962461
 42
-0.081296
  0
VERTEX
  8
0
 10
508.588894
 20
189.076725
 42
-0.039300
  0
VERTEX
  8
0
 10
507.242420
 20
190.959011
 42
-0.067569
  0
VERTEX
  8
0
 10
506.479637
 20
192.726312
 42
-0.052637
  0
VERTEX
  8
0
 10
506.108537
 20
194.923140
 42
-0.015695
  0
VERTEX
  8
0
 10
506.003738
 20
198.326725
 42
-0.045021
  0
VERTEX
  8
0
 10
506.476029
 20
203.526127
 42
-0.084542
  0
VERTEX
  8
0
 10
507.915669
 20
207.479238
 42
-0.079396
  0
VERTEX
  8
0
 10
510.654412
 20
210.891104
 42
-0.035832
  0
VERTEX
  8
0
 10
515.184396
 20
214.438242
 42
-0.002157
  0
VERTEX
  8
0
 10
517.230792
 20
215.803568
 42
-0.003418
  0
VERTEX
  8
0
 10
518.997045
 20
216.953733
 42
-0.000837
  0
VERTEX
  8
0
 10
520.548075
 20
217.945056
 42
-0.142714
  0
VERTEX
  8
0
 10
520.736652
 20
218.000000
 42
-0.408309
  0
VERTEX
  8
0
 10
520.844479
 20
217.894329
 42
-0.000348
  0
VERTEX
  8
0
 10
520.922641
 20
213.887500
 42
-0.002939
  0
VERTEX
  8
0
 10
520.981075
 20
209.368295
 42
-0.001763
  0
SEQEND
  0
POLYLINE
  8
0
 66
1
 70
1
  0
VERTEX
  8
0
 10
331.000000
 20
399.831078
 42
0.063467
  0
VERTEX
  8
0
 10
327.477379
 20
398.333279
 42
0.070319
  0
VERTEX
  8
0
 10
324.577549
 20
396.039624
 42
0.077943
  0
VERTEX
  8
0
 10
322.660866
 20
393.271494
 42
0.112988
  0
VERTEX
  8
0
 10
322.000000
 20
390.384337
 42
0.073904
  0
VERTEX
  8
0
 10
322.372078
 20
387.880789
 42
0.094791
  0
VERTEX
  8
0
 10
323.453897
 20
385.823437
 42
0.106741
  0
VERTEX
  8
0
 10
325.099313
 20
384.479182
 42
0.118633
  0
VERTEX
  8
0
 10
327.090481
 20
384.000000
 42
0.060387
  0
VERTEX
  8
0
 10
328.056030
 20
384.117041
 42
0.215338
  0
VERTEX
  8
0
 10
328.534047
 20
384.492228
 42
0.154644
  0
VERTEX
  8
0
 10
328.658576
 20
385.199497
 42
0.028340
  0
VERTEX
  8
0
 10
328.405772
 20
386.519411
 42
-0.142397
  0
VERTEX
  8
0
 10
328.549400
 20
390.400797
 42
-0.100064
  0
VERTEX
  8
0
 10
330.731713
 20
394.218105
 42
-0.095887
  0
VERTEX
  8
0
 10
334.327860
 20
397.013717
 42
-0.117946
  0
VERTEX
  8
0
 10
338.450789
 20
398.000000
 42
-0.093918
  0
VERTEX
  8
0
 10
340.630725
 20
397.586886
 42
-0.040282
  0
VERTEX
  8
0
 10
343.302718
 20
396.279342
 42
-0.039237
  0
VERTEX
  8
0
 10
345.904290
 20
394.445341
 42
-0.053000
  0
VERTEX
  8
0
 10
347.911704
 20
392.385121
 42
-0.107502
  0
VERTEX
  8
0
 10
349.562762
 20
388.987457
 42
-0.062084
  0
VERTEX
  8
0
 10
350.082708
 20
384.452166
 42
-0.060649
  0
VERTEX
  8
0
 10
349.468004
 20
379.787108
 42
-0.086570
  0
VERTEX
  8
0
 10
347.750000
 20
375.989831
 42
-0.042771
  0
VERTEX
  8
0
 10
344.501148
 20
371.997412
 42
-0.100186
  0
VERTEX
  8
0
 10
341.345131
 20
369.826525
 42
-0.080201
  0
VERTEX
  8
0
 10
337.155127
 20
368.788875
 42
-0.020679
  0
VERTEX
  8
0
 10
330.173449
 20
368.500000
 42
-0.029483
  0
VERTEX
  8
0
 10
322.541456
 20
368.950412
 42
-0.062662
  0
VERTEX
  8
0
 10
316.808709
 20
370.371896
 42
-0.035871
  0
VERTEX
  8
0
 10
309.881414
 20
373.632516
 42
-0.004519
  0
VERTEX
  8
0
 10
295.511664
 20
381.872971
 42
0.021639
  0
VERTEX
  8
0
 10
280.624320
 20
389.745767
 42
0.052932
  0
VERTEX
  8
0
 10
268.942386
 20
393.844005
 42
0.069540
  0
VERTEX
  8
0
 10
258.762069
 20
394.791277
 42
0.069828
  0
VERTEX
  8
0
 10
248.727272
 20
392.908125
 42
0.046848
  0
VERTEX
  8
0
 10
241.218046
 20
389.567644
 42
0.059874
  0
VERTEX
  8
0
 10
235.112434
 20
385.099139
 42
0.057876
  0
VERTEX
  8
0
 10
230.089273
 20
379.180894
 42
0.040028
  0
VERTEX
  8
0
 10
225.811667
 20
371.500000
 42
0.064404
  0
VERTEX
  8
0
 10
223.928826
 20
365.402319
 42
0.045793
  0
VERTEX
  8
0
 10
223.361208
 20
358.263055
 42
0.045541
  0
VERTEX
  8
0
 10
224.104316
 20
351.087992
 42
0.061105
  0
VERTEX
  8
0
 10
226.135962
 20
344.879989
 42
0.036384
  0
VERTEX
  8
0
 10
228.919453
 20
339.916263
 42
0.034281
  0
VERTEX
  8
0
 10
232.443674
 20
335.302866
 42
0.036000
  0
VERTEX
  8
0
 10
236.322128
 20
331.481787
 42
0.058625
  0
VERTEX
  8
0
 10
240.160464
 20
328.918137
 42
0.101245
  0
VERTEX
  8
0
 10
255.440267
 20
324.690284
 42
0.124193
  0
VERTEX
  8
0
 10
269.969110
 20
327.318804
 42
0.134076
  0
VERTEX
  8
0
 10
280.743969
 20
336.260049
 42
0.127872
  0
VERTEX
  8
0
 10
285.722398
 20
349.599240
 42
0.070698
  0
VERTEX
  8
0
 10
285.517116
 20
354.954280
 42
0.066273
  0
VERTEX
  8
0
 10
283.836602
 20
360.167672
 42
0.066446
  0
VERTEX
  8
0
 10
280.856187
 20
364.747875
 42
0.071767
  0
VERTEX
  8
0
 10
276.846502
 20
368.250000
 42
0.102908
  0
VERTEX
  8
0
 10
269.852890
 20
370.958954
 42
0.094629
  0
VERTEX
  8
0
 10
262.135349
 20
370.771854
 42
0.096492
  0
VERTEX
  8
0
 10
255.152827
 20
367.775767
 42
0.112209
  0
VERTEX
  8
0
 10
250.239247
 20
362.497164
 42
0.028232
  0
VERTEX
  8
0
 10
249.150123
 20
360.351304
 42
0.047255
  0
VERTEX
  8
0
 10
248.516469
 20
358.431340
 42
0.048642
  0
VERTEX
  8
0
 10
248.265302
 20
356.466359
 42
0.032061
  0
VERTEX
  8
0
 10
248.343204
 20
354.187735
 42
0.068605
  0
VERTEX
  8
0
 10
249.168199
 20
350.746086
 42
0.071023
  0
VERTEX
  8
0
 10
250.888190
 20
347.700329
 42
0.083844
  0
VERTEX
  8
0
 10
253.072041
 20
345.675541
 42
0.186792
  0
VERTEX
  8
0
 10
255.252995
 20
345.208412
 42
0.092536
  0
VERTEX
  8
0
 10
256.744528
 20
345.740856
 42
0.310659
  0
VERTEX
  8
0
 10
257.164347
 20
346.630398
 42
0.194946
  0
VERTEX
  8
0
 10
256.498647
 20
347.724712
 42
0.048105
  0
VERTEX
  8
0
 10
254.662649
 20
348.832957
 42
-0.202763
  0
VERTEX
  8
0
 10
250.838791
 20
353.159898
 42
-0.169833
  0
VERTEX
  8
0
 10
250.917808
 20
359.331970
 42
-0.129784
  0
VERTEX
  8
0
 10
255.121796
 20
365.380620
 42
-0.111017
  0
VERTEX
  8
0
 10
262.008003
 20
369.002155
 42
-0.089605
  0
VERTEX
  8
0
 10
267.227800
 20
369.443234
 42
-0.072371
  0
VERTEX
  8
0
 10
272.702281
 20
368.109793
 42
-0.071910
  0
VERTEX
  8
0
 10
277.602282
 20
365.258610
 42
-0.086213
  0
VERTEX
  8
0
 10
281.149228
 20
361.281086
 42
-0.086114
  0
VERTEX
  8
0
 10
282.945078
 20
356.842065
 42
-0.051332
  0
VERTEX
  8
0
 10
283.572706
 20
351.162056
 42
-0.050605
  0
VERTEX
  8
0
 10
283.026837
 20
345.350126
 42
-0.073348
  0
VERTEX
  8
0
 10
281.304595
 20
340.500000
 42
-0.119316
  0
VERTEX
  8
0
 10
273.545551
 20
331.744738
 42
-0.108809
  0
VERTEX
  8
0
 10
262.378583
 20
327.136540
 42
-0.102608
  0
VERTEX
  8
0
 10
249.752776
 20
327.514053
 42
-0.095026
  0
VERTEX
  8
0
 10
237.930589
 20
332.848564
 42
-0.096117
  0
VERTEX
  8
0
 10
230.966272
 20
340.091458
 42
-0.084540
  0
VERTEX
  8
0
 10
226.824596
 20
349.739986
 42
-0.082926
  0
VERTEX
  8
0
 10
226.063984
 20
360.387123
 42
-0.087307
  0
VERTEX
  8
0
 10
228.844627
 20
370.500000
 42
-0.083756
  0
VERTEX
  8
0
 10
235.093660
 20
379.448155
 42
-0.082575
  0
VERTEX
  8
0
 10
243.960166
 20
385.903009
 42
-0.081397
  0
VERTEX
  8
0
 10
254.555636
 20
389.204534
 42
-0.078169
  0
VERTEX
  8
0
 10
265.806077
 20
389.020083
 42
-0.025832
  0
VERTEX
  8
0
 10
272.103549
 20
387.584941
 42
-0.039089
  0
VERTEX
  8
0
 10
277.373818
 20
385.638088
 42
-0.043733
  0
VERTEX
  8
0
 10
281.813085
 20
383.099852
 42
-0.047628
  0
VERTEX
  8
0
 10
285.607396
 20
379.890978
 42
0.000000
  0
VERTEX
  8
0
 10
289.500000
 20
375.905550
 42
0.000000
  0
VERTEX
  8
0
 10
289.783248
 20
336.452775
 42
-0.001228
  0
VERTEX
  8
0
 10
289.880449
 20
315.877500
 42
-0.006903
  0
VERTEX
  8
0
 10
289.753583
 20
304.880977
 42
-0.004684
  0
VERTEX
  8
0
 10
289.503882
 20
297.689929
 42
-0.401547
  0
VERTEX
  8
0
 10
288.783248
 20
297.000818
 42
-0.041815
  0
VERTEX
  8
0
 10
287.946852
 20
297.071426
 42
-0.003064
  0
VERTEX
  8
0
 10
285.673829
 20
297.470807
 42
-0.004256
  0
VERTEX
  8
0
 10
282.966170
 20
297.987530
 42
-0.003211
  0
VERTEX
  8
0
 10
280.000000
 20
298.599632
 42
0.018741
  0
VERTEX
  8
0
 10
276.006442
 20
299.295229
 42
0.017851
  0
VERTEX
  8
0
 10
271.906726
 20
299.703565
 42
0.016434
  0
VERTEX
  8
0
 10
267.481203
 20
299.839517
 42
0.011551
  0
VERTEX
  8
0
 10
262.500000
 20
299.713690
 42
0.069238
  0
VERTEX
  8
0
 10
243.503498
 20
296.126985
 42
0.072192
  0
VERTEX
  8
0
 10
226.501367
 20
287.511805
 42
0.070399
  0
VERTEX
  8
0
 10
212.312916
 20
274.195402
 42
0.061108
  0
VERTEX
  8
0
 10
201.565557
 20
256.840276
 42
0.020618
  0
VERTEX
  8
0
 10
198.060546
 20
248.341626
 42
0.036812
  0
VERTEX
  8
0
 10
195.998872
 20
241.072043
 42
0.034510
  0
VERTEX
  8
0
 10
194.948506
 20
233.266514
 42
0.015840
  0
VERTEX
  8
0
 10
194.608637
 20
223.000000
 42
0.021383
  0
VERTEX
  8
0
 10
195.079043
 20
211.628976
 42
0.035750
  0
VERTEX
  8
0
 10
196.561717
 20
202.175665
 42
0.037573
  0
VERTEX
  8
0
 10
199.308238
 20
193.364165
 42
0.026894
  0
VERTEX
  8
0
 10
203.622791
 20
183.982247
 42
0.069160
  0
VERTEX
  8
0
 10
215.536560
 20
167.396630
 42
0.079364
  0
VERTEX
  8
0
 10
231.034401
 20
155.581206
 42
0.076595
  0
VERTEX
  8
0
 10
249.915336
 20
148.900254
 42
0.058962
  0
VERTEX
  8
0
 10
271.750000
 20
147.382079
 42
0.000000
  0
VERTEX
  8
0
 10
283.000000
 20
147.926654
 42
0.000000
  0
VERTEX
  8
0
 10
283.009769
 20
142.213327
 42
0.095738
  0
VERTEX
  8
0
 10
284.934151
 20
132.345814
 42
0.097735
  0
VERTEX
  8
0
 10
290.390894
 20
123.987012
 42
0.088518
  0
VERTEX
  8
0
 10
299.135108
 20
117.730996
 42
0.063703
  0
VERTEX
  8
0
 10
310.563575
 20
113.979117
 42
0.018622
  0
VERTEX
  8
0
 10
314.049580
 20
113.442508
 42
0.039066
  0
VERTEX
  8
0
 10
316.787887
 20
113.340045
 42
0.036060
  0
VERTEX
  8
0
 10
319.643206
 20
113.663438
 42
0.013709
  0
VERTEX
  8
0
 10
323.563575
 20
114.508399
 42
0.044980
  0
VERTEX
  8
0
 10
333.020023
 20
117.743237
 42
0.039033
  0
VERTEX
  8
0
 10
342.230772
 20
122.745545
 42
0.025845
  0
VERTEX
  8
0
 10
353.425911
 20
130.860704
 42
0.007298
  0
VERTEX
  8
0
 10
370.000000
 20
144.637809
 42
-0.012803
  0
VERTEX
  8
0
 10
377.612593
 20
150.825279
 42
-0.017913
  0
VERTEX
  8
0
 10
384.741803
 20
155.926374
 42
-0.020050
  0
VERTEX
  8
0
 10
391.453193
 20
159.996500
 42
-0.027651
  0
VERTEX
  8
0
 10
397.799718
 20
163.060396
 42
-0.013960
  0
VERTEX
  8
0
 10
402.260621
 20
164.772987
 42
-0.036099
  0
VERTEX
  8
0
 10
405.584186
 20
165.680209
 42
-0.036254
  0
VERTEX
  8
0
 10
408.995446
 20
166.097878
 42
-0.014185
  0
VERTEX
  8
0
 10
413.740904
 20
166.197483
 42
0.006903
  0
VERTEX
  8
0
 10
417.990095
 20
166.224774
 42
0.036077
  0
VERTEX
  8
0
 10
420.318509
 20
166.440416
 42
0.080356
  0
VERTEX
  8
0
 10
421.574881
 20
166.863523
 42
0.278263
  0
VERTEX
  8
0
 10
422.000000
 20
167.568254
 42
0.239347
  0
VERTEX
  8
0
 10
421.654705
 20
168.248259
 42
0.099966
  0
VERTEX
  8
0
 10
420.694391
 20
168.690792
 42
0.047243
  0
VERTEX
  8
0
 10
418.939548
 20
168.934744
 42
0.010929
  0
VERTEX
  8
0
 10
415.954545
 20
169.000000
 42
-0.014887
  0
VERTEX
  8
0
 10
412.658641
 20
169.098155
 42
-0.054092
  0
VERTEX
  8
0
 10
410.595514
 20
169.447260
 42
-0.075848
  0
VERTEX
  8
0
 10
409.037272
 20
170.156455
 42
-0.051767
  0
VERTEX
  8
0
 10
407.524043
 20
171.385048
 42
-0.107731
  0
VERTEX
  8
0
 10
405.075082
 20
175.199343
 42
-0.059265
  0
VERTEX
  8
0
 10
403.762980
 20
180.614047
 42
-0.028118
  0
VERTEX
  8
0
 10
403.200427
 20
189.513928
 42
-0.004364
  0
VERTEX
  8
0
 10
403.232663
 20
207.171241
 42
0.000000
  0
VERTEX
  8
0
 10
403.500000
 20
232.500000
 42
0.000000
  0
VERTEX
  8
0
 10
408.382638
 20
232.428849
 42
-0.049603
  0
VERTEX
  8
0
 10
411.847036
 20
232.033253
 42
-0.116057
  0
VERTEX
  8
0
 10
414.187724
 20
230.920122
 42
-0.139135
  0
VERTEX
  8
0
 10
415.532224
 20
229.034109
 42
-0.085916
  0
VERTEX
  8
0
 10
416.000000
 20
226.331923
 42
-0.148605
  0
VERTEX
  8
0
 10
415.411060
 20
224.394128
 42
-0.085049
  0
VERTEX
  8
0
 10
413.712976
 20
222.606780
 42
-0.086813
  0
VERTEX
  8
0
 10
411.555312
 20
221.515855
 42
-0.166857
  0
VERTEX
  8
0
 10
409.640905
 20
221.584303
 42
-0.163683
  0
VERTEX
  8
0
 10
408.485402
 20
222.539722
 42
-0.140413
  0
VERTEX
  8
0
 10
408.052938
 20
224.064239
 42
-0.130733
  0
VERTEX
  8
0
 10
408.484902
 20
225.671309
 42
-0.135321
  0
VERTEX
  8
0
 10
409.654492
 20
226.826520
 42
0.074908
  0
VERTEX
  8
0
 10
410.308058
 20
227.333486
 42
0.101953
  0
VERTEX
  8
0
 10
410.702244
 20
227.964584
 42
0.103020
  0
VERTEX
  8
0
 10
410.812472
 20
228.694927
 42
0.077879
  0
VERTEX
  8
0
 10
410.642202
 20
229.490022
 42
0.045305
  0
VERTEX
  8
0
 10
410.187263
 20
230.415332
 42
0.237815
  0
VERTEX
  8
0
 10
409.720374
 20
230.705672
 42
0.152571
  0
VERTEX
  8
0
 10
409.064459
 20
230.563519
 42
0.016819
  0
VERTEX
  8
0
 10
407.737711
 20
229.750329
 42
0.122245
  0
VERTEX
  8
0
 10
406.087175
 20
227.957197
 42
0.090368
  0
VERTEX
  8
0
 10
405.234479
 20
225.388270
 42
0.095625
  0
VERTEX
  8
0
 10
405.364382
 20
222.814700
 42
0.160602
  0
VERTEX
  8
0
 10
406.502219
 20
220.998159
 42
0.156700
  0
VERTEX
  8
0
 10
410.052069
 20
219.572670
 42
0.141958
  0
VERTEX
  8
0
 10
413.927924
 20
220.403035
 42
0.134632
  0
VERTEX
  8
0
 10
416.904367
 20
223.236169
 42
0.136439
  0
VERTEX
  8
0
 10
418.000000
 20
227.176525
 42
0.101977
  0
VERTEX
  8
0
 10
417.179086
 20
231.159660
 42
0.114299
  0
VERTEX
  8
0
 10
414.863107
 20
234.308797
 42
0.104343
  0
VERTEX
  8
0
 10
411.205194
 20
236.312547
 42
0.073434
  0
VERTEX
  8
0
 10
406.549660
 20
237.000000
 42
0.000000
  0
VERTEX
  8
0
 10
403.000000
 20
237.000000
 42
0.000000
  0
VERTEX
  8
0
 10
403.000000
 20
243.000000
 42
0.016140
  0
VERTEX
  8
0
 10
402.858953
 20
247.368220
 42
0.204357
  0
VERTEX
  8
0
 10
402.133115
 20
248.805239
 42
0.545536
  0
VERTEX
  8
0
 10
401.288482
 20
248.544977
 42
0.026432
  0
VERTEX
  8
0
 10
400.515583
 20
245.092233
 42
-0.041309
  0
VERTEX
  8
0
 10
399.568391
 20
241.381778
 42
-0.118270
  0
VERTEX
  8
0
 10
398.146367
 20
239.153205
 42
-0.118731
  0
VERTEX
  8
0
 10
395.871716
 20
237.817269
 42
-0.041798
  0
VERTEX
  8
0
 10
392.146021
 20
237.018733
 42
-0.008242
  0
VERTEX
  8
0
 10
389.035851
 20
236.671741
 42
-0.090597
  0
VERTEX
  8
0
 10
387.790319
 20
236.779218
 42
-0.237498
  0
VERTEX
  8
0
 10
387.198831
 20
237.311897
 42
-0.091230
  0
VERTEX
  8
0
 10
386.984687
 20
238.429280
 42
0.066223
  0
VERTEX
  8
0
 10
386.696850
 20
240.477020
 42
0.129801
  0
VERTEX
  8
0
 10
385.870307
 20
241.887504
 42
0.099505
  0
VERTEX
  8
0
 10
384.283963
 20
242.936419
 42
0.029048
  0
VERTEX
  8
0
 10
381.500000
 20
243.883100
 42
0.035020
  0
VERTEX
  8
0
 10
377.123607
 20
244.768825
 42
0.051788
  0
VERTEX
  8
0
 10
373.211804
 20
244.871312
 42
0.055057
  0
VERTEX
  8
0
 10
369.544862
 20
244.176372
 42
0.047046
  0
VERTEX
  8
0
 10
365.907284
 20
242.675517
 42
0.053579
  0
VERTEX
  8
0
 10
362.063592
 20
240.088591
 42
0.071485
  0
VERTEX
  8
0
 10
359.265690
 20
236.953445
 42
0.075906
  0
VERTEX
  8
0
 10
357.578523
 20
233.316669
 42
0.070830
  0
VERTEX
  8
0
 10
357.000000
 20
229.253246
 42
0.062697
  0
VERTEX
  8
0
 10
357.588231
 20
224.580615
 42
0.067733
  0
VERTEX
  8
0
 10
359.314373
 20
220.329653
 42
0.050293
  0
VERTEX
  8
0
 10
362.577004
 20
215.773826
 42
0.018280
  0
VERTEX
  8
0
 10
368.048683
 20
210.000000
 42
-0.014910
  0
VERTEX
  8
0
 10
373.913817
 20
203.893918
 42
-0.053019
  0
VERTEX
  8
0
 10
377.103453
 20
199.514798
 42
-0.082088
  0
VERTEX
  8
0
 10
378.544875
 20
195.682626
 42
-0.082509
  0
VERTEX
  8
0
 10
378.672835
 20
191.597472
 42
-0.068697
  0
VERTEX
  8
0
 10
377.803865
 20
188.463878
 42
-0.094104
  0
VERTEX
  8
0
 10
376.166307
 20
186.046189
 42
-0.102249
  0
VERTEX
  8
0
 10
373.874792
 20
184.531703
 42
-0.095341
  0
VERTEX
  8
0
 10
371.111722
 20
184.000000
 42
-0.117216
  0
VERTEX
  8
0
 10
367.503937
 20
184.857563
 42
-0.097912
  0
VERTEX
  8
0
 10
364.390364
 20
187.283701
 42
-0.080731
  0
VERTEX
  8
0
 10
361.990115
 20
191.176344
 42
-0.051542
  0
VERTEX
  8
0
 10
360.474440
 20
196.284555
 42
0.030967
  0
VERTEX
  8
0
 10
360.099917
 20
197.767628
 42
0.050607
  0
VERTEX
  8
0
 10
359.582997
 20
198.955653
 42
0.065562
  0
VERTEX
  8
0
 10
358.991443
 20
199.746094
 42
0.202031
  0
VERTEX
  8
0
 10
358.388709
 20
200.000000
 42
0.392442
  0
VERTEX
  8
0
 10
357.123765
 20
198.826421
 42
0.019530
  0
VERTEX
  8
0
 10
356.902388
 20
192.653165
 42
0.021946
  0
VERTEX
  8
0
 10
357.196534
 20
186.412001
 42
0.199353
  0
VERTEX
  8
0
 10
358.439904
 20
184.049875
 42
0.109277
  0
VERTEX
  8
0
 10
359.406123
 20
183.552934
 42
0.015177
  0
VERTEX
  8
0
 10
361.615427
 20
183.042642
 42
0.016778
  0
VERTEX
  8
0
 10
364.309067
 20
182.599401
 42
0.013514
  0
VERTEX
  8
0
 10
367.228200
 20
182.299103
 42
0.012031
  0
VERTEX
  8
0
 10
371.347673
 20
182.087067
 42
0.041407
  0
VERTEX
  8
0
 10
374.017476
 20
182.235125
 42
0.053058
  0
VERTEX
  8
0
 10
376.263994
 20
182.794856
 42
0.030395
  0
VERTEX
  8
0
 10
378.827525
 20
183.912010
 42
0.089568
  0
VERTEX
  8
0
 10
383.433416
 20
187.416357
 42
0.091327
  0
VERTEX
  8
0
 10
386.485200
 20
192.288504
 42
0.088569
  0
VERTEX
  8
0
 10
387.659574
 20
198.059334
 42
0.078294
  0
VERTEX
  8
0
 10
386.850007
 20
204.148078
 42
0.056765
  0
VERTEX
  8
0
 10
385.769386
 20
206.690775
 42
0.030678
  0
VERTEX
  8
0
 10
383.912712
 20
209.545757
 42
0.022389
  0
VERTEX
  8
0
 10
381.100725
 20
213.003869
 42
0.008901
  0
VERTEX
  8
0
 10
376.951574
 20
217.500000
 42
-0.003675
  0
VERTEX
  8
0
 10
373.533478
 20
221.127140
 42
-0.004446
  0
VERTEX
  8
0
 10
370.381599
 20
224.582549
 42
-0.003789
  0
VERTEX
  8
0
 10
367.778382
 20
227.532618
 42
-0.030203
  0
VERTEX
  8
0
 10
366.672245
 20
228.972506
 42
-0.125324
  0
VERTEX
  8
0
 10
365.166167
 20
233.159155
 42
-0.127429
  0
VERTEX
  8
0
 10
365.860044
 20
237.527686
 42
-0.137284
  0
VERTEX
  8
0
 10
368.514030
 20
240.783758
 42
-0.154733
  0
VERTEX
  8
0
 10
372.350074
 20
242.000000
 42
-0.077915
  0
VERTEX
  8
0
 10
375.590913
 20
241.491893
 42
-0.110347
  0
VERTEX
  8
0
 10
378.100038
 20
240.018929
 42
-0.092533
  0
VERTEX
  8
0
 10
380.036396
 20
237.394235
 42
-0.042065
  0
VERTEX
  8
0
 10
381.573004
 20
233.396871
 42
0.014181
  0
VERTEX
  8
0
 10
382.433500
 20
230.722274
 42
0.055407
  0
VERTEX
  8
0
 10
383.188080
 20
229.161501
 42
0.108425
  0
VERTEX
  8
0
 10
383.961226
 20
228.375323
 42
0.193621
  0
VERTEX
  8
0
 10
384.837382
 20
228.202055
 42
0.128529
  0
VERTEX
  8
0
 10
385.524275
 20
228.527888
 42
0.076431
  0
VERTEX
  8
0
 10
386.124815
 20
229.213085
 42
0.064466
  0
VERTEX
  8
0
 10
386.576282
 20
230.176231
 42
0.048805
  0
VERTEX
  8
0
 10
386.822220
 20
231.318638
 42
-0.034050
  0
VERTEX
  8
0
 10
387.083432
 20
232.733328
 42
-0.134923
  0
VERTEX
  8
0
 10
387.517843
 20
233.494009
 42
-0.170252
  0
VERTEX
  8
0
 10
388.215544
 20
233.827957
 42
-0.062727
  0
VERTEX
  8
0
 10
389.322220
 20
233.810087
 42
-0.255148
  0
VERTEX
  8
0
 10
390.618081
 20
232.843103
 42
-0.079575
  0
VERTEX
  8
0
 10
391.290939
 20
230.423897
 42
-0.020973
  0
VERTEX
  8
0
 10
391.656238
 20
225.252533
 42
-0.001233
  0
VERTEX
  8
0
 10
392.067740
 20
209.500000
 42
0.002049
  0
VERTEX
  8
0
 10
392.470574
 20
194.986958
 42
0.016640
  0
VERTEX
  8
0
 10
392.903274
 20
188.352167
 42
0.036147
  0
VERTEX
  8
0
 10
393.638963
 20
184.083339
 42
0.042723
  0
VERTEX
  8
0
 10
394.959598
 20
180.206498
 42
0.030869
  0
VERTEX
  8
0
 10
396.156747
 20
177.881108
 42
0.022477
  0
VERTEX
  8
0
 10
397.756072
 20
175.451148
 42
0.022723
  0
VERTEX
  8
0
 10
399.532440
 20
173.220374
 42
0.036249
  0
VERTEX
  8
0
 10
401.263833
 20
171.506164
 42
0.000000
  0
VERTEX
  8
0
 10
405.243950
 20
168.099332
 42
0.000000
  0
VERTEX
  8
0
 10
402.371975
 20
167.386569
 42
0.053117
  0
VERTEX
  8
0
 10
394.773227
 20
164.617993
 42
0.022412
  0
VERTEX
  8
0
 10
385.229244
 20
159.399778
 42
0.016357
  0
VERTEX
  8
0
 10
372.979502
 20
151.411275
 42
0.006308
  0
VERTEX
  8
0
 10
356.500000
 20
139.566542
 42
-0.015610
  0
VERTEX
  8
0
 10
347.000479
 20
133.003210
 42
-0.022153
  0
VERTEX
  8
0
 10
338.136437
 20
127.820527
 42
-0.024926
  0
VERTEX
  8
0
 10
329.828916
 20
123.960708
 42
-0.034398
  0
VERTEX
  8
0
 10
322.014934
 20
121.403005
 42
-0.088722
  0
VERTEX
  8
0
 10
308.188820
 20
120.425498
 42
-0.114314
  0
VERTEX
  8
0
 10
296.193145
 20
124.588510
 42
-0.126581
  0
VERTEX
  8
0
 10
288.077069
 20
133.174059
 42
-0.124371
  0
VERTEX
  8
0
 10
285.043893
 20
144.668470
 42
0.000000
  0
VERTEX
  8
0
 10
285.000000
 20
148.836939
 42
0.000000
  0
VERTEX
  8
0
 10
291.440443
 20
150.980181
 42
0.033398
  0
VERTEX
  8
0
 10
296.896247
 20
153.210214
 42
0.022191
  0
VERTEX
  8
0
 10
302.833515
 20
156.447347
 42
0.022351
  0
VERTEX
  8
0
 10
308.228788
 20
160.046029
 42
0.048906
  0
VERTEX
  8
0
 10
311.924314
 20
163.357665
 42
-0.038259
  0
VERTEX
  8
0
 10
314.027788
 20
165.324816
 42
-0.184761
  0
VERTEX
  8
0
 10
315.559213
 20
165.815439
 42
-0.161594
  0
VERTEX
  8
0
 10
317.152160
 20
165.186975
 42
-0.027661
  0
VERTEX
  8
0
 10
319.562909
 20
162.934337
 42
-0.034802
  0
VERTEX
  8
0
 10
321.182343
 20
160.989708
 42
-0.082034
  0
VERTEX
  8
0
 10
322.019705
 20
159.304390
 42
-0.061305
  0
VERTEX
  8
0
 10
322.400212
 20
157.151937
 42
-0.013129
  0
VERTEX
  8
0
 10
322.500000
 20
153.352308
 42
-0.012087
  0
VERTEX
  8
0
 10
322.404464
 20
149.400823
 42
-0.071347
  0
VERTEX
  8
0
 10
322.012761
 20
147.372806
 42
-0.096274
  0
VERTEX
  8
0
 10
321.112146
 20
145.818664
 42
-0.031116
  0
VERTEX
  8
0
 10
319.234223
 20
143.917971
 42
-0.083474
  0
VERTEX
  8
0
 10
315.442970
 20
141.527030
 42
-0.137428
  0
VERTEX
  8
0
 10
311.706868
 20
141.065381
 42
-0.189437
  0
VERTEX
  8
0
 10
309.053206
 20
142.601165
 42
-0.169526
  0
VERTEX
  8
0
 10
308.000000
 20
145.618213
 42
0.040593
  0
VERTEX
  8
0
 10
307.809710
 20
147.958252
 42
0.090569
  0
VERTEX
  8
0
 10
307.211402
 20
149.634026
 42
0.128373
  0
VERTEX
  8
0
 10
306.224240
 20
150.634059
 42
0.134942
  0
VERTEX
  8
0
 10
304.893011
 20
151.000000
 42
0.357449
  0
VERTEX
  8
0
 10
303.239614
 20
149.644841
 42
0.130094
  0
VERTEX
  8
0
 10
303.438390
 20
146.396729
 42
0.084797
  0
VERTEX
  8
0
 10
305.475340
 20
142.569057
 42
0.121856
  0
VERTEX
  8
0
 10
308.472058
 20
140.194685
 42
0.131836
  0
VERTEX
  8
0
 10
314.514497
 20
139.186263
 42
0.139679
  0
VERTEX
  8
0
 10
320.100476
 20
141.380908
 42
0.129246
  0
VERTEX
  8
0
 10
323.989819
 20
146.373601
 42
0.105344
  0
VERTEX
  8
0
 10
325.305884
 20
153.042914
 42
0.090713
  0
VERTEX
  8
0
 10
323.995020
 20
159.644620
 42
0.109637
  0
VERTEX
  8
0
 10
320.459508
 20
164.864423
 42
0.107576
  0
VERTEX
  8
0
 10
314.987070
 20
168.165041
 42
0.084655
  0
VERTEX
  8
0
 10
308.134478
 20
169.267305
 42
0.064754
  0
VERTEX
  8
0
 10
301.475784
 20
168.337463
 42
0.069242
  0
VERTEX
  8
0
 10
295.438421
 20
165.739692
 42
0.068659
  0
VERTEX
  8
0
 10
290.298855
 20
161.569034
 42
0.062039
  0
VERTEX
  8
0
 10
286.274011
 20
156.026436
 42
-0.094065
  0
VERTEX
  8
0
 10
284.129823
 20
153.437617
 42
-0.101914
  0
VERTEX
  8
0
 10
281.242094
 20
151.903413
 42
-0.056551
  0
VERTEX
  8
0
 10
276.688595
 20
151.111207
 42
-0.011531
  0
VERTEX
  8
0
 10
268.500000
 20
150.814561
 42
-0.058609
  0
VERTEX
  8
0
 10
253.789179
 20
152.349048
 42
-0.070890
  0
VERTEX
  8
0
 10
240.822488
 20
157.267719
 42
-0.071175
  0
VERTEX
  8
0
 10
229.785450
 20
165.592439
 42
-0.059728
  0
VERTEX
  8
0
 10
220.754569
 20
177.153154
 42
-0.066000
  0
VERTEX
  8
0
 10
214.223022
 20
192.097895
 42
-0.046823
  0
VERTEX
  8
0
 10
210.823915
 20
210.097831
 42
-0.044801
  0
VERTEX
  8
0
 10
210.756170
 20
229.339332
 42
-0.046773
  0
VERTEX
  8
0
 10
214.142213
 20
248.000000
 42
-0.057796
  0
VERTEX
  8
0
 10
221.532933
 20
266.059825
 42
-0.068862
  0
VERTEX
  8
0
 10
232.536800
 20
280.795626
 42
-0.074782
  0
VERTEX
  8
0
 10
246.253519
 20
291.063638
 42
-0.089010
  0
VERTEX
  8
0
 10
261.600740
 20
296.077294
 42
-0.054678
  0
VERTEX
  8
0
 10
273.166837
 20
296.412259
 42
-0.073424
  0
VERTEX
  8
0
 10
283.369134
 20
294.057006
 42
-0.082118
  0
VERTEX
  8
0
 10
291.586817
 20
289.160815
 42
-0.093169
  0
VERTEX
  8
0
 10
297.374277
 20
282.059223
 42
-0.089908
  0
VERTEX
  8
0
 10
300.607554
 20
272.258437
 42
-0.087057
  0
VERTEX
  8
0
 10
300.249176
 20
261.829805
 42
-0.089506
  0
VERTEX
  8
0
 10
296.405274
 20
252.386314
 42
-0.102570
  0
VERTEX
  8
0
 10
289.635941
 20
245.398584
 42
-0.019327
  0
VERTEX
  8
0
 10
287.460717
 20
244.040283
 42
-0.076964
  0
VERTEX
  8
0
 10
285.996133
 20
243.479082
 42
-0.096558
  0
VERTEX
  8
0
 10
284.606371
 20
243.451592
 42
-0.040694
  0
VERTEX
  8
0
 10
282.790692
 20
243.923120
 42
0.046385
  0
VERTEX
  8
0
 10
279.377440
 20
244.768269
 42
0.054897
  0
VERTEX
  8
0
 10
276.057664
 20
244.902260
 42
0.054773
  0
VERTEX
  8
0
 10
272.782078
 20
244.310327
 42
0.045848
  0
VERTEX
  8
0
 10
269.500000
 20
243.000000
 42
-0.002779
  0
VERTEX
  8
0
 10
267.975665
 20
242.233493
 42
-0.004250
  0
VERTEX
  8
0
 10
266.644699
 20
241.587500
 42
-0.001565
  0
VERTEX
  8
0
 10
265.494735
 20
241.045792
 42
-0.109713
  0
VERTEX
  8
0
 10
265.288558
 20
241.000000
 42
-0.408750
  0
VERTEX
  8
0
 10
265.170348
 20
241.116021
 42
-0.000301
  0
VERTEX
  8
0
 10
265.084764
 20
245.846875
 42
-0.002733
  0
VERTEX
  8
0
 10
265.020736
 20
251.173078
 42
-0.001639
  0
VERTEX
  8
0
 10
265.000000
 20
257.500000
 42
0.000000
  0
VERTEX
  8
0
 10
265.000000
 20
274.000000
 42
0.000000
  0
VERTEX
  8
0
 10
257.500000
 20
274.000000
 42
0.007509
  0
VERTEX
  8
0
 10
253.554394
 20
273.940744
 42
0.042872
  0
VERTEX
  8
0
 10
251.474382
 20
273.698954
 42
0.104261
  0
VERTEX
  8
0
 10
250.393524
 20
273.230224
 42
0.243085
  0
VERTEX
  8
0
 10
250.000000
 20
272.468615
 42
0.088478
  0
VERTEX
  8
0
 10
250.112085
 20
271.840167
 42
0.066520
  0
VERTEX
  8
0
 10
250.440625
 20
271.217991
 42
0.065663
  0
VERTEX
  8
0
 10
250.926585
 20
270.696157
 42
0.081035
  0
VERTEX
  8
0
 10
251.500000
 20
270.361626
 42
-0.231815
  0
VERTEX
  8
0
 10
252.279476
 20
269.522909
 42
-0.045831
  0
VERTEX
  8
0
 10
252.702418
 20
267.453730
 42
-0.024054
  0
VERTEX
  8
0
 10
252.924310
 20
263.875276
 42
-0.004243
  0
VERTEX
  8
0
 10
252.960295
 20
257.143011
 42
0.000000
  0
VERTEX
  8
0
 10
252.920589
 20
244.500000
 42
0.000000
  0
VERTEX
  8
0
 10
248.611913
 20
249.179279
 42
-0.087946
  0
VERTEX
  8
0
 10
243.489655
 20
257.192776
 42
-0.099018
  0
VERTEX
  8
0
 10
241.712148
 20
266.149248
 42
-0.102420
  0
VERTEX
  8
0
 10
243.529126
 20
274.861534
 42
-0.100706
  0
VERTEX
  8
0
 10
248.660724
 20
282.196386
 42
-0.080977
  0
VERTEX
  8
0
 10
254.558818
 20
286.214113
 42
-0.059476
  0
VERTEX
  8
0
 10
262.088409
 20
288.689106
 42
-0.061377
  0
VERTEX
  8
0
 10
269.676979
 20
289.268190
 42
-0.108258
  0
VERTEX
  8
0
 10
275.720356
 20
287.646825
 42
-0.055543
  0
VERTEX
  8
0
 10
278.367456
 20
285.879178
 42
-0.104888
  0
VERTEX
  8
0
 10
279.938681
 20
283.863221
 42
-0.102292
  0
VERTEX
  8
0
 10
280.578961
 20
281.346902
 42
-0.051007
  0
VERTEX
  8
0
 10
280.392045
 20
278.050255
 42
0.017572
  0
VERTEX
  8
0
 10
280.133455
 20
275.965770
 42
0.074989
  0
VERTEX
  8
0
 10
280.210206
 20
274.717592
 42
0.133494
  0
VERTEX
  8
0
 10
280.617220
 20
273.929122
 42
0.116128
  0
VERTEX
  8
0
 10
281.387587
 20
273.404763
 42
0.158294
  0
VERTEX
  8
0
 10
283.130082
 20
273.313329
 42
0.150211
  0
VERTEX
  8
0
 10
284.636977
 20
274.257550
 42
0.112124
  0
VERTEX
  8
0
 10
285.655835
 20
276.169837
 42
0.066654
  0
VERTEX
  8
0
 10
286.000000
 20
278.740092
 42
0.127305
  0
VERTEX
  8
0
 10
285.076140
 20
282.309817
 42
0.067372
  0
VERTEX
  8
0
 10
282.323464
 20
285.998967
 42
0.062454
  0
VERTEX
  8
0
 10
278.391088
 20
289.117447
 42
0.070509
  0
VERTEX
  8
0
 10
273.963747
 20
291.015149
 42
0.099189
  0
VERTEX
  8
0
 10
263.785378
 20
291.692263
 42
0.080812
  0
VERTEX
  8
0
 10
253.306814
 20
288.535893
 42
0.082964
  0
VERTEX
  8
0
 10
244.610719
 20
282.335550
 42
0.114864
  0
VERTEX
  8
0
 10
239.564288
 20
274.234656
 42
0.083166
  0
VERTEX
  8
0
 10
238.169159
 20
265.722094
 42
0.079299
  0
VERTEX
  8
0
 10
239.581260
 20
257.069306
 42
0.081131
  0
VERTEX
  8
0
 10
243.564856
 20
249.453720
 42
0.093615
  0
VERTEX
  8
0
 10
249.606849
 20
243.933964
 42
0.000000
  0
VERTEX
  8
0
 10
253.000000
 20
241.836881
 42
0.000000
  0
VERTEX
  8
0
 10
253.000000
 20
214.387056
 42
-0.001610
  0
VERTEX
  8
0
 10
252.950730
 20
199.084724
 42
-0.011759
  0
VERTEX
  8
0
 10
252.731096
 20
191.754947
 42
-0.016984
  0
VERTEX
  8
0
 10
252.354230
 20
187.455736
 42
-0.277563
  0
VERTEX
  8
0
 10
251.500000
 20
186.361626
 42
0.184987
  0
VERTEX
  8
0
 10
250.470809
 20
185.436414
 42
0.469699
  0
VERTEX
  8
0
 10
250.814459
 20
184.635946
 42
0.060553
  0
VERTEX
  8
0
 10
253.846917
 20
184.127595
 42
0.011284
  0
VERTEX
  8
0
 10
259.500000
 20
184.000000
 42
0.012071
  0
VERTEX
  8
0
 10
265.213657
 20
184.137960
 42
0.062087
  0
VERTEX
  8
0
 10
268.328298
 20
184.679977
 42
0.574002
  0
VERTEX
  8
0
 10
268.510079
 20
185.448319
 42
0.126967
  0
VERTEX
  8
0
 10
267.000000
 20
186.289749
 42
-0.253833
  0
VERTEX
  8
0
 10
265.827701
 20
187.388324
 42
-0.060220
  0
VERTEX
  8
0
 10
265.275857
 20
190.105201
 42
-0.018731
  0
VERTEX
  8
0
 10
265.040378
 20
195.624454
 42
-0.001296
  0
VERTEX
  8
0
 10
265.000000
 20
211.206380
 42
-0.002602
  0
VERTEX
  8
0
 10
265.060414
 20
222.813843
 42
-0.009111
  0
VERTEX
  8
0
 10
265.274597
 20
230.292593
 42
-0.007545
  0
VERTEX
  8
0
 10
265.596892
 20
235.489158
 42
-0.178967
  0
VERTEX
  8
0
 10
266.200000
 20
236.800000
 42
-0.135207
  0
VERTEX
  8
0
 10
267.041186
 20
237.277856
 42
-0.022561
  0
VERTEX
  8
0
 10
268.878658
 20
237.655527
 42
-0.022776
  0
VERTEX
  8
0
 10
271.179659
 20
237.914454
 42
-0.016630
  0
VERTEX
  8
0
 10
273.751027
 20
238.000000
 42
-0.008812
  0
VERTEX
  8
0
 10
277.867477
 20
237.927443
 42
-0.096070
  0
VERTEX
  8
0
 10
279.475076
 20
237.556454
 42
-0.156226
  0
VERTEX
  8
0
 10
280.490138
 20
236.651159
 42
-0.034206
  0
VERTEX
  8
0
 10
281.551027
 20
234.532119
 42
-0.067220
  0
VERTEX
  8
0
 10
282.269609
 20
231.847553
 42
-0.017010
  0
VERTEX
  8
0
 10
282.691327
 20
227.339976
 42
-0.011618
  0
VERTEX
  8
0
 10
282.932579
 20
220.648009
 42
-0.003200
  0
VERTEX
  8
0
 10
283.000000
 20
210.113906
 42
-0.002701
  0
VERTEX
  8
0
 10
282.956013
 20
201.971009
 42
-0.004032
  0
VERTEX
  8
0
 10
282.821697
 20
194.853085
 42
-0.001762
  0
VERTEX
  8
0
 10
282.636764
 20
188.783057
 42
-0.083298
  0
VERTEX
  8
0
 10
282.393011
 20
187.581787
 42
-0.129622
  0
VERTEX
  8
0
 10
281.910224
 20
186.911521
 42
-0.078209
  0
VERTEX
  8
0
 10
281.061646
 20
186.411271
 42
-0.060254
  0
VERTEX
  8
0
 10
279.877132
 20
186.100964
 42
-0.033975
  0
VERTEX
  8
0
 10
278.393011
 20
186.000000
 42
0.027893
  0
VERTEX
  8
0
 10
277.092951
 20
185.927418
 42
0.043794
  0
VERTEX
  8
0
 10
275.996697
 20
185.706250
 42
0.054371
  0
VERTEX
  8
0
 10
275.227597
 20
185.385383
 42
0.273240
  0
VERTEX
  8
0
 10
275.000000
 20
185.000000
 42
0.371083
  0
VERTEX
  8
0
 10
275.367196
 20
184.573367
 42
0.012451
  0
VERTEX
  8
0
 10
277.750000
 20
184.275000
 42
0.016864
  0
VERTEX
  8
0
 10
280.918453
 20
184.065757
 42
0.008055
  0
VERTEX
  8
0
 10
285.000000
 20
184.000000
 42
0.005163
  0
VERTEX
  8
0
 10
290.350044
 20
184.055242
 42
0.032071
  0
VERTEX
  8
0
 10
293.083333
 20
184.287500
 42
0.076301
  0
VERTEX
  8
0
 10
294.521330
 20
184.734210
 42
0.286822
  0
VERTEX
  8
0
 10
295.000000
 20
185.500000
 42
0.130775
  0
VERTEX
  8
0
 10
294.846791
 20
186.075754
 42
0.102140
  0
VERTEX
  8
0
 10
294.416667
 20
186.562500
 42
0.088920
  0
VERTEX
  8
0
 10
293.769411
 20
186.888136
 42
0.072314
  0
VERTEX
  8
0
 10
293.000000
 20
187.000000
 42
-0.305857
  0
VERTEX
  8
0
 10
291.836518
 20
187.785169
 42
-0.074092
  0
VERTEX
  8
0
 10
291.266008
 20
190.161737
 42
-0.020157
  0
VERTEX
  8
0
 10
291.023115
 20
195.284883
 42
-0.001295
  0
VERTEX
  8
0
 10
290.956107
 20
210.250000
 42
0.003001
  0
VERTEX
  8
0
 10
290.865876
 20
221.687475
 42
0.009830
  0
VERTEX
  8
0
 10
290.612290
 20
229.243312
 42
0.013510
  0
VERTEX
  8
0
 10
290.194659
 20
234.437807
 42
0.058811
  0
VERTEX
  8
0
 10
289.507896
 20
237.442124
 42
-0.012880
  0
VERTEX
  8
0
 10
288.708087
 20
239.884555
 42
-0.109421
  0
VERTEX
  8
0
 10
288.624724
 20
241.028806
 42
-0.168111
  0
VERTEX
  8
0
 10
289.063155
 20
241.874338
 42
-0.041319
  0
VERTEX
  8
0
 10
290.301789
 20
242.869308
 42
0.041460
  0
VERTEX
  8
0
 10
293.480850
 20
245.424455
 42
0.024719
  0
VERTEX
  8
0
 10
296.832160
 20
248.940070
 42
0.024698
  0
VERTEX
  8
0
 10
299.827354
 20
252.778205
 42
0.040631
  0
VERTEX
  8
0
 10
301.915234
 20
256.324897
 42
0.049551
  0
VERTEX
  8
0
 10
303.887531
 20
261.697660
 42
0.031838
  0
VERTEX
  8
0
 10
305.136895
 20
268.224049
 42
0.024861
  0
VERTEX
  8
0
 10
305.758717
 20
276.414135
 42
0.011794
  0
VERTEX
  8
0
 10
305.784976
 20
287.000000
 42
0.002525
  0
VERTEX
  8
0
 10
305.557478
 20
295.695812
 42
0.037571
  0
VERTEX
  8
0
 10
305.234702
 20
298.720509
 42
0.139522
  0
VERTEX
  8
0
 10
304.535008
 20
300.137482
 42
0.175208
  0
VERTEX
  8
0
 10
303.250000
 20
300.819551
 42
0.046519
  0
VERTEX
  8
0
 10
302.152023
 20
300.872414
 42
0.155275
  0
VERTEX
  8
0
 10
301.483197
 20
300.626033
 42
0.170392
  0
VERTEX
  8
0
 10
301.116330
 20
300.056446
 42
0.058734
  0
VERTEX
  8
0
 10
301.000000
 20
299.069551
 42
-0.117762
  0
VERTEX
  8
0
 10
300.444876
 20
296.745268
 42
-0.111073
  0
VERTEX
  8
0
 10
298.892215
 20
294.864517
 42
-0.111553
  0
VERTEX
  8
0
 10
296.689945
 20
293.835146
 42
-0.119640
  0
VERTEX
  8
0
 10
294.318235
 20
293.889928
 42
0.000000
  0
VERTEX
  8
0
 10
291.500000
 20
294.643387
 42
0.000000
  0
VERTEX
  8
0
 10
291.237287
 20
331.048693
 42
-0.000972
  0
VERTEX
  8
0
 10
291.125426
 20
352.266256
 42
-0.009708
  0
VERTEX
  8
0
 10
291.268289
 20
361.146026
 42
-0.021799
  0
VERTEX
  8
0
 10
291.625968
 20
365.658854
 42
-0.624692
  0
VERTEX
  8
0
 10
292.476945
 20
365.951627
 42
-0.079342
  0
VERTEX
  8
0
 10
294.932122
 20
362.563299
 42
-0.000917
  0
VERTEX
  8
0
 10
307.466874
 20
337.693746
 42
-0.001152
  0
VERTEX
  8
0
 10
319.718298
 20
313.134049
 42
-0.061129
  0
VERTEX
  8
0
 10
321.459048
 20
308.186454
 42
0.069081
  0
VERTEX
  8
0
 10
322.694299
 20
304.845536
 42
0.062344
  0
VERTEX
  8
0
 10
324.826856
 20
301.836903
 42
0.068139
  0
VERTEX
  8
0
 10
327.384835
 20
299.710247
 42
0.140289
  0
VERTEX
  8
0
 10
329.866387
 20
299.000000
 42
0.080207
  0
VERTEX
  8
0
 10
332.424725
 20
299.413052
 42
0.080316
  0
VERTEX
  8
0
 10
334.721770
 20
300.610179
 42
0.078237
  0
VERTEX
  8
0
 10
336.571514
 20
302.502875
 42
0.070702
  0
VERTEX
  8
0
 10
337.828105
 20
304.936746
 42
0.035495
  0
VERTEX
  8
0
 10
338.276806
 20
306.593626
 42
0.092126
  0
VERTEX
  8
0
 10
338.288844
 20
307.825356
 42
0.090250
  0
VERTEX
  8
0
 10
337.856890
 20
308.994258
 42
0.033145
  0
VERTEX
  8
0
 10
336.858799
 20
310.452378
 42
0.089049
  0
VERTEX
  8
0
 10
334.998975
 20
312.105578
 42
0.101295
  0
VERTEX
  8
0
 10
332.760417
 20
312.915410
 42
0.131657
  0
VERTEX
  8
0
 10
330.805963
 20
312.686499
 42
0.209483
  0
VERTEX
  8
0
 10
329.641400
 20
311.507886
 42
0.154590
  0
VERTEX
  8
0
 10
329.597130
 20
310.766687
 42
0.105911
  0
VERTEX
  8
0
 10
329.972646
 20
310.005183
 42
0.072740
  0
VERTEX
  8
0
 10
330.785901
 20
309.237770
 42
0.033495
  0
VERTEX
  8
0
 10
332.034411
 20
308.482205
 42
-0.084141
  0
VERTEX
  8
0
 10
334.019306
 20
306.988456
 42
-0.150917
  0
VERTEX
  8
0
 10
334.913457
 20
305.175528
 42
-0.182542
  0
VERTEX
  8
0
 10
334.552755
 20
303.418542
 42
-0.129672
  0
VERTEX
  8
0
 10
333.065741
 20
302.035184
 42
-0.105838
  0
VERTEX
  8
0
 10
330.153283
 20
301.196098
 42
-0.144735
  0
VERTEX
  8
0
 10
327.503195
 20
301.782753
 42
-0.150608
  0
VERTEX
  8
0
 10
325.669102
 20
303.687537
 42
-0.117416
  0
VERTEX
  8
0
 10
325.000000
 20
306.497530
 42
-0.107835
  0
VERTEX
  8
0
 10
325.365035
 20
308.170413
 42
-0.001765
  0
VERTEX
  8
0
 10
329.409491
 20
316.914967
 42
-0.004501
  0
VERTEX
  8
0
 10
334.258211
 20
327.062701
 42
-0.002962
  0
VERTEX
  8
0
 10
340.011032
 20
338.654586
 42
0.000000
  0
VERTEX
  8
0
 10
355.022064
 20
368.456969
 42
0.000000
  0
VERTEX
  8
0
 10
354.761032
 20
326.007794
 42
0.000000
  0
VERTEX
  8
0
 10
354.500000
 20
283.558620
 42
0.000000
  0
VERTEX
  8
0
 10
352.000000
 20
282.294052
 42
0.263423
  0
VERTEX
  8
0
 10
351.606548
 20
281.703044
 42
0.394613
  0
VERTEX
  8
0
 10
351.970408
 20
281.252626
 42
0.032242
  0
VERTEX
  8
0
 10
354.472130
 20
281.064312
 42
0.002668
  0
VERTEX
  8
0
 10
361.000000
 20
281.029484
 42
0.002667
  0
VERTEX
  8
0
 10
367.528497
 20
281.064308
 42
0.032249
  0
VERTEX
  8
0
 10
370.029974
 20
281.252631
 42
0.394736
  0
VERTEX
  8
0
 10
370.393713
 20
281.703118
 42
0.263284
  0
VERTEX
  8
0
 10
370.000000
 20
282.294275
 42
0.000000
  0
VERTEX
  8
0
 10
367.500000
 20
283.559066
 42
0.000000
  0
VERTEX
  8
0
 10
367.500000
 20
327.529533
 42
0.000000
  0
VERTEX
  8
0
 10
367.500000
 20
371.500000
 42
0.000000
  0
VERTEX
  8
0
 10
369.750000
 20
371.819551
 42
0.066193
  0
VERTEX
  8
0
 10
370.851628
 20
372.128319
 42
0.140868
  0
VERTEX
  8
0
 10
371.530789
 20
372.683574
 42
0.115257
  0
VERTEX
  8
0
 10
371.892019
 20
373.598471
 42
0.036652
  0
VERTEX
  8
0
 10
372.000000
 20
375.069551
 42
0.000000
  0
VERTEX
  8
0
 10
372.000000
 20
378.000000
 42
0.000000
  0
VERTEX
  8
0
 10
363.483645
 20
378.000000
 42
0.000000
  0
VERTEX
  8
0
 10
354.967290
 20
378.000000
 42
0.000000
  0
VERTEX
  8
0
 10
341.664259
 20
350.750000
 42
0.000000
  0
VERTEX
  8
0
 10
328.361228
 20
323.500000
 42
0.000000
  0
VERTEX
  8
0
 10
316.413463
 20
347.750000
 42
-0.000033
  0
VERTEX
  8
0
 10
311.833281
 20
357.047789
 42
-0.000055
  0
VERTEX
  8
0
 10
307.980392
 20
364.872633
 42
-0.000000
  0
VERTEX
  8
0
 10
304.479740
 20
371.984093
 42
-0.796601
  0
VERTEX
  8
0
 10
304.482849
 20
371.986622
 42
0.081470
  0
VERTEX
  8
0
 10
304.498338
 20
371.978163
 42
0.000002
  0
VERTEX
  8
0
 10
306.991837
 20
371.103783
 42
0.000120
  0
VERTEX
  8
0
 10
309.739507
 20
370.141029
 42
0.000072
  0
VERTEX
  8
0
 10
313.000000
 20
369.000000
 42
0.042534
  0
VERTEX
  8
0
 10
322.766143
 20
366.490954
 42
0.054810
  0
VERTEX
  8
0
 10
332.009139
 20
365.964027
 42
0.062753
  0
VERTEX
  8
0
 10
340.013959
 20
367.403341
 42
0.099390
  0
VERTEX
  8
0
 10
346.104920
 20
370.741738
 42
0.057044
  0
VERTEX
  8
0
 10
348.718047
 20
373.505853
 42
0.061781
  0
VERTEX
  8
0
 10
350.557747
 20
376.719267
 42
0.057862
  0
VERTEX
  8
0
 10
351.639244
 20
380.466761
 42
0.041364
  0
VERTEX
  8
0
 10
352.000000
 20
384.819998
 42
0.064791
  0
VERTEX
  8
0
 10
351.429039
 20
389.207686
 42
0.078484
  0
VERTEX
  8
0
 10
349.755789
 20
393.000823
 42
0.076168
  0
VERTEX
  8
0
 10
346.946307
 20
396.177463
 42
0.056768
  0
VERTEX
  8
0
 10
343.030039
 20
398.750000
 42
0.026632
  0
VERTEX
  8
0
 10
339.749736
 20
400.193441
 42
0.068019
  0
VERTEX
  8
0
 10
337.223789
 20
400.772774
 42
0.066603
  0
VERTEX
  8
0
 10
334.603675
 20
400.659029
 42
0.024724
  0
SEQEND
  0
POLYLINE
  8
0
 66
1
 70
1
  0
VERTEX
  8
0
 10
273.729167
 20
240.395833
 42
-0.126455
  0
VERTEX
  8
0
 10
273.402231
 20
240.202593
 42
-0.060344
  0
VERTEX
  8
0
 10
272.916927
 20
240.123424
 42
-0.054150
  0
VERTEX
  8
0
 10
272.359369
 20
240.160852
 42
-0.051402
  0
VERTEX
  8
0
 10
271.812500
 20
240.316886
 42
-0.054073
  0
VERTEX
  8
0
 10
271.395823
 20
240.538436
 42
-0.470617
  0
VERTEX
  8
0
 10
271.378580
 20
240.720685
 42
-0.168741
  0
VERTEX
  8
0
 10
271.670344
 20
240.862007
 42
-0.018894
  0
VERTEX
  8
0
 10
272.416667
 20
240.921053
 42
-0.028489
  0
VERTEX
  8
0
 10
273.112848
 20
240.910055
 42
-0.077125
  0
VERTEX
  8
0
 10
273.592839
 20
240.799335
 42
-0.208169
  0
VERTEX
  8
0
 10
273.775380
 20
240.614691
 42
-0.296942
  0
SEQEND
  0
POLYLINE
  8
0
 66
1
 70
1
  0
VERTEX
  8
0
 10
310.000000
 20
167.174314
 42
-0.227612
  0
VERTEX
  8
0
 10
308.991230
 20
165.073133
 42
-0.019332
  0
VERTEX
  8
0
 10
304.040615
 20
161.410677
 42
-0.025317
  0
VERTEX
  8
0
 10
298.113251
 20
157.795654
 42
-0.031348
  0
VERTEX
  8
0
 10
292.250000
 20
155.075644
 42
-0.022602
  0
VERTEX
  8
0
 10
288.139675
 20
153.683863
 42
-0.409167
  0
VERTEX
  8
0
 10
287.029933
 20
154.283613
 42
-0.247745
  0
VERTEX
  8
0
 10
287.336075
 20
155.900237
 42
-0.013795
  0
VERTEX
  8
0
 10
290.750000
 20
159.949672
 42
-0.029937
  0
VERTEX
  8
0
 10
292.771026
 20
161.960624
 42
-0.035102
  0
VERTEX
  8
0
 10
294.918208
 20
163.602659
 42
-0.034732
  0
VERTEX
  8
0
 10
297.293991
 20
164.941748
 42
-0.028251
  0
VERTEX
  8
0
 10
300.000000
 20
166.045635
 42
-0.017403
  0
VERTEX
  8
0
 10
304.015429
 20
167.270357
 42
-0.037229
  0
VERTEX
  8
0
 10
307.198389
 20
167.871999
 42
-0.053499
  0
VERTEX
  8
0
 10
309.358974
 20
167.883874
 42
-0.384816
  0
SEQEND
  0
POLYLINE
  8
0
 66
1
 70
1
  0
VERTEX
  8
0
 10
387.000513
 20
334.927720
 42
0.057325
  0
VERTEX
  8
0
 10
384.247010
 20
333.382113
 42
0.048320
  0
VERTEX
  8
0
 10
381.738139
 20
331.170167
 42
0.042420
  0
VERTEX
  8
0
 10
379.426121
 20
328.232978
 42
0.027836
  0
VERTEX
  8
0
 10
377.261684
 20
324.508288
 42
0.066248
  0
VERTEX
  8
0
 10
375.345097
 20
319.063344
 42
0.029720
  0
VERTEX
  8
0
 10
374.233875
 20
311.544252
 42
0.029711
  0
VERTEX
  8
0
 10
374.017214
 20
303.780042
 42
0.053844
  0
VERTEX
  8
0
 10
374.897262
 20
297.493731
 42
0.077313
  0
VERTEX
  8
0
 10
378.476784
 20
289.050787
 42
0.103103
  0
VERTEX
  8
0
 10
384.204428
 20
283.034122
 42
0.123886
  0
VERTEX
  8
0
 10
391.012261
 20
280.487102
 42
0.147546
  0
VERTEX
  8
0
 10
397.731243
 20
281.720057
 42
0.105315
  0
VERTEX
  8
0
 10
401.841725
 20
285.073501
 42
0.053163
  0
VERTEX
  8
0
 10
405.469657
 20
290.728628
 42
0.086588
  0
VERTEX
  8
0
 10
406.858124
 20
295.357337
 42
0.507882
  0
VERTEX
  8
0
 10
405.289760
 20
296.817286
 42
0.135004
  0
VERTEX
  8
0
 10
404.548328
 20
296.451201
 42
0.067218
  0
VERTEX
  8
0
 10
403.860599
 20
295.650333
 42
0.055204
  0
VERTEX
  8
0
 10
403.287359
 20
294.507746
 42
0.038262
  0
VERTEX
  8
0
 10
402.890045
 20
293.116765
 42
-0.079906
  0
VERTEX
  8
0
 10
401.082296
 20
288.331665
 42
-0.087991
  0
VERTEX
  8
0
 10
397.908038
 20
284.533966
 42
-0.102703
  0
VERTEX
  8
0
 10
394.067059
 20
282.463650
 42
-0.158264
  0
VERTEX
  8
0
 10
390.325796
 20
282.554384
 42
-0.128900
  0
VERTEX
  8
0
 10
387.228807
 20
284.648495
 42
-0.077150
  0
VERTEX
  8
0
 10
384.832032
 20
288.422114
 42
-0.057534
  0
VERTEX
  8
0
 10
383.169746
 20
293.855020
 42
-0.029329
  0
VERTEX
  8
0
 10
382.290378
 20
300.948517
 42
0.000000
  0
VERTEX
  8
0
 10
381.707971
 20
309.938066
 42
0.000000
  0
VERTEX
  8
0
 10
394.603985
 20
310.219033
 42
0.000000
  0
VERTEX
  8
0
 10
407.500000
 20
310.500000
 42
0.000000
  0
VERTEX
  8
0
 10
407.217933
 20
316.000000
 42
0.052398
  0
VERTEX
  8
0
 10
406.442186
 20
320.934247
 42
0.040444
  0
VERTEX
  8
0
 10
404.617159
 20
326.069270
 42
0.041790
  0
VERTEX
  8
0
 10
402.144795
 20
330.532548
 42
0.089487
  0
VERTEX
  8
0
 10
399.418871
 20
333.355640
 42
0.075246
  0
VERTEX
  8
0
 10
396.720475
 20
334.740617
 42
0.049557
  0
VERTEX
  8
0
 10
393.313081
 20
335.520330
 42
0.049873
  0
VERTEX
  8
0
 10
389.852880
 20
335.611212
 42
0.081068
  0
SEQEND
  0
POLYLINE
  8
0
 66
1
 70
1
  0
VERTEX
  8
0
 10
394.287123
 20
332.235227
 42
-0.095980
  0
VERTEX
  8
0
 10
395.684316
 20
329.926344
 42
-0.029754
  0
VERTEX
  8
0
 10
396.863297
 20
326.022904
 42
-0.028636
  0
VERTEX
  8
0
 10
397.684512
 20
321.420588
 42
-0.028551
  0
VERTEX
  8
0
 10
397.975554
 20
316.750000
 42
0.000000
  0
VERTEX
  8
0
 10
398.000000
 20
312.000000
 42
0.000000
  0
VERTEX
  8
0
 10
390.870834
 20
312.000000
 42
0.000000
  0
VERTEX
  8
0
 10
383.741667
 20
312.000000
 42
0.000000
  0
VERTEX
  8
0
 10
384.443912
 20
318.207019
 42
-0.024162
  0
VERTEX
  8
0
 10
385.249043
 20
323.165432
 42
-0.034755
  0
VERTEX
  8
0
 10
386.472422
 20
327.439667
 42
-0.040393
  0
VERTEX
  8
0
 10
387.994973
 20
330.768350
 42
-0.104178
  0
VERTEX
  8
0
 10
389.723716
 20
332.750000
 42
-0.031941
  0
VERTEX
  8
0
 10
391.169220
 20
333.701160
 42
-0.158933
  0
VERTEX
  8
0
 10
392.108759
 20
333.894452
 42
-0.152970
  0
VERTEX
  8
0
 10
393.001911
 20
333.499961
 42
-0.028940
  0
SEQEND
  0
POLYLINE
  8
0
 66
1
 70
1
  0
VERTEX
  8
0
 10
431.312913
 20
334.829766
 42
0.049643
  0
VERTEX
  8
0
 10
429.942006
 20
334.312011
 42
0.031169
  0
VERTEX
  8
0
 10
428.456052
 20
333.456005
 42
0.031135
  0
VERTEX
  8
0
 10
427.084912
 20
332.419699
 42
0.048746
  0
VERTEX
  8
0
 10
426.062913
 20
331.352852
 42
0.000000
  0
VERTEX
  8
0
 10
424.000000
 20
328.730283
 42
0.000000
  0
VERTEX
  8
0
 10
424.000000
 20
331.865141
 42
0.000000
  0
VERTEX
  8
0
 10
424.000000
 20
335.000000
 42
0.000000
  0
VERTEX
  8
0
 10
415.416667
 20
335.000000
 42
0.006803
  0
VERTEX
  8
0
 10
411.228587
 20
334.943015
 42
0.031174
  0
VERTEX
  8
0
 10
408.808082
 20
334.725704
 42
0.066518
  0
VERTEX
  8
0
 10
407.512778
 20
334.346622
 42
0.386253
  0
VERTEX
  8
0
 10
407.249165
 20
333.750000
 42
0.145369
  0
VERTEX
  8
0
 10
407.609632
 20
333.234102
 42
0.046681
  0
VERTEX
  8
0
 10
408.399862
 20
332.717585
 42
0.042025
  0
VERTEX
  8
0
 10
409.435345
 20
332.277801
 42
0.036217
  0
VERTEX
  8
0
 10
410.582498
 20
331.990714
 42
0.000000
  0
VERTEX
  8
0
 10
413.500000
 20
331.481428
 42
0.000000
  0
VERTEX
  8
0
 10
413.768210
 20
308.330353
 42
-0.002076
  0
VERTEX
  8
0
 10
413.863165
 20
295.554390
 42
-0.013477
  0
VERTEX
  8
0
 10
413.710853
 20
289.121776
 42
-0.022979
  0
VERTEX
  8
0
 10
413.341158
 20
285.305672
 42
-0.162117
  0
VERTEX
  8
0
 10
412.518210
 20
283.661067
 42
0.017363
  0
VERTEX
  8
0
 10
411.936887
 20
283.037904
 42
0.021912
  0
VERTEX
  8
0
 10
411.445974
 20
282.420974
 42
0.020693
  0
VERTEX
  8
0
 10
411.086445
 20
281.880435
 42
0.137242
  0
VERTEX
  8
0
 10
411.000000
 20
281.571429
 42
0.395096
  0
VERTEX
  8
0
 10
411.213564
 20
281.343349
 42
0.003689
  0
VERTEX
  8
0
 10
413.717188
 20
281.197138
 42
0.009643
  0
VERTEX
  8
0
 10
416.703184
 20
281.102537
 42
0.005791
  0
VERTEX
  8
0
 10
420.250000
 20
281.099680
 42
0.006473
  0
VERTEX
  8
0
 10
423.795962
 20
281.183810
 42
0.020120
  0
VERTEX
  8
0
 10
426.179644
 20
281.367479
 42
0.086274
  0
VERTEX
  8
0
 10
427.026213
 20
281.619421
 42
0.687520
  0
VERTEX
  8
0
 10
427.000000
 20
281.893976
 42
0.000000
  0
VERTEX
  8
0
 10
424.500000
 20
282.588592
 42
0.000000
  0
VERTEX
  8
0
 10
424.198112
 20
301.544296
 42
-0.006765
  0
VERTEX
  8
0
 10
424.166973
 20
314.550675
 42
-0.031032
  0
VERTEX
  8
0
 10
424.718534
 20
322.074215
 42
-0.057195
  0
VERTEX
  8
0
 10
425.880374
 20
326.634031
 42
-0.180844
  0
VERTEX
  8
0
 10
427.928379
 20
328.961670
 42
-0.078813
  0
VERTEX
  8
0
 10
428.966284
 20
329.321935
 42
-0.104684
  0
VERTEX
  8
0
 10
429.962274
 20
329.290238
 42
-0.078491
  0
VERTEX
  8
0
 10
431.064724
 20
328.827917
 42
-0.028201
  0
VERTEX
  8
0
 10
432.463914
 20
327.849725
 42
0.027485
  0
VERTEX
  8
0
 10
433.971563
 20
326.792496
 42
0.091087
  0
VERTEX
  8
0
 10
435.094637
 20
326.350513
 42
0.107988
  0
VERTEX
  8
0
 10
436.192028
 20
326.374531
 42
0.047661
  0
VERTEX
  8
0
 10
437.570788
 20
326.850299
 42
0.057651
  0
VERTEX
  8
0
 10
438.617956
 20
327.481852
 42
0.076894
  0
VERTEX
  8
0
 10
439.381509
 20
328.286117
 42
0.080616
  0
VERTEX
  8
0
 10
439.841975
 20
329.251484
 42
0.071166
  0
VERTEX
  8
0
 10
440.000000
 20
330.356116
 42
0.128924
  0
VERTEX
  8
0
 10
439.341427
 20
332.867782
 42
0.146631
  0
VERTEX
  8
0
 10
437.555130
 20
334.588648
 42
0.117796
  0
VERTEX
  8
0
 10
434.769199
 20
335.273500
 42
0.067211
  0
SEQEND
  0
POLYLINE
  8
0
 66
1
 70
1
  0
VERTEX
  8
0
 10
341.278076
 20
262.907164
 42
0.145598
  0
VERTEX
  8
0
 10
338.643993
 20
260.931700
 42
0.112754
  0
VERTEX
  8
0
 10
337.195579
 20
257.631692
 42
0.110316
  0
VERTEX
  8
0
 10
337.308083
 20
253.969263
 42
0.134539
  0
VERTEX
  8
0
 10
339.000000
 20
251.000000
 42
0.112070
  0
VERTEX
  8
0
 10
341.440607
 20
249.462406
 42
0.090316
  0
VERTEX
  8
0
 10
344.509395
 20
248.970820
 42
0.094732
  0
VERTEX
  8
0
 10
347.426075
 20
249.593110
 42
0.141095
  0
VERTEX
  8
0
 10
349.443296
 20
251.222506
 42
0.145587
  0
VERTEX
  8
0
 10
350.996275
 20
255.879583
 42
0.162059
  0
VERTEX
  8
0
 10
349.652200
 20
260.406857
 42
0.170763
  0
VERTEX
  8
0
 10
345.941842
 20
263.070379
 42
0.161036
  0
SEQEND
  0
POLYLINE
  8
0
 66
1
 70
1
  0
VERTEX
  8
0
 10
300.522285
 20
244.036058
 42
0.151981
  0
VERTEX
  8
0
 10
300.389026
 20
243.518323
 42
0.071743
  0
VERTEX
  8
0
 10
300.522717
 20
242.834153
 42
0.061086
  0
VERTEX
  8
0
 10
300.886295
 20
242.097052
 42
0.051330
  0
VERTEX
  8
0
 10
301.436242
 20
241.420901
 42
-0.163193
  0
VERTEX
  8
0
 10
302.305895
 20
239.673812
 42
-0.020609
  0
VERTEX
  8
0
 10
302.720360
 20
235.419557
 42
-0.012207
  0
VERTEX
  8
0
 10
302.947899
 20
228.196692
 42
-0.001770
  0
VERTEX
  8
0
 10
303.000000
 20
213.478262
 42
-0.001461
  0
VERTEX
  8
0
 10
302.953942
 20
197.717224
 42
-0.014479
  0
VERTEX
  8
0
 10
302.723640
 20
191.102256
 42
-0.031866
  0
VERTEX
  8
0
 10
302.262189
 20
187.501791
 42
-0.214986
  0
VERTEX
  8
0
 10
301.250000
 20
186.067986
 42
0.258975
  0
VERTEX
  8
0
 10
300.618861
 20
184.994294
 42
0.352262
  0
VERTEX
  8
0
 10
301.272831
 20
184.138975
 42
0.058302
  0
VERTEX
  8
0
 10
304.505674
 20
183.735467
 42
0.011321
  0
VERTEX
  8
0
 10
310.396357
 20
183.823474
 42
0.011405
  0
VERTEX
  8
0
 10
315.705759
 20
184.144486
 42
0.068666
  0
VERTEX
  8
0
 10
318.396545
 20
184.747083
 42
0.572010
  0
VERTEX
  8
0
 10
318.527780
 20
185.492812
 42
0.112989
  0
VERTEX
  8
0
 10
317.000000
 20
186.289749
 42
-0.240806
  0
VERTEX
  8
0
 10
315.843104
 20
187.321731
 42
-0.069776
  0
VERTEX
  8
0
 10
315.279746
 20
189.722740
 42
-0.021274
  0
VERTEX
  8
0
 10
315.042090
 20
194.609119
 42
-0.001532
  0
VERTEX
  8
0
 10
315.001554
 20
208.156380
 42
-0.002520
  0
VERTEX
  8
0
 10
315.062628
 20
220.101589
 42
-0.015097
  0
VERTEX
  8
0
 10
315.313493
 20
226.316270
 42
-0.029327
  0
VERTEX
  8
0
 10
315.817700
 20
230.197867
 42
-0.071166
  0
VERTEX
  8
0
 10
316.751554
 20
232.925112
 42
-0.035800
  0
VERTEX
  8
0
 10
318.631352
 20
236.035887
 42
-0.140891
  0
VERTEX
  8
0
 10
320.361317
 20
237.422643
 42
-0.191655
  0
VERTEX
  8
0
 10
322.235370
 20
237.454626
 42
-0.076364
  0
VERTEX
  8
0
 10
324.513293
 20
236.168204
 42
0.075400
  0
VERTEX
  8
0
 10
327.840981
 20
234.280521
 42
0.191362
  0
VERTEX
  8
0
 10
330.570769
 20
234.315095
 42
0.208897
  0
VERTEX
  8
0
 10
332.372729
 20
236.180473
 42
0.089295
  0
VERTEX
  8
0
 10
333.000000
 20
239.664816
 42
0.189875
  0
VERTEX
  8
0
 10
331.564190
 20
243.309446
 42
0.201368
  0
VERTEX
  8
0
 10
328.070972
 20
244.881217
 42
0.134162
  0
VERTEX
  8
0
 10
323.253098
 20
243.695360
 42
0.082188
  0
VERTEX
  8
0
 10
318.645498
 20
240.029369
 42
0.000000
  0
VERTEX
  8
0
 10
315.109362
 20
236.115289
 42
0.000000
  0
VERTEX
  8
0
 10
314.804681
 20
240.307645
 42
0.000000
  0
VERTEX
  8
0
 10
314.500000
 20
244.500000
 42
0.000000
  0
VERTEX
  8
0
 10
307.836043
 20
244.793729
 42
0.013635
  0
VERTEX
  8
0
 10
305.123149
 20
244.839254
 42
0.023189
  0
VERTEX
  8
0
 10
302.858222
 20
244.710335
 42
0.022135
  0
VERTEX
  8
0
 10
301.125839
 20
244.452959
 42
0.209348
  0
SEQEND
  0
POLYLINE
  8
0
 66
1
 70
1
  0
VERTEX
  8
0
 10
334.570511
 20
244.114090
 42
0.200273
  0
VERTEX
  8
0
 10
334.503496
 20
243.694175
 42
0.121623
  0
VERTEX
  8
0
 10
334.738843
 20
243.241140
 42
0.084584
  0
VERTEX
  8
0
 10
335.258099
 20
242.820501
 42
0.051234
  0
VERTEX
  8
0
 10
335.985479
 20
242.504609
 42
-0.252218
  0
VERTEX
  8
0
 10
337.183183
 20
241.267795
 42
-0.051248
  0
VERTEX
  8
0
 10
337.726247
 20
238.156354
 42
-0.016498
  0
VERTEX
  8
0
 10
337.960458
 20
231.896361
 42
-0.001101
  0
VERTEX
  8
0
 10
338.000000
 20
213.932612
 42
-0.001039
  0
VERTEX
  8
0
 10
337.962395
 20
195.828452
 42
-0.016833
  0
VERTEX
  8
0
 10
337.732100
 20
189.741577
 42
-0.058320
  0
VERTEX
  8
0
 10
337.185906
 20
186.870397
 42
-0.327593
  0
VERTEX
  8
0
 10
336.000000
 20
186.000000
 42
0.048028
  0
VERTEX
  8
0
 10
335.234582
 20
185.926307
 42
0.068025
  0
VERTEX
  8
0
 10
334.587500
 20
185.706250
 42
0.088204
  0
VERTEX
  8
0
 10
334.151477
 20
185.381882
 42
0.191087
  0
VERTEX
  8
0
 10
334.000000
 20
185.000000
 42
0.375539
  0
VERTEX
  8
0
 10
334.377449
 20
184.568330
 42
0.010792
  0
VERTEX
  8
0
 10
337.000000
 20
184.272727
 42
0.015486
  0
VERTEX
  8
0
 10
340.476434
 20
184.064968
 42
0.007181
  0
VERTEX
  8
0
 10
345.000000
 20
184.000000
 42
0.007759
  0
VERTEX
  8
0
 10
349.263937
 20
184.066171
 42
0.013409
  0
VERTEX
  8
0
 10
352.804343
 20
184.271218
 42
0.007173
  0
VERTEX
  8
0
 10
355.662178
 20
184.555113
 42
0.381387
  0
VERTEX
  8
0
 10
356.000000
 20
184.933578
 42
0.233512
  0
VERTEX
  8
0
 10
355.811837
 20
185.314506
 42
0.056702
  0
VERTEX
  8
0
 10
355.192187
 20
185.685866
 42
0.046395
  0
VERTEX
  8
0
 10
354.303222
 20
185.994241
 42
0.031666
  0
VERTEX
  8
0
 10
353.250000
 20
186.183578
 42
0.000000
  0
VERTEX
  8
0
 10
350.500000
 20
186.500000
 42
0.000000
  0
VERTEX
  8
0
 10
350.000000
 20
215.500000
 42
0.000000
  0
VERTEX
  8
0
 10
349.500000
 20
244.500000
 42
0.000000
  0
VERTEX
  8
0
 10
342.335032
 20
244.792093
 42
0.012937
  0
VERTEX
  8
0
 10
339.546260
 20
244.833570
 42
0.019027
  0
VERTEX
  8
0
 10
337.098655
 20
244.713418
 42
0.014714
  0
VERTEX
  8
0
 10
335.131956
 20
244.483205
 42
0.221329
  0
SEQEND
  0
POLYLINE
  8
0
 66
1
 70
1
  0
VERTEX
  8
0
 10
465.281429
 20
169.030366
 42
0.042092
  0
VERTEX
  8
0
 10
460.883716
 20
167.585394
 42
0.024373
  0
VERTEX
  8
0
 10
455.870575
 20
165.161729
 42
0.023993
  0
VERTEX
  8
0
 10
451.332436
 20
162.397797
 42
0.069177
  0
VERTEX
  8
0
 10
448.601546
 20
159.938311
 42
0.000000
  0
VERTEX
  8
0
 10
446.111283
 20
156.978801
 42
0.000000
  0
VERTEX
  8
0
 10
436.445379
 20
158.056614
 42
0.018566
  0
VERTEX
  8
0
 10
429.088755
 20
158.601411
 42
0.024350
  0
VERTEX
  8
0
 10
422.352687
 20
158.521261
 42
0.025340
  0
VERTEX
  8
0
 10
415.880227
 20
157.798162
 42
0.023224
  0
VERTEX
  8
0
 10
409.320002
 20
156.411101
 42
0.028099
  0
VERTEX
  8
0
 10
404.460374
 20
154.849129
 42
0.021074
  0
VERTEX
  8
0
 10
399.303773
 20
152.612113
 42
0.013141
  0
VERTEX
  8
0
 10
394.750970
 20
150.254953
 42
0.273203
  0
VERTEX
  8
0
 10
394.000000
 20
148.983154
 42
0.349661
  0
VERTEX
  8
0
 10
394.676202
 20
148.134437
 42
0.104430
  0
VERTEX
  8
0
 10
396.450118
 20
148.103926
 42
0.065173
  0
VERTEX
  8
0
 10
398.891779
 20
148.915967
 42
0.048594
  0
VERTEX
  8
0
 10
401.316722
 20
150.397193
 42
-0.051318
  0
VERTEX
  8
0
 10
405.950589
 20
153.193231
 42
-0.049846
  0
VERTEX
  8
0
 10
411.101617
 20
155.019709
 42
-0.040760
  0
VERTEX
  8
0
 10
417.373947
 20
156.029796
 42
-0.019741
  0
VERTEX
  8
0
 10
425.500000
 20
156.344556
 42
-0.009283
  0
VERTEX
  8
0
 10
430.409682
 20
156.249656
 42
-0.014436
  0
VERTEX
  8
0
 10
434.634005
 20
155.967211
 42
-0.016484
  0
VERTEX
  8
0
 10
438.057023
 20
155.524577
 42
-0.047442
  0
VERTEX
  8
0
 10
440.370598
 20
154.918089
 42
-0.024929
  0
VERTEX
  8
0
 10
442.642572
 20
153.954743
 42
-0.125375
  0
VERTEX
  8
0
 10
443.689353
 20
153.072462
 42
-0.121563
  0
VERTEX
  8
0
 10
444.202997
 20
151.783022
 42
-0.022834
  0
VERTEX
  8
0
 10
444.436770
 20
149.234700
 42
0.146669
  0
VERTEX
  8
0
 10
446.878296
 20
142.267995
 42
0.131522
  0
VERTEX
  8
0
 10
452.841270
 20
137.436979
 42
0.109904
  0
VERTEX
  8
0
 10
461.382336
 20
135.701731
 42
0.081390
  0
VERTEX
  8
0
 10
470.891031
 20
137.441019
 42
-0.019685
  0
VERTEX
  8
0
 10
472.828549
 20
138.048808
 42
-0.037625
  0
VERTEX
  8
0
 10
474.429429
 20
138.355682
 42
-0.048032
  0
VERTEX
  8
0
 10
475.661007
 20
138.378086
 42
-0.154953
  0
VERTEX
  8
0
 10
476.410814
 20
138.074018
 42
0.046208
  0
VERTEX
  8
0
 10
477.266433
 20
137.488188
 42
0.001559
  0
VERTEX
  8
0
 10
480.850142
 20
135.507518
 42
0.002934
  0
VERTEX
  8
0
 10
485.105946
 20
133.205067
 42
0.002040
  0
VERTEX
  8
0
 10
489.938363
 20
130.652475
 42
0.000000
  0
VERTEX
  8
0
 10
502.337159
 20
124.167714
 42
0.000000
  0
VERTEX
  8
0
 10
498.546456
 20
122.583857
 42
-0.051811
  0
VERTEX
  8
0
 10
494.239017
 20
121.287906
 42
-0.062149
  0
VERTEX
  8
0
 10
490.017441
 20
121.014897
 42
-0.068674
  0
VERTEX
  8
0
 10
486.227042
 20
121.770197
 42
-0.091677
  0
VERTEX
  8
0
 10
483.182369
 20
123.500000
 42
0.051342
  0
VERTEX
  8
0
 10
480.601998
 20
125.253651
 42
0.102362
  0
VERTEX
  8
0
 10
478.246461
 20
125.957353
 42
0.189355
  0
VERTEX
  8
0
 10
476.668296
 20
125.489865
 42
0.231121
  0
VERTEX
  8
0
 10
476.000000
 20
124.121320
 42
0.320579
  0
VERTEX
  8
0
 10
478.024658
 20
121.288035
 42
0.054010
  0
VERTEX
  8
0
 10
484.908753
 20
119.734372
 42
0.051223
  0
VERTEX
  8
0
 10
493.080081
 20
119.638774
 42
0.083400
  0
VERTEX
  8
0
 10
499.772476
 20
121.398135
 42
-0.023419
  0
VERTEX
  8
0
 10
502.533662
 20
122.490306
 42
-0.086708
  0
VERTEX
  8
0
 10
504.377158
 20
122.781847
 42
-0.058916
  0
VERTEX
  8
0
 10
506.546961
 20
122.489712
 42
-0.006993
  0
VERTEX
  8
0
 10
511.241708
 20
121.213050
 42
0.009240
  0
VERTEX
  8
0
 10
514.537654
 20
120.332653
 42
0.005623
  0
VERTEX
  8
0
 10
518.462121
 20
119.408394
 42
0.005633
  0
VERTEX
  8
0
 10
522.375440
 20
118.579269
 42
0.009914
  0
VERTEX
  8
0
 10
525.629344
 20
117.994914
 42
0.094750
  0
VERTEX
  8
0
 10
544.778734
 20
118.590120
 42
0.104224
  0
VERTEX
  8
0
 10
561.648124
 20
126.280026
 42
0.132390
  0
VERTEX
  8
0
 10
571.359190
 20
138.483792
 42
0.203903
  0
VERTEX
  8
0
 10
571.446952
 20
151.782119
 42
0.079665
  0
VERTEX
  8
0
 10
568.052249
 20
157.261237
 42
0.068771
  0
VERTEX
  8
0
 10
562.957261
 20
161.727992
 42
0.060800
  0
VERTEX
  8
0
 10
556.237749
 20
165.065642
 42
0.042459
  0
VERTEX
  8
0
 10
548.040559
 20
167.199777
 42
0.043141
  0
VERTEX
  8
0
 10
540.594332
 20
167.823735
 42
0.037054
  0
VERTEX
  8
0
 10
532.754028
 20
167.221173
 42
0.034807
  0
VERTEX
  8
0
 10
524.613522
 20
165.397678
 42
0.028941
  0
VERTEX
  8
0
 10
516.270770
 20
162.372953
 42
-0.009802
  0
VERTEX
  8
0
 10
512.509526
 20
160.844083
 42
-0.022408
  0
VERTEX
  8
0
 10
509.605459
 20
159.876325
 42
-0.024326
  0
VERTEX
  8
0
 10
507.446220
 20
159.374812
 42
-0.208658
  0
VERTEX
  8
0
 10
506.503237
 20
159.597433
 42
0.029071
  0
VERTEX
  8
0
 10
499.082554
 20
164.513750
 42
0.047247
  0
VERTEX
  8
0
 10
492.223619
 20
167.680778
 42
0.049966
  0
VERTEX
  8
0
 10
485.177612
 20
169.392359
 42
0.037568
  0
VERTEX
  8
0
 10
477.212487
 20
169.897639
 42
0.007473
  0
VERTEX
  8
0
 10
473.640878
 20
169.802273
 42
0.007731
  0
VERTEX
  8
0
 10
470.113838
 20
169.600653
 42
0.007510
  0
VERTEX
  8
0
 10
467.066906
 20
169.333114
 42
0.032693
  0
SEQEND
  0
POLYLINE
  8
0
 66
1
 70
1
  0
VERTEX
  8
0
 10
484.145347
 20
162.868413
 42
-0.051264
  0
VERTEX
  8
0
 10
488.304031
 20
161.525902
 42
-0.021540
  0
VERTEX
  8
0
 10
493.583867
 20
158.924649
 42
-0.013175
  0
VERTEX
  8
0
 10
498.537320
 20
156.040974
 42
-0.283822
  0
VERTEX
  8
0
 10
499.261936
 20
154.593580
 42
-0.219507
  0
VERTEX
  8
0
 10
498.966233
 20
154.078444
 42
-0.005444
  0
VERTEX
  8
0
 10
496.678633
 20
152.490994
 42
-0.010754
  0
VERTEX
  8
0
 10
493.883025
 20
150.682285
 42
-0.006996
  0
VERTEX
  8
0
 10
490.581222
 20
148.708683
 42
0.000000
  0
VERTEX
  8
0
 10
481.981340
 20
143.730207
 42
0.000000
  0
VERTEX
  8
0
 10
474.240670
 20
147.233583
 42
0.008705
  0
VERTEX
  8
0
 10
470.663693
 20
148.778048
 42
0.004916
  0
VERTEX
  8
0
 10
466.276947
 20
150.531988
 42
0.004905
  0
VERTEX
  8
0
 10
461.816122
 20
152.214697
 42
0.008023
  0
VERTEX
  8
0
 10
458.000000
 20
153.542561
 42
-0.001706
  0
VERTEX
  8
0
 10
454.713798
 20
154.639689
 42
-0.002634
  0
VERTEX
  8
0
 10
451.881578
 20
155.612657
 42
-0.000833
  0
VERTEX
  8
0
 10
449.434601
 20
156.472295
 42
-0.079144
  0
VERTEX
  8
0
 10
449.107499
 20
156.649915
 42
-0.418037
  0
VERTEX
  8
0
 10
449.018007
 20
157.371111
 42
-0.045839
  0
VERTEX
  8
0
 10
450.292089
 20
158.711415
 42
-0.038748
  0
VERTEX
  8
0
 10
452.286449
 20
160.201431
 42
-0.030292
  0
VERTEX
  8
0
 10
454.654539
 20
161.506310
 42
-0.058387
  0
VERTEX
  8
0
 10
460.606125
 20
163.521126
 42
-0.040930
  0
VERTEX
  8
0
 10
467.632163
 20
164.425179
 42
-0.036558
  0
VERTEX
  8
0
 10
475.540851
 20
164.212158
 42
-0.027459
  0
SEQEND
  0
POLYLINE
  8
0
 66
1
 70
1
  0
VERTEX
  8
0
 10
553.500000
 20
162.544719
 42
-0.050809
  0
VERTEX
  8
0
 10
560.511002
 20
159.227502
 42
-0.064393
  0
VERTEX
  8
0
 10
566.113731
 20
154.769787
 42
-0.074649
  0
VERTEX
  8
0
 10
569.753804
 20
149.682774
 42
-0.118569
  0
VERTEX
  8
0
 10
571.000000
 20
144.501501
 42
-0.086846
  0
VERTEX
  8
0
 10
570.248922
 20
140.209919
 42
-0.057165
  0
VERTEX
  8
0
 10
568.014835
 20
135.708854
 42
-0.054738
  0
VERTEX
  8
0
 10
564.678618
 20
131.619286
 42
-0.061840
  0
VERTEX
  8
0
 10
560.657548
 20
128.539461
 42
-0.053677
  0
VERTEX
  8
0
 10
554.663986
 20
125.842463
 42
-0.037738
  0
VERTEX
  8
0
 10
547.475015
 20
124.082079
 42
-0.036091
  0
VERTEX
  8
0
 10
539.714187
 20
123.361711
 42
-0.037061
  0
VERTEX
  8
0
 10
532.000000
 20
123.776221
 42
-0.019560
  0
VERTEX
  8
0
 10
526.088181
 20
124.772069
 42
-0.013337
  0
VERTEX
  8
0
 10
519.455136
 20
126.343851
 42
-0.008772
  0
VERTEX
  8
0
 10
513.367725
 20
128.073817
 42
-0.123362
  0
VERTEX
  8
0
 10
511.433855
 20
129.232811
 42
-0.251034
  0
VERTEX
  8
0
 10
511.331398
 20
129.571824
 42
-0.025412
  0
VERTEX
  8
0
 10
511.546251
 20
130.416002
 42
-0.027024
  0
VERTEX
  8
0
 10
511.930858
 20
131.456471
 42
-0.018151
  0
VERTEX
  8
0
 10
512.475954
 20
132.601219
 42
0.085124
  0
VERTEX
  8
0
 10
513.753660
 20
136.578135
 42
0.048083
  0
VERTEX
  8
0
 10
513.981783
 20
141.651489
 42
0.046435
  0
VERTEX
  8
0
 10
513.215514
 20
146.937480
 42
0.058249
  0
VERTEX
  8
0
 10
511.504185
 20
151.580522
 42
-0.004944
  0
VERTEX
  8
0
 10
510.547683
 20
153.513000
 42
-0.007063
  0
VERTEX
  8
0
 10
509.740287
 20
155.247804
 42
-0.004162
  0
VERTEX
  8
0
 10
509.095563
 20
156.718513
 42
-0.099943
  0
VERTEX
  8
0
 10
509.004185
 20
157.156682
 42
-0.300485
  0
VERTEX
  8
0
 10
509.496295
 20
157.912031
 42
-0.002589
  0
VERTEX
  8
0
 10
516.159690
 20
160.763782
 42
-0.008135
  0
VERTEX
  8
0
 10
522.413037
 20
163.282768
 42
-0.041774
  0
VERTEX
  8
0
 10
526.000000
 20
164.326522
 42
-0.052662
  0
VERTEX
  8
0
 10
531.294113
 20
164.827983
 42
-0.013479
  0
VERTEX
  8
0
 10
539.904948
 20
164.502808
 42
-0.013314
  0
VERTEX
  8
0
 10
548.467915
 20
163.718587
 42
-0.055670
  0
SEQEND
  0
POLYLINE
  8
0
 66
1
 70
1
  0
VERTEX
  8
0
 10
461.232123
 20
146.471078
 42
-0.006043
  0
VERTEX
  8
0
 10
469.778167
 20
142.058200
 42
-0.153174
  0
VERTEX
  8
0
 10
471.599697
 20
140.209778
 42
-0.503364
  0
VERTEX
  8
0
 10
470.968394
 20
138.931028
 42
-0.024205
  0
VERTEX
  8
0
 10
465.472968
 20
138.206201
 42
-0.075374
  0
VERTEX
  8
0
 10
458.583682
 20
138.673493
 42
-0.076125
  0
VERTEX
  8
0
 10
452.167852
 20
141.163024
 42
-0.088720
  0
VERTEX
  8
0
 10
447.593504
 20
145.008740
 42
-0.175453
  0
VERTEX
  8
0
 10
446.000000
 20
149.410059
 42
-0.152860
  0
VERTEX
  8
0
 10
446.680950
 20
151.585382
 42
-0.296959
  0
VERTEX
  8
0
 10
448.298709
 20
152.244185
 42
-0.064121
  0
VERTEX
  8
0
 10
451.826241
 20
151.080397
 42
-0.004457
  0
SEQEND
  0
POLYLINE
  8
0
 66
1
 70
1
  0
VERTEX
  8
0
 10
505.313317
 20
150.039491
 42
-0.049977
  0
VERTEX
  8
0
 10
507.778532
 20
146.433273
 42
-0.042880
  0
VERTEX
  8
0
 10
509.628824
 20
142.222913
 42
-0.044910
  0
VERTEX
  8
0
 10
510.644192
 20
138.048214
 42
-0.083763
  0
VERTEX
  8
0
 10
510.580651
 20
134.578217
 42
-0.016810
  0
VERTEX
  8
0
 10
510.274061
 20
133.201121
 42
-0.021850
  0
VERTEX
  8
0
 10
509.896642
 20
131.965168
 42
-0.020215
  0
VERTEX
  8
0
 10
509.503843
 20
130.983129
 42
-0.150191
  0
VERTEX
  8
0
 10
509.176272
 20
130.608942
 42
-0.261088
  0
VERTEX
  8
0
 10
507.535179
 20
130.538661
 42
-0.002690
  0
VERTEX
  8
0
 10
496.900847
 20
135.985491
 42
-0.002608
  0
VERTEX
  8
0
 10
486.306254
 20
141.554435
 42
-0.277198
  0
VERTEX
  8
0
 10
485.500000
 20
142.896984
 42
-0.254216
  0
VERTEX
  8
0
 10
486.178605
 20
144.145432
 42
-0.004581
  0
VERTEX
  8
0
 10
492.800334
 20
148.351214
 42
-0.007146
  0
VERTEX
  8
0
 10
499.296109
 20
152.266284
 42
-0.122974
  0
VERTEX
  8
0
 10
501.661106
 20
152.955064
 42
-0.151627
  0
VERTEX
  8
0
 10
502.262166
 20
152.793700
 42
-0.027623
  0
VERTEX
  8
0
 10
503.212900
 20
152.117151
 42
-0.027494
  0
VERTEX
  8
0
 10
504.274443
 20
151.169678
 42
-0.021913
  0
SEQEND
  0
ENDSEC
  0
EOF
