  0
SECTION
  2
HEADER
  9
$ACADVER
  1
AC1006
  9
$EXTMIN
 10
0.000000
 20
0.000000
 30
0.000000
  9
$EXTMAX
 10
480.000000
 20
280.000000
 30
0.000000
  0
ENDSEC
  0
SECTION
  2
ENTITIES
  0
POLYLINE
  8
0
 66
1
 70
1
  0
VERTEX
  8
0
 10
193.000000
 20
267.901487
 42
-0.020054
  0
VERTEX
  8
0
 10
190.673587
 20
266.951344
 42
-0.006797
  0
VERTEX
  8
0
 10
187.219065
 20
265.752455
 42
-0.006747
  0
VERTEX
  8
0
 10
183.361715
 20
264.529770
 42
-0.007706
  0
VERTEX
  8
0
 10
179.639372
 20
263.467240
 42
0.012208
  0
VERTEX
  8
0
 10
172.244920
 20
261.284334
 42
0.067686
  0
VERTEX
  8
0
 10
168.515561
 20
259.498299
 42
0.134904
  0
VERTEX
  8
0
 10
166.667392
 20
257.394511
 42
0.113640
  0
VERTEX
  8
0
 10
166.000000
 20
254.495999
 42
0.028598
  0
VERTEX
  8
0
 10
166.106934
 20
252.627895
 42
0.114373
  0
VERTEX
  8
0
 10
166.488811
 20
251.555565
 42
0.139170
  0
VERTEX
  8
0
 10
167.257771
 20
250.875180
 42
0.050516
  0
VERTEX
  8
0
 10
168.640432
 20
250.375398
 42
0.072321
  0
VERTEX
  8
0
 10
171.711376
 20
250.062577
 42
0.113051
  0
VERTEX
  8
0
 10
174.262471
 20
250.763184
 42
0.130698
  0
VERTEX
  8
0
 10
176.010047
 20
252.401338
 42
0.115795
  0
VERTEX
  8
0
 10
176.813358
 20
254.768055
 42
-0.029548
  0
VERTEX
  8
0
 10
177.107085
 20
256.638873
 42
-0.164776
  0
VERTEX
  8
0
 10
177.623100
 20
257.496936
 42
-0.152580
  0
VERTEX
  8
0
 10
178.577346
 20
257.900304
 42
-0.024281
  0
VERTEX
  8
0
 10
180.629100
 20
258.000000
 42
0.026610
  0
VERTEX
  8
0
 10
182.118145
 20
258.079302
 42
0.021728
  0
VERTEX
  8
0
 10
183.696005
 20
258.317550
 42
0.022255
  0
VERTEX
  8
0
 10
185.131396
 20
258.665490
 42
0.052318
  0
VERTEX
  8
0
 10
186.151388
 20
259.081020
 42
-0.055190
  0
VERTEX
  8
0
 10
187.959103
 20
259.805412
 42
-0.437453
  0
VERTEX
  8
0
 10
188.642290
 20
259.382889
 42
-0.169692
  0
VERTEX
  8
0
 10
188.450272
 20
258.058746
 42
-0.017940
  0
VERTEX
  8
0
 10
186.886571
 20
255.302599
 42
-0.010760
  0
VERTEX
  8
0
 10
180.667545
 20
245.673555
 42
-0.001005
  0
VERTEX
  8
0
 10
164.791636
 20
222.317193
 42
-0.001077
  0
VERTEX
  8
0
 10
148.884831
 20
199.123664
 42
-0.009444
  0
VERTEX
  8
0
 10
141.623896
 20
189.000000
 42
-0.022943
  0
VERTEX
  8
0
 10
133.609458
 20
179.229088
 42
-0.011742
  0
VERTEX
  8
0
 10
122.726394
 20
167.693941
 42
-0.008835
  0
VERTEX
  8
0
 10
111.925319
 20
157.150578
 42
-0.080640
  0
VERTEX
  8
0
 10
106.500000
 20
153.480797
 42
-0.052754
  0
VERTEX
  8
0
 10
102.515253
 20
152.123128
 42
-0.048782
  0
VERTEX
  8
0
 10
98.227272
 20
151.582214
 42
-0.052540
  0
VERTEX
  8
0
 10
94.567166
 20
151.864549
 42
-0.207207
  0
VERTEX
  8
0
 10
92.731504
 20
153.095223
 42
-0.230487
  0
VERTEX
  8
0
 10
92.256536
 20
157.084500
 42
-0.109056
  0
VERTEX
  8
0
 10
95.040105
 20
161.606204
 42
-0.064030
  0
VERTEX
  8
0
 10
101.193270
 20
166.519691
 42
-0.025948
  0
VERTEX
  8
0
 10
110.659393
 20
171.618464
 42
0.009522
  0
VERTEX
  8
0
 10
115.195013
 20
173.872607
 42
0.009814
  0
VERTEX
  8
0
 10
119.595455
 20
176.276032
 42
0.009592
  0
VERTEX
  8
0
 10
123.324404
 20
178.504766
 42
0.040681
  0
VERTEX
  8
0
 10
125.409393
 20
180.054589
 42
0.024524
  0
VERTEX
  8
0
 10
127.329292
 20
181.914657
 42
0.075171
  0
VERTEX
  8
0
 10
128.352539
 20
183.403522
 42
0.081249
  0
VERTEX
  8
0
 10
128.847299
 20
185.061929
 42
0.031958
  0
VERTEX
  8
0
 10
129.000000
 20
187.448605
 42
0.109490
  0
VERTEX
  8
0
 10
128.073706
 20
191.627937
 42
0.128373
  0
VERTEX
  8
0
 10
125.491517
 20
194.746587
 42
0.104098
  0
VERTEX
  8
0
 10
121.229627
 20
196.631580
 42
0.054544
  0
VERTEX
  8
0
 10
115.433998
 20
197.213051
 42
0.055424
  0
VERTEX
  8
0
 10
109.825863
 20
196.538422
 42
0.096875
  0
VERTEX
  8
0
 10
105.575134
 20
194.621774
 42
0.120180
  0
VERTEX
  8
0
 10
102.946619
 20
191.593424
 42
0.119469
  0
VERTEX
  8
0
 10
102.000000
 20
187.688186
 42
0.088827
  0
VERTEX
  8
0
 10
102.352655
 20
185.718794
 42
0.121270
  0
VERTEX
  8
0
 10
103.360334
 20
184.232329
 42
0.095131
  0
VERTEX
  8
0
 10
105.154645
 20
183.146984
 42
0.039249
  0
VERTEX
  8
0
 10
107.898300
 20
182.370340
 42
0.000000
  0
VERTEX
  8
0
 10
111.105985
 20
181.728803
 42
0.000000
  0
VERTEX
  8
0
 10
104.802992
 20
178.254967
 42
0.036831
  0
VERTEX
  8
0
 10
95.761503
 20
172.365502
 42
0.066383
  0
VERTEX
  8
0
 10
89.506239
 20
166.133381
 42
0.079663
  0
VERTEX
  8
0
 10
85.841484
 20
159.355833
 42
0.082597
  0
VERTEX
  8
0
 10
84.539828
 20
151.857465
 42
0.045234
  0
VERTEX
  8
0
 10
84.901945
 20
147.522842
 42
0.106388
  0
VERTEX
  8
0
 10
86.117331
 20
144.529832
 42
0.114179
  0
VERTEX
  8
0
 10
88.391177
 20
142.429665
 42
0.056872
  0
VERTEX
  8
0
 10
92.014866
 20
140.877400
 42
0.200178
  0
VERTEX
  8
0
 10
104.806770
 20
142.213051
 42
0.057113
  0
VERTEX
  8
0
 10
121.472704
 20
153.942528
 42
0.042093
  0
VERTEX
  8
0
 10
140.807110
 20
174.313943
 42
0.020267
  0
VERTEX
  8
0
 10
162.166300
 20
203.326029
 42
-0.001959
  0
VERTEX
  8
0
 10
166.023423
 20
208.988097
 42
-0.003307
  0
VERTEX
  8
0
 10
169.307253
 20
213.701141
 42
-0.000471
  0
VERTEX
  8
0
 10
172.227851
 20
217.826073
 42
-0.516801
  0
VERTEX
  8
0
 10
172.412342
 20
217.826029
 42
-0.170970
  0
VERTEX
  8
0
 10
172.493440
 20
217.541752
 42
-0.000704
  0
VERTEX
  8
0
 10
172.287376
 20
214.232027
 42
-0.003366
  0
VERTEX
  8
0
 10
172.021846
 20
210.462277
 42
-0.002101
  0
VERTEX
  8
0
 10
171.662449
 20
206.048958
 42
0.026402
  0
VERTEX
  8
0
 10
171.228971
 20
192.783427
 42
0.037379
  0
VERTEX
  8
0
 10
172.347420
 20
181.026952
 42
0.042373
  0
VERTEX
  8
0
 10
174.710234
 20
171.935425
 42
0.173109
  0
VERTEX
  8
0
 10
178.250000
 20
167.574023
 42
0.137920
  0
VERTEX
  8
0
 10
179.914349
 20
167.109663
 42
0.125420
  0
VERTEX
  8
0
 10
181.645059
 20
167.554466
 42
0.097044
  0
VERTEX
  8
0
 10
183.289713
 20
168.924573
 42
0.056116
  0
VERTEX
  8
0
 10
184.685213
 20
171.098783
 42
0.000731
  0
VERTEX
  8
0
 10
185.420402
 20
172.593766
 42
0.000080
  0
VERTEX
  8
0
 10
187.101309
 20
176.025893
 42
0.000098
  0
VERTEX
  8
0
 10
189.100775
 20
180.112158
 42
0.000079
  0
VERTEX
  8
0
 10
191.245876
 20
184.500000
 42
-0.011152
  0
VERTEX
  8
0
 10
195.808360
 20
193.331475
 42
-0.004669
  0
VERTEX
  8
0
 10
202.327933
 20
205.028257
 42
-0.003757
  0
VERTEX
  8
0
 10
208.829463
 20
216.243984
 42
-0.027638
  0
VERTEX
  8
0
 10
212.264573
 20
221.395344
 42
-0.597483
  0
VERTEX
  8
0
 10
212.628630
 20
221.340427
 42
-0.121981
  0
VERTEX
  8
0
 10
212.715097
 20
220.488790
 42
-0.023970
  0
VERTEX
  8
0
 10
212.242851
 20
218.026751
 42
-0.005411
  0
VERTEX
  8
0
 10
211.195579
 20
213.895344
 42
0.015097
  0
VERTEX
  8
0
 10
209.887436
 20
208.280387
 42
0.023735
  0
VERTEX
  8
0
 10
209.141403
 20
203.385223
 42
0.018571
  0
VERTEX
  8
0
 10
208.759109
 20
197.656884
 42
0.005719
  0
VERTEX
  8
0
 10
208.602716
 20
189.000000
 42
0.003500
  0
VERTEX
  8
0
 10
208.606172
 20
179.742006
 42
0.025004
  0
VERTEX
  8
0
 10
208.862897
 20
175.272046
 42
0.049743
  0
VERTEX
  8
0
 10
209.495461
 20
172.256536
 42
0.046254
  0
VERTEX
  8
0
 10
210.720978
 20
169.346727
 42
0.096965
  0
VERTEX
  8
0
 10
216.206207
 20
162.624176
 42
0.093520
  0
VERTEX
  8
0
 10
223.887855
 20
158.361744
 42
0.088272
  0
VERTEX
  8
0
 10
232.985244
 20
157.042564
 42
0.075347
  0
VERTEX
  8
0
 10
242.526860
 20
158.803439
 42
0.037117
  0
VERTEX
  8
0
 10
245.036072
 20
159.885390
 42
0.011715
  0
VERTEX
  8
0
 10
248.611784
 20
161.860835
 42
0.011628
  0
VERTEX
  8
0
 10
252.510135
 20
164.258529
 42
0.012653
  0
VERTEX
  8
0
 10
256.182500
 20
166.770793
 42
-0.002714
  0
VERTEX
  8
0
 10
259.528112
 20
169.158505
 42
-0.004262
  0
VERTEX
  8
0
 10
262.431657
 20
171.170171
 42
-0.001236
  0
VERTEX
  8
0
 10
264.968662
 20
172.886909
 42
-0.149200
  0
VERTEX
  8
0
 10
265.339217
 20
173.000000
 42
-0.299805
  0
VERTEX
  8
0
 10
265.562502
 20
172.852894
 42
-0.026952
  0
VERTEX
  8
0
 10
265.805023
 20
172.192187
 42
-0.028042
  0
VERTEX
  8
0
 10
266.024115
 20
171.303952
 42
-0.017803
  0
VERTEX
  8
0
 10
266.183578
 20
170.250000
 42
0.153775
  0
VERTEX
  8
0
 10
267.171670
 20
168.035716
 42
0.202650
  0
VERTEX
  8
0
 10
269.145414
 20
167.091930
 42
0.136406
  0
VERTEX
  8
0
 10
271.874423
 20
167.716508
 42
0.063894
  0
VERTEX
  8
0
 10
274.839698
 20
169.850256
 42
0.094060
  0
VERTEX
  8
0
 10
277.483654
 20
173.462322
 42
0.152071
  0
VERTEX
  8
0
 10
278.020024
 20
177.201663
 42
0.198330
  0
VERTEX
  8
0
 10
276.347040
 20
179.924621
 42
0.159843
  0
VERTEX
  8
0
 10
273.050000
 20
180.985383
 42
0.089526
  0
VERTEX
  8
0
 10
270.586860
 20
180.526195
 42
0.018079
  0
VERTEX
  8
0
 10
266.467649
 20
178.789290
 42
0.011101
  0
VERTEX
  8
0
 10
260.082184
 20
175.646327
 42
0.002156
  0
VERTEX
  8
0
 10
248.709121
 20
169.668825
 42
-0.009852
  0
VERTEX
  8
0
 10
243.974421
 20
167.272606
 42
-0.030652
  0
VERTEX
  8
0
 10
240.664974
 20
165.921805
 42
-0.042417
  0
VERTEX
  8
0
 10
237.863333
 20
165.231871
 42
-0.039188
  0
VERTEX
  8
0
 10
234.909461
 20
165.000000
 42
-0.045219
  0
VERTEX
  8
0
 10
230.635601
 20
165.387313
 42
-0.070058
  0
VERTEX
  8
0
 10
227.125153
 20
166.553137
 42
-0.078428
  0
VERTEX
  8
0
 10
224.356217
 20
168.517660
 42
-0.075014
  0
VERTEX
  8
0
 10
222.277265
 20
171.266927
 42
-0.106539
  0
VERTEX
  8
0
 10
220.667044
 20
176.754437
 42
-0.021989
  0
VERTEX
  8
0
 10
220.371478
 20
186.882344
 42
-0.024038
  0
VERTEX
  8
0
 10
221.059792
 20
197.817575
 42
-0.038516
  0
VERTEX
  8
0
 10
222.805972
 20
207.000000
 42
-0.018481
  0
VERTEX
  8
0
 10
225.689865
 20
216.261391
 42
-0.010293
  0
VERTEX
  8
0
 10
229.847057
 20
227.325515
 42
-0.010066
  0
VERTEX
  8
0
 10
234.668752
 20
238.725656
 42
-0.012619
  0
VERTEX
  8
0
 10
239.614470
 20
249.082757
 42
0.011423
  0
VERTEX
  8
0
 10
243.193016
 20
256.530900
 42
0.055519
  0
VERTEX
  8
0
 10
244.638472
 20
260.980068
 42
0.112345
  0
VERTEX
  8
0
 10
244.576407
 20
263.999635
 42
0.148817
  0
VERTEX
  8
0
 10
243.171259
 20
266.345012
 42
0.103378
  0
VERTEX
  8
0
 10
240.829956
 20
267.715371
 42
0.142752
  0
VERTEX
  8
0
 10
238.410316
 20
267.812027
 42
0.104791
  0
VERTEX
  8
0
 10
235.769359
 20
266.528201
 42
0.039876
  0
VERTEX
  8
0
 10
232.732897
 20
263.750000
 42
0.041787
  0
VERTEX
  8
0
 10
224.785643
 20
253.647378
 42
0.007750
  0
VERTEX
  8
0
 10
212.066979
 20
233.695891
 42
0.008777
  0
VERTEX
  8
0
 10
198.868793
 20
211.399252
 42
0.012289
  0
VERTEX
  8
0
 10
187.926741
 20
191.000000
 42
0.000000
  0
VERTEX
  8
0
 10
182.622648
 20
180.500000
 42
0.000000
  0
VERTEX
  8
0
 10
181.878665
 20
184.500000
 42
-0.056536
  0
VERTEX
  8
0
 10
181.543975
 20
189.209804
 42
-0.013357
  0
VERTEX
  8
0
 10
182.086131
 20
197.086605
 42
-0.014420
  0
VERTEX
  8
0
 10
183.132749
 20
205.465256
 42
-0.023782
  0
VERTEX
  8
0
 10
184.554791
 20
212.456571
 42
-0.023146
  0
VERTEX
  8
0
 10
186.647247
 20
219.354989
 42
-0.010975
  0
VERTEX
  8
0
 10
189.944442
 20
228.042551
 42
-0.010261
  0
VERTEX
  8
0
 10
194.041359
 20
237.593726
 42
-0.009461
  0
VERTEX
  8
0
 10
198.634367
 20
247.233343
 42
0.006219
  0
VERTEX
  8
0
 10
200.688539
 20
251.473528
 42
0.008586
  0
VERTEX
  8
0
 10
202.419013
 20
255.332723
 42
0.005828
  0
VERTEX
  8
0
 10
203.768849
 20
258.591531
 42
0.097899
  0
VERTEX
  8
0
 10
203.983550
 20
259.733343
 42
0.104522
  0
VERTEX
  8
0
 10
203.521097
 20
261.824935
 42
0.019820
  0
VERTEX
  8
0
 10
201.758608
 20
265.333448
 42
0.016458
  0
VERTEX
  8
0
 10
199.745352
 20
268.706813
 42
0.177897
  0
VERTEX
  8
0
 10
198.500000
 20
269.649028
 42
0.137097
  0
VERTEX
  8
0
 10
197.878033
 20
269.663397
 42
0.014564
  0
VERTEX
  8
0
 10
196.471875
 20
269.261300
 42
0.017105
  0
VERTEX
  8
0
 10
194.796427
 20
268.665137
 42
0.012947
  0
SEQEND
  0
POLYLINE
  8
0
 66
1
 70
1
  0
VERTEX
  8
0
 10
123.745641
 20
188.279915
 42
-0.298983
  0
VERTEX
  8
0
 10
123.429919
 20
187.109325
 42
-0.028250
  0
VERTEX
  8
0
 10
120.983381
 20
185.171752
 42
-0.033039
  0
VERTEX
  8
0
 10
118.226689
 20
183.491891
 42
-0.120133
  0
VERTEX
  8
0
 10
116.250000
 20
183.003738
 42
-0.227227
  0
VERTEX
  8
0
 10
115.735910
 20
183.248200
 42
-0.085666
  0
VERTEX
  8
0
 10
115.337580
 20
183.961761
 42
-0.057014
  0
VERTEX
  8
0
 10
115.081400
 20
185.084568
 42
-0.027611
  0
VERTEX
  8
0
 10
115.000000
 20
186.557498
 42
-0.019923
  0
VERTEX
  8
0
 10
115.090677
 20
188.832328
 42
-0.210359
  0
VERTEX
  8
0
 10
115.521594
 20
189.631816
 42
-0.172842
  0
VERTEX
  8
0
 10
116.449666
 20
189.938826
 42
-0.012685
  0
VERTEX
  8
0
 10
119.172279
 20
189.807498
 42
-0.026507
  0
VERTEX
  8
0
 10
120.799265
 20
189.600466
 42
-0.035714
  0
VERTEX
  8
0
 10
122.236770
 20
189.231928
 42
-0.038681
  0
VERTEX
  8
0
 10
123.326808
 20
188.771465
 42
-0.196517
  0
SEQEND
  0
POLYLINE
  8
0
 66
1
 70
1
  0
VERTEX
  8
0
 10
309.422678
 20
238.687149
 42
0.126404
  0
VERTEX
  8
0
 10
307.325207
 20
235.679449
 42
0.078045
  0
VERTEX
  8
0
 10
306.456435
 20
231.430970
 42
0.074805
  0
VERTEX
  8
0
 10
306.923660
 20
226.928270
 42
0.096245
  0
VERTEX
  8
0
 10
308.709812
 20
223.179345
 42
0.000000
  0
VERTEX
  8
0
 10
310.919624
 20
220.189699
 42
0.000000
  0
VERTEX
  8
0
 10
306.596431
 20
211.344850
 42
-0.025841
  0
VERTEX
  8
0
 10
301.302427
 20
201.797765
 42
-0.033719
  0
VERTEX
  8
0
 10
295.456993
 20
193.702408
 42
-0.035163
  0
VERTEX
  8
0
 10
290.174207
 20
188.178571
 42
-0.400225
  0
VERTEX
  8
0
 10
287.422038
 20
188.244629
 42
-0.305351
  0
VERTEX
  8
0
 10
287.234441
 20
189.206162
 42
-0.016680
  0
VERTEX
  8
0
 10
288.594752
 20
192.145892
 42
-0.020897
  0
VERTEX
  8
0
 10
290.615087
 20
195.770216
 42
-0.012438
  0
VERTEX
  8
0
 10
293.303449
 20
199.916830
 42
0.056128
  0
VERTEX
  8
0
 10
295.545523
 20
204.141261
 42
0.059692
  0
VERTEX
  8
0
 10
296.734165
 20
208.672241
 42
0.064282
  0
VERTEX
  8
0
 10
296.773074
 20
213.030990
 42
0.089687
  0
VERTEX
  8
0
 10
295.629451
 20
216.749670
 42
0.060813
  0
VERTEX
  8
0
 10
294.623908
 20
218.223494
 42
0.041080
  0
VERTEX
  8
0
 10
293.159232
 20
219.639431
 42
0.036285
  0
VERTEX
  8
0
 10
291.278401
 20
220.964726
 42
0.026445
  0
VERTEX
  8
0
 10
289.018975
 20
222.165273
 42
-0.013704
  0
VERTEX
  8
0
 10
286.389543
 20
223.477665
 42
-0.070769
  0
VERTEX
  8
0
 10
285.080511
 20
224.435407
 42
-0.142597
  0
VERTEX
  8
0
 10
284.548077
 20
225.377160
 42
-0.128305
  0
VERTEX
  8
0
 10
284.574961
 20
226.500000
 42
0.022118
  0
VERTEX
  8
0
 10
284.831457
 20
227.571663
 42
0.006083
  0
VERTEX
  8
0
 10
285.139542
 20
229.278959
 42
0.006134
  0
VERTEX
  8
0
 10
285.441685
 20
231.224143
 42
0.006371
  0
VERTEX
  8
0
 10
285.691911
 20
233.151776
 42
0.015072
  0
VERTEX
  8
0
 10
285.921261
 20
235.805732
 42
0.084767
  0
VERTEX
  8
0
 10
285.761221
 20
237.215125
 42
0.136377
  0
VERTEX
  8
0
 10
285.177171
 20
238.160758
 42
0.063846
  0
VERTEX
  8
0
 10
283.995623
 20
239.002343
 42
0.102792
  0
VERTEX
  8
0
 10
281.703702
 20
239.677637
 42
0.061124
  0
VERTEX
  8
0
 10
278.848904
 20
239.562163
 42
0.059767
  0
VERTEX
  8
0
 10
276.024618
 20
238.744167
 42
0.083759
  0
VERTEX
  8
0
 10
273.815617
 20
237.333136
 42
0.153625
  0
VERTEX
  8
0
 10
272.295476
 20
234.740842
 42
0.067991
  0
VERTEX
  8
0
 10
271.936045
 20
230.745666
 42
0.062637
  0
VERTEX
  8
0
 10
272.692421
 20
226.369754
 42
0.075132
  0
VERTEX
  8
0
 10
274.494379
 20
222.603421
 42
0.000000
  0
VERTEX
  8
0
 10
276.988758
 20
218.927748
 42
0.000000
  0
VERTEX
  8
0
 10
273.360276
 20
211.713874
 42
-0.011525
  0
VERTEX
  8
0
 10
269.467903
 20
204.400293
 42
-0.017830
  0
VERTEX
  8
0
 10
265.741362
 20
198.291895
 42
-0.020294
  0
VERTEX
  8
0
 10
262.020638
 20
193.124297
 42
-0.025493
  0
VERTEX
  8
0
 10
258.149899
 20
188.671545
 42
-0.020408
  0
VERTEX
  8
0
 10
254.445865
 20
185.126824
 42
-0.043958
  0
VERTEX
  8
0
 10
251.268856
 20
182.787207
 42
-0.057490
  0
VERTEX
  8
0
 10
248.371732
 20
181.451357
 42
-0.079464
  0
VERTEX
  8
0
 10
245.549660
 20
181.000000
 42
-0.164880
  0
VERTEX
  8
0
 10
243.486747
 20
181.699275
 42
-0.280170
  0
VERTEX
  8
0
 10
242.847721
 20
183.342800
 42
-0.156941
  0
VERTEX
  8
0
 10
244.020868
 20
185.559019
 42
-0.070743
  0
VERTEX
  8
0
 10
246.706310
 20
187.522596
 42
0.044318
  0
VERTEX
  8
0
 10
254.414570
 20
192.558306
 42
0.067492
  0
VERTEX
  8
0
 10
259.965417
 20
198.297041
 42
0.080715
  0
VERTEX
  8
0
 10
263.107633
 20
204.438789
 42
0.106413
  0
VERTEX
  8
0
 10
263.732550
 20
210.680451
 42
0.054035
  0
VERTEX
  8
0
 10
262.853791
 20
214.606371
 42
0.113855
  0
VERTEX
  8
0
 10
261.217731
 20
217.245715
 42
0.141014
  0
VERTEX
  8
0
 10
258.854544
 20
218.564412
 42
0.104024
  0
VERTEX
  8
0
 10
255.843408
 20
218.629139
 42
0.094542
  0
VERTEX
  8
0
 10
251.832565
 20
217.053448
 42
0.031214
  0
VERTEX
  8
0
 10
246.677219
 20
213.331862
 42
0.030883
  0
VERTEX
  8
0
 10
241.560106
 20
208.570328
 42
0.039126
  0
VERTEX
  8
0
 10
237.493135
 20
203.555639
 42
0.016752
  0
VERTEX
  8
0
 10
235.157038
 20
199.908650
 42
0.059748
  0
VERTEX
  8
0
 10
234.036684
 20
197.378514
 42
0.052785
  0
VERTEX
  8
0
 10
233.477076
 20
194.500220
 42
0.011125
  0
VERTEX
  8
0
 10
233.147487
 20
189.381947
 42
0.000000
  0
VERTEX
  8
0
 10
232.794974
 20
181.005026
 42
0.000000
  0
VERTEX
  8
0
 10
236.297487
 20
177.502513
 42
0.024760
  0
VERTEX
  8
0
 10
238.207353
 20
175.772984
 42
0.057676
  0
VERTEX
  8
0
 10
239.828666
 20
174.731136
 42
0.067582
  0
VERTEX
  8
0
 10
241.477171
 20
174.183066
 42
0.046536
  0
VERTEX
  8
0
 10
243.439838
 20
174.000000
 42
0.141123
  0
VERTEX
  8
0
 10
252.157210
 20
176.510450
 42
0.062789
  0
VERTEX
  8
0
 10
261.491500
 20
184.155008
 42
0.053864
  0
VERTEX
  8
0
 10
270.159288
 20
195.520266
 42
0.043783
  0
VERTEX
  8
0
 10
276.913848
 20
209.277158
 42
-0.016250
  0
VERTEX
  8
0
 10
279.327616
 20
214.963959
 42
-0.100860
  0
VERTEX
  8
0
 10
281.198106
 20
217.502922
 42
-0.269581
  0
VERTEX
  8
0
 10
283.000572
 20
217.883658
 42
-0.140820
  0
VERTEX
  8
0
 10
284.960174
 20
216.547988
 42
-0.148240
  0
VERTEX
  8
0
 10
285.594007
 20
215.042065
 42
-0.085621
  0
VERTEX
  8
0
 10
285.461729
 20
213.064088
 42
-0.037317
  0
VERTEX
  8
0
 10
284.450905
 20
209.932237
 42
-0.005505
  0
VERTEX
  8
0
 10
281.871367
 20
203.793615
 42
0.018673
  0
VERTEX
  8
0
 10
280.627637
 20
200.601008
 42
0.021519
  0
VERTEX
  8
0
 10
279.689758
 20
197.470762
 42
0.023146
  0
VERTEX
  8
0
 10
279.085470
 20
194.516902
 42
0.033258
  0
VERTEX
  8
0
 10
278.848153
 20
191.857966
 42
0.017804
  0
VERTEX
  8
0
 10
278.886610
 20
188.917750
 42
0.070114
  0
VERTEX
  8
0
 10
279.225564
 20
187.142707
 42
0.090759
  0
VERTEX
  8
0
 10
279.991900
 20
185.771730
 42
0.042452
  0
VERTEX
  8
0
 10
281.420934
 20
184.314351
 42
0.064086
  0
VERTEX
  8
0
 10
283.823617
 20
182.732043
 42
0.104533
  0
VERTEX
  8
0
 10
286.181535
 20
182.139845
 42
0.085754
  0
VERTEX
  8
0
 10
288.903270
 20
182.504912
 42
0.032305
  0
VERTEX
  8
0
 10
292.500000
 20
183.895863
 42
0.082663
  0
VERTEX
  8
0
 10
297.766010
 20
187.487341
 42
0.046737
  0
VERTEX
  8
0
 10
302.837793
 20
193.341783
 42
0.040006
  0
VERTEX
  8
0
 10
307.507035
 20
201.122195
 42
0.027711
  0
VERTEX
  8
0
 10
311.553480
 20
210.557541
 42
-0.011972
  0
VERTEX
  8
0
 10
313.397302
 20
215.260066
 42
-0.092827
  0
VERTEX
  8
0
 10
314.690159
 20
217.221656
 42
-0.230683
  0
VERTEX
  8
0
 10
316.072577
 20
217.725501
 42
-0.115696
  0
VERTEX
  8
0
 10
317.871146
 20
217.100798
 42
-0.231813
  0
VERTEX
  8
0
 10
318.422154
 20
216.203192
 42
-0.067303
  0
VERTEX
  8
0
 10
318.356309
 20
214.534230
 42
-0.031455
  0
VERTEX
  8
0
 10
317.680682
 20
211.733663
 42
-0.005493
  0
VERTEX
  8
0
 10
316.020240
 20
206.560754
 42
0.018848
  0
VERTEX
  8
0
 10
313.999378
 20
199.634674
 42
0.059036
  0
VERTEX
  8
0
 10
313.380030
 20
194.832618
 42
0.093250
  0
VERTEX
  8
0
 10
313.999573
 20
191.341419
 42
0.118967
  0
VERTEX
  8
0
 10
315.835175
 20
188.649165
 42
0.135489
  0
VERTEX
  8
0
 10
319.842316
 20
186.632665
 42
0.103048
  0
VERTEX
  8
0
 10
324.779795
 20
186.674560
 42
0.095735
  0
VERTEX
  8
0
 10
329.594993
 20
188.737383
 42
0.099052
  0
VERTEX
  8
0
 10
333.227694
 20
192.426431
 42
0.000000
  0
VERTEX
  8
0
 10
335.265248
 20
195.534752
 42
0.000000
  0
VERTEX
  8
0
 10
338.668279
 20
192.131721
 42
0.022495
  0
VERTEX
  8
0
 10
340.883006
 20
190.107786
 42
0.100055
  0
VERTEX
  8
0
 10
342.425055
 20
189.273377
 42
0.083811
  0
VERTEX
  8
0
 10
344.300606
 20
189.029489
 42
0.013128
  0
VERTEX
  8
0
 10
348.035656
 20
189.269517
 42
-0.009611
  0
VERTEX
  8
0
 10
350.322668
 20
189.432646
 42
-0.016137
  0
VERTEX
  8
0
 10
352.247974
 20
189.470608
 42
-0.010081
  0
VERTEX
  8
0
 10
353.785980
 20
189.420269
 42
-0.398809
  0
VERTEX
  8
0
 10
354.000000
 20
189.194622
 42
-0.081382
  0
VERTEX
  8
0
 10
353.929656
 20
188.765304
 42
-0.002433
  0
VERTEX
  8
0
 10
353.339063
 20
187.039260
 42
-0.004781
  0
VERTEX
  8
0
 10
352.612113
 20
185.010732
 42
-0.003276
  0
VERTEX
  8
0
 10
351.750000
 20
182.721853
 42
-0.009551
  0
VERTEX
  8
0
 10
350.344780
 20
179.262753
 42
-0.082306
  0
VERTEX
  8
0
 10
349.449555
 20
177.863667
 42
-0.177230
  0
VERTEX
  8
0
 10
348.435447
 20
177.327277
 42
-0.082771
  0
VERTEX
  8
0
 10
346.928609
 20
177.371682
 42
0.025221
  0
VERTEX
  8
0
 10
327.691244
 20
180.164967
 42
0.032851
  0
VERTEX
  8
0
 10
309.906859
 20
180.664525
 42
0.037142
  0
VERTEX
  8
0
 10
294.590500
 20
178.944274
 42
0.071534
  0
VERTEX
  8
0
 10
282.930271
 20
174.964427
 42
0.063289
  0
VERTEX
  8
0
 10
279.260515
 20
172.463748
 42
0.089558
  0
VERTEX
  8
0
 10
276.818465
 20
169.366053
 42
0.080419
  0
VERTEX
  8
0
 10
275.450184
 20
165.351200
 42
0.041871
  0
VERTEX
  8
0
 10
275.003738
 20
160.066162
 42
0.014569
  0
VERTEX
  8
0
 10
275.121394
 20
155.946800
 42
0.087626
  0
VERTEX
  8
0
 10
275.613077
 20
153.870222
 42
0.085710
  0
VERTEX
  8
0
 10
276.789884
 20
152.067353
 42
0.013624
  0
VERTEX
  8
0
 10
279.757992
 20
149.046229
 42
0.051802
  0
VERTEX
  8
0
 10
284.719454
 20
145.167774
 42
0.059229
  0
VERTEX
  8
0
 10
290.161326
 20
142.594788
 42
0.048452
  0
VERTEX
  8
0
 10
296.912055
 20
141.038948
 42
0.021682
  0
VERTEX
  8
0
 10
306.000000
 20
140.252437
 42
0.018837
  0
VERTEX
  8
0
 10
314.643307
 20
140.206610
 42
0.032157
  0
VERTEX
  8
0
 10
321.825711
 20
140.903033
 42
0.036019
  0
VERTEX
  8
0
 10
328.256581
 20
142.428869
 42
0.033192
  0
VERTEX
  8
0
 10
334.586397
 20
144.893634
 42
0.034723
  0
VERTEX
  8
0
 10
340.068021
 20
147.939020
 42
0.039341
  0
VERTEX
  8
0
 10
344.836699
 20
151.603193
 42
0.037769
  0
VERTEX
  8
0
 10
349.126949
 20
156.103642
 42
0.027989
  0
VERTEX
  8
0
 10
353.177810
 20
161.659205
 42
-0.012481
  0
VERTEX
  8
0
 10
355.150210
 20
164.548313
 42
-0.036443
  0
VERTEX
  8
0
 10
356.698390
 20
166.398225
 42
-0.055713
  0
VERTEX
  8
0
 10
357.943484
 20
167.425418
 42
-0.219955
  0
VERTEX
  8
0
 10
358.901689
 20
167.565799
 42
0.027871
  0
VERTEX
  8
0
 10
362.492400
 20
166.718165
 42
0.003592
  0
VERTEX
  8
0
 10
370.282388
 20
165.389715
 42
0.004498
  0
VERTEX
  8
0
 10
378.278674
 20
164.158864
 42
0.012044
  0
VERTEX
  8
0
 10
384.000000
 20
163.471033
 42
0.032498
  0
VERTEX
  8
0
 10
389.850737
 20
163.292006
 42
0.025926
  0
VERTEX
  8
0
 10
396.140825
 20
163.835712
 42
0.026627
  0
VERTEX
  8
0
 10
402.024593
 20
164.975252
 42
0.049670
  0
VERTEX
  8
0
 10
406.590473
 20
166.609956
 42
0.141730
  0
VERTEX
  8
0
 10
411.834971
 20
171.253061
 42
0.128359
  0
VERTEX
  8
0
 10
414.042960
 20
178.164043
 42
0.114978
  0
VERTEX
  8
0
 10
412.676117
 20
185.893184
 42
0.099006
  0
VERTEX
  8
0
 10
407.999091
 20
192.709762
 42
0.048212
  0
VERTEX
  8
0
 10
404.263411
 20
195.704341
 42
0.040330
  0
VERTEX
  8
0
 10
399.799059
 20
198.136046
 42
0.039627
  0
VERTEX
  8
0
 10
394.914278
 20
199.858101
 42
0.042347
  0
VERTEX
  8
0
 10
389.926269
 20
200.740402
 42
0.072967
  0
VERTEX
  8
0
 10
383.238145
 20
200.370528
 42
0.122884
  0
VERTEX
  8
0
 10
378.194245
 20
197.962198
 42
0.131392
  0
VERTEX
  8
0
 10
375.088344
 20
193.607065
 42
0.089794
  0
VERTEX
  8
0
 10
374.000000
 20
187.595708
 42
0.061709
  0
VERTEX
  8
0
 10
374.462025
 20
183.866411
 42
0.115038
  0
VERTEX
  8
0
 10
375.848627
 20
181.174106
 42
0.128873
  0
VERTEX
  8
0
 10
378.154138
 20
179.563427
 42
0.088598
  0
VERTEX
  8
0
 10
381.308870
 20
179.000000
 42
0.096952
  0
VERTEX
  8
0
 10
385.033564
 20
179.729087
 42
0.144467
  0
VERTEX
  8
0
 10
387.611683
 20
181.786545
 42
0.153505
  0
VERTEX
  8
0
 10
388.565891
 20
184.810423
 42
0.113593
  0
VERTEX
  8
0
 10
387.778000
 20
188.250000
 42
0.185188
  0
VERTEX
  8
0
 10
386.427380
 20
189.516254
 42
0.092215
  0
VERTEX
  8
0
 10
384.095766
 20
189.996262
 42
0.095513
  0
VERTEX
  8
0
 10
381.815074
 20
189.601654
 42
0.213826
  0
VERTEX
  8
0
 10
380.595156
 20
188.387376
 42
-0.046359
  0
VERTEX
  8
0
 10
380.210867
 20
187.609902
 42
-0.213606
  0
VERTEX
  8
0
 10
379.805677
 20
187.333767
 42
-0.185400
  0
VERTEX
  8
0
 10
379.289103
 20
187.432755
 42
-0.034203
  0
VERTEX
  8
0
 10
378.488167
 20
188.009821
 42
-0.229642
  0
VERTEX
  8
0
 10
377.542047
 20
190.091355
 42
-0.289167
  0
VERTEX
  8
0
 10
378.691594
 20
191.816355
 42
-0.109680
  0
VERTEX
  8
0
 10
382.415567
 20
192.577098
 42
-0.048496
  0
VERTEX
  8
0
 10
387.430969
 20
192.003400
 42
-0.048217
  0
VERTEX
  8
0
 10
392.181804
 20
190.496400
 42
-0.055982
  0
VERTEX
  8
0
 10
396.305934
 20
188.160345
 42
-0.058925
  0
VERTEX
  8
0
 10
399.635777
 20
185.089622
 42
-0.064415
  0
VERTEX
  8
0
 10
402.042677
 20
181.411841
 42
-0.030908
  0
VERTEX
  8
0
 10
403.472355
 20
177.924294
 42
-0.114628
  0
VERTEX
  8
0
 10
403.705673
 20
175.574981
 42
-0.142760
  0
VERTEX
  8
0
 10
402.864898
 20
173.655637
 42
-0.058429
  0
VERTEX
  8
0
 10
400.777769
 20
171.681460
 42
-0.057639
  0
VERTEX
  8
0
 10
399.008228
 20
170.654808
 42
-0.057589
  0
VERTEX
  8
0
 10
397.050540
 20
170.058825
 42
-0.037688
  0
VERTEX
  8
0
 10
394.381105
 20
169.777157
 42
-0.010147
  0
VERTEX
  8
0
 10
390.118780
 20
169.736696
 42
-0.022841
  0
VERTEX
  8
0
 10
382.491435
 20
170.167920
 42
-0.008635
  0
VERTEX
  8
0
 10
371.887462
 20
171.440303
 42
-0.002200
  0
VERTEX
  8
0
 10
360.739495
 20
173.023688
 42
-0.372215
  0
VERTEX
  8
0
 10
360.000000
 20
173.879435
 42
-0.085390
  0
VERTEX
  8
0
 10
360.494232
 20
176.752315
 42
-0.001237
  0
VERTEX
  8
0
 10
366.340453
 20
193.112321
 42
-0.003249
  0
VERTEX
  8
0
 10
371.943641
 20
208.359168
 42
-0.020399
  0
VERTEX
  8
0
 10
375.169336
 20
216.000000
 42
0.009010
  0
VERTEX
  8
0
 10
378.388019
 20
223.164390
 42
0.071278
  0
VERTEX
  8
0
 10
379.327520
 20
226.669181
 42
0.178708
  0
VERTEX
  8
0
 10
378.807291
 20
228.850755
 42
0.127121
  0
VERTEX
  8
0
 10
376.916866
 20
230.542990
 42
0.071193
  0
VERTEX
  8
0
 10
372.980067
 20
231.913933
 42
0.221938
  0
VERTEX
  8
0
 10
370.323996
 20
231.253133
 42
0.096315
  0
VERTEX
  8
0
 10
367.768054
 20
228.207030
 42
0.008497
  0
VERTEX
  8
0
 10
363.024375
 20
219.294070
 42
-0.008236
  0
VERTEX
  8
0
 10
355.887930
 20
205.868403
 42
-0.033129
  0
VERTEX
  8
0
 10
350.867305
 20
198.057469
 42
-0.075412
  0
VERTEX
  8
0
 10
347.319397
 20
194.528312
 42
-0.437437
  0
VERTEX
  8
0
 10
345.013767
 20
194.977725
 42
-0.176929
  0
VERTEX
  8
0
 10
344.645933
 20
196.761678
 42
-0.031239
  0
VERTEX
  8
0
 10
345.368076
 20
200.160567
 42
-0.021217
  0
VERTEX
  8
0
 10
347.020626
 20
205.245247
 42
-0.005519
  0
VERTEX
  8
0
 10
350.111975
 20
213.270098
 42
0.012682
  0
VERTEX
  8
0
 10
352.984702
 20
221.058244
 42
0.064212
  0
VERTEX
  8
0
 10
353.901581
 20
225.586798
 42
0.144709
  0
VERTEX
  8
0
 10
353.295654
 20
228.349508
 42
0.177878
  0
VERTEX
  8
0
 10
351.315544
 20
230.070130
 42
0.065127
  0
VERTEX
  8
0
 10
347.858048
 20
230.891545
 42
0.197666
  0
VERTEX
  8
0
 10
345.585203
 20
230.220421
 42
0.116610
  0
VERTEX
  8
0
 10
343.706347
 20
227.805546
 42
0.016810
  0
VERTEX
  8
0
 10
341.283124
 20
222.000000
 42
0.008625
  0
VERTEX
  8
0
 10
339.957659
 20
218.306488
 42
0.006645
  0
VERTEX
  8
0
 10
338.635221
 20
214.234375
 42
0.006724
  0
VERTEX
  8
0
 10
337.500853
 20
210.394837
 42
0.015914
  0
VERTEX
  8
0
 10
336.786303
 20
207.500000
 42
-0.024059
  0
VERTEX
  8
0
 10
335.918334
 20
204.214511
 42
-0.048019
  0
VERTEX
  8
0
 10
334.866584
 20
201.743120
 42
-0.046226
  0
VERTEX
  8
0
 10
333.334921
 20
199.459020
 42
-0.020734
  0
VERTEX
  8
0
 10
330.937017
 20
196.750000
 42
-0.017011
  0
VERTEX
  8
0
 10
329.064116
 20
194.931137
 42
-0.021783
  0
VERTEX
  8
0
 10
327.215292
 20
193.395312
 42
-0.020346
  0
VERTEX
  8
0
 10
325.596648
 20
192.266565
 42
-0.143027
  0
VERTEX
  8
0
 10
324.683838
 20
192.000000
 42
-0.015569
  0
VERTEX
  8
0
 10
324.038332
 20
192.020104
 42
-0.025466
  0
VERTEX
  8
0
 10
323.494627
 20
192.081911
 42
-0.023090
  0
VERTEX
  8
0
 10
323.084391
 20
192.169471
 42
-0.340945
  0
VERTEX
  8
0
 10
323.000000
 20
192.278845
 42
-0.097123
  0
VERTEX
  8
0
 10
323.041189
 20
192.488889
 42
-0.000468
  0
VERTEX
  8
0
 10
323.873303
 20
194.523556
 42
-0.002140
  0
VERTEX
  8
0
 10
324.833321
 20
196.836461
 42
-0.001350
  0
VERTEX
  8
0
 10
325.972945
 20
199.528845
 42
0.043862
  0
VERTEX
  8
0
 10
328.708307
 20
207.910827
 42
0.102855
  0
VERTEX
  8
0
 10
328.857697
 20
214.466448
 42
0.130350
  0
VERTEX
  8
0
 10
326.448656
 20
219.564462
 42
0.094307
  0
VERTEX
  8
0
 10
321.548180
 20
223.543987
 42
-0.022940
  0
VERTEX
  8
0
 10
319.286798
 20
224.899128
 42
-0.149504
  0
VERTEX
  8
0
 10
318.454594
 20
225.911062
 42
-0.117563
  0
VERTEX
  8
0
 10
318.229568
 20
227.329043
 42
-0.011907
  0
VERTEX
  8
0
 10
318.574390
 20
230.749102
 42
0.067555
  0
VERTEX
  8
0
 10
318.513926
 20
236.448639
 42
0.179590
  0
VERTEX
  8
0
 10
316.589517
 20
239.963680
 42
0.245794
  0
VERTEX
  8
0
 10
313.348734
 20
240.730926
 42
0.115712
  0
SEQEND
  0
POLYLINE
  8
0
 66
1
 70
1
  0
VERTEX
  8
0
 10
280.000000
 20
231.559017
 42
-0.055887
  0
VERTEX
  8
0
 10
279.933596
 20
230.966781
 42
-0.049696
  0
VERTEX
  8
0
 10
279.737031
 20
230.378799
 42
-0.052635
  0
VERTEX
  8
0
 10
279.447691
 20
229.881687
 42
-0.096533
  0
VERTEX
  8
0
 10
279.104785
 20
229.564761
 42
-0.305994
  0
VERTEX
  8
0
 10
278.370931
 20
229.594365
 42
-0.122354
  0
VERTEX
  8
0
 10
277.696107
 20
230.406879
 42
-0.101767
  0
VERTEX
  8
0
 10
277.406646
 20
231.556057
 42
-0.210351
  0
VERTEX
  8
0
 10
277.735568
 20
232.402234
 42
-0.099868
  0
VERTEX
  8
0
 10
278.520615
 20
232.923695
 42
-0.188100
  0
VERTEX
  8
0
 10
279.270167
 20
232.935230
 42
-0.197274
  0
VERTEX
  8
0
 10
279.804984
 20
232.440964
 42
-0.109240
  0
SEQEND
  0
POLYLINE
  8
0
 66
1
 70
1
  0
VERTEX
  8
0
 10
314.000000
 20
231.500000
 42
-0.064853
  0
VERTEX
  8
0
 10
313.925306
 20
230.926543
 42
-0.082425
  0
VERTEX
  8
0
 10
313.706250
 20
230.440625
 42
-0.098894
  0
VERTEX
  8
0
 10
313.381354
 20
230.115568
 42
-0.148195
  0
VERTEX
  8
0
 10
313.000000
 20
230.000000
 42
-0.148195
  0
VERTEX
  8
0
 10
312.618646
 20
230.115568
 42
-0.098894
  0
VERTEX
  8
0
 10
312.293750
 20
230.440625
 42
-0.082425
  0
VERTEX
  8
0
 10
312.074694
 20
230.926543
 42
-0.064853
  0
VERTEX
  8
0
 10
312.000000
 20
231.500000
 42
-0.064853
  0
VERTEX
  8
0
 10
312.074694
 20
232.073457
 42
-0.082425
  0
VERTEX
  8
0
 10
312.293750
 20
232.559375
 42
-0.098894
  0
VERTEX
  8
0
 10
312.618646
 20
232.884432
 42
-0.148195
  0
VERTEX
  8
0
 10
313.000000
 20
233.000000
 42
-0.148195
  0
VERTEX
  8
0
 10
313.381354
 20
232.884432
 42
-0.098894
  0
VERTEX
  8
0
 10
313.706250
 20
232.559375
 42
-0.082425
  0
VERTEX
  8
0
 10
313.925306
 20
232.073457
 42
-0.064853
  0
SEQEND
  0
POLYLINE
  8
0
 66
1
 70
1
  0
VERTEX
  8
0
 10
259.572199
 20
211.672449
 42
-0.160704
  0
VERTEX
  8
0
 10
259.672693
 20
209.568281
 42
-0.057848
  0
VERTEX
  8
0
 10
258.528386
 20
206.756729
 42
-0.042928
  0
VERTEX
  8
0
 10
256.269387
 20
203.367463
 42
-0.020960
  0
VERTEX
  8
0
 10
252.858274
 20
199.443661
 42
-0.007913
  0
VERTEX
  8
0
 10
250.822049
 20
197.357789
 42
-0.011689
  0
VERTEX
  8
0
 10
248.965115
 20
195.599076
 42
-0.007030
  0
VERTEX
  8
0
 10
247.369403
 20
194.197257
 42
-0.178548
  0
VERTEX
  8
0
 10
246.834619
 20
194.000000
 42
-0.541099
  0
VERTEX
  8
0
 10
246.435574
 20
194.610631
 42
-0.012904
  0
VERTEX
  8
0
 10
248.160862
 20
198.285429
 42
-0.017693
  0
VERTEX
  8
0
 10
250.623422
 20
202.791692
 42
-0.011994
  0
VERTEX
  8
0
 10
253.728594
 20
207.750000
 42
-0.013616
  0
VERTEX
  8
0
 10
256.107632
 20
211.148662
 42
-0.085629
  0
VERTEX
  8
0
 10
257.633607
 20
212.604854
 42
-0.280245
  0
VERTEX
  8
0
 10
258.715930
 20
212.653254
 42
-0.177481
  0
SEQEND
  0
POLYLINE
  8
0
 66
1
 70
1
  0
VERTEX
  8
0
 10
339.394717
 20
172.515721
 42
-0.005416
  0
VERTEX
  8
0
 10
342.075189
 20
171.913087
 42
-0.007915
  0
VERTEX
  8
0
 10
344.420708
 20
171.319650
 42
-0.004354
  0
VERTEX
  8
0
 10
346.378582
 20
170.772847
 42
-0.126759
  0
VERTEX
  8
0
 10
346.822531
 20
170.510803
 42
-0.366997
  0
VERTEX
  8
0
 10
346.943912
 20
169.032509
 42
-0.010611
  0
VERTEX
  8
0
 10
342.879325
 20
163.604784
 42
-0.019719
  0
VERTEX
  8
0
 10
338.389192
 20
158.310799
 42
-0.044275
  0
VERTEX
  8
0
 10
334.500000
 20
154.763555
 42
-0.048793
  0
VERTEX
  8
0
 10
328.412103
 20
151.002100
 42
-0.051056
  0
VERTEX
  8
0
 10
321.800986
 20
148.559484
 42
-0.045684
  0
VERTEX
  8
0
 10
314.211742
 20
147.330171
 42
-0.028161
  0
VERTEX
  8
0
 10
305.159986
 20
147.212714
 42
-0.024523
  0
VERTEX
  8
0
 10
296.872829
 20
147.980365
 42
-0.046094
  0
VERTEX
  8
0
 10
290.337241
 20
149.534963
 42
-0.057559
  0
VERTEX
  8
0
 10
285.275458
 20
151.921916
 42
-0.079079
  0
VERTEX
  8
0
 10
281.476920
 20
155.209798
 42
-0.184194
  0
VERTEX
  8
0
 10
279.351302
 20
161.311803
 42
-0.207627
  0
VERTEX
  8
0
 10
281.972612
 20
166.900973
 42
-0.109454
  0
VERTEX
  8
0
 10
290.018270
 20
171.346387
 42
-0.040101
  0
VERTEX
  8
0
 10
302.810188
 20
174.027183
 42
-0.029486
  0
VERTEX
  8
0
 10
310.637086
 20
174.556035
 42
-0.012451
  0
VERTEX
  8
0
 10
321.174415
 20
174.383312
 42
-0.012442
  0
VERTEX
  8
0
 10
331.679923
 20
173.687108
 42
-0.029823
  0
SEQEND
  0
POLYLINE
  8
0
 66
1
 70
1
  0
VERTEX
  8
0
 10
160.378302
 20
158.563079
 42
0.066668
  0
VERTEX
  8
0
 10
157.525849
 20
156.839099
 42
0.088706
  0
VERTEX
  8
0
 10
155.538814
 20
154.560121
 42
0.083324
  0
VERTEX
  8
0
 10
154.384690
 20
151.618235
 42
0.051945
  0
VERTEX
  8
0
 10
154.000000
 20
147.925377
 42
0.103821
  0
VERTEX
  8
0
 10
155.220577
 20
142.110444
 42
0.092230
  0
VERTEX
  8
0
 10
158.703565
 20
136.994606
 42
0.071721
  0
VERTEX
  8
0
 10
164.643011
 20
132.517533
 42
0.036114
  0
VERTEX
  8
0
 10
173.189780
 20
128.592358
 42
0.033958
  0
VERTEX
  8
0
 10
181.812692
 20
126.015036
 42
0.020565
  0
VERTEX
  8
0
 10
192.295864
 20
124.091954
 42
0.011887
  0
VERTEX
  8
0
 10
207.691794
 20
122.289685
 42
0.002544
  0
VERTEX
  8
0
 10
234.500000
 20
119.933382
 42
-0.000500
  0
VERTEX
  8
0
 10
249.087932
 20
118.711268
 42
-0.000825
  0
VERTEX
  8
0
 10
261.410102
 20
117.646094
 42
-0.000045
  0
VERTEX
  8
0
 10
272.510943
 20
116.667036
 42
-0.163811
  0
VERTEX
  8
0
 10
272.747155
 20
116.563584
 42
-0.307869
  0
VERTEX
  8
0
 10
272.797596
 20
116.353777
 42
-0.001186
  0
VERTEX
  8
0
 10
271.875549
 20
113.931756
 42
-0.005283
  0
VERTEX
  8
0
 10
270.780575
 20
111.163737
 42
-0.003228
  0
VERTEX
  8
0
 10
269.432917
 20
107.919512
 42
-0.015115
  0
VERTEX
  8
0
 10
267.485930
 20
103.678643
 42
-0.027663
  0
VERTEX
  8
0
 10
265.609368
 20
100.370051
 42
-0.031507
  0
VERTEX
  8
0
 10
263.567113
 20
97.593865
 42
-0.028603
  0
VERTEX
  8
0
 10
261.129138
 20
95.000000
 42
-0.024856
  0
VERTEX
  8
0
 10
256.382549
 20
90.924491
 42
-0.009463
  0
VERTEX
  8
0
 10
249.389567
 20
85.708689
 42
-0.004249
  0
VERTEX
  8
0
 10
242.138878
 20
80.604002
 42
-0.152395
  0
VERTEX
  8
0
 10
240.203205
 20
80.000000
 42
-0.311384
  0
VERTEX
  8
0
 10
239.152805
 20
80.724393
 42
-0.059266
  0
VERTEX
  8
0
 10
238.558379
 20
83.102580
 42
-0.037994
  0
VERTEX
  8
0
 10
238.367526
 20
86.872176
 42
-0.013979
  0
VERTEX
  8
0
 10
238.651663
 20
92.195993
 42
0.004727
  0
VERTEX
  8
0
 10
239.015548
 20
97.253703
 42
0.072676
  0
VERTEX
  8
0
 10
238.871487
 20
98.991109
 42
0.201269
  0
VERTEX
  8
0
 10
238.209009
 20
99.909217
 42
0.075796
  0
VERTEX
  8
0
 10
236.718367
 20
100.534549
 42
0.056927
  0
VERTEX
  8
0
 10
233.704600
 20
100.935225
 42
0.158271
  0
VERTEX
  8
0
 10
231.685964
 20
100.320734
 42
0.121251
  0
VERTEX
  8
0
 10
230.088000
 20
98.498933
 42
0.027298
  0
VERTEX
  8
0
 10
228.378301
 20
94.712531
 42
-0.055572
  0
VERTEX
  8
0
 10
223.255341
 20
84.886123
 42
-0.019762
  0
VERTEX
  8
0
 10
213.895819
 20
72.079624
 42
-0.012872
  0
VERTEX
  8
0
 10
203.865272
 20
60.083237
 42
-0.215409
  0
VERTEX
  8
0
 10
199.254101
 20
58.000000
 42
-0.056409
  0
VERTEX
  8
0
 10
198.028360
 20
58.138726
 42
-0.314688
  0
VERTEX
  8
0
 10
197.608398
 20
58.602701
 42
-0.108301
  0
VERTEX
  8
0
 10
197.696058
 20
59.575526
 42
-0.005692
  0
VERTEX
  8
0
 10
198.676475
 20
62.563907
 42
-0.032937
  0
VERTEX
  8
0
 10
199.633106
 20
64.863339
 42
-0.010171
  0
VERTEX
  8
0
 10
201.367814
 20
68.191831
 42
-0.010125
  0
VERTEX
  8
0
 10
203.464480
 20
71.845013
 42
-0.010957
  0
VERTEX
  8
0
 10
205.654752
 20
75.313907
 42
0.010870
  0
VERTEX
  8
0
 10
209.632763
 20
81.611747
 42
0.054780
  0
VERTEX
  8
0
 10
211.373665
 20
85.386017
 42
0.103132
  0
VERTEX
  8
0
 10
211.707214
 20
88.219287
 42
0.106175
  0
VERTEX
  8
0
 10
210.872828
 20
90.917504
 42
0.091919
  0
VERTEX
  8
0
 10
209.193278
 20
92.932755
 42
0.076372
  0
VERTEX
  8
0
 10
206.796429
 20
94.370268
 42
0.083266
  0
VERTEX
  8
0
 10
204.292372
 20
94.934536
 42
0.155802
  0
VERTEX
  8
0
 10
202.301760
 20
94.418548
 42
0.114057
  0
VERTEX
  8
0
 10
200.290353
 20
92.389033
 42
0.010256
  0
VERTEX
  8
0
 10
196.626039
 20
86.181749
 42
0.014172
  0
VERTEX
  8
0
 10
192.925577
 20
79.149918
 42
0.018409
  0
VERTEX
  8
0
 10
189.961755
 20
72.500000
 42
-0.016969
  0
VERTEX
  8
0
 10
188.655551
 20
69.546436
 42
-0.013624
  0
VERTEX
  8
0
 10
187.058211
 20
66.459928
 42
-0.013845
  0
VERTEX
  8
0
 10
185.423500
 20
63.685860
 42
-0.033821
  0
VERTEX
  8
0
 10
184.031481
 20
61.767841
 42
-0.047423
  0
VERTEX
  8
0
 10
181.117411
 20
58.881602
 42
-0.023266
  0
VERTEX
  8
0
 10
176.922227
 20
55.762654
 42
-0.014406
  0
VERTEX
  8
0
 10
172.709566
 20
53.098174
 42
-0.342681
  0
VERTEX
  8
0
 10
171.404325
 20
53.262342
 42
-0.303771
  0
VERTEX
  8
0
 10
171.319020
 20
53.692947
 42
-0.004355
  0
VERTEX
  8
0
 10
172.397846
 20
56.223668
 42
-0.010280
  0
VERTEX
  8
0
 10
173.770216
 20
59.198496
 42
-0.006387
  0
VERTEX
  8
0
 10
175.496137
 20
62.633837
 42
0.010309
  0
VERTEX
  8
0
 10
177.296461
 20
66.288440
 42
0.010990
  0
VERTEX
  8
0
 10
178.904830
 20
69.937667
 42
0.010627
  0
VERTEX
  8
0
 10
180.150215
 20
73.130585
 42
0.049154
  0
VERTEX
  8
0
 10
180.644635
 20
75.047584
 42
0.077727
  0
VERTEX
  8
0
 10
180.640826
 20
79.019180
 42
0.080650
  0
VERTEX
  8
0
 10
179.418071
 20
82.745705
 42
0.076630
  0
VERTEX
  8
0
 10
177.008792
 20
86.043410
 42
0.061332
  0
VERTEX
  8
0
 10
173.541038
 20
88.759066
 42
-0.016374
  0
VERTEX
  8
0
 10
171.265831
 20
90.232195
 42
-0.065423
  0
VERTEX
  8
0
 10
170.040007
 20
91.346994
 42
-0.116332
  0
VERTEX
  8
0
 10
169.515781
 20
92.377692
 42
-0.126655
  0
VERTEX
  8
0
 10
169.530459
 20
93.500000
 42
0.030603
  0
VERTEX
  8
0
 10
170.376304
 20
97.591570
 42
0.027004
  0
VERTEX
  8
0
 10
170.762122
 20
101.931090
 42
0.024272
  0
VERTEX
  8
0
 10
170.709468
 20
105.731487
 42
0.158901
  0
VERTEX
  8
0
 10
170.015527
 20
107.481291
 42
0.159073
  0
VERTEX
  8
0
 10
168.011068
 20
108.745174
 42
0.084060
  0
VERTEX
  8
0
 10
165.049375
 20
108.980659
 42
0.077512
  0
VERTEX
  8
0
 10
161.926186
 20
108.206105
 42
0.097201
  0
VERTEX
  8
0
 10
159.454545
 20
106.545455
 42
0.049063
  0
VERTEX
  8
0
 10
158.181157
 20
104.994229
 42
0.076922
  0
VERTEX
  8
0
 10
157.454183
 20
103.432895
 42
0.055562
  0
VERTEX
  8
0
 10
157.099375
 20
101.380807
 42
0.015051
  0
VERTEX
  8
0
 10
157.000000
 20
98.080251
 42
0.016488
  0
VERTEX
  8
0
 10
157.112993
 20
94.654631
 42
0.060254
  0
VERTEX
  8
0
 10
157.514847
 20
92.522707
 42
0.072430
  0
VERTEX
  8
0
 10
158.371190
 20
90.755708
 42
0.031172
  0
VERTEX
  8
0
 10
159.976997
 20
88.678980
 42
0.000000
  0
VERTEX
  8
0
 10
162.953994
 20
85.288368
 42
0.000000
  0
VERTEX
  8
0
 10
157.726997
 20
76.507814
 42
-0.018432
  0
VERTEX
  8
0
 10
153.096742
 20
69.344209
 42
-0.016288
  0
VERTEX
  8
0
 10
147.765032
 20
62.231458
 42
-0.016673
  0
VERTEX
  8
0
 10
142.515101
 20
56.113162
 42
-0.044245
  0
VERTEX
  8
0
 10
138.263731
 20
52.232376
 42
-0.009097
  0
VERTEX
  8
0
 10
136.283314
 20
50.778594
 42
-0.111141
  0
VERTEX
  8
0
 10
135.420672
 20
50.420296
 42
-0.279633
  0
VERTEX
  8
0
 10
134.848362
 20
50.644280
 42
-0.071624
  0
VERTEX
  8
0
 10
134.342443
 20
51.549992
 42
-0.126193
  0
VERTEX
  8
0
 10
134.027823
 20
54.265455
 42
-0.024457
  0
VERTEX
  8
0
 10
134.941888
 20
59.160238
 42
-0.024575
  0
VERTEX
  8
0
 10
136.612595
 20
64.912592
 42
-0.020449
  0
VERTEX
  8
0
 10
138.931973
 20
70.845006
 42
0.040185
  0
VERTEX
  8
0
 10
141.627982
 20
78.633050
 42
0.100995
  0
VERTEX
  8
0
 10
141.936509
 20
84.603827
 42
0.204632
  0
VERTEX
  8
0
 10
139.929725
 20
87.852342
 42
0.217131
  0
VERTEX
  8
0
 10
136.262986
 20
88.542745
 42
0.122583
  0
VERTEX
  8
0
 10
132.731197
 20
86.679458
 42
0.019728
  0
VERTEX
  8
0
 10
127.092070
 20
81.223796
 42
0.021626
  0
VERTEX
  8
0
 10
121.075254
 20
74.353083
 42
0.021510
  0
VERTEX
  8
0
 10
115.663043
 20
66.976351
 42
-0.006487
  0
VERTEX
  8
0
 10
113.489016
 20
63.818538
 42
-0.012726
  0
VERTEX
  8
0
 10
111.663519
 20
61.373664
 42
-0.011765
  0
VERTEX
  8
0
 10
110.266365
 20
59.682006
 42
-0.694361
  0
VERTEX
  8
0
 10
110.000000
 20
59.781335
 42
-0.082275
  0
VERTEX
  8
0
 10
110.139738
 20
60.624802
 42
-0.003991
  0
VERTEX
  8
0
 10
111.080490
 20
63.315542
 42
-0.006408
  0
VERTEX
  8
0
 10
112.269157
 20
66.501117
 42
-0.004570
  0
VERTEX
  8
0
 10
113.678262
 20
70.038354
 42
-0.010903
  0
VERTEX
  8
0
 10
115.939110
 20
75.239559
 42
-0.043806
  0
VERTEX
  8
0
 10
117.658309
 20
78.246388
 42
-0.054161
  0
VERTEX
  8
0
 10
119.688754
 20
80.584103
 42
-0.022990
  0
VERTEX
  8
0
 10
122.863439
 20
83.265919
 42
0.039871
  0
VERTEX
  8
0
 10
128.572187
 20
88.428145
 42
0.014157
  0
VERTEX
  8
0
 10
135.898142
 20
96.653700
 42
0.013917
  0
VERTEX
  8
0
 10
142.694450
 20
105.206283
 42
0.045364
  0
VERTEX
  8
0
 10
146.490361
 20
111.356500
 42
0.047576
  0
VERTEX
  8
0
 10
148.456015
 20
116.466432
 42
0.070040
  0
VERTEX
  8
0
 10
149.089476
 20
121.226741
 42
0.086751
  0
VERTEX
  8
0
 10
148.368717
 20
125.173607
 42
0.138522
  0
VERTEX
  8
0
 10
146.365141
 20
127.927420
 42
0.096801
  0
VERTEX
  8
0
 10
143.449715
 20
129.421276
 42
0.067675
  0
VERTEX
  8
0
 10
139.785707
 20
129.957705
 42
0.065324
  0
VERTEX
  8
0
 10
135.972539
 20
129.497009
 42
0.076151
  0
VERTEX
  8
0
 10
132.618034
 20
128.068037
 42
0.086314
  0
VERTEX
  8
0
 10
127.701307
 20
123.695207
 42
0.024334
  0
VERTEX
  8
0
 10
121.692907
 20
115.332537
 42
0.020461
  0
VERTEX
  8
0
 10
114.913243
 20
103.852369
 42
0.010866
  0
VERTEX
  8
0
 10
107.421314
 20
89.132559
 42
0.008593
  0
VERTEX
  8
0
 10
105.162336
 20
84.231304
 42
0.006972
  0
VERTEX
  8
0
 10
102.904773
 20
78.902791
 42
0.007054
  0
VERTEX
  8
0
 10
100.961175
 20
73.931552
 42
0.018116
  0
VERTEX
  8
0
 10
99.738381
 20
70.270606
 42
-0.018923
  0
VERTEX
  8
0
 10
98.188049
 20
65.653837
 42
-0.059275
  0
VERTEX
  8
0
 10
96.678228
 20
62.755334
 42
-0.046101
  0
VERTEX
  8
0
 10
94.338853
 20
59.925347
 42
-0.008228
  0
VERTEX
  8
0
 10
89.415901
 20
55.138048
 42
-0.028974
  0
VERTEX
  8
0
 10
79.465441
 20
46.807099
 42
-0.047335
  0
VERTEX
  8
0
 10
70.060937
 20
41.111968
 42
-0.053929
  0
VERTEX
  8
0
 10
60.723816
 20
37.786419
 42
-0.055813
  0
VERTEX
  8
0
 10
51.000000
 20
36.585377
 42
-0.058260
  0
VERTEX
  8
0
 10
41.514050
 20
37.585138
 42
-0.094503
  0
VERTEX
  8
0
 10
34.101503
 20
40.805461
 42
-0.105271
  0
VERTEX
  8
0
 10
28.925024
 20
46.221990
 42
-0.087291
  0
VERTEX
  8
0
 10
25.969537
 20
53.646742
 42
-0.077919
  0
VERTEX
  8
0
 10
25.367124
 20
65.889041
 42
-0.063145
  0
VERTEX
  8
0
 10
28.399939
 20
78.698747
 42
-0.056451
  0
VERTEX
  8
0
 10
34.989999
 20
91.627891
 42
-0.042018
  0
VERTEX
  8
0
 10
44.921438
 20
104.211312
 42
-0.019363
  0
VERTEX
  8
0
 10
51.306978
 20
110.527489
 42
-0.024002
  0
VERTEX
  8
0
 10
57.736754
 20
115.869113
 42
-0.025273
  0
VERTEX
  8
0
 10
64.342315
 20
120.336905
 42
-0.026623
  0
VERTEX
  8
0
 10
71.253862
 20
124.031614
 42
-0.032402
  0
VERTEX
  8
0
 10
79.245383
 20
127.157966
 42
-0.104676
  0
VERTEX
  8
0
 10
84.888636
 20
127.721509
 42
-0.156000
  0
VERTEX
  8
0
 10
88.971156
 20
125.905383
 42
-0.104535
  0
VERTEX
  8
0
 10
92.023605
 20
121.757426
 42
-0.056895
  0
VERTEX
  8
0
 10
93.582759
 20
116.930448
 42
-0.061718
  0
VERTEX
  8
0
 10
93.954929
 20
112.009288
 42
-0.061679
  0
VERTEX
  8
0
 10
93.114680
 20
107.143467
 42
-0.056707
  0
VERTEX
  8
0
 10
91.101501
 20
102.479570
 42
-0.041646
  0
VERTEX
  8
0
 10
88.337956
 20
98.474817
 42
-0.020766
  0
VERTEX
  8
0
 10
84.232164
 20
93.875803
 42
-0.014415
  0
VERTEX
  8
0
 10
80.020207
 20
89.778136
 42
-0.187869
  0
VERTEX
  8
0
 10
78.022343
 20
89.000000
 42
-0.249757
  0
VERTEX
  8
0
 10
77.629780
 20
89.209137
 42
-0.065026
  0
VERTEX
  8
0
 10
77.300313
 20
89.870915
 42
-0.050326
  0
VERTEX
  8
0
 10
77.074451
 20
90.829112
 42
-0.032742
  0
VERTEX
  8
0
 10
77.000000
 20
91.964816
 42
0.106223
  0
VERTEX
  8
0
 10
76.506585
 20
94.261161
 42
0.142405
  0
VERTEX
  8
0
 10
75.131841
 20
95.872886
 42
0.127607
  0
VERTEX
  8
0
 10
72.976404
 20
96.605962
 42
0.076988
  0
VERTEX
  8
0
 10
70.270519
 20
96.389893
 42
0.057112
  0
VERTEX
  8
0
 10
67.340881
 20
95.328933
 42
0.111163
  0
VERTEX
  8
0
 10
65.421704
 20
93.767513
 42
0.110729
  0
VERTEX
  8
0
 10
64.352193
 20
91.529788
 42
0.056382
  0
VERTEX
  8
0
 10
64.000000
 20
88.416441
 42
0.136222
  0
VERTEX
  8
0
 10
65.372343
 20
83.472757
 42
0.216716
  0
VERTEX
  8
0
 10
68.927740
 20
81.027777
 42
0.121756
  0
VERTEX
  8
0
 10
74.972246
 20
81.431790
 42
0.035358
  0
VERTEX
  8
0
 10
83.711017
 20
84.919595
 42
0.036560
  0
VERTEX
  8
0
 10
93.119782
 20
90.350770
 42
0.076516
  0
VERTEX
  8
0
 10
99.292949
 20
96.094101
 42
0.091978
  0
VERTEX
  8
0
 10
102.762880
 20
102.674172
 42
0.074694
  0
VERTEX
  8
0
 10
103.978038
 20
110.568499
 42
0.033920
  0
VERTEX
  8
0
 10
103.580344
 20
116.755009
 42
0.047510
  0
VERTEX
  8
0
 10
102.334944
 20
122.147774
 42
0.055622
  0
VERTEX
  8
0
 10
100.348321
 20
126.444995
 42
0.097340
  0
VERTEX
  8
0
 10
97.719454
 20
129.334304
 42
0.068076
  0
VERTEX
  8
0
 10
92.040329
 20
132.455662
 42
0.072641
  0
VERTEX
  8
0
 10
85.855953
 20
133.848892
 42
0.060001
  0
VERTEX
  8
0
 10
78.588899
 20
133.534017
 42
0.029734
  0
VERTEX
  8
0
 10
69.573547
 20
131.493274
 42
0.037102
  0
VERTEX
  8
0
 10
55.956443
 20
126.426253
 42
0.036099
  0
VERTEX
  8
0
 10
43.106412
 20
119.363326
 42
0.037517
  0
VERTEX
  8
0
 10
31.924677
 20
110.867595
 42
0.050409
  0
VERTEX
  8
0
 10
23.301677
 20
101.524328
 42
0.043557
  0
VERTEX
  8
0
 10
15.882154
 20
89.625006
 42
0.058934
  0
VERTEX
  8
0
 10
11.507320
 20
77.741566
 42
0.061284
  0
VERTEX
  8
0
 10
10.127482
 20
65.539204
 42
0.052629
  0
VERTEX
  8
0
 10
11.610506
 20
52.697405
 42
0.016683
  0
VERTEX
  8
0
 10
12.702931
 20
48.480715
 42
0.055139
  0
VERTEX
  8
0
 10
13.810918
 20
45.838205
 42
0.055403
  0
VERTEX
  8
0
 10
15.466797
 20
43.508357
 42
0.016959
  0
VERTEX
  8
0
 10
18.455026
 20
40.380022
 42
0.046083
  0
VERTEX
  8
0
 10
23.863845
 20
35.985641
 42
0.056859
  0
VERTEX
  8
0
 10
29.633047
 20
33.007099
 42
0.050518
  0
VERTEX
  8
0
 10
36.461136
 20
31.175739
 42
0.027225
  0
VERTEX
  8
0
 10
45.132117
 20
30.247407
 42
0.011713
  0
VERTEX
  8
0
 10
49.477999
 20
30.122232
 42
0.013564
  0
VERTEX
  8
0
 10
53.616950
 20
30.212293
 42
0.014727
  0
VERTEX
  8
0
 10
57.278368
 20
30.499692
 42
0.029697
  0
VERTEX
  8
0
 10
60.132117
 20
30.981219
 42
0.037449
  0
VERTEX
  8
0
 10
66.616549
 20
32.997032
 42
0.024894
  0
VERTEX
  8
0
 10
73.710617
 20
36.216577
 42
0.023329
  0
VERTEX
  8
0
 10
80.996802
 20
40.412272
 42
0.021485
  0
VERTEX
  8
0
 10
88.070140
 20
45.377882
 42
-0.006997
  0
VERTEX
  8
0
 10
94.055163
 20
49.843757
 42
-0.145448
  0
VERTEX
  8
0
 10
96.144165
 20
50.578452
 42
-0.337871
  0
VERTEX
  8
0
 10
97.431150
 20
49.693544
 42
-0.034857
  0
VERTEX
  8
0
 10
98.391330
 20
45.887288
 42
0.039061
  0
VERTEX
  8
0
 10
98.787656
 20
44.370036
 42
0.030588
  0
VERTEX
  8
0
 10
99.442269
 20
42.798754
 42
0.031435
  0
VERTEX
  8
0
 10
100.238014
 20
41.404920
 42
0.063493
  0
VERTEX
  8
0
 10
101.059338
 20
40.446300
 42
0.034029
  0
VERTEX
  8
0
 10
102.368310
 20
39.414508
 42
0.208793
  0
VERTEX
  8
0
 10
103.193198
 20
39.257722
 42
0.133075
  0
VERTEX
  8
0
 10
104.081145
 20
39.729562
 42
0.011257
  0
VERTEX
  8
0
 10
105.946998
 20
41.559011
 42
0.041070
  0
VERTEX
  8
0
 10
107.355698
 20
43.263601
 42
0.010186
  0
VERTEX
  8
0
 10
109.367284
 20
46.279835
 42
0.010348
  0
VERTEX
  8
0
 10
111.535146
 20
49.838730
 42
0.010211
  0
VERTEX
  8
0
 10
113.563911
 20
53.500000
 42
-0.015270
  0
VERTEX
  8
0
 10
117.245626
 20
59.988582
 42
-0.013029
  0
VERTEX
  8
0
 10
121.508509
 20
66.599774
 42
-0.005175
  0
VERTEX
  8
0
 10
125.695620
 20
72.601902
 42
-0.463692
  0
VERTEX
  8
0
 10
126.651909
 20
72.681424
 42
-0.252376
  0
VERTEX
  8
0
 10
126.743143
 20
72.376773
 42
-0.009289
  0
VERTEX
  8
0
 10
126.469069
 20
71.162749
 42
-0.014938
  0
VERTEX
  8
0
 10
126.062912
 20
69.697960
 42
-0.009707
  0
VERTEX
  8
0
 10
125.510677
 20
68.030263
 42
0.033896
  0
VERTEX
  8
0
 10
124.930251
 20
65.944549
 42
0.015455
  0
VERTEX
  8
0
 10
124.443761
 20
63.156396
 42
0.015223
  0
VERTEX
  8
0
 10
124.110333
 20
60.175520
 42
0.020240
  0
VERTEX
  8
0
 10
124.000000
 20
57.450999
 42
0.015068
  0
VERTEX
  8
0
 10
124.104352
 20
53.989117
 42
0.051302
  0
VERTEX
  8
0
 10
124.469539
 20
51.765561
 42
0.067362
  0
VERTEX
  8
0
 10
125.216486
 20
49.997973
 42
0.041315
  0
VERTEX
  8
0
 10
126.527032
 20
48.150243
 42
0.216818
  0
VERTEX
  8
0
 10
133.605439
 20
44.780929
 42
0.158163
  0
VERTEX
  8
0
 10
142.050406
 20
47.360821
 42
0.088216
  0
VERTEX
  8
0
 10
151.266476
 20
56.591557
 42
0.037561
  0
VERTEX
  8
0
 10
160.179997
 20
71.681778
 42
-0.006113
  0
VERTEX
  8
0
 10
163.053502
 20
77.329172
 42
-0.021064
  0
VERTEX
  8
0
 10
165.112670
 20
80.884040
 42
-0.026055
  0
VERTEX
  8
0
 10
166.672679
 20
83.072705
 42
-0.327472
  0
VERTEX
  8
0
 10
167.595997
 20
83.324789
 42
-0.201419
  0
VERTEX
  8
0
 10
168.568510
 20
82.393165
 42
-0.159782
  0
VERTEX
  8
0
 10
168.704093
 20
80.931003
 42
-0.043629
  0
VERTEX
  8
0
 10
167.815839
 20
78.173473
 42
-0.003620
  0
VERTEX
  8
0
 10
164.840522
 20
71.253514
 42
0.020805
  0
VERTEX
  8
0
 10
161.862297
 20
63.613555
 42
0.060159
  0
VERTEX
  8
0
 10
160.681032
 20
58.069399
 42
0.092128
  0
VERTEX
  8
0
 10
161.076511
 20
53.873850
 42
0.119684
  0
VERTEX
  8
0
 10
162.975190
 20
50.526409
 42
0.166459
  0
VERTEX
  8
0
 10
167.555306
 20
48.102732
 42
0.110630
  0
VERTEX
  8
0
 10
173.539946
 20
48.483533
 42
0.090244
  0
VERTEX
  8
0
 10
179.825826
 20
51.628522
 42
0.072690
  0
VERTEX
  8
0
 10
185.157329
 20
56.998929
 42
0.000000
  0
VERTEX
  8
0
 10
187.423609
 20
60.064236
 42
0.000000
  0
VERTEX
  8
0
 10
189.192667
 20
56.615986
 42
0.089880
  0
VERTEX
  8
0
 10
191.334109
 20
53.818248
 42
0.094736
  0
VERTEX
  8
0
 10
194.285254
 20
52.011673
 42
0.091739
  0
VERTEX
  8
0
 10
197.776346
 20
51.385629
 42
0.078473
  0
VERTEX
  8
0
 10
201.468561
 20
51.989624
 42
0.104745
  0
VERTEX
  8
0
 10
205.520855
 20
54.350365
 42
0.022927
  0
VERTEX
  8
0
 10
211.277839
 20
60.069263
 42
0.024021
  0
VERTEX
  8
0
 10
217.148509
 20
67.112637
 42
0.028013
  0
VERTEX
  8
0
 10
222.000000
 20
74.346057
 42
-0.004581
  0
VERTEX
  8
0
 10
223.761104
 20
77.257929
 42
-0.007310
  0
VERTEX
  8
0
 10
225.325000
 20
79.710100
 42
-0.002451
  0
VERTEX
  8
0
 10
226.704736
 20
81.783110
 42
-0.251775
  0
VERTEX
  8
0
 10
227.000000
 20
81.938842
 42
-0.248403
  0
VERTEX
  8
0
 10
227.266377
 20
81.795080
 42
-0.010103
  0
VERTEX
  8
0
 10
227.874282
 20
80.844040
 42
-0.015612
  0
VERTEX
  8
0
 10
228.558037
 20
79.642376
 42
-0.010204
  0
VERTEX
  8
0
 10
229.274150
 20
78.217435
 42
0.000000
  0
VERTEX
  8
0
 10
231.048300
 20
74.500000
 42
0.000000
  0
VERTEX
  8
0
 10
227.774150
 20
72.000000
 42
0.019095
  0
VERTEX
  8
0
 10
223.514803
 20
68.482415
 42
0.052739
  0
VERTEX
  8
0
 10
220.903729
 20
65.605097
 42
0.074651
  0
VERTEX
  8
0
 10
219.487488
 20
62.901407
 42
0.083567
  0
VERTEX
  8
0
 10
219.000000
 20
60.005029
 42
0.071565
  0
VERTEX
  8
0
 10
219.577764
 20
55.989057
 42
0.151858
  0
VERTEX
  8
0
 10
221.300616
 20
53.400200
 42
0.120206
  0
VERTEX
  8
0
 10
224.509125
 20
51.878182
 42
0.036823
  0
VERTEX
  8
0
 10
229.867512
 20
51.177328
 42
0.009450
  0
VERTEX
  8
0
 10
234.407752
 20
51.006784
 42
0.074639
  0
VERTEX
  8
0
 10
236.489852
 20
51.279746
 42
0.102242
  0
VERTEX
  8
0
 10
238.122414
 20
52.136189
 42
0.024627
  0
VERTEX
  8
0
 10
240.398117
 20
54.198117
 42
0.075114
  0
VERTEX
  8
0
 10
243.032429
 20
57.770070
 42
0.072070
  0
VERTEX
  8
0
 10
244.540326
 20
62.011032
 42
0.071461
  0
VERTEX
  8
0
 10
244.789801
 20
66.538641
 42
0.071788
  0
VERTEX
  8
0
 10
243.753395
 20
70.945878
 42
0.000000
  0
VERTEX
  8
0
 10
242.258624
 20
74.751195
 42
0.000000
  0
VERTEX
  8
0
 10
250.799953
 20
80.871623
 42
-0.005360
  0
VERTEX
  8
0
 10
254.105750
 20
83.187214
 42
-0.008794
  0
VERTEX
  8
0
 10
256.958834
 20
85.067608
 42
-0.003112
  0
VERTEX
  8
0
 10
259.413834
 20
86.603064
 42
-0.347586
  0
VERTEX
  8
0
 10
259.772149
 20
86.561184
 42
-0.283478
  0
VERTEX
  8
0
 10
259.864076
 20
86.173705
 42
-0.001935
  0
VERTEX
  8
0
 10
258.728709
 20
82.786182
 42
-0.006664
  0
VERTEX
  8
0
 10
257.342865
 20
78.875832
 42
-0.004119
  0
VERTEX
  8
0
 10
255.614966
 20
74.315159
 42
0.015935
  0
VERTEX
  8
0
 10
251.519049
 20
62.681741
 42
0.040736
  0
VERTEX
  8
0
 10
249.525154
 20
53.979396
 42
0.053548
  0
VERTEX
  8
0
 10
249.253882
 20
46.613746
 42
0.053476
  0
VERTEX
  8
0
 10
250.552508
 20
39.355022
 42
-0.243479
  0
VERTEX
  8
0
 10
250.292227
 20
38.028703
 42
-0.130434
  0
VERTEX
  8
0
 10
248.918562
 20
37.006060
 42
-0.033973
  0
VERTEX
  8
0
 10
245.559041
 20
35.920186
 42
-0.002615
  0
VERTEX
  8
0
 10
236.339167
 20
33.669074
 42
-0.013582
  0
VERTEX
  8
0
 10
206.566895
 20
27.414175
 42
-0.017825
  0
VERTEX
  8
0
 10
179.077758
 20
23.420587
 42
-0.018325
  0
VERTEX
  8
0
 10
152.004129
 20
21.468560
 42
-0.015829
  0
VERTEX
  8
0
 10
123.500000
 20
21.363797
 42
-0.004536
  0
VERTEX
  8
0
 10
104.589496
 20
22.064759
 42
-0.008097
  0
VERTEX
  8
0
 10
89.057305
 20
23.033905
 42
-0.009625
  0
VERTEX
  8
0
 10
75.740071
 20
24.339929
 42
-0.012704
  0
VERTEX
  8
0
 10
63.668698
 20
26.070766
 42
0.008427
  0
VERTEX
  8
0
 10
53.628049
 20
27.598178
 42
0.012176
  0
VERTEX
  8
0
 10
44.704218
 20
28.581613
 42
0.011878
  0
VERTEX
  8
0
 10
37.448481
 20
29.029533
 42
0.071071
  0
VERTEX
  8
0
 10
33.691260
 20
28.637359
 42
0.068003
  0
VERTEX
  8
0
 10
31.177206
 20
27.628249
 42
0.101164
  0
VERTEX
  8
0
 10
29.398770
 20
26.071141
 42
0.099325
  0
VERTEX
  8
0
 10
28.353310
 20
23.917947
 42
0.063588
  0
VERTEX
  8
0
 10
28.000000
 20
21.151078
 42
0.067871
  0
VERTEX
  8
0
 10
28.473988
 20
17.675335
 42
0.109375
  0
VERTEX
  8
0
 10
29.871695
 20
15.048283
 42
0.097859
  0
VERTEX
  8
0
 10
32.378316
 20
13.067039
 42
0.046306
  0
VERTEX
  8
0
 10
36.218836
 20
11.527653
 42
0.042677
  0
VERTEX
  8
0
 10
42.544842
 20
10.223094
 42
0.088702
  0
VERTEX
  8
0
 10
47.557153
 20
10.518523
 42
0.144527
  0
VERTEX
  8
0
 10
50.666256
 20
12.310583
 42
0.205475
  0
VERTEX
  8
0
 10
51.762372
 20
15.262513
 42
0.092398
  0
VERTEX
  8
0
 10
51.148706
 20
17.836515
 42
0.133976
  0
VERTEX
  8
0
 10
49.679047
 20
19.636617
 42
0.106368
  0
VERTEX
  8
0
 10
47.211973
 20
20.702472
 42
0.044573
  0
VERTEX
  8
0
 10
43.595012
 20
21.090188
 42
-0.001407
  0
VERTEX
  8
0
 10
40.140773
 20
21.161057
 42
-0.126902
  0
VERTEX
  8
0
 10
39.653750
 20
21.298881
 42
-0.653011
  0
VERTEX
  8
0
 10
39.676608
 20
21.497786
 42
-0.004694
  0
VERTEX
  8
0
 10
41.807037
 20
22.133560
 42
-0.054612
  0
VERTEX
  8
0
 10
43.820599
 20
22.482329
 42
-0.028322
  0
VERTEX
  8
0
 10
46.375756
 20
22.497058
 42
-0.021775
  0
VERTEX
  8
0
 10
49.617583
 20
22.190090
 42
-0.010018
  0
VERTEX
  8
0
 10
53.807037
 20
21.522651
 42
0.006907
  0
VERTEX
  8
0
 10
75.038554
 20
18.004599
 42
0.011132
  0
VERTEX
  8
0
 10
93.219251
 20
15.662255
 42
0.011538
  0
VERTEX
  8
0
 10
111.009613
 20
14.185942
 42
0.008206
  0
VERTEX
  8
0
 10
131.000000
 20
13.319664
 42
0.015277
  0
VERTEX
  8
0
 10
160.726104
 20
13.428368
 42
0.018874
  0
VERTEX
  8
0
 10
188.353132
 20
15.419631
 42
0.019234
  0
VERTEX
  8
0
 10
215.306293
 20
19.442447
 42
0.017030
  0
VERTEX
  8
0
 10
243.000000
 20
25.655022
 42
-0.001509
  0
VERTEX
  8
0
 10
249.779554
 20
27.398526
 42
-0.002327
  0
VERTEX
  8
0
 10
255.653125
 20
28.861081
 42
-0.000736
  0
VERTEX
  8
0
 10
260.748967
 20
30.096872
 42
-0.069614
  0
VERTEX
  8
0
 10
261.500000
 20
30.170286
 42
-0.040262
  0
VERTEX
  8
0
 10
262.226243
 20
30.081210
 42
-0.000870
  0
VERTEX
  8
0
 10
265.731250
 20
29.355141
 42
-0.001990
  0
VERTEX
  8
0
 10
269.829177
 20
28.481773
 42
-0.001341
  0
VERTEX
  8
0
 10
274.500000
 20
27.453722
 42
0.010803
  0
VERTEX
  8
0
 10
281.673281
 20
26.016619
 42
0.021036
  0
VERTEX
  8
0
 10
287.457788
 20
25.236516
 42
0.017248
  0
VERTEX
  8
0
 10
293.983408
 20
24.860920
 42
0.005089
  0
VERTEX
  8
0
 10
304.000000
 20
24.732470
 42
0.004292
  0
VERTEX
  8
0
 10
314.284924
 20
24.793552
 42
0.019710
  0
VERTEX
  8
0
 10
320.240416
 20
25.115082
 42
0.027442
  0
VERTEX
  8
0
 10
325.182812
 20
25.853057
 42
0.014366
  0
VERTEX
  8
0
 10
331.238696
 20
27.282630
 42
0.024606
  0
VERTEX
  8
0
 10
339.446604
 20
29.909593
 42
0.024822
  0
VERTEX
  8
0
 10
347.332174
 20
33.323650
 42
0.026386
  0
VERTEX
  8
0
 10
354.183455
 20
37.164775
 42
0.049214
  0
VERTEX
  8
0
 10
359.196840
 20
41.072468
 42
0.021254
  0
VERTEX
  8
0
 10
361.285088
 20
43.235271
 42
0.073339
  0
VERTEX
  8
0
 10
362.348399
 20
44.861966
 42
0.079947
  0
VERTEX
  8
0
 10
362.848986
 20
46.649993
 42
0.028363
  0
VERTEX
  8
0
 10
363.000000
 20
49.309980
 42
0.019503
  0
VERTEX
  8
0
 10
362.904316
 20
51.762096
 42
0.072623
  0
VERTEX
  8
0
 10
362.563557
 20
53.264784
 42
0.106272
  0
VERTEX
  8
0
 10
361.888790
 20
54.295292
 42
0.072103
  0
VERTEX
  8
0
 10
360.755837
 20
55.130672
 42
0.095724
  0
VERTEX
  8
0
 10
356.816844
 20
56.351436
 42
0.023754
  0
VERTEX
  8
0
 10
350.044817
 20
56.772957
 42
0.022973
  0
VERTEX
  8
0
 10
341.970248
 20
56.520360
 42
0.019276
  0
VERTEX
  8
0
 10
333.461273
 20
55.530956
 42
0.011364
  0
VERTEX
  8
0
 10
322.969414
 20
53.653892
 42
0.002856
  0
VERTEX
  8
0
 10
305.964346
 20
50.109772
 42
0.003062
  0
VERTEX
  8
0
 10
288.392053
 20
46.229842
 42
0.006636
  0
VERTEX
  8
0
 10
274.947178
 20
42.986513
 42
-0.006670
  0
VERTEX
  8
0
 10
268.320924
 20
41.388515
 42
-0.075328
  0
VERTEX
  8
0
 10
265.634313
 20
41.192224
 42
-0.179360
  0
VERTEX
  8
0
 10
263.981643
 20
41.954949
 42
-0.076704
  0
VERTEX
  8
0
 10
262.525680
 20
43.950340
 42
-0.068658
  0
VERTEX
  8
0
 10
261.376454
 20
47.197625
 42
-0.067116
  0
VERTEX
  8
0
 10
261.137070
 20
50.660605
 42
-0.048948
  0
VERTEX
  8
0
 10
261.836181
 20
54.916072
 42
-0.017928
  0
VERTEX
  8
0
 10
263.619693
 20
60.753989
 42
-0.017198
  0
VERTEX
  8
0
 10
267.099577
 20
69.813318
 42
-0.001940
  0
VERTEX
  8
0
 10
275.772127
 20
90.042276
 42
-0.000500
  0
VERTEX
  8
0
 10
285.371711
 20
112.135242
 42
-0.096826
  0
VERTEX
  8
0
 10
286.749725
 20
114.132520
 42
-0.203315
  0
VERTEX
  8
0
 10
287.420942
 20
114.394900
 42
-0.002887
  0
VERTEX
  8
0
 10
291.832732
 20
114.243528
 42
-0.007468
  0
VERTEX
  8
0
 10
297.004763
 20
113.958740
 42
-0.004787
  0
VERTEX
  8
0
 10
303.000000
 20
113.481004
 42
0.006513
  0
VERTEX
  8
0
 10
322.998224
 20
111.956875
 42
0.005653
  0
VERTEX
  8
0
 10
343.996473
 20
110.869565
 42
0.005398
  0
VERTEX
  8
0
 10
366.008683
 20
110.217077
 42
0.004710
  0
VERTEX
  8
0
 10
389.054813
 20
110.000000
 42
-0.002478
  0
VERTEX
  8
0
 10
400.537246
 20
109.943086
 42
-0.004132
  0
VERTEX
  8
0
 10
410.203601
 20
109.767360
 42
-0.000687
  0
VERTEX
  8
0
 10
418.685974
 20
109.531364
 42
-0.405690
  0
VERTEX
  8
0
 10
419.000000
 20
109.208036
 42
-0.131604
  0
VERTEX
  8
0
 10
418.545615
 20
107.511598
 42
-0.001983
  0
VERTEX
  8
0
 10
413.352515
 20
98.594802
 42
-0.006019
  0
VERTEX
  8
0
 10
408.102234
 20
89.902730
 42
-0.012076
  0
VERTEX
  8
0
 10
403.710878
 20
83.193746
 42
-0.013816
  0
VERTEX
  8
0
 10
397.155897
 20
74.228805
 42
-0.214805
  0
VERTEX
  8
0
 10
393.873315
 20
72.483641
 42
-0.571214
  0
VERTEX
  8
0
 10
392.753016
 20
74.127200
 42
-0.018870
  0
VERTEX
  8
0
 10
397.223380
 20
82.768452
 42
0.005638
  0
VERTEX
  8
0
 10
400.888589
 20
89.416217
 42
0.026029
  0
VERTEX
  8
0
 10
402.761570
 20
93.388960
 42
0.044320
  0
VERTEX
  8
0
 10
403.688260
 20
96.385474
 42
0.052885
  0
VERTEX
  8
0
 10
404.000000
 20
99.324547
 42
0.103186
  0
VERTEX
  8
0
 10
403.192213
 20
103.197099
 42
0.127093
  0
VERTEX
  8
0
 10
400.925003
 20
106.093657
 42
0.167041
  0
VERTEX
  8
0
 10
398.014247
 20
107.067375
 42
0.196781
  0
VERTEX
  8
0
 10
395.351689
 20
105.951689
 42
-0.148608
  0
VERTEX
  8
0
 10
394.558276
 20
105.528143
 42
-0.013087
  0
VERTEX
  8
0
 10
392.290198
 20
105.140885
 42
-0.016231
  0
VERTEX
  8
0
 10
389.504658
 20
104.831880
 42
-0.011922
  0
VERTEX
  8
0
 10
386.401689
 20
104.663601
 42
0.061895
  0
VERTEX
  8
0
 10
376.766307
 20
103.168229
 42
0.063276
  0
VERTEX
  8
0
 10
367.867068
 20
99.363839
 42
0.064328
  0
VERTEX
  8
0
 10
360.326417
 20
93.525432
 42
0.067923
  0
VERTEX
  8
0
 10
354.676299
 20
86.059535
 42
-0.040606
  0
VERTEX
  8
0
 10
351.108632
 20
80.769684
 42
-0.020852
  0
VERTEX
  8
0
 10
345.855474
 20
74.734457
 42
-0.013450
  0
VERTEX
  8
0
 10
340.610347
 20
69.483311
 42
-0.538853
  0
VERTEX
  8
0
 10
339.280637
 20
69.793837
 42
-0.194383
  0
VERTEX
  8
0
 10
339.309157
 20
70.710914
 42
-0.005084
  0
VERTEX
  8
0
 10
341.029110
 20
74.508831
 42
-0.009995
  0
VERTEX
  8
0
 10
343.216389
 20
78.975174
 42
-0.006580
  0
VERTEX
  8
0
 10
345.902054
 20
84.028003
 42
0.007020
  0
VERTEX
  8
0
 10
348.620885
 20
89.154113
 42
0.009596
  0
VERTEX
  8
0
 10
350.914978
 20
93.849993
 42
0.006803
  0
VERTEX
  8
0
 10
352.694866
 20
97.818204
 42
0.102363
  0
VERTEX
  8
0
 10
353.000000
 20
99.293037
 42
0.083751
  0
VERTEX
  8
0
 10
352.602171
 20
101.651442
 42
0.107448
  0
VERTEX
  8
0
 10
351.458042
 20
103.524707
 42
0.099365
  0
VERTEX
  8
0
 10
349.558888
 20
104.853033
 42
0.062930
  0
VERTEX
  8
0
 10
346.958556
 20
105.619300
 42
0.049333
  0
VERTEX
  8
0
 10
344.867459
 20
105.749721
 42
0.085245
  0
VERTEX
  8
0
 10
343.166493
 20
105.393612
 42
0.059268
  0
VERTEX
  8
0
 10
341.294381
 20
104.383347
 42
0.013911
  0
VERTEX
  8
0
 10
338.435630
 20
102.250111
 42
0.021617
  0
VERTEX
  8
0
 10
336.141587
 20
100.269843
 42
0.010006
  0
VERTEX
  8
0
 10
333.328089
 20
97.512273
 42
0.009891
  0
VERTEX
  8
0
 10
330.482677
 20
94.492289
 42
0.013562
  0
VERTEX
  8
0
 10
328.052743
 20
91.658028
 42
-0.004384
  0
VERTEX
  8
0
 10
325.963581
 20
89.128742
 42
-0.007356
  0
VERTEX
  8
0
 10
324.159015
 20
87.045608
 42
-0.002175
  0
VERTEX
  8
0
 10
322.586315
 20
85.298558
 42
-0.428379
  0
VERTEX
  8
0
 10
322.373236
 20
85.293430
 42
-0.258195
  0
VERTEX
  8
0
 10
322.303625
 20
85.535469
 42
-0.006462
  0
VERTEX
  8
0
 10
322.583776
 20
86.689103
 42
-0.012291
  0
VERTEX
  8
0
 10
322.973242
 20
88.065585
 42
-0.007869
  0
VERTEX
  8
0
 10
323.489708
 20
89.644916
 42
0.050153
  0
VERTEX
  8
0
 10
324.351711
 20
93.300582
 42
0.056870
  0
VERTEX
  8
0
 10
324.415536
 20
96.900290
 42
0.065366
  0
VERTEX
  8
0
 10
323.723857
 20
99.902546
 42
0.146518
  0
VERTEX
  8
0
 10
322.325387
 20
101.750000
 42
0.067479
  0
VERTEX
  8
0
 10
321.440221
 20
102.230272
 42
0.029141
  0
VERTEX
  8
0
 10
320.157603
 20
102.632813
 42
0.028180
  0
VERTEX
  8
0
 10
318.722470
 20
102.908069
 42
0.033300
  0
VERTEX
  8
0
 10
317.343667
 20
103.000000
 42
0.134127
  0
VERTEX
  8
0
 10
313.613892
 20
101.981147
 42
0.064210
  0
VERTEX
  8
0
 10
309.664874
 20
98.906370
 42
0.037157
  0
VERTEX
  8
0
 10
304.809753
 20
93.220002
 42
0.009555
  0
VERTEX
  8
0
 10
297.853525
 20
83.337128
 42
-0.001910
  0
VERTEX
  8
0
 10
294.370018
 20
78.223683
 42
-0.003120
  0
VERTEX
  8
0
 10
291.372784
 20
73.917781
 42
-0.000473
  0
VERTEX
  8
0
 10
288.694689
 20
70.128722
 42
-0.243280
  0
VERTEX
  8
0
 10
288.445792
 20
70.000000
 42
-0.525085
  0
VERTEX
  8
0
 10
288.199073
 20
70.357727
 42
-0.008813
  0
VERTEX
  8
0
 10
289.250940
 20
72.984531
 42
-0.010654
  0
VERTEX
  8
0
 10
290.967490
 20
76.830272
 42
-0.002761
  0
VERTEX
  8
0
 10
293.896983
 20
82.947103
 42
0.019375
  0
VERTEX
  8
0
 10
296.906759
 20
89.807667
 42
0.079160
  0
VERTEX
  8
0
 10
297.881884
 20
94.237133
 42
0.131912
  0
VERTEX
  8
0
 10
297.202953
 20
97.525385
 42
0.101691
  0
VERTEX
  8
0
 10
294.923275
 20
100.411106
 42
0.018879
  0
VERTEX
  8
0
 10
293.650872
 20
101.402202
 42
0.022166
  0
VERTEX
  8
0
 10
292.371958
 20
102.239512
 42
0.021780
  0
VERTEX
  8
0
 10
291.244100
 20
102.843705
 42
0.112533
  0
VERTEX
  8
0
 10
290.558449
 20
103.000000
 42
0.273226
  0
VERTEX
  8
0
 10
289.868042
 20
102.592288
 42
0.005770
  0
VERTEX
  8
0
 10
287.919958
 20
98.960938
 42
0.011699
  0
VERTEX
  8
0
 10
285.734035
 20
94.520541
 42
0.007409
  0
VERTEX
  8
0
 10
283.385174
 20
89.250000
 42
0.004887
  0
VERTEX
  8
0
 10
279.897218
 20
80.875497
 42
0.029348
  0
VERTEX
  8
0
 10
278.385671
 20
76.407132
 42
0.045090
  0
VERTEX
  8
0
 10
277.712956
 20
72.654794
 42
0.021822
  0
VERTEX
  8
0
 10
277.500000
 20
67.777778
 42
0.009432
  0
VERTEX
  8
0
 10
277.580460
 20
63.512686
 42
0.043873
  0
VERTEX
  8
0
 10
277.888073
 20
61.072797
 42
0.074101
  0
VERTEX
  8
0
 10
278.523138
 20
59.390900
 42
0.069217
  0
VERTEX
  8
0
 10
279.632468
 20
57.923087
 42
0.144518
  0
VERTEX
  8
0
 10
282.114921
 20
56.572235
 42
0.202959
  0
VERTEX
  8
0
 10
284.562223
 20
57.040816
 42
0.086883
  0
VERTEX
  8
0
 10
287.450873
 20
59.802810
 42
0.015153
  0
VERTEX
  8
0
 10
291.749452
 20
66.030068
 42
-0.000003
  0
VERTEX
  8
0
 10
294.294616
 20
69.967183
 42
-0.000002
  0
VERTEX
  8
0
 10
297.194689
 20
74.453213
 42
-0.000002
  0
VERTEX
  8
0
 10
299.996403
 20
78.787017
 42
-0.000004
  0
VERTEX
  8
0
 10
302.211192
 20
82.212854
 42
-0.011640
  0
VERTEX
  8
0
 10
305.694718
 20
87.335480
 42
-0.018509
  0
VERTEX
  8
0
 10
308.933992
 20
91.530944
 42
-0.012855
  0
VERTEX
  8
0
 10
311.708967
 20
94.693518
 42
-0.425825
  0
VERTEX
  8
0
 10
312.621795
 20
94.711539
 42
-0.310269
  0
VERTEX
  8
0
 10
312.689646
 20
94.346336
 42
-0.002605
  0
VERTEX
  8
0
 10
311.443208
 20
91.579151
 42
-0.007906
  0
VERTEX
  8
0
 10
309.915210
 20
88.368852
 42
-0.004867
  0
VERTEX
  8
0
 10
308.020609
 20
84.637068
 42
0.009173
  0
VERTEX
  8
0
 10
305.568790
 20
79.702926
 42
0.025086
  0
VERTEX
  8
0
 10
304.078963
 20
76.105797
 42
0.035085
  0
VERTEX
  8
0
 10
303.268730
 20
73.204858
 42
0.050598
  0
VERTEX
  8
0
 10
303.000000
 20
70.556110
 42
0.046578
  0
VERTEX
  8
0
 10
303.517647
 20
65.011398
 42
0.137172
  0
VERTEX
  8
0
 10
305.198500
 20
61.608725
 42
0.234077
  0
VERTEX
  8
0
 10
307.762091
 20
60.586404
 42
0.141154
  0
VERTEX
  8
0
 10
310.889125
 20
61.766542
 42
0.055175
  0
VERTEX
  8
0
 10
312.260876
 20
63.048477
 42
0.006934
  0
VERTEX
  8
0
 10
314.867516
 20
66.173997
 42
0.008084
  0
VERTEX
  8
0
 10
317.861185
 20
69.991052
 42
0.006629
  0
VERTEX
  8
0
 10
320.938624
 20
74.162028
 42
-0.006980
  0
VERTEX
  8
0
 10
327.074600
 20
82.466131
 42
-0.010424
  0
VERTEX
  8
0
 10
332.687782
 20
89.534163
 42
-0.005084
  0
VERTEX
  8
0
 10
337.603012
 20
95.343888
 42
-0.217967
  0
VERTEX
  8
0
 10
339.036579
 20
96.000000
 42
-0.546253
  0
VERTEX
  8
0
 10
339.217174
 20
95.718786
 42
-0.008308
  0
VERTEX
  8
0
 10
338.216905
 20
93.624952
 42
-0.013400
  0
VERTEX
  8
0
 10
336.828626
 20
91.016424
 42
-0.007486
  0
VERTEX
  8
0
 10
335.007742
 20
87.914730
 42
0.049608
  0
VERTEX
  8
0
 10
330.187974
 20
77.852100
 42
0.112162
  0
VERTEX
  8
0
 10
329.147736
 20
69.517232
 42
0.189054
  0
VERTEX
  8
0
 10
331.889620
 20
64.158338
 42
0.183048
  0
VERTEX
  8
0
 10
337.587648
 20
62.000000
 42
0.092599
  0
VERTEX
  8
0
 10
340.358003
 20
62.517504
 42
0.062823
  0
VERTEX
  8
0
 10
343.190022
 20
64.045666
 42
0.051062
  0
VERTEX
  8
0
 10
346.071728
 20
66.585074
 42
0.029886
  0
VERTEX
  8
0
 10
348.990912
 20
70.146152
 42
0.000000
  0
VERTEX
  8
0
 10
351.766551
 20
73.977810
 42
0.000000
  0
VERTEX
  8
0
 10
353.006502
 20
70.984303
 42
0.074024
  0
VERTEX
  8
0
 10
354.788805
 20
68.014188
 42
0.042337
  0
VERTEX
  8
0
 10
357.714463
 20
65.014348
 42
0.042086
  0
VERTEX
  8
0
 10
360.899882
 20
62.695858
 42
0.137112
  0
VERTEX
  8
0
 10
363.389739
 20
62.000000
 42
0.175103
  0
VERTEX
  8
0
 10
365.925652
 20
62.916183
 42
0.024239
  0
VERTEX
  8
0
 10
370.121417
 20
66.761551
 42
0.023761
  0
VERTEX
  8
0
 10
375.057529
 20
72.244462
 42
0.013933
  0
VERTEX
  8
0
 10
380.455877
 20
79.234892
 42
-0.006662
  0
VERTEX
  8
0
 10
383.836956
 20
83.747251
 42
-0.075041
  0
VERTEX
  8
0
 10
385.446965
 20
85.291715
 42
-0.744174
  0
VERTEX
  8
0
 10
385.855309
 20
84.971708
 42
-0.025960
  0
VERTEX
  8
0
 10
384.573736
 20
82.142590
 42
0.048352
  0
VERTEX
  8
0
 10
383.969173
 20
80.631686
 42
0.021956
  0
VERTEX
  8
0
 10
383.462285
 20
78.561148
 42
0.021498
  0
VERTEX
  8
0
 10
383.115257
 20
76.313594
 42
0.027558
  0
VERTEX
  8
0
 10
383.000000
 20
74.223974
 42
0.071518
  0
VERTEX
  8
0
 10
383.640377
 20
69.769817
 42
0.143420
  0
VERTEX
  8
0
 10
385.543014
 20
66.804592
 42
0.133807
  0
VERTEX
  8
0
 10
388.851865
 20
65.208760
 42
0.058704
  0
VERTEX
  8
0
 10
393.747119
 20
64.884846
 42
0.150881
  0
VERTEX
  8
0
 10
396.854906
 20
66.021752
 42
0.043828
  0
VERTEX
  8
0
 10
400.673238
 20
69.492888
 42
0.034484
  0
VERTEX
  8
0
 10
404.977992
 20
74.854996
 42
0.017408
  0
VERTEX
  8
0
 10
409.677899
 20
82.144128
 42
-0.002542
  0
VERTEX
  8
0
 10
414.699980
 20
90.466067
 42
-0.020776
  0
VERTEX
  8
0
 10
417.168031
 20
94.155349
 42
-0.109453
  0
VERTEX
  8
0
 10
418.361765
 20
95.205739
 42
-0.564303
  0
VERTEX
  8
0
 10
418.968197
 20
94.855335
 42
0.050653
  0
VERTEX
  8
0
 10
419.088463
 20
93.862556
 42
0.006200
  0
VERTEX
  8
0
 10
419.597090
 20
91.730391
 42
0.007291
  0
VERTEX
  8
0
 10
420.271629
 20
89.206471
 42
0.005959
  0
VERTEX
  8
0
 10
421.064451
 20
86.526755
 42
0.020409
  0
VERTEX
  8
0
 10
422.315042
 20
82.995724
 42
0.039715
  0
VERTEX
  8
0
 10
423.643143
 20
80.319082
 42
0.041689
  0
VERTEX
  8
0
 10
425.331677
 20
77.970352
 42
0.025035
  0
VERTEX
  8
0
 10
427.690772
 20
75.471800
 42
-0.031062
  0
VERTEX
  8
0
 10
430.646705
 20
72.264618
 42
-0.143604
  0
VERTEX
  8
0
 10
431.612544
 20
69.962836
 42
-0.313952
  0
VERTEX
  8
0
 10
430.847083
 20
68.549539
 42
-0.117030
  0
VERTEX
  8
0
 10
428.531385
 20
68.000000
 42
-0.027957
  0
VERTEX
  8
0
 10
427.555621
 20
68.054601
 42
-0.041910
  0
VERTEX
  8
0
 10
426.719115
 20
68.220313
 42
-0.049743
  0
VERTEX
  8
0
 10
426.115377
 20
68.460573
 42
-0.250552
  0
VERTEX
  8
0
 10
425.916667
 20
68.750000
 42
-0.000262
  0
VERTEX
  8
0
 10
425.869269
 20
69.178625
 42
-0.000049
  0
VERTEX
  8
0
 10
425.782519
 20
69.967615
 42
-0.000052
  0
VERTEX
  8
0
 10
425.681259
 20
70.890291
 42
-0.000047
  0
VERTEX
  8
0
 10
425.577017
 20
71.841881
 42
0.086867
  0
VERTEX
  8
0
 10
425.053932
 20
73.645236
 42
0.115115
  0
VERTEX
  8
0
 10
423.976417
 20
74.964606
 42
0.113617
  0
VERTEX
  8
0
 10
422.414241
 20
75.681955
 42
0.083037
  0
VERTEX
  8
0
 10
420.500000
 20
75.755728
 42
0.111224
  0
VERTEX
  8
0
 10
419.485135
 20
75.386754
 42
0.141574
  0
VERTEX
  8
0
 10
418.831695
 20
74.640623
 42
0.077179
  0
VERTEX
  8
0
 10
418.437720
 20
73.290557
 42
0.016337
  0
VERTEX
  8
0
 10
418.198984
 20
70.842437
 42
0.072532
  0
VERTEX
  8
0
 10
418.510341
 20
66.971962
 42
0.177263
  0
VERTEX
  8
0
 10
420.044439
 20
64.609687
 42
0.129683
  0
VERTEX
  8
0
 10
423.135568
 20
63.353407
 42
0.032035
  0
VERTEX
  8
0
 10
428.645781
 20
63.000000
 42
0.015573
  0
VERTEX
  8
0
 10
432.066003
 20
63.106554
 42
0.052508
  0
VERTEX
  8
0
 10
434.269230
 20
63.478424
 42
0.067588
  0
VERTEX
  8
0
 10
436.039271
 20
64.241643
 42
0.039379
  0
VERTEX
  8
0
 10
437.923275
 20
65.588894
 42
0.033119
  0
VERTEX
  8
0
 10
439.469518
 20
67.075452
 42
0.073279
  0
VERTEX
  8
0
 10
440.381294
 20
68.429688
 42
0.075238
  0
VERTEX
  8
0
 10
440.849970
 20
69.966123
 42
0.036487
  0
VERTEX
  8
0
 10
441.000000
 20
72.019343
 42
0.020757
  0
VERTEX
  8
0
 10
440.913749
 20
74.096086
 42
0.103537
  0
VERTEX
  8
0
 10
440.582779
 20
75.207808
 42
0.161650
  0
VERTEX
  8
0
 10
439.914624
 20
75.835996
 42
0.073374
  0
VERTEX
  8
0
 10
438.750000
 20
76.180449
 42
-0.140446
  0
VERTEX
  8
0
 10
437.454623
 20
76.759155
 42
-0.052775
  0
VERTEX
  8
0
 10
436.063636
 20
78.204802
 42
-0.033587
  0
VERTEX
  8
0
 10
434.425071
 20
80.633454
 42
-0.010345
  0
VERTEX
  8
0
 10
432.284097
 20
84.500000
 42
-0.014790
  0
VERTEX
  8
0
 10
429.328726
 20
90.534277
 42
-0.038339
  0
VERTEX
  8
0
 10
427.672784
 20
95.081947
 42
-0.056084
  0
VERTEX
  8
0
 10
427.140084
 20
98.372042
 42
-0.211540
  0
VERTEX
  8
0
 10
427.874696
 20
100.274696
 42
0.158380
  0
VERTEX
  8
0
 10
428.855662
 20
102.199911
 42
0.055500
  0
VERTEX
  8
0
 10
429.000872
 20
105.340080
 42
0.055633
  0
VERTEX
  8
0
 10
428.461618
 20
108.375340
 42
0.191388
  0
VERTEX
  8
0
 10
427.250000
 20
109.919901
 42
-0.024995
  0
VERTEX
  8
0
 10
426.387286
 20
110.481913
 42
-0.486879
  0
VERTEX
  8
0
 10
426.377005
 20
110.757917
 42
-0.166507
  0
VERTEX
  8
0
 10
426.820920
 20
110.931042
 42
-0.007340
  0
VERTEX
  8
0
 10
428.500000
 20
110.976700
 42
0.010260
  0
VERTEX
  8
0
 10
430.079058
 20
111.028867
 42
0.002924
  0
VERTEX
  8
0
 10
432.528125
 20
111.174492
 42
0.002943
  0
VERTEX
  8
0
 10
435.291413
 20
111.371361
 42
0.003116
  0
VERTEX
  8
0
 10
438.000000
 20
111.597349
 42
-0.012457
  0
VERTEX
  8
0
 10
441.288502
 20
111.809951
 42
-0.037317
  0
VERTEX
  8
0
 10
443.538001
 20
111.731296
 42
-0.055234
  0
VERTEX
  8
0
 10
445.185867
 20
111.362965
 42
-0.079917
  0
VERTEX
  8
0
 10
446.500000
 20
110.662433
 42
-0.032988
  0
VERTEX
  8
0
 10
447.519187
 20
109.777148
 42
-0.527075
  0
VERTEX
  8
0
 10
447.450129
 20
109.398732
 42
-0.110368
  0
VERTEX
  8
0
 10
446.646121
 20
109.235502
 42
-0.003999
  0
VERTEX
  8
0
 10
443.500000
 20
109.322193
 42
0.000000
  0
VERTEX
  8
0
 10
438.500000
 20
109.500000
 42
0.000000
  0
VERTEX
  8
0
 10
438.239008
 20
106.000000
 42
0.049958
  0
VERTEX
  8
0
 10
438.325131
 20
102.610158
 42
0.185876
  0
VERTEX
  8
0
 10
439.317477
 20
100.762131
 42
0.151933
  0
VERTEX
  8
0
 10
441.445773
 20
99.839913
 42
0.030455
  0
VERTEX
  8
0
 10
445.625044
 20
99.645697
 42
0.015457
  0
VERTEX
  8
0
 10
448.686093
 20
99.784658
 42
0.055750
  0
VERTEX
  8
0
 10
450.601675
 20
100.148418
 42
0.082112
  0
VERTEX
  8
0
 10
451.977923
 20
100.835258
 42
0.065940
  0
VERTEX
  8
0
 10
453.180916
 20
101.975095
 42
0.125725
  0
VERTEX
  8
0
 10
454.784440
 20
105.466703
 42
0.095723
  0
VERTEX
  8
0
 10
454.740150
 20
109.691343
 42
0.097846
  0
VERTEX
  8
0
 10
453.138564
 20
113.517575
 42
0.138826
  0
VERTEX
  8
0
 10
450.340539
 20
115.890701
 42
0.091814
  0
VERTEX
  8
0
 10
448.351310
 20
116.386811
 42
0.010043
  0
VERTEX
  8
0
 10
443.622798
 20
116.581797
 42
0.009574
  0
VERTEX
  8
0
 10
437.013170
 20
116.594891
 42
0.003538
  0
VERTEX
  8
0
 10
427.700811
 20
116.369101
 42
-0.013595
  0
VERTEX
  8
0
 10
404.743717
 20
116.274316
 42
-0.007467
  0
VERTEX
  8
0
 10
376.656767
 20
117.341956
 42
-0.006637
  0
VERTEX
  8
0
 10
344.425351
 20
119.478825
 42
-0.004850
  0
VERTEX
  8
0
 10
308.690960
 20
122.673866
 42
-0.001876
  0
VERTEX
  8
0
 10
297.404156
 20
123.836249
 42
-0.027764
  0
VERTEX
  8
0
 10
293.477648
 20
124.477524
 42
-0.120031
  0
VERTEX
  8
0
 10
291.861191
 20
125.271008
 42
-0.302031
  0
VERTEX
  8
0
 10
291.504745
 20
126.470231
 42
0.020839
  0
VERTEX
  8
0
 10
291.781831
 20
127.528624
 42
0.006584
  0
VERTEX
  8
0
 10
292.108438
 20
129.129859
 42
0.006562
  0
VERTEX
  8
0
 10
292.426053
 20
130.927077
 42
0.007242
  0
VERTEX
  8
0
 10
292.685267
 20
132.673972
 42
0.025294
  0
VERTEX
  8
0
 10
292.879521
 20
135.030393
 42
0.082480
  0
VERTEX
  8
0
 10
292.672737
 20
136.577000
 42
0.089314
  0
VERTEX
  8
0
 10
291.988248
 20
137.905842
 42
0.032908
  0
VERTEX
  8
0
 10
290.593074
 20
139.497835
 42
0.026625
  0
VERTEX
  8
0
 10
289.495183
 20
140.484636
 42
0.034694
  0
VERTEX
  8
0
 10
288.387632
 20
141.258003
 42
0.037174
  0
VERTEX
  8
0
 10
287.414000
 20
141.747547
 42
0.180245
  0
VERTEX
  8
0
 10
286.806310
 20
141.768770
 42
0.160815
  0
VERTEX
  8
0
 10
286.190915
 20
141.309959
 42
0.008538
  0
VERTEX
  8
0
 10
284.803508
 20
139.256400
 42
0.012701
  0
VERTEX
  8
0
 10
283.232280
 20
136.703373
 42
0.008851
  0
VERTEX
  8
0
 10
281.584719
 20
133.748172
 42
0.000000
  0
VERTEX
  8
0
 10
277.500000
 20
126.106531
 42
0.000000
  0
VERTEX
  8
0
 10
272.000000
 20
126.578554
 42
0.000868
  0
VERTEX
  8
0
 10
268.427399
 20
126.878917
 42
0.000070
  0
VERTEX
  8
0
 10
259.009375
 20
127.652947
 42
0.000094
  0
VERTEX
  8
0
 10
247.774093
 20
128.572624
 42
0.000072
  0
VERTEX
  8
0
 10
235.500000
 20
129.573222
 42
-0.003839
  0
VERTEX
  8
0
 10
199.827453
 20
132.752008
 42
-0.027763
  0
VERTEX
  8
0
 10
182.796360
 20
135.362007
 42
-0.059860
  0
VERTEX
  8
0
 10
172.353918
 20
138.905642
 42
-0.080852
  0
VERTEX
  8
0
 10
164.182547
 20
144.593502
 42
-0.008052
  0
VERTEX
  8
0
 10
161.193977
 20
147.582926
 42
-0.054631
  0
VERTEX
  8
0
 10
159.914567
 20
149.231435
 42
-0.138960
  0
VERTEX
  8
0
 10
159.584120
 20
150.403992
 42
-0.174558
  0
VERTEX
  8
0
 10
159.965583
 20
151.458530
 42
-0.102208
  0
VERTEX
  8
0
 10
160.732013
 20
152.071199
 42
-0.043788
  0
VERTEX
  8
0
 10
161.953597
 20
152.563559
 42
-0.039500
  0
VERTEX
  8
0
 10
163.438791
 20
152.890463
 42
-0.034437
  0
VERTEX
  8
0
 10
165.027288
 20
153.000000
 42
0.000000
  0
VERTEX
  8
0
 10
168.809687
 20
153.000000
 42
0.000000
  0
VERTEX
  8
0
 10
168.286396
 20
149.098575
 42
0.071455
  0
VERTEX
  8
0
 10
168.313160
 20
146.231616
 42
0.171343
  0
VERTEX
  8
0
 10
169.302333
 20
144.383312
 42
0.166827
  0
VERTEX
  8
0
 10
171.255554
 20
143.535768
 42
0.067019
  0
VERTEX
  8
0
 10
174.200805
 20
143.698054
 42
0.078985
  0
VERTEX
  8
0
 10
176.826334
 20
144.646125
 42
0.112971
  0
VERTEX
  8
0
 10
178.666074
 20
146.289749
 42
0.107922
  0
VERTEX
  8
0
 10
179.660770
 20
148.631712
 42
0.067428
  0
VERTEX
  8
0
 10
179.816213
 20
151.619736
 42
0.037894
  0
VERTEX
  8
0
 10
179.492128
 20
153.648197
 42
0.078378
  0
VERTEX
  8
0
 10
178.882618
 20
155.128389
 42
0.075360
  0
VERTEX
  8
0
 10
177.829571
 20
156.385000
 42
0.032869
  0
VERTEX
  8
0
 10
176.102117
 20
157.717831
 42
0.079922
  0
VERTEX
  8
0
 10
172.759297
 20
159.258756
 42
0.054736
  0
VERTEX
  8
0
 10
168.628221
 20
159.938434
 42
0.053150
  0
VERTEX
  8
0
 10
164.302872
 20
159.711164
 42
0.063034
  0
SEQEND
  0
POLYLINE
  8
0
 66
1
 70
1
  0
VERTEX
  8
0
 10
144.817398
 20
121.266429
 42
-0.145503
  0
VERTEX
  8
0
 10
144.279967
 20
117.657247
 42
-0.028148
  0
VERTEX
  8
0
 10
141.122689
 20
111.781604
 42
-0.028481
  0
VERTEX
  8
0
 10
136.604042
 20
105.265294
 42
-0.025898
  0
VERTEX
  8
0
 10
131.237062
 20
99.084485
 42
0.000000
  0
VERTEX
  8
0
 10
123.929211
 20
91.500000
 42
0.000000
  0
VERTEX
  8
0
 10
127.839375
 20
99.500000
 42
0.003289
  0
VERTEX
  8
0
 10
129.505050
 20
102.965483
 42
0.002538
  0
VERTEX
  8
0
 10
131.277364
 20
106.765625
 42
0.002565
  0
VERTEX
  8
0
 10
132.896905
 20
110.332789
 42
0.006137
  0
VERTEX
  8
0
 10
134.052298
 20
113.000000
 42
-0.016041
  0
VERTEX
  8
0
 10
136.445438
 20
118.237641
 42
-0.048700
  0
VERTEX
  8
0
 10
138.516695
 20
121.556161
 42
-0.080969
  0
VERTEX
  8
0
 10
140.445494
 20
123.367124
 42
-0.185571
  0
VERTEX
  8
0
 10
142.357580
 20
123.805453
 42
-0.078182
  0
VERTEX
  8
0
 10
143.269392
 20
123.525728
 42
-0.087102
  0
VERTEX
  8
0
 10
144.013523
 20
122.986042
 42
-0.085469
  0
VERTEX
  8
0
 10
144.539467
 20
122.215669
 42
-0.071961
  0
SEQEND
  0
POLYLINE
  8
0
 66
1
 70
1
  0
VERTEX
  8
0
 10
166.000000
 20
98.059017
 42
-0.078489
  0
VERTEX
  8
0
 10
165.769008
 20
96.596591
 42
-0.145995
  0
VERTEX
  8
0
 10
165.093827
 20
95.616545
 42
-0.245200
  0
VERTEX
  8
0
 10
164.247193
 20
95.447844
 42
-0.185328
  0
VERTEX
  8
0
 10
163.480485
 20
96.031575
 42
-0.139299
  0
VERTEX
  8
0
 10
163.157388
 20
97.169057
 42
-0.089917
  0
VERTEX
  8
0
 10
163.403393
 20
98.525487
 42
-0.098330
  0
VERTEX
  8
0
 10
164.077041
 20
99.612508
 42
-0.207914
  0
VERTEX
  8
0
 10
164.968615
 20
100.000000
 42
-0.181630
  0
VERTEX
  8
0
 10
165.362294
 20
99.852114
 42
-0.091172
  0
VERTEX
  8
0
 10
165.697031
 20
99.429836
 42
-0.071105
  0
VERTEX
  8
0
 10
165.923800
 20
98.801701
 42
-0.051166
  0
SEQEND
  0
POLYLINE
  8
0
 66
1
 70
1
  0
VERTEX
  8
0
 10
387.820652
 20
95.250000
 42
0.005426
  0
VERTEX
  8
0
 10
386.867501
 20
94.105076
 42
0.000442
  0
VERTEX
  8
0
 10
384.405851
 20
91.076562
 42
0.000594
  0
VERTEX
  8
0
 10
381.476697
 20
87.457604
 42
0.000457
  0
VERTEX
  8
0
 10
378.287185
 20
83.500000
 42
-0.004921
  0
VERTEX
  8
0
 10
371.684081
 20
75.454853
 42
-0.027541
  0
VERTEX
  8
0
 10
367.877237
 20
71.386311
 42
-0.058634
  0
VERTEX
  8
0
 10
365.402635
 20
69.519069
 42
-0.341039
  0
VERTEX
  8
0
 10
363.885593
 20
69.714407
 42
-0.292167
  0
VERTEX
  8
0
 10
363.112993
 20
73.220596
 42
-0.061678
  0
VERTEX
  8
0
 10
366.116428
 20
79.063288
 42
-0.049741
  0
VERTEX
  8
0
 10
371.659116
 20
85.678301
 42
-0.038009
  0
VERTEX
  8
0
 10
378.897148
 20
91.750000
 42
-0.013781
  0
VERTEX
  8
0
 10
383.860582
 20
95.105386
 42
-0.048314
  0
VERTEX
  8
0
 10
387.297267
 20
96.852563
 42
-0.448581
  0
VERTEX
  8
0
 10
388.093240
 20
96.448673
 42
-0.245508
  0
SEQEND
  0
POLYLINE
  8
0
 66
1
 70
1
  0
VERTEX
  8
0
 10
232.823834
 20
62.483699
 42
-0.085602
  0
VERTEX
  8
0
 10
231.175485
 20
61.403591
 42
-0.050407
  0
VERTEX
  8
0
 10
228.925311
 20
60.686390
 42
-0.051217
  0
VERTEX
  8
0
 10
226.704870
 20
60.451311
 42
-0.140082
  0
VERTEX
  8
0
 10
225.200373
 20
60.876162
 42
-0.307559
  0
VERTEX
  8
0
 10
224.915441
 20
61.513404
 42
-0.104501
  0
VERTEX
  8
0
 10
225.315987
 20
62.503194
 42
-0.046644
  0
VERTEX
  8
0
 10
226.505990
 20
63.956841
 42
-0.011746
  0
VERTEX
  8
0
 10
228.708681
 20
66.084554
 42
0.000000
  0
VERTEX
  8
0
 10
233.500000
 20
70.500000
 42
0.000000
  0
VERTEX
  8
0
 10
233.823834
 20
67.109548
 42
-0.036785
  0
VERTEX
  8
0
 10
233.854466
 20
65.697330
 42
-0.040284
  0
VERTEX
  8
0
 10
233.673616
 20
64.339129
 42
-0.044236
  0
VERTEX
  8
0
 10
233.320104
 20
63.201621
 42
-0.107969
  0
SEQEND
  0
POLYLINE
  8
0
 66
1
 70
1
  0
VERTEX
  8
0
 10
355.329224
 20
51.063586
 42
-0.015773
  0
VERTEX
  8
0
 10
358.694760
 20
50.169760
 42
-0.219719
  0
VERTEX
  8
0
 10
359.612089
 20
49.359180
 42
-0.277520
  0
VERTEX
  8
0
 10
359.472124
 20
48.261990
 42
-0.023926
  0
VERTEX
  8
0
 10
357.539312
 20
46.041033
 42
-0.060408
  0
VERTEX
  8
0
 10
353.828534
 20
43.002372
 42
-0.021838
  0
VERTEX
  8
0
 10
347.911264
 20
39.600161
 42
-0.021166
  0
VERTEX
  8
0
 10
341.000032
 20
36.381779
 42
-0.022711
  0
VERTEX
  8
0
 10
334.000000
 20
33.841863
 42
-0.022639
  0
VERTEX
  8
0
 10
329.123449
 20
32.558238
 42
-0.031003
  0
VERTEX
  8
0
 10
324.636428
 20
31.879498
 42
-0.018670
  0
VERTEX
  8
0
 10
318.650442
 20
31.575105
 42
-0.003368
  0
VERTEX
  8
0
 10
307.500000
 20
31.500000
 42
-0.009300
  0
VERTEX
  8
0
 10
295.279943
 20
31.727307
 42
-0.018129
  0
VERTEX
  8
0
 10
285.558202
 20
32.442683
 42
-0.013664
  0
VERTEX
  8
0
 10
278.187318
 20
33.459105
 42
-0.366854
  0
VERTEX
  8
0
 10
277.000000
 20
34.859564
 42
-0.334682
  0
VERTEX
  8
0
 10
277.606874
 20
35.664652
 42
-0.000692
  0
VERTEX
  8
0
 10
293.629316
 20
40.229606
 42
-0.004823
  0
VERTEX
  8
0
 10
308.965869
 20
44.416794
 42
-0.008828
  0
VERTEX
  8
0
 10
321.558888
 20
47.488151
 42
-0.009143
  0
VERTEX
  8
0
 10
333.458232
 20
49.940977
 42
-0.019882
  0
VERTEX
  8
0
 10
342.684594
 20
51.290523
 42
-0.025764
  0
VERTEX
  8
0
 10
349.890019
 20
51.679741
 42
-0.057687
  0
SEQEND
  0
POLYLINE
  8
0
 66
1
 70
1
  0
VERTEX
  8
0
 10
203.666667
 20
110.333333
 42
0.191540
  0
VERTEX
  8
0
 10
202.843341
 20
108.422855
 42
0.042457
  0
VERTEX
  8
0
 10
203.048226
 20
104.797775
 42
0.043733
  0
VERTEX
  8
0
 10
203.938908
 20
100.971931
 42
0.080043
  0
VERTEX
  8
0
 10
205.402547
 20
98.132090
 42
0.025239
  0
VERTEX
  8
0
 10
206.367694
 20
96.953355
 42
0.047048
  0
VERTEX
  8
0
 10
207.278217
 20
96.121626
 42
0.071662
  0
VERTEX
  8
0
 10
208.005270
 20
95.721506
 42
0.358593
  0
VERTEX
  8
0
 10
208.414015
 20
95.860873
 42
-0.117765
  0
VERTEX
  8
0
 10
208.838597
 20
96.283231
 42
-0.029414
  0
VERTEX
  8
0
 10
209.708152
 20
96.746494
 42
-0.028414
  0
VERTEX
  8
0
 10
210.793792
 20
97.172433
 42
-0.025222
  0
VERTEX
  8
0
 10
211.964508
 20
97.492205
 42
0.037089
  0
VERTEX
  8
0
 10
213.275506
 20
97.883920
 42
0.021324
  0
VERTEX
  8
0
 10
214.790368
 20
98.537168
 42
0.021218
  0
VERTEX
  8
0
 10
216.264282
 20
99.327514
 42
0.032983
  0
VERTEX
  8
0
 10
217.453738
 20
100.142270
 42
0.035554
  0
VERTEX
  8
0
 10
218.700628
 20
101.275307
 42
0.093993
  0
VERTEX
  8
0
 10
219.353294
 20
102.283127
 42
0.104761
  0
VERTEX
  8
0
 10
219.553234
 20
103.391365
 42
0.051022
  0
VERTEX
  8
0
 10
219.362810
 20
104.823129
 42
0.038745
  0
VERTEX
  8
0
 10
218.494032
 20
107.520140
 42
0.130162
  0
VERTEX
  8
0
 10
217.383766
 20
108.986856
 42
0.153017
  0
VERTEX
  8
0
 10
215.809306
 20
109.580025
 42
0.060591
  0
VERTEX
  8
0
 10
213.476031
 20
109.429526
 42
-0.030292
  0
VERTEX
  8
0
 10
212.123970
 20
109.259796
 42
-0.046611
  0
VERTEX
  8
0
 10
210.946099
 20
109.293775
 42
-0.057446
  0
VERTEX
  8
0
 10
210.044314
 20
109.511362
 42
-0.167978
  0
VERTEX
  8
0
 10
209.555504
 20
109.910193
 42
0.185906
  0
VERTEX
  8
0
 10
208.601834
 20
110.634586
 42
0.052614
  0
VERTEX
  8
0
 10
206.733516
 20
110.968509
 42
0.052669
  0
VERTEX
  8
0
 10
204.812743
 20
110.904120
 42
0.163085
  0
SEQEND
  0
ENDSEC
  0
EOF
