  0
SECTION
  2
HEADER
  9
$ACADVER
  1
AC1006
  9
$EXTMIN
 10
0.000000
 20
0.000000
 30
0.000000
  9
$EXTMAX
 10
820.000000
 20
437.000000
 30
0.000000
  0
ENDSEC
  0
SECTION
  2
ENTITIES
  0
POLYLINE
  8
0
 66
1
 70
1
  0
VERTEX
  8
0
 10
402.749893
 20
392.250000
 42
0.061948
  0
VERTEX
  8
0
 10
400.319577
 20
388.974034
 42
0.015690
  0
VERTEX
  8
0
 10
397.234644
 20
383.093834
 42
0.010744
  0
VERTEX
  8
0
 10
393.142456
 20
374.177948
 42
0.002965
  0
VERTEX
  8
0
 10
387.096089
 20
359.990938
 42
-0.013189
  0
VERTEX
  8
0
 10
381.160129
 20
346.816512
 42
-0.026229
  0
VERTEX
  8
0
 10
375.652478
 20
336.786083
 42
-0.022254
  0
VERTEX
  8
0
 10
368.558224
 20
326.396261
 42
-0.007059
  0
VERTEX
  8
0
 10
357.087072
 20
311.545831
 42
0.005521
  0
VERTEX
  8
0
 10
346.289606
 20
297.656064
 42
0.048418
  0
VERTEX
  8
0
 10
342.200682
 20
291.031324
 42
0.143975
  0
VERTEX
  8
0
 10
341.479400
 20
286.835465
 42
0.188353
  0
VERTEX
  8
0
 10
343.288317
 20
283.428423
 42
0.012879
  0
VERTEX
  8
0
 10
344.371725
 20
282.544024
 42
0.013015
  0
VERTEX
  8
0
 10
345.495526
 20
281.719774
 42
0.012908
  0
VERTEX
  8
0
 10
346.509791
 20
281.053835
 42
0.050389
  0
VERTEX
  8
0
 10
347.182868
 20
280.724980
 42
-0.459637
  0
VERTEX
  8
0
 10
347.968937
 20
278.606704
 42
-0.008726
  0
VERTEX
  8
0
 10
341.333873
 20
267.119572
 42
-0.016893
  0
VERTEX
  8
0
 10
333.293251
 20
254.712784
 42
-0.018661
  0
VERTEX
  8
0
 10
324.682479
 20
243.294303
 42
0.008307
  0
VERTEX
  8
0
 10
322.122420
 20
240.041810
 42
0.011778
  0
VERTEX
  8
0
 10
319.962978
 20
237.059212
 42
0.007963
  0
VERTEX
  8
0
 10
318.272320
 20
234.518699
 42
0.143792
  0
VERTEX
  8
0
 10
318.000000
 20
233.591356
 42
0.117990
  0
VERTEX
  8
0
 10
318.812336
 20
230.196875
 42
0.083689
  0
VERTEX
  8
0
 10
321.149815
 20
227.036177
 42
0.082619
  0
VERTEX
  8
0
 10
324.428726
 20
224.782514
 42
0.109763
  0
VERTEX
  8
0
 10
327.950340
 20
224.000000
 42
-0.027575
  0
VERTEX
  8
0
 10
328.735697
 20
223.956655
 42
-0.043350
  0
VERTEX
  8
0
 10
329.397912
 20
223.824542
 42
-0.053620
  0
VERTEX
  8
0
 10
329.863076
 20
223.632953
 42
-0.274864
  0
VERTEX
  8
0
 10
330.000000
 20
223.402695
 42
-0.111664
  0
VERTEX
  8
0
 10
329.903579
 20
222.976335
 42
-0.001568
  0
VERTEX
  8
0
 10
328.754946
 20
220.585994
 42
-0.004286
  0
VERTEX
  8
0
 10
327.385940
 20
217.820470
 42
-0.002799
  0
VERTEX
  8
0
 10
325.761520
 20
214.652695
 42
-0.022684
  0
VERTEX
  8
0
 10
321.287315
 20
206.924429
 42
-0.017815
  0
VERTEX
  8
0
 10
315.774576
 20
198.965546
 42
-0.018219
  0
VERTEX
  8
0
 10
310.032686
 20
191.833591
 42
-0.036410
  0
VERTEX
  8
0
 10
304.907166
 20
186.725092
 42
0.015406
  0
VERTEX
  8
0
 10
302.386906
 20
184.415741
 42
0.053016
  0
VERTEX
  8
0
 10
300.973212
 20
182.710865
 42
0.078053
  0
VERTEX
  8
0
 10
300.248788
 20
181.133688
 42
0.068766
  0
VERTEX
  8
0
 10
300.000491
 20
179.338894
 42
0.126094
  0
VERTEX
  8
0
 10
300.742366
 20
176.442034
 42
0.085944
  0
VERTEX
  8
0
 10
302.872304
 20
173.770293
 42
0.075456
  0
VERTEX
  8
0
 10
306.081177
 20
171.687755
 42
0.064508
  0
VERTEX
  8
0
 10
309.939786
 20
170.510173
 42
0.000000
  0
VERTEX
  8
0
 10
313.948978
 20
169.832825
 42
0.000000
  0
VERTEX
  8
0
 10
311.336054
 20
164.666412
 42
-0.022733
  0
VERTEX
  8
0
 10
307.491207
 20
157.851991
 42
-0.021997
  0
VERTEX
  8
0
 10
303.004012
 20
151.337098
 42
-0.019357
  0
VERTEX
  8
0
 10
297.445699
 20
144.545118
 42
-0.011440
  0
VERTEX
  8
0
 10
290.323356
 20
136.860265
 42
0.004511
  0
VERTEX
  8
0
 10
284.412255
 20
130.657003
 42
0.030866
  0
VERTEX
  8
0
 10
281.724795
 20
127.404466
 42
0.065821
  0
VERTEX
  8
0
 10
280.438066
 20
125.034426
 42
0.091740
  0
VERTEX
  8
0
 10
280.000000
 20
122.666969
 42
0.091113
  0
VERTEX
  8
0
 10
280.504588
 20
119.920922
 42
0.115998
  0
VERTEX
  8
0
 10
281.942761
 20
117.793329
 42
0.110339
  0
VERTEX
  8
0
 10
284.242589
 20
116.459279
 42
0.076610
  0
VERTEX
  8
0
 10
287.222506
 20
116.000000
 42
-0.036151
  0
VERTEX
  8
0
 10
288.286249
 20
115.922988
 42
-0.054660
  0
VERTEX
  8
0
 10
289.184111
 20
115.690132
 42
-0.071567
  0
VERTEX
  8
0
 10
289.799173
 20
115.349431
 42
-0.234684
  0
VERTEX
  8
0
 10
290.000000
 20
114.945131
 42
-0.146615
  0
VERTEX
  8
0
 10
289.461314
 20
113.147544
 42
-0.005308
  0
VERTEX
  8
0
 10
285.417536
 20
107.146139
 42
-0.010052
  0
VERTEX
  8
0
 10
280.669864
 20
100.546951
 42
-0.009617
  0
VERTEX
  8
0
 10
275.591926
 20
94.044295
 42
-0.011946
  0
VERTEX
  8
0
 10
270.425741
 20
87.986320
 42
-0.008503
  0
VERTEX
  8
0
 10
264.363882
 20
81.440217
 42
-0.008388
  0
VERTEX
  8
0
 10
257.958279
 20
74.975300
 42
-0.010247
  0
VERTEX
  8
0
 10
251.745763
 20
69.155871
 42
0.031367
  0
VERTEX
  8
0
 10
248.763213
 20
66.115727
 42
0.123283
  0
VERTEX
  8
0
 10
247.588299
 20
63.790056
 42
0.134537
  0
VERTEX
  8
0
 10
247.700402
 20
61.300633
 42
0.040274
  0
VERTEX
  8
0
 10
249.167977
 20
57.760350
 42
0.178431
  0
VERTEX
  8
0
 10
252.837618
 20
54.381459
 42
0.076654
  0
VERTEX
  8
0
 10
259.404303
 20
52.788262
 42
0.066668
  0
VERTEX
  8
0
 10
267.228374
 20
53.165111
 42
0.067646
  0
VERTEX
  8
0
 10
274.636213
 20
55.590043
 42
-0.022885
  0
VERTEX
  8
0
 10
278.013203
 20
57.040461
 42
-0.035416
  0
VERTEX
  8
0
 10
281.054475
 20
57.945074
 42
-0.030801
  0
VERTEX
  8
0
 10
284.485431
 20
58.487243
 42
-0.012834
  0
VERTEX
  8
0
 10
289.162998
 20
58.812745
 42
-0.029399
  0
VERTEX
  8
0
 10
296.731634
 20
58.699413
 42
-0.049218
  0
VERTEX
  8
0
 10
302.996490
 20
57.610383
 42
-0.048982
  0
VERTEX
  8
0
 10
308.948418
 20
55.313111
 42
-0.028801
  0
VERTEX
  8
0
 10
315.560298
 20
51.493742
 42
0.045674
  0
VERTEX
  8
0
 10
324.621838
 20
46.658955
 42
0.068008
  0
VERTEX
  8
0
 10
333.287845
 20
44.325432
 42
0.062213
  0
VERTEX
  8
0
 10
342.819259
 20
44.297197
 42
0.031793
  0
VERTEX
  8
0
 10
354.598842
 20
46.500000
 42
-0.023430
  0
VERTEX
  8
0
 10
363.729674
 20
48.365919
 42
-0.046649
  0
VERTEX
  8
0
 10
371.088560
 20
48.819031
 42
-0.040703
  0
VERTEX
  8
0
 10
379.024515
 20
47.917672
 42
-0.014015
  0
VERTEX
  8
0
 10
390.300870
 20
45.366649
 42
0.015129
  0
VERTEX
  8
0
 10
402.298422
 20
42.680551
 42
0.047502
  0
VERTEX
  8
0
 10
410.509464
 20
41.897584
 42
0.048236
  0
VERTEX
  8
0
 10
418.653227
 20
42.683947
 42
0.015967
  0
VERTEX
  8
0
 10
430.372641
 20
45.361189
 42
-0.015446
  0
VERTEX
  8
0
 10
441.347958
 20
47.880487
 42
-0.036998
  0
VERTEX
  8
0
 10
449.633198
 20
48.886091
 42
-0.046245
  0
VERTEX
  8
0
 10
456.769390
 20
48.560423
 42
-0.041455
  0
VERTEX
  8
0
 10
464.000000
 20
46.936758
 42
0.031987
  0
VERTEX
  8
0
 10
470.697314
 20
45.299233
 42
0.025575
  0
VERTEX
  8
0
 10
478.070507
 20
44.374938
 42
0.026179
  0
VERTEX
  8
0
 10
485.215379
 20
44.223281
 42
0.043551
  0
VERTEX
  8
0
 10
491.191038
 20
44.932734
 42
0.032642
  0
VERTEX
  8
0
 10
494.040479
 20
45.722809
 42
0.022200
  0
VERTEX
  8
0
 10
497.166052
 20
46.971679
 42
0.020716
  0
VERTEX
  8
0
 10
500.419786
 20
48.607921
 42
0.018444
  0
VERTEX
  8
0
 10
503.658803
 20
50.568285
 42
-0.022038
  0
VERTEX
  8
0
 10
511.122637
 20
55.012693
 42
-0.050314
  0
VERTEX
  8
0
 10
517.171468
 20
57.516523
 42
-0.054186
  0
VERTEX
  8
0
 10
523.315060
 20
58.657671
 42
-0.029456
  0
VERTEX
  8
0
 10
531.000000
 20
58.784421
 42
-0.010256
  0
VERTEX
  8
0
 10
535.882489
 20
58.476830
 42
-0.026214
  0
VERTEX
  8
0
 10
539.392989
 20
57.996992
 42
-0.034622
  0
VERTEX
  8
0
 10
542.192372
 20
57.259853
 42
-0.038263
  0
VERTEX
  8
0
 10
544.767350
 20
56.161498
 42
0.056889
  0
VERTEX
  8
0
 10
552.090627
 20
53.354587
 42
0.071059
  0
VERTEX
  8
0
 10
559.320292
 20
52.552584
 42
0.082003
  0
VERTEX
  8
0
 10
565.618348
 20
53.796755
 42
0.120985
  0
VERTEX
  8
0
 10
570.250000
 20
56.961872
 42
0.080123
  0
VERTEX
  8
0
 10
572.630386
 20
60.670563
 42
0.194005
  0
VERTEX
  8
0
 10
572.718197
 20
63.867037
 42
0.102922
  0
VERTEX
  8
0
 10
570.384090
 20
67.582517
 42
0.014954
  0
VERTEX
  8
0
 10
563.969427
 20
73.863433
 42
-0.023191
  0
VERTEX
  8
0
 10
553.497036
 20
84.460850
 42
-0.013176
  0
VERTEX
  8
0
 10
541.788268
 20
98.173369
 42
-0.005098
  0
VERTEX
  8
0
 10
530.737021
 20
112.116993
 42
-0.313057
  0
VERTEX
  8
0
 10
530.576847
 20
115.124341
 42
-0.157709
  0
VERTEX
  8
0
 10
530.975114
 20
115.462790
 42
-0.036311
  0
VERTEX
  8
0
 10
531.822974
 20
115.742775
 42
-0.034043
  0
VERTEX
  8
0
 10
532.893433
 20
115.935688
 42
-0.027567
  0
VERTEX
  8
0
 10
534.059017
 20
116.000000
 42
0.057337
  0
VERTEX
  8
0
 10
535.331548
 20
116.146409
 42
0.038899
  0
VERTEX
  8
0
 10
536.723586
 20
116.587500
 42
0.039095
  0
VERTEX
  8
0
 10
538.019414
 20
117.233989
 42
0.061197
  0
VERTEX
  8
0
 10
539.000000
 20
118.000000
 42
0.152711
  0
VERTEX
  8
0
 10
540.760060
 20
121.361714
 42
0.145968
  0
VERTEX
  8
0
 10
540.334179
 20
125.194876
 42
0.085243
  0
VERTEX
  8
0
 10
537.398134
 20
129.769346
 42
0.027410
  0
VERTEX
  8
0
 10
531.617955
 20
135.434000
 42
-0.012413
  0
VERTEX
  8
0
 10
528.850195
 20
137.988370
 42
-0.008747
  0
VERTEX
  8
0
 10
525.862420
 20
140.989598
 42
-0.008834
  0
VERTEX
  8
0
 10
523.103989
 20
143.962527
 42
-0.018304
  0
VERTEX
  8
0
 10
521.079503
 20
146.396949
 42
-0.018793
  0
VERTEX
  8
0
 10
517.493295
 20
151.425229
 42
-0.005979
  0
VERTEX
  8
0
 10
512.528074
 20
159.171712
 42
-0.002006
  0
VERTEX
  8
0
 10
507.438309
 20
167.398783
 42
-0.138377
  0
VERTEX
  8
0
 10
507.000000
 20
168.952207
 42
-0.290182
  0
VERTEX
  8
0
 10
507.191054
 20
169.253683
 42
-0.013778
  0
VERTEX
  8
0
 10
508.338563
 20
169.757263
 42
-0.019019
  0
VERTEX
  8
0
 10
509.810294
 20
170.291071
 42
-0.012144
  0
VERTEX
  8
0
 10
511.556811
 20
170.803951
 42
0.053281
  0
VERTEX
  8
0
 10
515.219529
 20
172.215336
 42
0.063675
  0
VERTEX
  8
0
 10
518.267028
 20
174.306697
 42
0.074132
  0
VERTEX
  8
0
 10
520.307091
 20
176.757526
 42
0.137403
  0
VERTEX
  8
0
 10
521.000000
 20
179.231365
 42
0.132582
  0
VERTEX
  8
0
 10
520.618235
 20
180.645787
 42
0.030778
  0
VERTEX
  8
0
 10
519.238077
 20
182.712497
 42
0.024637
  0
VERTEX
  8
0
 10
517.053181
 20
185.308660
 42
0.010882
  0
VERTEX
  8
0
 10
513.928783
 20
188.526820
 42
-0.024917
  0
VERTEX
  8
0
 10
508.464056
 20
194.481063
 42
-0.017058
  0
VERTEX
  8
0
 10
502.847046
 20
201.739143
 42
-0.016963
  0
VERTEX
  8
0
 10
497.688839
 20
209.433323
 42
-0.023149
  0
VERTEX
  8
0
 10
493.611223
 20
216.716756
 42
-0.008990
  0
VERTEX
  8
0
 10
491.581828
 20
220.960046
 42
-0.100922
  0
VERTEX
  8
0
 10
491.163401
 20
222.771876
 42
-0.311885
  0
VERTEX
  8
0
 10
491.751792
 20
223.672211
 42
-0.097128
  0
VERTEX
  8
0
 10
493.423275
 20
224.000000
 42
0.123474
  0
VERTEX
  8
0
 10
496.018170
 20
224.650726
 42
0.057297
  0
VERTEX
  8
0
 10
498.892988
 20
226.642406
 42
0.056632
  0
VERTEX
  8
0
 10
501.299789
 20
229.292607
 42
0.102344
  0
VERTEX
  8
0
 10
502.490885
 20
231.958500
 42
0.092354
  0
VERTEX
  8
0
 10
502.550563
 20
233.821698
 42
0.085933
  0
VERTEX
  8
0
 10
501.942969
 20
235.633243
 42
0.043672
  0
VERTEX
  8
0
 10
500.384507
 20
237.999853
 42
0.007452
  0
VERTEX
  8
0
 10
496.971525
 20
242.181467
 42
-0.015476
  0
VERTEX
  8
0
 10
491.139351
 20
249.565870
 42
-0.010981
  0
VERTEX
  8
0
 10
485.044054
 20
258.184127
 42
-0.011110
  0
VERTEX
  8
0
 10
479.523578
 20
266.770405
 42
-0.020668
  0
VERTEX
  8
0
 10
475.499536
 20
274.000922
 42
0.000000
  0
VERTEX
  8
0
 10
472.164416
 20
280.623585
 42
0.000000
  0
VERTEX
  8
0
 10
475.060301
 20
281.716659
 42
0.087091
  0
VERTEX
  8
0
 10
477.606418
 20
283.224482
 42
0.123196
  0
VERTEX
  8
0
 10
479.124715
 20
285.363738
 42
0.118151
  0
VERTEX
  8
0
 10
479.492791
 20
288.036391
 42
0.076013
  0
VERTEX
  8
0
 10
478.714935
 20
291.081594
 42
0.053527
  0
VERTEX
  8
0
 10
477.553245
 20
293.164399
 42
0.004443
  0
VERTEX
  8
0
 10
473.926094
 20
298.195843
 42
0.005893
  0
VERTEX
  8
0
 10
469.464436
 20
304.122659
 42
0.004512
  0
VERTEX
  8
0
 10
464.452363
 20
310.500000
 42
-0.001281
  0
VERTEX
  8
0
 10
459.309254
 20
316.957742
 42
-0.001486
  0
VERTEX
  8
0
 10
454.449161
 20
323.129923
 42
-0.001322
  0
VERTEX
  8
0
 10
450.364367
 20
328.377874
 42
-0.008853
  0
VERTEX
  8
0
 10
448.387332
 20
331.027397
 42
-0.030861
  0
VERTEX
  8
0
 10
444.798557
 20
336.730703
 42
-0.009564
  0
VERTEX
  8
0
 10
440.108322
 20
345.721916
 42
-0.009338
  0
VERTEX
  8
0
 10
435.135186
 20
356.203491
 42
-0.008980
  0
VERTEX
  8
0
 10
430.489122
 20
367.000000
 42
0.006671
  0
VERTEX
  8
0
 10
423.599206
 20
383.216551
 42
0.051191
  0
VERTEX
  8
0
 10
419.514940
 20
390.393139
 42
0.120402
  0
VERTEX
  8
0
 10
415.585386
 20
393.780659
 42
0.118501
  0
VERTEX
  8
0
 10
410.512777
 20
395.000000
 42
0.020460
  0
VERTEX
  8
0
 10
407.688714
 20
394.884392
 42
0.064747
  0
VERTEX
  8
0
 10
405.841813
 20
394.488533
 42
0.077877
  0
VERTEX
  8
0
 10
404.348163
 20
393.680492
 42
0.039383
  0
SEQEND
  0
ENDSEC
  0
EOF
