G04*
G04 #@! TF.GenerationSoftware,Altium Limited,Altium Designer,22.10.1 (41)*
G04*
G04 Layer_Color=8388736*
%FSLAX25Y25*%
%MOIN*%
G70*
G04*
G04 #@! TF.SameCoordinates,D5E8C374-DC9F-4CCB-AA59-07C5174D7588*
G04*
G04*
G04 #@! TF.FilePolarity,Negative*
G04*
G01*
G75*
%ADD18O,0.03162X0.06509*%
%ADD19R,0.05524X0.06706*%
%ADD20R,0.06902X0.05721*%
%ADD21R,0.06706X0.05524*%
%ADD22R,0.06706X0.06706*%
%ADD23C,0.06706*%
D18*
X241500Y76228D02*
D03*
X236500D02*
D03*
X231500D02*
D03*
X226500D02*
D03*
X241500Y54772D02*
D03*
X236500D02*
D03*
X231500D02*
D03*
X226500D02*
D03*
D19*
X229929Y37591D02*
D03*
X238000D02*
D03*
X238071Y415000D02*
D03*
X230000D02*
D03*
Y430000D02*
D03*
X238071D02*
D03*
X70000Y20000D02*
D03*
X61929D02*
D03*
X396929D02*
D03*
X405000D02*
D03*
X41929D02*
D03*
X50000D02*
D03*
X416929D02*
D03*
X425000D02*
D03*
X361929Y95000D02*
D03*
X370000D02*
D03*
X108071D02*
D03*
X100000D02*
D03*
X390571D02*
D03*
X382500D02*
D03*
X88071D02*
D03*
X80000D02*
D03*
X140000Y170000D02*
D03*
X131929D02*
D03*
X331929D02*
D03*
X340000D02*
D03*
X111929D02*
D03*
X120000D02*
D03*
X351929D02*
D03*
X360000D02*
D03*
X310000Y235000D02*
D03*
X318071D02*
D03*
X155000D02*
D03*
X146929D02*
D03*
X338071D02*
D03*
X330000D02*
D03*
X135000D02*
D03*
X126929D02*
D03*
X188071Y310000D02*
D03*
X180000D02*
D03*
X280000D02*
D03*
X288071D02*
D03*
X160000D02*
D03*
X168071D02*
D03*
X300000D02*
D03*
X308071D02*
D03*
D20*
X260000Y68500D02*
D03*
Y60823D02*
D03*
D21*
X206000Y60000D02*
D03*
Y68071D02*
D03*
D22*
X239000Y395000D02*
D03*
Y310000D02*
D03*
X239000Y17500D02*
D03*
D23*
X229000Y395000D02*
D03*
Y310000D02*
D03*
X229000Y17500D02*
D03*
M02*
