G04*
G04 #@! TF.GenerationSoftware,Altium Limited,Altium Designer,22.10.1 (41)*
G04*
G04 Layer_Physical_Order=1*
G04 Layer_Color=255*
%FSLAX25Y25*%
%MOIN*%
G70*
G04*
G04 #@! TF.SameCoordinates,D5E8C374-DC9F-4CCB-AA59-07C5174D7588*
G04*
G04*
G04 #@! TF.FilePolarity,Positive*
G04*
G01*
G75*
%ADD24C,0.01200*%
%ADD25O,0.02362X0.05709*%
%ADD26R,0.04724X0.05906*%
%ADD27R,0.06102X0.04921*%
%ADD28R,0.05906X0.04724*%
%ADD29C,0.01000*%
%ADD30C,0.01800*%
%ADD31R,0.05906X0.05906*%
%ADD32C,0.05906*%
%ADD33C,0.02400*%
D24*
X320482Y312997D02*
X319906Y313809D01*
X319329Y314620D01*
X318749Y315430D01*
X318168Y316238D01*
X317585Y317045D01*
X317000Y317850D01*
X316413Y318655D01*
X315825Y319458D01*
X321974Y310323D02*
X321541Y311249D01*
X321043Y312142D01*
X320482Y312997D01*
X315825Y319458D02*
X315260Y320225D01*
X314693Y320991D01*
X314125Y321755D01*
X313555Y322518D01*
X312983Y323280D01*
X312409Y324040D01*
X311833Y324799D01*
X311256Y325557D01*
X310677Y326313D01*
X310096Y327068D01*
X310096Y327068D02*
X309459Y327892D01*
X308820Y328715D01*
X308180Y329537D01*
X307539Y330358D01*
X306896Y331177D01*
X306252Y331996D01*
X305606Y332813D01*
X304959Y333629D01*
X304310Y334444D01*
X303660Y335257D01*
X322973Y306413D02*
X322835Y307416D01*
X322622Y308406D01*
X322334Y309377D01*
X321974Y310323D01*
X297056Y343549D02*
X297655Y342794D01*
X298254Y342039D01*
X298853Y341284D01*
X299453Y340530D01*
X300053Y339776D01*
X300653Y339022D01*
X301254Y338268D01*
X301855Y337515D01*
X302456Y336762D01*
X303058Y336009D01*
X303660Y335258D01*
X290815Y351475D02*
X291437Y350681D01*
X292059Y349887D01*
X292682Y349094D01*
X293305Y348301D01*
X293929Y347508D01*
X294553Y346716D01*
X295178Y345924D01*
X295803Y345133D01*
X296429Y344341D01*
X297055Y343551D01*
X323012Y279105D02*
X323540Y278246D01*
X324071Y277389D01*
X324605Y276533D01*
X325141Y275680D01*
X325681Y274828D01*
X326223Y273978D01*
X326768Y273130D01*
X327317Y272283D01*
X327868Y271439D01*
X328422Y270596D01*
X328979Y269756D01*
X329538Y268917D01*
X330101Y268080D01*
X323009Y305683D02*
X322973Y306413D01*
X330101Y268080D02*
X330644Y267279D01*
X331189Y266478D01*
X331737Y265680D01*
X332288Y264884D01*
X332840Y264089D01*
X333396Y263296D01*
X333954Y262504D01*
X334514Y261715D01*
X335077Y260927D01*
X335642Y260141D01*
X336210Y259356D01*
X336780Y258574D01*
X337352Y257793D01*
X337928Y257014D01*
X322500Y302981D02*
X322781Y303858D01*
X322952Y304763D01*
X323009Y305683D01*
X320551Y300234D02*
X321348Y301039D01*
X322004Y301962D01*
X322500Y302981D01*
X317845Y288390D02*
X318283Y287529D01*
X318727Y286671D01*
X319178Y285816D01*
X319635Y284965D01*
X320099Y284117D01*
X320568Y283273D01*
X321045Y282432D01*
X321527Y281595D01*
X322016Y280761D01*
X322511Y279932D01*
X323012Y279106D01*
X337928Y257014D02*
X338529Y256206D01*
X339135Y255402D01*
X339745Y254600D01*
X340359Y253802D01*
X340977Y253007D01*
X341599Y252215D01*
X342225Y251426D01*
X342855Y250641D01*
X343490Y249858D01*
X344128Y249080D01*
X344770Y248304D01*
X345417Y247532D01*
X349799Y242162D02*
X349183Y242937D01*
X348563Y243710D01*
X347940Y244480D01*
X347314Y245247D01*
X346685Y246011D01*
X346052Y246773D01*
X345417Y247532D01*
X336768Y247268D02*
X335957Y247810D01*
X335000Y248000D01*
X336768Y247268D02*
X335957Y247810D01*
X335000Y248000D01*
X317281Y298298D02*
X318159Y298673D01*
X319000Y299123D01*
X319799Y299645D01*
X320551Y300234D01*
X283031Y361616D02*
X283655Y360757D01*
X284286Y359903D01*
X284924Y359056D01*
X285570Y358214D01*
X285570Y358214D02*
X286151Y357464D01*
X286733Y356714D01*
X287315Y355964D01*
X287897Y355215D01*
X288480Y354466D01*
X289063Y353718D01*
X289647Y352970D01*
X290231Y352222D01*
X290815Y351475D01*
X351800Y239123D02*
X351350Y239915D01*
X350866Y240687D01*
X350349Y241436D01*
X349799Y242162D01*
X352580Y236797D02*
X352290Y237994D01*
X351800Y239123D01*
X352504Y234405D02*
X352656Y235807D01*
X352580Y236797D01*
X350974Y230982D02*
X351486Y231774D01*
X351914Y232615D01*
X352255Y233495D01*
X352504Y234405D01*
X340571Y242429D02*
X340381Y243386D01*
X339839Y244197D01*
X340571Y242429D02*
X340381Y243386D01*
X339839Y244197D01*
X352961Y195601D02*
X353538Y194806D01*
X354119Y194014D01*
X354704Y193226D01*
X355295Y192440D01*
X355889Y191658D01*
X356488Y190880D01*
X357091Y190105D01*
X357699Y189333D01*
X358311Y188565D01*
X358928Y187800D01*
X359549Y187039D01*
X360174Y186281D01*
X347884Y227579D02*
X348562Y228202D01*
X349212Y228855D01*
X349831Y229537D01*
X350419Y230246D01*
X350974Y230982D01*
X360174Y186281D02*
X360841Y185486D01*
X361516Y184697D01*
X362198Y183915D01*
X362889Y183140D01*
X363587Y182371D01*
X364293Y181610D01*
X365006Y180856D01*
X365727Y180108D01*
X366455Y179368D01*
X367191Y178636D01*
X344193Y225021D02*
X344976Y225464D01*
X345739Y225942D01*
X346479Y226455D01*
X347194Y227001D01*
X347884Y227579D01*
X346338Y205481D02*
X346864Y204641D01*
X347395Y203804D01*
X347931Y202969D01*
X348471Y202138D01*
X349016Y201310D01*
X349566Y200485D01*
X350120Y199663D01*
X350679Y198844D01*
X351243Y198029D01*
X351811Y197216D01*
X352384Y196407D01*
X352961Y195601D01*
X371203Y174504D02*
X370547Y175204D01*
X369885Y175900D01*
X369219Y176591D01*
X368548Y177278D01*
X367872Y177959D01*
X367191Y178636D01*
X340861Y224186D02*
X342012Y224280D01*
X343133Y224561D01*
X344193Y225021D01*
X340861Y224186D02*
X339767Y224079D01*
X338714Y223765D01*
X338714Y223765D02*
X337959Y222609D01*
X338496Y220282D02*
X338917Y219367D01*
X339343Y218455D01*
X339774Y217546D01*
X340211Y216639D01*
X340654Y215735D01*
X341102Y214834D01*
X337959Y222609D02*
X338110Y221418D01*
X338496Y220282D01*
X341102Y214834D02*
X341542Y213964D01*
X341989Y213098D01*
X342443Y212235D01*
X342905Y211377D01*
X343374Y210522D01*
X343850Y209672D01*
X344334Y208825D01*
X344824Y207983D01*
X345322Y207145D01*
X345826Y206311D01*
X346338Y205481D01*
X260049Y407807D02*
X259676Y408717D01*
X259302Y409627D01*
X258926Y410536D01*
X258550Y411445D01*
X258173Y412354D01*
X257794Y413262D01*
X257415Y414169D01*
X257035Y415076D01*
X256653Y415983D01*
X256271Y416889D01*
X255887Y417795D01*
X255502Y418701D01*
X255117Y419605D01*
X254730Y420510D01*
X254342Y421414D01*
X253953Y422318D01*
X253563Y423221D01*
X253172Y424123D01*
X252780Y425026D01*
X252387Y425927D01*
X251993Y426829D01*
X251598Y427730D01*
X251202Y428630D01*
X260049Y407807D02*
X260431Y406876D01*
X260815Y405946D01*
X261202Y405017D01*
X261591Y404089D01*
X261982Y403162D01*
X262375Y402236D01*
X262771Y401311D01*
X263169Y400387D01*
X263569Y399463D01*
X263971Y398541D01*
X264375Y397620D01*
X264782Y396699D01*
X265191Y395780D01*
X265601Y394861D01*
X266015Y393944D01*
X251202Y428630D02*
X250804Y429510D01*
X250390Y430382D01*
X249960Y431247D01*
X249514Y432103D01*
X249052Y432951D01*
X248575Y433790D01*
X248082Y434621D01*
X247573Y435441D01*
X247049Y436253D01*
X246511Y437054D01*
X245957Y437845D01*
X252000Y402980D02*
X251810Y403937D01*
X251268Y404748D01*
X252000Y402980D02*
X251810Y403937D01*
X251268Y404748D01*
X266015Y393944D02*
X266425Y393039D01*
X266837Y392135D01*
X267252Y391233D01*
X267668Y390331D01*
X268087Y389431D01*
X268509Y388531D01*
X268932Y387633D01*
X269358Y386736D01*
X269786Y385840D01*
X270216Y384945D01*
X270649Y384050D01*
X271083Y383157D01*
X271520Y382265D01*
X271959Y381375D01*
X272400Y380485D01*
X272401Y380485D02*
X272848Y379588D01*
X273298Y378694D01*
X273751Y377800D01*
X274206Y376908D01*
X274665Y376017D01*
X275125Y375127D01*
X275589Y374239D01*
X276055Y373353D01*
X276523Y372467D01*
X276994Y371583D01*
X277468Y370700D01*
X277944Y369819D01*
X278423Y368939D01*
X278423Y368939D02*
X278890Y368098D01*
X279368Y367264D01*
X279858Y366436D01*
X280360Y365614D01*
X280872Y364800D01*
X281395Y363993D01*
X281930Y363193D01*
X282475Y362401D01*
X283031Y361616D01*
X251268Y381732D02*
X251810Y382543D01*
X252000Y383500D01*
X251268Y381732D02*
X251810Y382543D01*
X252000Y383500D01*
X245957Y437845D02*
X245373Y438608D01*
X244738Y439328D01*
X244055Y440004D01*
X243327Y440631D01*
X242558Y441207D01*
X241752Y441729D01*
X240912Y442195D01*
X240912D02*
X240037Y442605D01*
X239137Y442955D01*
X238215Y443243D01*
X237276Y443469D01*
X236324Y443631D01*
X235363Y443728D01*
X234398Y443761D01*
X237232Y374768D02*
X236691Y373957D01*
X236500Y373000D01*
X237232Y374768D02*
X236691Y373957D01*
X236500Y373000D01*
X271214Y304159D02*
X270311Y303662D01*
X269649Y302870D01*
X269318Y301893D01*
X269364Y300863D01*
X269780Y299919D01*
X270509Y299189D01*
X271453Y298774D01*
X272484Y298728D01*
X273461Y299058D01*
X274252Y299720D01*
X274750Y300624D01*
X252300Y297000D02*
X252120Y297989D01*
X251602Y298850D01*
X250813Y299473D01*
X249855Y299777D01*
X248852Y299724D01*
X247932Y299320D01*
X247214Y298617D01*
X246790Y297705D01*
X246716Y296703D01*
X247000Y295739D01*
X252000D02*
X252300Y297000D01*
X240768Y290232D02*
X241310Y291044D01*
X241500Y292000D01*
X240768Y290232D02*
X241310Y291044D01*
X241500Y292000D01*
X260761Y248000D02*
X259770Y248287D01*
X258743Y248196D01*
X257818Y247738D01*
X257121Y246977D01*
X256748Y246016D01*
Y244984D01*
X257121Y244023D01*
X257818Y243262D01*
X258743Y242804D01*
X259770Y242713D01*
X260761Y243000D01*
X252300Y176000D02*
X252000Y177261D01*
Y174739D02*
X252300Y176000D01*
X247000Y177261D02*
X246734Y176434D01*
Y175566D01*
X247000Y174739D01*
X237000Y244239D02*
X237300Y245500D01*
X237000Y246761D01*
X233876Y298841D02*
X234653Y299240D01*
X235269Y299859D01*
X235664Y300638D01*
X235800Y301500D01*
X237000Y182239D02*
X237300Y183500D01*
X237000Y184761D01*
X388268Y105768D02*
X387457Y106310D01*
X386500Y106500D01*
X388268Y105768D02*
X387457Y106310D01*
X386500Y106500D01*
X397327Y103187D02*
X396621Y103951D01*
X395907Y104707D01*
X395185Y105454D01*
X394454Y106194D01*
X393716Y106926D01*
X392969Y107650D01*
X392215Y108365D01*
X391452Y109072D01*
X390682Y109771D01*
X389905Y110461D01*
X382514Y117595D02*
X383271Y116814D01*
X384033Y116037D01*
X384800Y115267D01*
X385573Y114501D01*
X386351Y113741D01*
X378972Y121412D02*
X379670Y120639D01*
X380373Y119870D01*
X381081Y119107D01*
X381795Y118348D01*
X382514Y117595D01*
X386351Y113741D02*
X387049Y113071D01*
X387753Y112408D01*
X388464Y111752D01*
X389181Y111103D01*
X389905Y110461D01*
X392500Y100500D02*
X392310Y101457D01*
X391768Y102268D01*
X392500Y100500D02*
X392310Y101457D01*
X391768Y102268D01*
X376271Y166700D02*
X376146Y167640D01*
X375780Y168516D01*
Y168516D02*
X375226Y169424D01*
X374635Y170309D01*
X374009Y171169D01*
X375381Y163523D02*
X375870Y164522D01*
X376170Y165593D01*
X376271Y166700D01*
X374008Y171170D02*
X373338Y172029D01*
X372647Y172871D01*
X371935Y173696D01*
X371203Y174504D01*
X372761Y160376D02*
X373502Y161088D01*
X374188Y161853D01*
X374815Y162666D01*
X375381Y163523D01*
X371768Y130995D02*
X372317Y130169D01*
X372873Y129349D01*
X373438Y128533D01*
X374010Y127723D01*
X374589Y126919D01*
X375176Y126120D01*
X375771Y125326D01*
X376373Y124538D01*
X368848Y157691D02*
X369684Y158147D01*
X370495Y158645D01*
X371279Y159183D01*
X372036Y159761D01*
X372761Y160376D01*
X376373Y124538D02*
X377001Y123739D01*
X377644Y122951D01*
X378301Y122176D01*
X378972Y121412D01*
X365392Y140942D02*
X365914Y140107D01*
X366438Y139274D01*
X366964Y138441D01*
X367491Y137610D01*
X368020Y136779D01*
X368550Y135950D01*
X369082Y135122D01*
X369616Y134294D01*
X370151Y133468D01*
X370688Y132643D01*
X371227Y131819D01*
X371767Y130996D01*
X401097Y97313D02*
X400684Y98226D01*
X400227Y99118D01*
X399728Y99986D01*
X399187Y100829D01*
X398605Y101645D01*
X397985Y102432D01*
X397327Y103187D01*
X401783Y93936D02*
X401706Y95089D01*
X401476Y96222D01*
X401097Y97313D01*
X401644Y92391D02*
X401748Y93160D01*
X401783Y93936D01*
X364145Y155878D02*
X365115Y156160D01*
X366072Y156483D01*
X367014Y156846D01*
X367940Y157249D01*
X368848Y157691D01*
X364145Y155878D02*
X363020Y155563D01*
X361902Y155220D01*
X361902D02*
X360951Y154895D01*
X360013Y154535D01*
X360013D02*
X359272Y154221D01*
X358539Y153888D01*
X358294Y153501D02*
X358437Y152464D01*
X358857Y151506D01*
X358857Y151506D02*
X359398Y150624D01*
X359940Y149741D01*
X360483Y148860D01*
X361026Y147978D01*
X361570Y147098D01*
X362114Y146217D01*
X362659Y145337D01*
X363205Y144457D01*
X363751Y143577D01*
X364298Y142698D01*
X364845Y141819D01*
X365392Y140942D01*
X439683Y23335D02*
X439015Y24026D01*
X438344Y24713D01*
X437670Y25398D01*
X436992Y26078D01*
X436310Y26755D01*
X435625Y27429D01*
X434937Y28100D01*
X434246Y28767D01*
X433551Y29430D01*
X432853Y30090D01*
X432152Y30747D01*
X431447Y31400D01*
X417999Y45008D02*
X418675Y44261D01*
X419354Y43518D01*
X420037Y42778D01*
X420724Y42041D01*
X421414Y41307D01*
X422108Y40577D01*
X422806Y39850D01*
X423507Y39127D01*
X424211Y38407D01*
X424919Y37691D01*
X425631Y36978D01*
X426346Y36268D01*
X427064Y35562D01*
X427786Y34860D01*
X428511Y34161D01*
X429240Y33465D01*
X429972Y32774D01*
X430707Y32085D01*
X431446Y31401D01*
X402964Y62616D02*
X403598Y61834D01*
X404235Y61054D01*
X404872Y60275D01*
X405512Y59497D01*
X406153Y58721D01*
X406797Y57947D01*
X407442Y57174D01*
X408088Y56402D01*
X408737Y55632D01*
X409387Y54863D01*
X410039Y54096D01*
X410693Y53330D01*
X411348Y52566D01*
X412006Y51803D01*
X412665Y51042D01*
X413326Y50283D01*
X413988Y49524D01*
X414652Y48768D01*
X415318Y48013D01*
X415986Y47259D01*
X416655Y46507D01*
X417327Y45757D01*
X417999Y45008D01*
X399384Y88075D02*
X400039Y88815D01*
X400601Y89630D01*
X401060Y90506D01*
X401409Y91431D01*
X401644Y92391D01*
X398125Y87091D02*
X398784Y87545D01*
X399384Y88075D01*
X396461Y86261D02*
X397309Y86644D01*
X398125Y87091D01*
X394673Y85695D02*
X395578Y85943D01*
X396461Y86261D01*
X393039Y85507D02*
X393862Y85554D01*
X394673Y85695D01*
X443024Y16652D02*
X442937Y17624D01*
X442680Y18564D01*
X442680Y18564D02*
X442321Y19439D01*
X441902Y20287D01*
X441427Y21104D01*
X440897Y21887D01*
X440315Y22632D01*
X439683Y23335D01*
X442567Y14460D02*
X442909Y15533D01*
X443024Y16652D01*
X439511Y9698D02*
X440124Y10420D01*
X440697Y11174D01*
X441230Y11957D01*
X441720Y12767D01*
X442166Y13602D01*
X442567Y14460D01*
X434715Y6121D02*
X435607Y6579D01*
X436468Y7096D01*
X437292Y7669D01*
X438076Y8296D01*
X438817Y8973D01*
X439511Y9698D01*
X393039Y85507D02*
X391543Y85424D01*
X391543D02*
X390168Y85176D01*
X390168Y85176D02*
X389079Y84817D01*
Y84817D02*
X388568Y84382D01*
X388568D02*
X388167Y83439D01*
X388066Y82419D01*
X388275Y81416D01*
X388774Y80520D01*
X388774Y80520D02*
X389383Y79736D01*
X389993Y78952D01*
X390604Y78169D01*
X391215Y77386D01*
X391827Y76604D01*
X392440Y75822D01*
X393054Y75041D01*
X393668Y74260D01*
X394283Y73480D01*
X394898Y72701D01*
X395514Y71922D01*
X396131Y71144D01*
X396749Y70366D01*
X397367Y69588D01*
X397986Y68812D01*
X398606Y68035D01*
X399226Y67260D01*
X399848Y66485D01*
X400469Y65710D01*
X401092Y64936D01*
X401715Y64162D01*
X402339Y63390D01*
X402963Y62617D01*
X260761Y172500D02*
X259770Y172787D01*
X258743Y172696D01*
X257818Y172238D01*
X257121Y171477D01*
X256748Y170516D01*
Y169484D01*
X257121Y168523D01*
X257818Y167762D01*
X258743Y167304D01*
X259770Y167213D01*
X260761Y167500D01*
X258761Y106500D02*
X257770Y106787D01*
X256743Y106696D01*
X255818Y106238D01*
X255121Y105477D01*
X254748Y104516D01*
Y103484D01*
X255121Y102523D01*
X255818Y101762D01*
X256743Y101304D01*
X257770Y101213D01*
X258761Y101500D01*
X253449Y77996D02*
X252638Y78538D01*
X251681Y78728D01*
X253449Y77996D02*
X252638Y78538D01*
X251681Y78728D01*
X247000Y99761D02*
X246721Y98844D01*
X246768Y97887D01*
X247135Y97002D01*
X247778Y96292D01*
X248624Y95841D01*
X243000Y82500D02*
X243957Y82690D01*
X244768Y83232D01*
X243000Y82500D02*
X243957Y82690D01*
X244768Y83232D01*
X244155Y78728D02*
X243726Y79568D01*
X243041Y80217D01*
X242178Y80599D01*
X241237Y80670D01*
X240327Y80423D01*
X239551Y79886D01*
X239000Y79120D01*
Y73337D02*
X239551Y72571D01*
X240327Y72034D01*
X241237Y71786D01*
X242178Y71858D01*
X243041Y72240D01*
X243726Y72888D01*
X244155Y73728D01*
X237000Y102739D02*
X237300Y104000D01*
X238300Y90500D02*
X238144Y91421D01*
X237694Y92239D01*
X237000Y92864D01*
X237300Y104000D02*
X237000Y105261D01*
X239000Y79120D02*
X238385Y79946D01*
X237512Y80492D01*
X236500Y80683D01*
X235488Y80492D01*
X234615Y79946D01*
X234000Y79120D01*
X232776Y89850D02*
X233185Y88925D01*
X233896Y88205D01*
X234817Y87785D01*
X235827Y87719D01*
X236794Y88017D01*
X237592Y88639D01*
X238117Y89505D01*
X238300Y90500D01*
X244000Y62239D02*
X244300Y63500D01*
X244281Y56445D02*
X244000Y57663D01*
X247609Y31517D02*
X247064Y32392D01*
X246239Y33011D01*
X245246Y33289D01*
X239000Y51880D02*
X239638Y51032D01*
X240548Y50485D01*
X241597Y50319D01*
X242631Y50558D01*
X243500Y51166D01*
X244078Y52056D01*
X244281Y53098D01*
X253823Y18232D02*
X254634Y17690D01*
X255591Y17500D01*
X253823Y18232D02*
X254634Y17690D01*
X255591Y17500D01*
X240500Y48500D02*
X240310Y49457D01*
X239768Y50268D01*
X240500Y48500D02*
X240310Y49457D01*
X239768Y50268D01*
X243019Y28521D02*
X244254Y27801D01*
X238268Y65732D02*
X238810Y66543D01*
X239000Y67500D01*
X244300Y63500D02*
X244120Y64489D01*
X243602Y65350D01*
X242813Y65973D01*
X241856Y66277D01*
X240852Y66224D01*
X239932Y65820D01*
X239214Y65117D01*
X238790Y64205D01*
X238716Y63203D01*
X239000Y62239D01*
X238268Y65732D02*
X238810Y66543D01*
X239000Y67500D01*
Y57663D02*
X238385Y58490D01*
X237512Y59035D01*
X236500Y59226D01*
X235488Y59035D01*
X234615Y58490D01*
X234000Y57663D01*
Y50000D02*
X234190Y49043D01*
X234732Y48232D01*
X234000Y50000D02*
X234190Y49043D01*
X234732Y48232D01*
X233891Y38432D02*
X234000Y39161D01*
X239447Y24053D02*
X239257Y25010D01*
X238715Y25820D01*
X239447Y24053D02*
X239257Y25010D01*
X238715Y25820D01*
X233891Y38432D02*
X234000Y39161D01*
X234398Y443761D02*
X233490Y443751D01*
X232583Y443723D01*
X231677Y443677D01*
X230772Y443612D01*
X229570Y443435D01*
X228400Y443104D01*
X227401Y442660D01*
X226482Y442066D01*
X225766Y441490D01*
X225082Y440877D01*
X224430Y440230D01*
X223724Y439452D01*
X223057Y438641D01*
X222432Y437797D01*
X221849Y436924D01*
X221309Y436023D01*
X220846Y435196D01*
X220388Y434367D01*
X219936Y433534D01*
X219490Y432698D01*
X219050Y431859D01*
X218616Y431017D01*
X218187Y430171D01*
X217765Y429323D01*
X217348Y428472D01*
X217348Y428472D02*
X216926Y427600D01*
X216508Y426726D01*
X216092Y425851D01*
X215679Y424974D01*
X215269Y424096D01*
X214862Y423216D01*
X214457Y422336D01*
X214056Y421454D01*
X213658Y420570D01*
X213262Y419686D01*
X212870Y418799D01*
X212480Y417912D01*
X212093Y417024D01*
X232805Y397500D02*
X232159Y398278D01*
X231358Y398895D01*
X230439Y399319D01*
X229450Y399530D01*
X228439Y399518D01*
X227455Y399282D01*
X226548Y398835D01*
X225761Y398199D01*
X225135Y397405D01*
X224699Y396492D01*
X224476Y395505D01*
Y394494D01*
X224699Y393507D01*
X225135Y392595D01*
X225761Y391800D01*
X226548Y391164D01*
X227455Y390717D01*
X228439Y390482D01*
X229450Y390469D01*
X230439Y390680D01*
X231358Y391105D01*
X232159Y391721D01*
X232805Y392500D01*
X233553Y310000D02*
X233447Y310978D01*
X233132Y311911D01*
X232625Y312755D01*
X231948Y313470D01*
X231133Y314022D01*
X230218Y314387D01*
X229247Y314546D01*
X228264Y314493D01*
X227315Y314229D01*
X226445Y313768D01*
X225695Y313131D01*
X225099Y312347D01*
X224686Y311453D01*
X224474Y310492D01*
Y309507D01*
X224686Y308546D01*
X225099Y307652D01*
X225695Y306869D01*
X226445Y306231D01*
X227315Y305770D01*
X228264Y305507D01*
X229247Y305454D01*
X230218Y305613D01*
X231133Y305977D01*
X231948Y306530D01*
X232625Y307244D01*
X233132Y308088D01*
X233447Y309021D01*
X233553Y310000D01*
X235800Y301500D02*
X235627Y302468D01*
X235131Y303316D01*
X234372Y303941D01*
X233444Y304265D01*
X232461Y304248D01*
X231544Y303892D01*
X230807Y303241D01*
X230341Y302376D01*
X222300Y297500D02*
X222164Y298362D01*
X221769Y299141D01*
X221153Y299760D01*
X220376Y300159D01*
X216841Y296624D02*
X217307Y295759D01*
X218044Y295108D01*
X218961Y294752D01*
X219944Y294735D01*
X220872Y295059D01*
X221631Y295684D01*
X222127Y296532D01*
X222300Y297500D01*
X232732Y289268D02*
X232190Y288457D01*
X232000Y287500D01*
X232732Y289268D02*
X232190Y288457D01*
X232000Y287500D01*
Y246761D02*
X231734Y245934D01*
Y245066D01*
X232000Y244239D01*
Y184761D02*
X231734Y183934D01*
Y183066D01*
X232000Y182239D01*
X222500Y193081D02*
X222372Y193872D01*
X222000Y194581D01*
X222800Y170000D02*
X222500Y171261D01*
Y168739D02*
X222800Y170000D01*
X222500Y193081D02*
X222372Y193872D01*
X222000Y194581D01*
X217732Y289768D02*
X217190Y288957D01*
X217000Y288000D01*
X217732Y289768D02*
X217190Y288957D01*
X217000Y288000D01*
X217500Y171261D02*
X217234Y170434D01*
Y169566D01*
X217500Y168739D01*
X217000Y193581D02*
X217128Y192791D01*
X217500Y192081D01*
X217000Y193581D02*
X217128Y192791D01*
X217500Y192081D01*
X212093Y417024D02*
X211700Y416115D01*
X211307Y415206D01*
X210915Y414296D01*
X210523Y413387D01*
X210132Y412477D01*
X209741Y411567D01*
X209351Y410657D01*
X208961Y409747D01*
X208572Y408836D01*
X208184Y407925D01*
X207796Y407014D01*
X207408Y406103D01*
X207021Y405191D01*
X206635Y404279D01*
X206249Y403367D01*
X205864Y402455D01*
X205479Y401542D01*
X205095Y400630D01*
X204711Y399717D01*
X204330Y398807D01*
X196707Y381890D02*
X197131Y382770D01*
X197552Y383651D01*
X197970Y384534D01*
X198386Y385418D01*
X198800Y386303D01*
X199211Y387189D01*
X199619Y388076D01*
X200026Y388964D01*
X200429Y389854D01*
X200831Y390744D01*
X201229Y391636D01*
X201626Y392528D01*
X202019Y393422D01*
X202411Y394317D01*
X202800Y395213D01*
X203186Y396110D01*
X203570Y397008D01*
X203951Y397908D01*
X204329Y398807D01*
X189635Y369010D02*
X190148Y369845D01*
X190656Y370684D01*
X191157Y371526D01*
X191653Y372371D01*
X192142Y373220D01*
X192626Y374073D01*
X193104Y374928D01*
X193575Y375787D01*
X194041Y376650D01*
X194501Y377515D01*
X194954Y378384D01*
X195402Y379256D01*
X195843Y380131D01*
X196278Y381009D01*
X196707Y381890D01*
X180526Y355669D02*
X181129Y356479D01*
X181729Y357292D01*
X182323Y358108D01*
X182914Y358927D01*
X183499Y359750D01*
X184080Y360576D01*
X184657Y361405D01*
X185229Y362238D01*
X185796Y363074D01*
X186358Y363912D01*
X186916Y364754D01*
X187469Y365599D01*
X188018Y366447D01*
X188561Y367298D01*
X189101Y368152D01*
X189635Y369010D01*
X165796Y336600D02*
X166420Y337386D01*
X167044Y338173D01*
X167667Y338961D01*
X168288Y339749D01*
X168909Y340539D01*
X169529Y341329D01*
X170148Y342119D01*
X170766Y342911D01*
X171383Y343703D01*
X171999Y344496D01*
X172614Y345289D01*
X173229Y346083D01*
X173842Y346879D01*
X174454Y347674D01*
X175066Y348471D01*
X175677Y349268D01*
X176286Y350066D01*
X176895Y350864D01*
X177503Y351664D01*
X178109Y352464D01*
X178715Y353264D01*
X179320Y354066D01*
X179924Y354868D01*
X180526Y355669D01*
X208768Y311768D02*
X207957Y312310D01*
X207000Y312500D01*
X170909Y324000D02*
X169953Y323810D01*
X169142Y323268D01*
X170909Y324000D02*
X169953Y323810D01*
X169142Y323268D01*
X208768Y311768D02*
X207957Y312310D01*
X207000Y312500D01*
X154088Y294304D02*
X154327Y295231D01*
X165796Y336600D02*
X165185Y335831D01*
X164575Y335062D01*
X163965Y334292D01*
X163357Y333521D01*
X162749Y332750D01*
X162142Y331978D01*
X161535Y331205D01*
X160930Y330432D01*
X160325Y329659D01*
X159720Y328884D01*
X159117Y328110D01*
X158514Y327334D01*
X157912Y326558D01*
X157311Y325782D01*
X156710Y325005D01*
X156111Y324227D01*
X155511Y323449D01*
X154913Y322670D01*
X154316Y321890D01*
X153719Y321111D01*
X153123Y320330D01*
X152528Y319549D01*
X151933Y318767D01*
X151931Y318765D02*
X151333Y317962D01*
X150751Y317147D01*
X150185Y316322D01*
X149634Y315485D01*
X149100Y314638D01*
X148582Y313781D01*
X148082Y312915D01*
X147598Y312038D01*
X147131Y311153D01*
X146681Y310258D01*
X148077Y300496D02*
X148766Y299919D01*
X149469Y299360D01*
X146681Y310258D02*
X146314Y309411D01*
X146029Y308533D01*
X145830Y307631D01*
X145717Y306715D01*
X145692Y305792D01*
X145755Y304871D01*
X145755D02*
X145946Y303876D01*
X146283Y302921D01*
X146758Y302026D01*
X147361Y301212D01*
X148077Y300496D01*
X152214Y297446D02*
X153078Y297024D01*
X150912Y298302D02*
X151557Y297866D01*
X152214Y297446D01*
X154327Y295231D02*
X153984Y296324D01*
X153078Y297024D01*
X149469Y299360D02*
X150183Y298821D01*
X150912Y298302D01*
X145568Y279554D02*
X146083Y280414D01*
X146597Y281274D01*
X147109Y282135D01*
X147619Y282998D01*
X148127Y283862D01*
X148634Y284726D01*
X149138Y285592D01*
X149642Y286459D01*
X150143Y287327D01*
X150642Y288195D01*
X151140Y289065D01*
X151636Y289936D01*
X152130Y290808D01*
X152622Y291681D01*
X153112Y292554D01*
X153601Y293429D01*
X154087Y294304D01*
X135243Y263623D02*
X135813Y264444D01*
X136380Y265266D01*
X136944Y266091D01*
X137506Y266918D01*
X138064Y267747D01*
X138619Y268578D01*
X139172Y269410D01*
X139721Y270245D01*
X140268Y271082D01*
X140811Y271920D01*
X141351Y272761D01*
X141889Y273603D01*
X142423Y274447D01*
X142955Y275294D01*
X143483Y276142D01*
X144009Y276992D01*
X144531Y277844D01*
X145051Y278697D01*
X145567Y279553D01*
X124186Y248961D02*
X124829Y249753D01*
X125469Y250549D01*
X126105Y251347D01*
X126738Y252147D01*
X127367Y252950D01*
X127993Y253756D01*
X128616Y254565D01*
X129236Y255376D01*
X129852Y256189D01*
X130465Y257005D01*
X131074Y257824D01*
X131680Y258645D01*
X132282Y259468D01*
X132882Y260295D01*
X133477Y261123D01*
X134070Y261954D01*
X134658Y262788D01*
X135243Y263623D01*
X124186Y248961D02*
X123518Y248134D01*
X122855Y247303D01*
X122197Y246468D01*
X121545Y245628D01*
X120899Y244784D01*
Y244784D02*
X120330Y244029D01*
X119768Y243268D01*
X119214Y242502D01*
X118666Y241731D01*
X118126Y240954D01*
Y240954D02*
X117574Y240145D01*
X117028Y239332D01*
X116488Y238514D01*
X115955Y237692D01*
X129391Y224130D02*
X128382Y224186D01*
X216800Y183500D02*
X216640Y184433D01*
X216178Y185259D01*
X215468Y185884D01*
X214590Y186237D01*
X213644Y186277D01*
X212739Y186000D01*
Y181000D02*
X213644Y180723D01*
X214590Y180763D01*
X215468Y181116D01*
X216178Y181741D01*
X216640Y182567D01*
X216800Y183500D01*
X214800Y176000D02*
X214627Y176968D01*
X214131Y177816D01*
X213372Y178441D01*
X212444Y178765D01*
X211461Y178748D01*
X210544Y178392D01*
X209807Y177741D01*
X209341Y176876D01*
X212876Y173341D02*
X213653Y173740D01*
X214269Y174359D01*
X214664Y175137D01*
X214800Y176000D01*
X130839Y223714D02*
X130241Y223960D01*
X129391Y224130D01*
X129416Y219802D02*
X129909Y220824D01*
X130401Y221847D01*
X130891Y222871D01*
X127658Y216251D02*
X128103Y217136D01*
X128544Y218022D01*
X128982Y218911D01*
X129416Y219802D01*
X125572Y212183D02*
X125993Y212995D01*
X126412Y213808D01*
X126829Y214621D01*
X127244Y215436D01*
X127658Y216251D01*
X123861Y225190D02*
X124723Y224832D01*
X125613Y224551D01*
X126524Y224349D01*
X127450Y224226D01*
X128382Y224186D01*
X119650Y228084D02*
X120412Y227397D01*
X121218Y226761D01*
X122064Y226180D01*
X122946Y225656D01*
X123861Y225190D01*
X119827Y202259D02*
X120386Y203140D01*
X120938Y204024D01*
X121483Y204914D01*
X122020Y205807D01*
X122550Y206705D01*
X123072Y207608D01*
X123587Y208514D01*
X124095Y209425D01*
X124594Y210340D01*
X125087Y211260D01*
X125572Y212183D01*
X116649Y232143D02*
X117138Y231254D01*
X117685Y230401D01*
X118288Y229585D01*
X118944Y228812D01*
X119650Y228084D01*
X115955Y237692D02*
X115606Y236502D01*
Y236502D02*
X115648Y235598D01*
X115775Y234703D01*
X115986Y233823D01*
X116278Y232967D01*
X116649Y232143D01*
X112748Y192040D02*
X113366Y192872D01*
X113978Y193708D01*
X114586Y194547D01*
X115188Y195390D01*
X115786Y196237D01*
X116378Y197087D01*
X116966Y197940D01*
X117549Y198797D01*
X118126Y199658D01*
X118698Y200522D01*
X119265Y201389D01*
X119827Y202259D01*
X119000Y186000D02*
X118043Y185810D01*
X117232Y185268D01*
X119000Y186000D02*
X118043Y185810D01*
X117232Y185268D01*
X105375Y182882D02*
X106015Y183624D01*
X106650Y184371D01*
X107281Y185121D01*
X107907Y185875D01*
X108528Y186632D01*
X109145Y187394D01*
X109757Y188159D01*
X110365Y188928D01*
X110968Y189700D01*
X111566Y190477D01*
X112160Y191257D01*
X112748Y192040D01*
X110161Y178197D02*
X109619Y177386D01*
X109429Y176429D01*
X110161Y178197D02*
X109619Y177386D01*
X109429Y176429D01*
X98794Y176322D02*
X99571Y177003D01*
X100338Y177696D01*
X101093Y178401D01*
X101836Y179119D01*
X102568Y179848D01*
X103288Y180590D01*
X103996Y181342D01*
X104692Y182106D01*
X105375Y182882D01*
X98794Y176322D02*
X97968Y175600D01*
X97153Y174864D01*
X96349Y174117D01*
X95557Y173357D01*
X94901Y172671D01*
X94295Y171940D01*
X93742Y171168D01*
Y171168D02*
X93198Y170192D01*
X92812Y169143D01*
X232000Y105261D02*
X231734Y104434D01*
Y103566D01*
X232000Y102739D01*
Y91662D02*
X232190Y90706D01*
X232732Y89895D01*
X232000Y91662D02*
X232190Y90706D01*
X232732Y89895D01*
X222800Y98500D02*
X222500Y99761D01*
X220876Y95841D02*
X221653Y96240D01*
X222269Y96859D01*
X222664Y97637D01*
X222800Y98500D01*
X230768Y89268D02*
X229957Y89810D01*
X229000Y90000D01*
X230768Y89268D02*
X229957Y89810D01*
X229000Y90000D01*
Y79120D02*
X228422Y79912D01*
X227606Y80453D01*
X226652Y80678D01*
X225679Y80559D01*
X224808Y80109D01*
X224148Y79385D01*
X216500Y92500D02*
X217457Y92690D01*
X218268Y93232D01*
X216500Y92500D02*
X217457Y92690D01*
X218268Y93232D01*
X211500Y90000D02*
X210543Y89810D01*
X209732Y89268D01*
X211500Y90000D02*
X210543Y89810D01*
X209732Y89268D01*
X229000Y73337D02*
X229615Y72510D01*
X230488Y71965D01*
X231500Y71774D01*
X232512Y71965D01*
X233385Y72510D01*
X234000Y73337D01*
X229732Y64268D02*
X229190Y63457D01*
X229000Y62500D01*
X229732Y64268D02*
X229190Y63457D01*
X229000Y62500D01*
Y57663D02*
X228362Y58511D01*
X227452Y59058D01*
X226403Y59224D01*
X225369Y58986D01*
X224500Y58377D01*
X223921Y57487D01*
X223719Y56445D01*
X223724Y74385D02*
X223938Y73473D01*
X228268Y70732D02*
X228810Y71543D01*
X229000Y72500D01*
X228268Y70732D02*
X228810Y71543D01*
X229000Y72500D01*
X223719Y53098D02*
X223921Y52056D01*
X224500Y51166D01*
X225369Y50558D01*
X226403Y50319D01*
X227452Y50485D01*
X228362Y51032D01*
X229000Y51880D01*
X233553Y17500D02*
X233446Y18479D01*
X233132Y19412D01*
X232624Y20255D01*
X231947Y20970D01*
X231133Y21522D01*
X230218Y21887D01*
X229246Y22046D01*
X228263Y21993D01*
X227315Y21729D01*
X226445Y21268D01*
X225695Y20631D01*
X225099Y19847D01*
X224686Y18954D01*
X224474Y17992D01*
Y17008D01*
X224686Y16046D01*
X225099Y15153D01*
X225695Y14369D01*
X226445Y13732D01*
X227315Y13271D01*
X228263Y13007D01*
X229246Y12954D01*
X230218Y13113D01*
X231133Y13478D01*
X231947Y14030D01*
X232624Y14745D01*
X233132Y15588D01*
X233446Y16521D01*
X233553Y17500D01*
X219376Y43341D02*
X220153Y43740D01*
X220769Y44359D01*
X221164Y45138D01*
X221300Y46000D01*
X228000Y30500D02*
X228190Y29543D01*
X228732Y28732D01*
X228000Y30500D02*
X228190Y29543D01*
X228732Y28732D01*
X219467Y79385D02*
X218508Y79754D01*
X217480Y79751D01*
X216523Y79379D01*
X215765Y78686D01*
X215307Y77766D01*
X215212Y76744D01*
X215492Y75755D01*
X216110Y74935D01*
X216982Y74392D01*
X217991Y74200D01*
X219001Y74385D01*
X214000Y57500D02*
X214957Y57690D01*
X215768Y58232D01*
X214000Y57500D02*
X214957Y57690D01*
X215768Y58232D01*
X221300Y46000D02*
X221127Y46968D01*
X220631Y47816D01*
X219872Y48441D01*
X218944Y48765D01*
X217961Y48748D01*
X217044Y48392D01*
X216307Y47741D01*
X215841Y46876D01*
X206000Y167500D02*
X206957Y167690D01*
X207768Y168232D01*
X206000Y167500D02*
X206957Y167690D01*
X207768Y168232D01*
X92812Y169143D02*
X92573Y168001D01*
X92493Y166838D01*
X96181Y159687D02*
X96937Y159055D01*
X97731Y158470D01*
X98558Y157933D01*
X99415Y157447D01*
X100301Y157013D01*
X92493Y166838D02*
X92554Y165870D01*
X92735Y164918D01*
X93034Y163996D01*
X93446Y163118D01*
X94016Y162176D01*
X94666Y161285D01*
X95389Y160454D01*
X96181Y159687D01*
X204232Y83768D02*
X203690Y82957D01*
X203500Y82000D01*
X204232Y83768D02*
X203690Y82957D01*
X203500Y82000D01*
X100301Y157013D02*
X101258Y156609D01*
X102235Y156255D01*
X103228Y155952D01*
X104236Y155701D01*
X105256Y155501D01*
X102112Y139247D02*
X102641Y140102D01*
X103163Y140961D01*
X103676Y141825D01*
X104182Y142693D01*
X104680Y143566D01*
X105170Y144444D01*
X105651Y145326D01*
X106125Y146212D01*
X106591Y147103D01*
X107049Y147997D01*
X96350Y130882D02*
X96959Y131695D01*
X97561Y132514D01*
X98155Y133338D01*
X98743Y134167D01*
X99323Y135001D01*
X99896Y135841D01*
X100461Y136685D01*
X101019Y137534D01*
X101569Y138389D01*
X102112Y139247D01*
X89213Y122160D02*
X89889Y122930D01*
X90560Y123705D01*
X91226Y124484D01*
X91886Y125268D01*
X92540Y126056D01*
X93189Y126849D01*
X93833Y127647D01*
X94471Y128449D01*
X95103Y129255D01*
X95729Y130066D01*
X96350Y130882D01*
X80067Y112293D02*
X80787Y113037D01*
X81503Y113783D01*
X82218Y114532D01*
X82929Y115284D01*
X83638Y116038D01*
X84344Y116795D01*
X85048Y117554D01*
X85748Y118315D01*
X86447Y119079D01*
X87142Y119846D01*
X87835Y120615D01*
X88525Y121386D01*
X89212Y122160D01*
X80067Y112293D02*
X79371Y111574D01*
X78676Y110855D01*
X77983Y110134D01*
X77290Y109412D01*
X76599Y108689D01*
X75909Y107965D01*
X75220Y107240D01*
X74533Y106513D01*
X73846Y105786D01*
X73161Y105057D01*
X72477Y104327D01*
X72477Y104327D02*
X71746Y103526D01*
X71035Y102708D01*
X70344Y101872D01*
X69674Y101020D01*
X69026Y100151D01*
X69026D02*
X68387Y99186D01*
X67835Y98169D01*
X67374Y97107D01*
X67374Y97107D02*
X67063Y96120D01*
X66874Y95101D01*
X66811Y94068D01*
Y94067D02*
X66852Y93167D01*
X66975Y92275D01*
X67177Y91397D01*
X67459Y90541D01*
X78960Y81844D02*
X79475Y82947D01*
X79652Y84152D01*
X72259Y86096D02*
X73196Y85839D01*
X74150Y85655D01*
X75115Y85544D01*
X76085Y85507D01*
X77451Y85408D02*
X76085Y85507D01*
X67459Y90541D02*
X67931Y89539D01*
X68552Y88621D01*
X69306Y87809D01*
X69306D02*
X70203Y87096D01*
X71194Y86521D01*
X72259Y86096D01*
X79394Y84671D02*
X78604Y85109D01*
Y85109D02*
X77451Y85408D01*
X79652Y84152D02*
X79394Y84671D01*
X73768Y74138D02*
X74353Y74988D01*
X74936Y75841D01*
X75517Y76694D01*
X76096Y77549D01*
X76673Y78405D01*
X77248Y79263D01*
X77820Y80122D01*
X78391Y80982D01*
X78960Y81844D01*
X67671Y65664D02*
X68296Y66500D01*
X68918Y67339D01*
X69536Y68180D01*
X70151Y69024D01*
X70762Y69870D01*
X71370Y70719D01*
X71974Y71570D01*
X72575Y72423D01*
X73173Y73279D01*
X73767Y74137D01*
X207768Y47232D02*
X208310Y48043D01*
X208500Y49000D01*
X207768Y47232D02*
X208310Y48043D01*
X208500Y49000D01*
X61151Y57314D02*
X61757Y58063D01*
X62360Y58814D01*
X62961Y59567D01*
X63559Y60322D01*
X64155Y61079D01*
X64748Y61838D01*
X65338Y62599D01*
X65925Y63362D01*
X66510Y64128D01*
X67092Y64895D01*
X67671Y65664D01*
X54517Y49535D02*
X55197Y50299D01*
X55874Y51066D01*
X56546Y51836D01*
X57215Y52609D01*
X57881Y53385D01*
X58542Y54165D01*
X59200Y54948D01*
X59854Y55733D01*
X60505Y56522D01*
X61151Y57314D01*
X188000Y28500D02*
X188957Y28690D01*
X189768Y29232D01*
X188000Y28500D02*
X188957Y28690D01*
X189768Y29232D01*
X192500Y17500D02*
X193457Y17690D01*
X194268Y18232D01*
X192500Y17500D02*
X193457Y17690D01*
X194268Y18232D01*
X46733Y41130D02*
X47453Y41883D01*
X48170Y42638D01*
X48885Y43396D01*
X49597Y44156D01*
X50307Y44918D01*
X51015Y45682D01*
X51720Y46448D01*
X52423Y47217D01*
X53124Y47988D01*
X53822Y48761D01*
X54517Y49535D01*
X48500Y33500D02*
X47543Y33310D01*
X46732Y32768D01*
X48500Y33500D02*
X47543Y33310D01*
X46732Y32768D01*
X38508Y32828D02*
X39204Y33509D01*
X39898Y34192D01*
X40591Y34878D01*
X41281Y35565D01*
X41969Y36253D01*
X42656Y36944D01*
X43340Y37637D01*
X44023Y38332D01*
X44703Y39028D01*
X45382Y39727D01*
X46058Y40427D01*
X46733Y41129D01*
X30531Y25356D02*
X31269Y26022D01*
X32004Y26690D01*
X32737Y27361D01*
X33467Y28035D01*
X34195Y28712D01*
X34920Y29391D01*
X35643Y30073D01*
X36363Y30758D01*
X37081Y31446D01*
X37796Y32136D01*
X38508Y32828D01*
X41385Y27420D02*
X40843Y26610D01*
X40653Y25653D01*
X41385Y27420D02*
X40843Y26610D01*
X40653Y25653D01*
X30531Y25356D02*
X29726Y24614D01*
X28940Y23852D01*
X28174Y23071D01*
X27428Y22271D01*
X26701Y21452D01*
Y21452D02*
X26037Y20544D01*
X25530Y19539D01*
X25192Y18466D01*
X25336Y15269D02*
X25654Y14336D01*
X26002Y13415D01*
X26379Y12505D01*
X26786Y11607D01*
X27221Y10723D01*
X27688Y9915D01*
X28234Y9157D01*
X28854Y8459D01*
X29541Y7826D01*
X30289Y7266D01*
X31089Y6784D01*
X31933Y6385D01*
X25192Y18466D02*
X25049Y17397D01*
X25098Y16320D01*
X25336Y15269D01*
X312033Y312000D02*
X321128D01*
X304109Y314553D02*
X312033D01*
Y309000D02*
X322455D01*
X312033Y306000D02*
X323002D01*
X296038Y314553D02*
X303962D01*
X296038Y312500D02*
Y314553D01*
X292033Y312500D02*
Y314553D01*
Y306000D02*
X296038D01*
X292033Y312500D02*
X296038D01*
X292033Y307500D02*
X296038D01*
X336768Y247268D02*
X339839Y244197D01*
X304109Y305447D02*
Y314553D01*
X303962Y305447D02*
Y314553D01*
X312033Y305447D02*
Y314553D01*
X292033Y305447D02*
Y307500D01*
X296038Y305447D02*
Y307500D01*
X313563Y296894D02*
X317281Y298298D01*
X313563Y296894D02*
X317845Y288390D01*
X296038Y305447D02*
X303962D01*
X304109D02*
X312033D01*
X241500Y333000D02*
X305458D01*
X241500Y336000D02*
X303066D01*
X241500Y330000D02*
X307819D01*
X241500Y342000D02*
X298285D01*
X241500Y345000D02*
X295908D01*
X241500Y339000D02*
X300671D01*
X241500Y318000D02*
X316891D01*
X241500Y321000D02*
X314686D01*
X241500Y315000D02*
X319057D01*
X241500Y327000D02*
X310148D01*
X241500Y324000D02*
X312439D01*
X241500Y354000D02*
X288843D01*
X241500Y360000D02*
X284214D01*
X241500Y357000D02*
X286510D01*
X284109Y314553D02*
X292033D01*
X284109Y305447D02*
Y314553D01*
Y305447D02*
X292033D01*
X241500Y351000D02*
X291187D01*
X241500Y348000D02*
X293542D01*
X252000Y264000D02*
X332902D01*
X252000Y267000D02*
X330833D01*
X252000Y261000D02*
X335024D01*
X252000Y273000D02*
X326852D01*
X252000Y270000D02*
X328817D01*
X252000Y249000D02*
X344194D01*
X252000Y252000D02*
X341769D01*
X260761Y248000D02*
X335000D01*
X252000Y258000D02*
X337200D01*
X252000Y255000D02*
X339440D01*
X277126Y303000D02*
X322508D01*
X274455Y300000D02*
X320268D01*
X252300Y297000D02*
X313843D01*
X252000Y294000D02*
X315020D01*
X252000Y291000D02*
X316531D01*
X252000Y279000D02*
X323077D01*
X252000Y282000D02*
X321293D01*
X252000Y276000D02*
X324939D01*
X252000Y288000D02*
X318042D01*
X252000Y285000D02*
X319616D01*
X342033Y237000D02*
X352546D01*
X340505Y243000D02*
X349133D01*
X338035Y246000D02*
X346694D01*
X340571Y240000D02*
X351299D01*
X342033Y234000D02*
X352405D01*
X342033Y231000D02*
X350988D01*
X340571Y239553D02*
Y242429D01*
X333964Y243000D02*
X335571Y241394D01*
Y239553D02*
Y241394D01*
X340571Y239553D02*
X342033D01*
X334109D02*
X335571D01*
X334109Y230447D02*
X342033D01*
X326038Y239553D02*
X333962D01*
Y230447D02*
Y239553D01*
X356038Y174553D02*
X363962D01*
Y174000D02*
X371663D01*
X347967Y174553D02*
X355891D01*
X343962Y174000D02*
X347967D01*
X342033Y230447D02*
Y239553D01*
X334109Y230447D02*
Y239553D01*
X327967Y174553D02*
X335891D01*
X336038D02*
X343962D01*
X326038Y237500D02*
Y239553D01*
X322033Y237500D02*
X326038D01*
X322033Y230447D02*
Y232500D01*
X260761Y243000D02*
X333964D01*
X260761D02*
X333964D01*
X252000Y240000D02*
X335571D01*
X326038Y230447D02*
Y232500D01*
X322033Y231000D02*
X326038D01*
Y230447D02*
X333962D01*
X322033Y232500D02*
X326038D01*
X314109Y230447D02*
X322033D01*
X314109Y239553D02*
X322033D01*
X313962Y230447D02*
Y239553D01*
X314109Y230447D02*
Y239553D01*
X306038D02*
X313962D01*
X306038Y237500D02*
Y239553D01*
X322033Y237500D02*
Y239553D01*
X252000Y231000D02*
X306038D01*
Y230447D02*
X313962D01*
X252000Y237500D02*
X306038D01*
X252000Y232500D02*
X306038D01*
X252000Y195000D02*
X353397D01*
X252000Y198000D02*
X351263D01*
X252000Y192000D02*
X355628D01*
X252000Y228000D02*
X348349D01*
X252000Y201000D02*
X349222D01*
X252000Y180000D02*
X365833D01*
X252000Y183000D02*
X363015D01*
X252115Y177000D02*
X368821D01*
X252000Y189000D02*
X357964D01*
X252000Y186000D02*
X360408D01*
X252000Y219000D02*
X339088D01*
X306038Y230447D02*
Y232500D01*
X252000Y216000D02*
X340524D01*
X252000Y225000D02*
X344153D01*
X252000Y222000D02*
X338005D01*
X252000Y204000D02*
X347270D01*
X252000Y207000D02*
X345409D01*
X252000Y174000D02*
X327967D01*
X252000Y213000D02*
X342040D01*
X252000Y210000D02*
X343666D01*
X248016Y408000D02*
X259970D01*
X245016Y411000D02*
X258735D01*
X242033Y417000D02*
X256224D01*
X242033Y426000D02*
X252356D01*
X242033Y414000D02*
X257486D01*
X252000Y396000D02*
X265092D01*
X252000Y399000D02*
X263770D01*
X251016Y405000D02*
X261209D01*
X252000Y402000D02*
X262476D01*
X242033Y429000D02*
X251037D01*
X242033Y413983D02*
Y419553D01*
Y432000D02*
X249569D01*
X242033Y425447D02*
Y434553D01*
X243553Y396000D02*
X247000D01*
X242033Y413983D02*
X251268Y404748D01*
X243553Y399000D02*
X247000D01*
X252000Y384000D02*
X270673D01*
X250535Y381000D02*
X272145D01*
X247535Y378000D02*
X273649D01*
X276038Y314553D02*
X283962D01*
Y305447D02*
Y314553D01*
X244535Y375000D02*
X275191D01*
X276038Y308983D02*
Y314553D01*
X252000Y393000D02*
X266442D01*
X247000Y384536D02*
Y401945D01*
X252000Y383500D02*
Y402980D01*
X243553Y393000D02*
X247000D01*
X243553Y390447D02*
Y399552D01*
X252000Y387000D02*
X269232D01*
X252000Y390000D02*
X267822D01*
X243553Y305447D02*
Y314552D01*
X234109Y425447D02*
X242033D01*
X234109Y434553D02*
X242033D01*
X232500Y423000D02*
X253659D01*
X238497Y410447D02*
X247000Y401945D01*
X234109Y410447D02*
X238497D01*
X234448Y399552D02*
X243553D01*
X232500Y420000D02*
X254948D01*
X234109Y419553D02*
X242033D01*
X233962Y425447D02*
Y434553D01*
X234109Y425447D02*
Y434553D01*
X233962Y410447D02*
Y419553D01*
X232500D02*
X233962D01*
X234109Y410447D02*
Y419553D01*
X232500Y425447D02*
X233962D01*
X232500Y419553D02*
Y425447D01*
X241535Y372000D02*
X276771D01*
X241500Y371965D02*
X251268Y381732D01*
X241500Y321500D02*
Y371965D01*
X234448Y390447D02*
X243553D01*
X237232Y374768D02*
X247000Y384536D01*
X241500Y363000D02*
X282061D01*
X241500Y314552D02*
Y321500D01*
Y314552D02*
X243553D01*
X241500Y369000D02*
X278390D01*
X241500Y366000D02*
X280122D01*
X234448Y390447D02*
Y392500D01*
Y397500D02*
Y399552D01*
X232805Y397500D02*
X234448D01*
X232805Y392500D02*
X234448D01*
X236500Y324000D02*
Y373000D01*
Y314552D02*
Y319000D01*
X234448Y314552D02*
X236500D01*
X234448Y305447D02*
Y314552D01*
X279573Y305447D02*
X283962D01*
X271214Y304159D02*
X276038Y308983D01*
X274750Y300624D02*
X279573Y305447D01*
X243553Y309000D02*
X276038D01*
X243553Y312000D02*
X276038D01*
X243553Y306000D02*
X273055D01*
X241500Y303000D02*
X269726D01*
X241500Y300000D02*
X269726D01*
X241500Y297000D02*
X246700D01*
X241500Y305447D02*
X243553D01*
X241500Y294000D02*
X247000D01*
X241500Y292000D02*
Y305447D01*
X241291Y291000D02*
X247000D01*
X238535Y288000D02*
X247000D01*
X237000Y255000D02*
X247000D01*
X237000Y252000D02*
X247000D01*
X252000Y243000D02*
X258239D01*
X252000Y246000D02*
X256745D01*
X252000Y237500D02*
Y295739D01*
X247000Y177261D02*
Y235000D01*
X252000Y177261D02*
Y232500D01*
X237255Y183000D02*
X247000D01*
X237255Y246000D02*
X247000D01*
Y235000D02*
Y295739D01*
X237000Y249000D02*
X247000D01*
X237000Y237000D02*
X247000D01*
X237000Y240000D02*
X247000D01*
X237000Y234000D02*
X247000D01*
X237000Y243000D02*
X247000D01*
X237000Y184761D02*
Y244239D01*
Y273000D02*
X247000D01*
X237000Y276000D02*
X247000D01*
X237000Y270000D02*
X247000D01*
X237000Y282000D02*
X247000D01*
X237000Y285000D02*
X247000D01*
X237000Y279000D02*
X247000D01*
X237000Y258000D02*
X247000D01*
X237000Y261000D02*
X247000D01*
X237000Y231000D02*
X247000D01*
X237000Y267000D02*
X247000D01*
X237000Y264000D02*
X247000D01*
X235364Y303000D02*
X236500D01*
X234448Y305447D02*
X236500D01*
Y293036D02*
Y305447D01*
X233090Y312000D02*
X234448D01*
X233442Y309000D02*
X234448D01*
X237000Y286465D02*
X240768Y290232D01*
X235364Y300000D02*
X236500D01*
X237000Y246761D02*
Y286465D01*
X232732Y289268D02*
X236500Y293036D01*
X237000Y198000D02*
X247000D01*
X237000Y201000D02*
X247000D01*
X237000Y195000D02*
X247000D01*
X237000Y207000D02*
X247000D01*
X237000Y204000D02*
X247000D01*
X237000Y180000D02*
X247000D01*
X237000Y186000D02*
X247000D01*
X237000Y174000D02*
X247000D01*
X237000Y192000D02*
X247000D01*
X237000Y189000D02*
X247000D01*
X237000Y219000D02*
X247000D01*
X237000Y222000D02*
X247000D01*
X237000Y216000D02*
X247000D01*
X237000Y228000D02*
X247000D01*
X237000Y225000D02*
X247000D01*
X237000Y177000D02*
X246885D01*
X237000Y213000D02*
X247000D01*
X237000Y210000D02*
X247000D01*
X392000Y102000D02*
X398333D01*
X389036Y105000D02*
X395625D01*
X388268Y105768D02*
X391768Y102268D01*
X366038Y99553D02*
X373962D01*
X392500D02*
X394533D01*
Y90447D02*
Y99553D01*
X386609D02*
X387412D01*
X392500D02*
Y100500D01*
X394533Y93000D02*
X401732D01*
X394533Y99000D02*
X400291D01*
X394533Y96000D02*
X401533D01*
X385465Y101500D02*
X387412Y99553D01*
X373962Y97500D02*
Y99553D01*
X378538Y97500D02*
Y99553D01*
X365891Y90447D02*
Y99553D01*
X366038Y90447D02*
Y99553D01*
X386462Y90447D02*
Y99553D01*
X378538D02*
X386462D01*
X386609Y90447D02*
Y99553D01*
X373962Y99000D02*
X378538D01*
X373962Y97500D02*
X378538D01*
X363962Y168000D02*
X376028D01*
X363962Y171000D02*
X374136D01*
X363962Y165447D02*
Y174553D01*
X252000Y165000D02*
X376030D01*
X356038Y165447D02*
X363962D01*
X252000Y162000D02*
X374309D01*
X252000Y144000D02*
X363488D01*
X252000Y159000D02*
X371022D01*
X252000Y156000D02*
X364583D01*
X252000Y147000D02*
X361630D01*
X252000Y153000D02*
X358327D01*
X252000Y150000D02*
X359781D01*
X252000Y120000D02*
X380254D01*
X252000Y123000D02*
X377604D01*
X252000Y117000D02*
X383089D01*
X252000Y129000D02*
X373113D01*
X252000Y126000D02*
X375265D01*
X252000Y108000D02*
X392602D01*
X258761Y106500D02*
X386500D01*
X258761Y101500D02*
X385465D01*
X252000Y114000D02*
X386085D01*
X252000Y111000D02*
X389296D01*
X252000Y135000D02*
X369160D01*
X252000Y132000D02*
X371108D01*
X252000Y141000D02*
X365356D01*
X252000Y138000D02*
X367243D01*
X357967Y99553D02*
X365891D01*
X357967Y97500D02*
Y99553D01*
Y90447D02*
Y92500D01*
X252536Y99000D02*
X357967D01*
X254035Y97500D02*
X357967D01*
X428962Y24000D02*
X439041D01*
X421038Y24553D02*
X428962D01*
X412967D02*
X420891D01*
X428962Y21000D02*
X441492D01*
X408962Y22500D02*
X412967D01*
X408962Y24000D02*
X412967D01*
X408962Y22500D02*
Y24553D01*
X412967Y22500D02*
Y24553D01*
X401038D02*
X408962D01*
X392967Y22500D02*
Y24553D01*
X428962Y15447D02*
Y24553D01*
X421038Y15447D02*
Y24553D01*
X428962Y18000D02*
X442856D01*
X421038Y15447D02*
X428962D01*
X408962D02*
Y17500D01*
X401038Y15447D02*
Y24553D01*
X420891Y15447D02*
Y24553D01*
X392967Y15447D02*
Y17500D01*
X400891Y15447D02*
Y24553D01*
X412967Y15447D02*
Y17500D01*
X408962D02*
X412967D01*
Y15447D02*
X420891D01*
X392967D02*
X400891D01*
X401038D02*
X408962D01*
X251536Y90000D02*
X400811D01*
X386609Y90447D02*
X394533D01*
X248535Y87000D02*
X397970D01*
X264651Y72000D02*
X395453D01*
X264651Y69000D02*
X397836D01*
X253445Y78000D02*
X390736D01*
X256445Y75000D02*
X393086D01*
X373962Y92500D02*
X378538D01*
X373962Y90447D02*
Y92500D01*
X378538Y90447D02*
Y92500D01*
X254035D02*
X357967D01*
Y90447D02*
X365891D01*
X378538D02*
X386462D01*
X366038D02*
X373962D01*
X245535Y84000D02*
X388364D01*
X234000Y81000D02*
X388462D01*
X241962Y42000D02*
X420762D01*
X243325Y51000D02*
X412701D01*
X241962Y39000D02*
X423631D01*
X240500Y48000D02*
X415330D01*
X240500Y45000D02*
X418006D01*
X249126Y30000D02*
X432949D01*
X246261Y33000D02*
X429731D01*
X252126Y27000D02*
X436062D01*
X242535Y36000D02*
X426618D01*
X243553Y15000D02*
X442770D01*
X264651Y60000D02*
X405098D01*
X264651Y57000D02*
X407587D01*
X264651Y66000D02*
X400236D01*
X264651Y63000D02*
X402654D01*
X392967Y24553D02*
X400891D01*
X256626Y22500D02*
X392967D01*
X255591Y17500D02*
X392967D01*
X244281Y54000D02*
X410121D01*
X255126Y24000D02*
X392967D01*
X355891Y165447D02*
Y174553D01*
X347967Y172500D02*
Y174553D01*
X356038Y165447D02*
Y174553D01*
X343962Y172500D02*
X347967D01*
X343962D02*
Y174553D01*
X336038Y165447D02*
Y174553D01*
X347967Y165447D02*
Y167500D01*
X343962D02*
X347967D01*
Y165447D02*
X355891D01*
X336038D02*
X343962D01*
Y167500D01*
X327967Y172500D02*
Y174553D01*
X260761Y172500D02*
X327967D01*
X335891Y165447D02*
Y174553D01*
X252000Y171000D02*
X256885D01*
X327967Y165447D02*
Y167500D01*
X260761D02*
X327967D01*
Y165447D02*
X335891D01*
X252000Y168000D02*
X257540D01*
X252000Y105000D02*
X254885D01*
X252000Y102000D02*
X255540D01*
X252159Y99376D02*
X254035Y97500D01*
X244768Y83232D02*
X254035Y92500D01*
X258884Y72561D02*
X264651D01*
X253449Y77996D02*
X258884Y72561D01*
X264651Y64884D02*
Y72561D01*
X250646Y73728D02*
X255349Y69025D01*
X252000Y99761D02*
Y174739D01*
X247000Y99761D02*
Y174739D01*
X248624Y95841D02*
X249465Y95000D01*
X241965Y87500D02*
X249465Y95000D01*
X244155Y78728D02*
X251681D01*
X244155Y73728D02*
X250646D01*
X239000Y67500D02*
Y73337D01*
X237000Y129000D02*
X247000D01*
X237000Y132000D02*
X247000D01*
X237000Y126000D02*
X247000D01*
X237000Y138000D02*
X247000D01*
X237000Y141000D02*
X247000D01*
X237000Y135000D02*
X247000D01*
X237000Y114000D02*
X247000D01*
X237000Y117000D02*
X247000D01*
X237000Y111000D02*
X247000D01*
X237000Y123000D02*
X247000D01*
X237000Y120000D02*
X247000D01*
X237000Y162000D02*
X247000D01*
X237000Y165000D02*
X247000D01*
X237000Y159000D02*
X247000D01*
X237000Y171000D02*
X247000D01*
X237000Y168000D02*
X247000D01*
X237000Y147000D02*
X247000D01*
X237000Y150000D02*
X247000D01*
X237000Y144000D02*
X247000D01*
X237000Y156000D02*
X247000D01*
X237000Y153000D02*
X247000D01*
X237115Y105000D02*
X247000D01*
X237000Y99000D02*
X246745D01*
X237000Y96000D02*
X248239D01*
X237000Y108000D02*
X247000D01*
X237000Y102000D02*
X247000D01*
X238255Y90000D02*
X244464D01*
X237000Y93000D02*
X247464D01*
X234000Y82500D02*
X243000D01*
X237000Y92864D02*
Y102739D01*
Y105261D02*
Y182239D01*
X234000Y79120D02*
Y82500D01*
Y68536D02*
Y73337D01*
X232536Y87500D02*
X241965D01*
X255349Y56762D02*
Y64439D01*
X264651Y56762D02*
Y64439D01*
X255349Y64884D02*
Y69025D01*
X242761Y66000D02*
X255349D01*
X244255Y63000D02*
X255349D01*
Y56762D02*
X264651D01*
X244000Y60000D02*
X255349D01*
X244225Y57000D02*
X255349D01*
X242598Y72000D02*
X252374D01*
X239000Y57663D02*
Y62239D01*
Y72000D02*
X240402D01*
X239000Y69000D02*
X255349D01*
X244000Y57663D02*
Y62239D01*
X244281Y53098D02*
Y56445D01*
X239000Y51035D02*
Y51880D01*
X239036Y51000D02*
X239675D01*
X247609Y31517D02*
X256626Y22500D01*
X244254Y27801D02*
X253823Y18232D01*
X241962Y36573D02*
X245246Y33289D01*
X243553Y18000D02*
X254090D01*
X239447Y24000D02*
X248055D01*
X243553Y21000D02*
X251055D01*
X240500Y42143D02*
Y48500D01*
Y42143D02*
X241962D01*
X239000Y51035D02*
X239768Y50268D01*
X241962Y36573D02*
Y42143D01*
X243553Y12947D02*
Y22053D01*
X239447D02*
Y24053D01*
Y22053D02*
X243553D01*
X238500Y66000D02*
X240239D01*
X235536Y63000D02*
X238745D01*
X234000Y61465D02*
X238268Y65732D01*
X234038Y42143D02*
X235500D01*
X234000Y45000D02*
X235500D01*
Y42143D02*
Y47464D01*
X234000Y60000D02*
X239000D01*
X234000Y50000D02*
Y51880D01*
Y50000D02*
Y51880D01*
Y39161D02*
Y50000D01*
X232598Y72000D02*
X234000D01*
Y57663D02*
Y61465D01*
Y48000D02*
X234964D01*
X234732Y48232D02*
X235500Y47464D01*
X234536Y30000D02*
X241464D01*
X234038Y33038D02*
X238427D01*
X242617Y28847D01*
X233000Y33000D02*
X238464D01*
X233000Y31536D02*
X238715Y25820D01*
X237536Y27000D02*
X245055D01*
X234447Y12947D02*
Y19553D01*
Y12947D02*
X243553D01*
X233891Y33038D02*
Y38432D01*
X234038Y33038D02*
Y42143D01*
X233000Y33038D02*
X233891D01*
X233000Y31536D02*
Y33038D01*
X234447Y19553D02*
Y22053D01*
Y23017D01*
Y19553D02*
Y22053D01*
X233525Y18000D02*
X234447D01*
X232805Y15000D02*
X234447D01*
X222576Y438000D02*
X245845D01*
X225213Y441000D02*
X242848D01*
X220737Y435000D02*
X247849D01*
X226038Y434553D02*
X233962D01*
X226038Y419553D02*
X227500D01*
Y425447D01*
X214762Y423000D02*
X227500D01*
X213402Y420000D02*
X227500D01*
X226038Y425447D02*
Y434553D01*
X219124Y432000D02*
X226038D01*
Y425447D02*
X227500D01*
X217605Y429000D02*
X226038D01*
Y410447D02*
Y419553D01*
X216162Y426000D02*
X226038D01*
X231174Y399000D02*
X234448D01*
X231175Y306000D02*
X234448D01*
X226038Y410447D02*
X233962D01*
X232035Y297000D02*
X236500D01*
X229035Y294000D02*
X236500D01*
X226035Y291000D02*
X234465D01*
X222000Y286965D02*
X233876Y298841D01*
X214535Y306000D02*
X226825D01*
X217535Y303000D02*
X230636D01*
X220761Y300000D02*
X227964D01*
X222255Y297000D02*
X224964D01*
X217732Y289768D02*
X230341Y302376D01*
X206940Y405000D02*
X243945D01*
X208216Y408000D02*
X240945D01*
X205672Y402000D02*
X246945D01*
X199124Y387000D02*
X247000D01*
X200496Y390000D02*
X247000D01*
X197717Y384000D02*
X246464D01*
X196274Y381000D02*
X243464D01*
X194755Y378000D02*
X240464D01*
X193143Y375000D02*
X237464D01*
X183676Y360000D02*
X236500D01*
X181515Y357000D02*
X236500D01*
X210787Y414000D02*
X226038D01*
X212083Y417000D02*
X226038D01*
X209498Y411000D02*
X226038D01*
X204411Y399000D02*
X226827D01*
X203139Y396000D02*
X224559D01*
X191436Y372000D02*
X236500D01*
X201834Y393000D02*
X224910D01*
X189629Y369000D02*
X236500D01*
X187729Y366000D02*
X236500D01*
X185746Y363000D02*
X236500D01*
X165319Y336000D02*
X236500D01*
X167697Y339000D02*
X236500D01*
X162946Y333000D02*
X236500D01*
X160591Y330000D02*
X236500D01*
X158255Y327000D02*
X236500D01*
X171945Y319000D02*
X236500D01*
X170909Y324000D02*
X236500D01*
X170945Y318000D02*
X236500D01*
X170909Y324000D02*
X236500D01*
X167945Y315000D02*
X236500D01*
X176998Y351000D02*
X236500D01*
X179270Y354000D02*
X236500D01*
X174705Y348000D02*
X236500D01*
X172390Y345000D02*
X236500D01*
X170055Y342000D02*
X236500D01*
X208500Y312000D02*
X224910D01*
X211536Y309000D02*
X224559D01*
X208768Y311768D02*
X220376Y300159D01*
X153919Y294000D02*
X221965D01*
X152238Y291000D02*
X218965D01*
X232000Y246761D02*
Y287500D01*
X223036Y288000D02*
X232050D01*
X222000Y258000D02*
X232000D01*
X222000Y255000D02*
X232000D01*
X222000Y213000D02*
X232000D01*
X222000Y210000D02*
X232000D01*
X222000Y219000D02*
X232000D01*
X222000Y216000D02*
X232000D01*
X222000Y279000D02*
X232000D01*
X222000Y282000D02*
X232000D01*
X222000Y276000D02*
X232000D01*
X222000Y285000D02*
X232000D01*
X222000Y235000D02*
Y286965D01*
Y264000D02*
X232000D01*
X222000Y267000D02*
X232000D01*
X222000Y261000D02*
X232000D01*
X222000Y273000D02*
X232000D01*
X222000Y270000D02*
X232000D01*
X222500Y186000D02*
X232000D01*
X222500Y189000D02*
X232000D01*
Y184761D02*
Y244239D01*
X222000Y195000D02*
X232000D01*
X222500Y192000D02*
X232000D01*
X222500Y174000D02*
X232000D01*
X222615Y171000D02*
X232000D01*
X222500Y180000D02*
X232000D01*
X222500Y177000D02*
X232000D01*
X222000Y198000D02*
X232000D01*
X222000Y201000D02*
X232000D01*
X222000Y207000D02*
X232000D01*
X222000Y204000D02*
X232000D01*
X222500Y183000D02*
X231745D01*
X222500Y171261D02*
Y193081D01*
X222000Y240000D02*
X232000D01*
X222000Y243000D02*
X232000D01*
X222000Y237000D02*
X232000D01*
X222000Y249000D02*
X232000D01*
X222000Y252000D02*
X232000D01*
X222000Y246000D02*
X231745D01*
X222000Y225000D02*
X232000D01*
X222000Y228000D02*
X232000D01*
X222000Y222000D02*
X232000D01*
X222000Y234000D02*
X232000D01*
X222000Y231000D02*
X232000D01*
X217000Y237500D02*
Y288000D01*
X150530D02*
X217000D01*
X145234Y279000D02*
X217000D01*
X158962Y237500D02*
X217000D01*
X126622Y252000D02*
X217000D01*
X130474Y222000D02*
X217000D01*
X119738Y228000D02*
X217000D01*
X124293Y225000D02*
X217000D01*
X222000Y194581D02*
Y235000D01*
X215261Y186000D02*
X217500D01*
Y171261D02*
Y192081D01*
X112718Y192000D02*
X217500D01*
X110422Y189000D02*
X217500D01*
X214615Y177000D02*
X217500D01*
X216755Y183000D02*
X217500D01*
X119035Y180000D02*
X217500D01*
X213960Y174000D02*
X217500D01*
X127531Y216000D02*
X217000D01*
X129025Y219000D02*
X217000D01*
X125995Y213000D02*
X217000D01*
X124410Y210000D02*
X217000D01*
X122721Y207000D02*
X217000D01*
X210536Y171000D02*
X217385D01*
X120923Y204000D02*
X217000D01*
X119011Y201000D02*
X217000D01*
X176038Y314553D02*
X183962D01*
X192033Y312500D02*
X207000D01*
X192033D02*
Y314553D01*
X184109D02*
X192033D01*
X172033Y312500D02*
X176038D01*
X160427Y314553D02*
X169142Y323268D01*
X155936Y324000D02*
X170909D01*
X153635Y321000D02*
X166874D01*
X172033Y312500D02*
Y314553D01*
X167498D02*
X172033D01*
X176038Y312500D02*
Y314553D01*
X156038D02*
X160427D01*
X167498D02*
X171945Y319000D01*
X184109Y305447D02*
Y314553D01*
X192033Y305447D02*
Y307500D01*
X176038Y305447D02*
Y307500D01*
X183962Y305447D02*
Y314553D01*
X192033Y306000D02*
X207465D01*
X192033Y307500D02*
X205964D01*
X216841Y296624D01*
X176038Y305447D02*
X183962D01*
X184109D02*
X192033D01*
X172033Y307500D02*
X176038D01*
X164109Y305447D02*
Y311164D01*
X172033Y305447D02*
Y307500D01*
X156038Y305447D02*
Y314553D01*
X163962Y305447D02*
Y311017D01*
X172033Y306000D02*
X176038D01*
X164109Y305447D02*
X172033D01*
X158962Y237500D02*
Y239553D01*
X156038Y305447D02*
X163962D01*
X151361Y318000D02*
X163874D01*
X149325Y315000D02*
X160874D01*
X145690Y306000D02*
X156038D01*
X146169Y309000D02*
X156038D01*
X146249Y303000D02*
X210465D01*
X153141Y297000D02*
X216464D01*
X148667Y300000D02*
X213464D01*
X148794Y285000D02*
X217000D01*
X147028Y282000D02*
X217000D01*
X143395Y276000D02*
X217000D01*
X147577Y312000D02*
X156038D01*
X137561Y267000D02*
X217000D01*
X139560Y270000D02*
X217000D01*
X135506Y264000D02*
X217000D01*
X133389Y261000D02*
X217000D01*
X131204Y258000D02*
X217000D01*
X124218Y249000D02*
X217000D01*
X128950Y255000D02*
X217000D01*
X121833Y246000D02*
X217000D01*
X119573Y243000D02*
X217000D01*
X117475Y240000D02*
X217000D01*
X141505Y273000D02*
X217000D01*
X138962Y237500D02*
Y239553D01*
X131038D02*
X138962D01*
X151038Y230447D02*
Y239553D01*
X122967Y230447D02*
Y239553D01*
X151038D02*
X158962D01*
X150891Y230447D02*
Y239553D01*
X158962Y230447D02*
Y232500D01*
X142967Y239553D02*
X150891D01*
X138962Y232500D02*
X142967D01*
Y230447D02*
Y232500D01*
X158962Y231000D02*
X217000D01*
X158962Y232500D02*
X217000D01*
X151038Y230447D02*
X158962D01*
X138962Y231000D02*
X142967D01*
Y230447D02*
X150891D01*
X142967Y237500D02*
Y239553D01*
X138962Y237500D02*
X142967D01*
X131038Y230447D02*
Y239553D01*
X130891Y230447D02*
Y239553D01*
X138962Y230447D02*
Y232500D01*
X131038Y230447D02*
X138962D01*
X217000Y193581D02*
Y232500D01*
X204964Y172500D02*
X209341Y176876D01*
X143962Y174000D02*
X206465D01*
X143962Y172500D02*
X204964D01*
X136038Y174553D02*
X143962D01*
Y172500D02*
Y174553D01*
X127967D02*
X135891D01*
X123962Y172500D02*
X127967D01*
Y174553D01*
X123962Y174000D02*
X127967D01*
X123962Y172500D02*
Y174553D01*
X122967Y230447D02*
X130891D01*
X122967Y239553D02*
X130891D01*
X117292Y231000D02*
X122967D01*
X119000Y186000D02*
X212739D01*
X119000D02*
X212739D01*
X117007Y198000D02*
X217000D01*
X114910Y195000D02*
X217000D01*
X115936Y234000D02*
X122967D01*
X115663Y237000D02*
X122967D01*
X108010Y186000D02*
X119000D01*
X105477Y183000D02*
X114964D01*
X120036Y181000D02*
X212739D01*
X110161Y178197D02*
X117232Y185268D01*
X114429Y175394D02*
X120036Y181000D01*
X102717Y180000D02*
X111964D01*
X116035Y177000D02*
X209385D01*
X114429Y174553D02*
X115891D01*
X116038D02*
X123962D01*
X114429D02*
Y175394D01*
X99568Y177000D02*
X109495D01*
X109429Y174553D02*
Y176429D01*
X107967Y174553D02*
X109429D01*
X96226Y174000D02*
X107967D01*
X93634Y171000D02*
X107967D01*
X222500Y126000D02*
X232000D01*
X222500Y129000D02*
X232000D01*
X222500Y123000D02*
X232000D01*
X222500Y135000D02*
X232000D01*
X222500Y138000D02*
X232000D01*
X222500Y132000D02*
X232000D01*
X222500Y111000D02*
X232000D01*
X222500Y114000D02*
X232000D01*
X222500Y108000D02*
X232000D01*
X222500Y120000D02*
X232000D01*
X222500Y117000D02*
X232000D01*
X222500Y159000D02*
X232000D01*
X222500Y162000D02*
X232000D01*
X222500Y156000D02*
X232000D01*
X222500Y168000D02*
X232000D01*
X222500Y165000D02*
X232000D01*
X222500Y144000D02*
X232000D01*
X222500Y147000D02*
X232000D01*
X222500Y141000D02*
X232000D01*
X222500Y153000D02*
X232000D01*
X222500Y150000D02*
X232000D01*
Y105261D02*
Y182239D01*
Y91662D02*
Y102739D01*
X222500Y102000D02*
X232000D01*
X222755Y99000D02*
X232000D01*
X230768Y89268D02*
X232536Y87500D01*
X221261Y96000D02*
X232000D01*
X229000Y90000D02*
X232633D01*
X222500Y105000D02*
X231885D01*
X222500Y99761D02*
Y168739D01*
X218268Y93232D02*
X220876Y95841D01*
X229000Y79120D02*
Y83965D01*
X227964Y85000D02*
X229000Y83965D01*
X101320Y138000D02*
X217500D01*
X103186Y141000D02*
X217500D01*
X99322Y135000D02*
X217500D01*
X94903Y129000D02*
X217500D01*
X97184Y132000D02*
X217500D01*
X92494Y126000D02*
X217500D01*
X87281Y120000D02*
X217500D01*
X89950Y123000D02*
X217500D01*
X84535Y117000D02*
X217500D01*
X81710Y114000D02*
X217500D01*
X78817Y111000D02*
X217500D01*
X207500Y168000D02*
X217500D01*
X207768Y168232D02*
X212876Y173341D01*
X97008Y159000D02*
X217500D01*
X92714Y165000D02*
X217500D01*
X94135Y162000D02*
X217500D01*
X108062Y150000D02*
X217500D01*
X109579Y153000D02*
X217500D01*
X106538Y147000D02*
X217500D01*
X103059Y156000D02*
X217500D01*
X104923Y144000D02*
X217500D01*
X218000Y93000D02*
X232000D01*
X217500Y99761D02*
Y168739D01*
X70447Y102000D02*
X217500D01*
X211500Y90000D02*
X229000D01*
X212536Y85000D02*
X227964D01*
X211536Y84000D02*
X228964D01*
X211500Y90000D02*
X229000D01*
X208536Y81000D02*
X229000D01*
X112033Y99000D02*
X216965D01*
X112033Y97500D02*
X215464D01*
X217341Y99376D01*
X75943Y108000D02*
X217500D01*
X73107Y105000D02*
X217500D01*
X208500Y80964D02*
X212536Y85000D01*
X112033Y92500D02*
X216500D01*
X67691Y90000D02*
X211500D01*
X229732Y64268D02*
X234000Y68536D01*
X226536Y69000D02*
X234000D01*
X228949Y72000D02*
X230402D01*
X223535Y66000D02*
X231465D01*
X229000Y57663D02*
Y62500D01*
X220535Y63000D02*
X229050D01*
X217535Y60000D02*
X229000D01*
Y72500D02*
Y73337D01*
X219467Y79385D02*
X224148D01*
X219001Y74385D02*
X223724D01*
X223719Y53098D02*
Y56445D01*
X228325Y51000D02*
X229000D01*
Y42143D02*
Y51880D01*
X220460Y48000D02*
X229000D01*
X221115Y45000D02*
X229000D01*
X231912Y21000D02*
X234447D01*
X228732Y28732D02*
X234447Y23017D01*
X225967Y42143D02*
X229000D01*
X225967Y33038D02*
X228000D01*
X225967D02*
Y42143D01*
X228000Y30500D02*
Y33038D01*
X218036Y42000D02*
X225967D01*
X212965Y62500D02*
X223938Y73473D01*
X215768Y58232D02*
X228268Y70732D01*
X208500Y75000D02*
X216040D01*
X208500Y78000D02*
X215385D01*
X210553Y72000D02*
X222464D01*
X210553Y57000D02*
X223775D01*
X210553Y69000D02*
X219464D01*
X210553Y66000D02*
X216464D01*
X210553Y64109D02*
Y72033D01*
X208500D02*
X210553D01*
Y62500D02*
Y63962D01*
X201447Y64109D02*
X210553D01*
X201447Y63962D02*
X210553D01*
Y57500D02*
X214000D01*
X210553Y62500D02*
X212965D01*
X210553Y56038D02*
Y57500D01*
Y63000D02*
X213464D01*
X208500Y56038D02*
X210553D01*
X212035Y36000D02*
X225967D01*
X215036Y39000D02*
X225967D01*
X209035Y33000D02*
X228000D01*
X206035Y30000D02*
X228050D01*
X203035Y27000D02*
X230465D01*
X200036Y24000D02*
X233465D01*
X197036Y21000D02*
X226088D01*
X31944Y6211D02*
X434715D01*
X26604Y12000D02*
X441258D01*
X28363Y9000D02*
X438844D01*
X208500Y51000D02*
X224675D01*
X208500Y54000D02*
X223719D01*
X208291Y48000D02*
X216540D01*
X191464Y22500D02*
X215841Y46876D01*
X205536Y45000D02*
X213965D01*
X202536Y42000D02*
X210964D01*
X194268Y18232D02*
X219376Y43341D01*
X194000Y18000D02*
X224475D01*
X25425Y15000D02*
X225195D01*
X136038Y165447D02*
Y174553D01*
X123962Y167500D02*
X127967D01*
X123962Y165447D02*
Y167500D01*
X135891Y165447D02*
Y174553D01*
X143962Y167500D02*
X206000D01*
X136038Y165447D02*
X143962D01*
Y167500D01*
X127967Y165447D02*
Y167500D01*
Y165447D02*
X135891D01*
X115891D02*
Y174553D01*
X107967Y165447D02*
Y174553D01*
X116038Y165447D02*
Y174553D01*
X92573Y168000D02*
X107967D01*
X116038Y165447D02*
X123962D01*
X107967D02*
X115891D01*
X112033Y97500D02*
Y99553D01*
X107049Y147997D02*
X110404Y154631D01*
X112033Y90447D02*
Y92500D01*
X104109Y99553D02*
X112033D01*
X104109Y90447D02*
X112033D01*
X204232Y83768D02*
X209732Y89268D01*
X203500Y72033D02*
Y82000D01*
X208500Y72033D02*
Y80964D01*
X105256Y155501D02*
X110404Y154631D01*
X96038Y97500D02*
Y99553D01*
X103962Y90447D02*
Y99553D01*
X96038Y90447D02*
X103962D01*
X104109D02*
Y99553D01*
X96038D02*
X103962D01*
X96038Y90447D02*
Y92500D01*
X84109Y99553D02*
X92033D01*
Y97500D02*
Y99553D01*
X76038D02*
X83962D01*
X92033Y97500D02*
X96038D01*
X92033Y99000D02*
X96038D01*
X92033Y92500D02*
X96038D01*
X76038Y90447D02*
X83962D01*
X68277Y99000D02*
X76038D01*
X67034Y96000D02*
X76038D01*
X66869Y93000D02*
X76038D01*
X84109Y90447D02*
X92033D01*
X84109D02*
Y99553D01*
X92033Y90447D02*
Y92500D01*
X83962Y90447D02*
Y99553D01*
X70346Y87000D02*
X207465D01*
X79649Y84000D02*
X204465D01*
X78403Y81000D02*
X203500D01*
X76400Y78000D02*
X203500D01*
X74361Y75000D02*
X203500D01*
X76038Y90447D02*
Y99553D01*
X203500Y50036D02*
Y56038D01*
X201447D02*
X203500D01*
X208500Y49000D02*
Y56038D01*
X58403Y54000D02*
X203500D01*
X201447Y72033D02*
X203500D01*
X55816Y51000D02*
X203500D01*
X199536Y39000D02*
X207964D01*
X196536Y36000D02*
X204964D01*
X186964Y33500D02*
X203500Y50036D01*
X70133Y69000D02*
X201447D01*
X72278Y72000D02*
X201447D01*
Y64109D02*
Y72033D01*
X67923Y66000D02*
X201447D01*
X63305Y60000D02*
X201447D01*
X65647Y63000D02*
X201447D01*
Y56038D02*
Y63962D01*
X60895Y57000D02*
X201447D01*
X193535Y33000D02*
X201964D01*
X190535Y30000D02*
X198965D01*
X189768Y29232D02*
X207768Y47232D01*
X73962Y17500D02*
X192500D01*
X73962Y24000D02*
X192964D01*
X73962Y22500D02*
X191464D01*
X66038Y24553D02*
X73962D01*
X65891Y15447D02*
Y24553D01*
X66038Y15447D02*
Y24553D01*
X57967D02*
X65891D01*
X57967Y22500D02*
Y24553D01*
X66038Y15447D02*
X73962D01*
Y22500D02*
Y24553D01*
Y15447D02*
Y17500D01*
X57967Y15447D02*
Y17500D01*
Y15447D02*
X65891D01*
X53135Y48000D02*
X201465D01*
X50383Y45000D02*
X198465D01*
X47564Y42000D02*
X195465D01*
X44675Y39000D02*
X192464D01*
X41716Y36000D02*
X189464D01*
X49536Y28500D02*
X188000D01*
X48500Y33500D02*
X186964D01*
X48035Y27000D02*
X195965D01*
X45653Y24617D02*
X49536Y28500D01*
X46038Y24553D02*
X53962D01*
X38684Y33000D02*
X47000D01*
X41385Y27420D02*
X46732Y32768D01*
X35566Y30000D02*
X43964D01*
X32343Y27000D02*
X41047D01*
X53962Y24000D02*
X57967D01*
X53962Y22500D02*
Y24553D01*
X46038Y15447D02*
Y24553D01*
X40653D02*
Y25653D01*
X45891Y15447D02*
Y24553D01*
X53962Y17500D02*
X57967D01*
X53962Y22500D02*
X57967D01*
X53962Y15447D02*
Y17500D01*
X37967Y15447D02*
X45891D01*
X46038D02*
X53962D01*
X37967Y24553D02*
X40653D01*
X29090Y24000D02*
X37967D01*
Y15447D02*
Y24553D01*
X26342Y21000D02*
X37967D01*
X25106Y18000D02*
X37967D01*
D25*
X241500Y76228D02*
D03*
X236500D02*
D03*
X231500D02*
D03*
X226500D02*
D03*
X241500Y54772D02*
D03*
X236500D02*
D03*
X231500D02*
D03*
X226500D02*
D03*
D26*
X229929Y37591D02*
D03*
X238000D02*
D03*
X238071Y415000D02*
D03*
X230000D02*
D03*
Y430000D02*
D03*
X238071D02*
D03*
X70000Y20000D02*
D03*
X61929D02*
D03*
X396929D02*
D03*
X405000D02*
D03*
X41929D02*
D03*
X50000D02*
D03*
X416929D02*
D03*
X425000D02*
D03*
X361929Y95000D02*
D03*
X370000D02*
D03*
X108071D02*
D03*
X100000D02*
D03*
X390571D02*
D03*
X382500D02*
D03*
X88071D02*
D03*
X80000D02*
D03*
X140000Y170000D02*
D03*
X131929D02*
D03*
X331929D02*
D03*
X340000D02*
D03*
X111929D02*
D03*
X120000D02*
D03*
X351929D02*
D03*
X360000D02*
D03*
X310000Y235000D02*
D03*
X318071D02*
D03*
X155000D02*
D03*
X146929D02*
D03*
X338071D02*
D03*
X330000D02*
D03*
X135000D02*
D03*
X126929D02*
D03*
X188071Y310000D02*
D03*
X180000D02*
D03*
X280000D02*
D03*
X288071D02*
D03*
X160000D02*
D03*
X168071D02*
D03*
X300000D02*
D03*
X308071D02*
D03*
D27*
X260000Y68500D02*
D03*
Y60823D02*
D03*
D28*
X206000Y60000D02*
D03*
Y68071D02*
D03*
D29*
X308071Y310000D02*
X311433D01*
X308071Y306047D02*
Y310000D01*
Y313953D01*
X304709Y310000D02*
X308071D01*
X238071Y430000D02*
X241433D01*
X238071D02*
Y433953D01*
X234709Y430000D02*
X238071D01*
Y426047D02*
Y430000D01*
X360000Y170000D02*
X363362D01*
X360000D02*
Y173953D01*
Y166047D02*
Y170000D01*
X356638D02*
X360000D01*
X425000Y20000D02*
Y23953D01*
Y20000D02*
X428362D01*
X421638D02*
X425000D01*
Y16047D02*
Y20000D01*
X255949Y60823D02*
X260000D01*
X264051D01*
X260000Y57362D02*
Y60823D01*
X229000Y310000D02*
X232953D01*
X229000D02*
Y313952D01*
X225048Y310000D02*
X229000D01*
Y306047D02*
Y310000D01*
X126929Y235000D02*
Y238953D01*
Y235000D02*
X130291D01*
X126929Y231047D02*
Y235000D01*
X123567D02*
X126929D01*
X226500Y54772D02*
Y58626D01*
Y50917D02*
Y54772D01*
X224319D02*
X226500D01*
X229000Y17500D02*
X232953D01*
X229000D02*
Y21453D01*
Y13547D02*
Y17500D01*
X225047D02*
X229000D01*
X80000Y95000D02*
X83362D01*
X80000D02*
Y98953D01*
X76638Y95000D02*
X80000D01*
Y91047D02*
Y95000D01*
D30*
X238000Y37000D02*
X244385Y30615D01*
X244885D02*
X245000Y30500D01*
Y30591D02*
X255591Y20000D01*
X238000Y37000D02*
Y37591D01*
X244385Y30615D02*
X244885D01*
X50000Y20000D02*
X61929D01*
X120000Y170000D02*
X131929D01*
X168071Y310000D02*
X180000D01*
X318071Y235000D02*
X330000D01*
X370000Y95000D02*
X382500D01*
X231500Y85000D02*
X243000D01*
X253000Y95000D01*
X236500Y67500D02*
Y76228D01*
X231500Y54772D02*
Y62500D01*
X236500Y67500D01*
X229000Y395000D02*
X239000D01*
X340000Y170000D02*
X351929D01*
X288071Y310000D02*
X300000D01*
X188000Y31000D02*
X206000Y49000D01*
Y60000D01*
X48500Y31000D02*
X188000D01*
X43153Y25653D02*
X48500Y31000D01*
X41317Y19388D02*
X42541Y20612D01*
X43153Y21224D02*
Y25653D01*
X234500Y104000D02*
Y183500D01*
Y91662D02*
Y104000D01*
X257500D02*
X386500D01*
X234500Y183500D02*
Y245500D01*
X249500Y98500D02*
Y176000D01*
X220000Y98500D02*
Y170000D01*
X108071Y95000D02*
X216500D01*
X235500Y90500D02*
Y90662D01*
X216500Y95000D02*
X220000Y98500D01*
X234500Y91662D02*
X235500Y90662D01*
X249500Y176000D02*
Y235000D01*
X386500Y104000D02*
X390000Y100500D01*
Y95000D02*
Y100500D01*
X119000Y183500D02*
X214000D01*
X111929Y176429D02*
X119000Y183500D01*
X111929Y170000D02*
Y176429D01*
X234500Y245500D02*
Y287500D01*
X259500Y245500D02*
X335000D01*
X338071Y242429D01*
Y235000D02*
Y242429D01*
X234500Y287500D02*
X239000Y292000D01*
Y310000D01*
Y321500D02*
Y373000D01*
Y310000D02*
Y321500D01*
X160000Y310000D02*
Y310591D01*
X170909Y321500D01*
X239000D01*
X230000Y415000D02*
Y430000D01*
X238071Y414409D02*
X249500Y402980D01*
X238071Y414409D02*
Y415000D01*
X249500Y383500D02*
Y402980D01*
X239000Y373000D02*
X249500Y383500D01*
X219500Y235000D02*
Y288000D01*
Y193581D02*
Y235000D01*
X155000D02*
X219500D01*
X135000D02*
X146929D01*
X249500D02*
Y297000D01*
Y235000D02*
X310000D01*
X206000Y170000D02*
X212000Y176000D01*
X140000Y170000D02*
X206000D01*
X220000D02*
Y193081D01*
X259500Y170000D02*
X331929D01*
X249500Y98500D02*
X253000Y95000D01*
X361929D01*
X88071D02*
X100000D01*
X219500Y193581D02*
X220000Y193081D01*
X219500Y288000D02*
X233000Y301500D01*
X272091D02*
X280000Y309409D01*
Y310000D01*
X226500Y76228D02*
Y76626D01*
X226240Y76885D02*
X226500Y76626D01*
X218115Y76885D02*
X226240D01*
X218000Y77000D02*
X218115Y76885D01*
X241500Y54772D02*
Y63500D01*
X214000Y60000D02*
X226500Y72500D01*
X206000Y60000D02*
X214000D01*
X226500Y72500D02*
Y76228D01*
X241392Y54879D02*
X241500Y54772D01*
X238000Y37000D02*
X239462Y35538D01*
X238000Y37000D02*
Y37591D01*
X236500Y50000D02*
X238000Y48500D01*
Y37591D02*
Y48500D01*
X255591Y20000D02*
X396929D01*
X236500Y50000D02*
Y54772D01*
X241500Y76228D02*
X251681D01*
X259409Y68500D02*
X260000D01*
X251681Y76228D02*
X259409Y68500D01*
X231500Y76228D02*
Y85000D01*
X229000Y87500D02*
X231500Y85000D01*
X211500Y87500D02*
X229000D01*
X206000Y82000D02*
X211500Y87500D01*
X206000Y68071D02*
Y82000D01*
X188071Y310000D02*
X207000D01*
X219500Y297500D01*
X192500Y20000D02*
X218500Y46000D01*
X70000Y20000D02*
X192500D01*
X229929Y37000D02*
X230500Y36429D01*
Y30500D02*
Y36429D01*
X236947Y19553D02*
Y24053D01*
X230500Y30500D02*
X236947Y24053D01*
Y19553D02*
X239000Y17500D01*
X229929Y37591D02*
X231500Y39161D01*
Y54772D01*
X229929Y37000D02*
Y37591D01*
X405000Y20000D02*
X416929D01*
D31*
X239000Y395000D02*
D03*
Y310000D02*
D03*
X239000Y17500D02*
D03*
D32*
X229000Y395000D02*
D03*
Y310000D02*
D03*
X229000Y17500D02*
D03*
D33*
X245000Y30500D02*
D03*
X234500Y104000D02*
D03*
X257500D02*
D03*
X220000Y98500D02*
D03*
X234500Y183500D02*
D03*
X214000D02*
D03*
X234500Y245500D02*
D03*
X259500D02*
D03*
X235500Y90500D02*
D03*
X272091Y301500D02*
D03*
X233000D02*
D03*
X249500Y176000D02*
D03*
X212000D02*
D03*
X220000Y170000D02*
D03*
X259500D02*
D03*
X218000Y77000D02*
D03*
X241500Y63500D02*
D03*
X249500Y98500D02*
D03*
X219500Y297500D02*
D03*
X249500Y297000D02*
D03*
X218500Y46000D02*
D03*
M02*
